<svg width="267" height="316" viewBox="0 0 267 316" fill="none" xmlns="http://www.w3.org/2000/svg">
<path fill-rule="evenodd" clip-rule="evenodd" d="M110.369 197.464C110.286 199.104 110.115 200.854 109.842 202.663L110.831 202.812C111.109 200.97 111.283 199.187 111.368 197.515L110.369 197.464ZM110.011 189.696C110.149 190.44 110.258 191.301 110.33 192.258L111.327 192.183C111.253 191.197 111.14 190.3 110.995 189.514L110.011 189.696ZM108.81 207.783C108.386 209.449 107.87 211.12 107.25 212.762L108.185 213.115C108.819 211.436 109.347 209.728 109.779 208.029L108.81 207.783ZM105.099 217.501C104.272 219.03 103.334 220.492 102.275 221.852L103.064 222.466C104.161 221.058 105.128 219.549 105.978 217.976L105.099 217.501ZM98.7173 225.595C98.0656 226.151 97.3814 226.674 96.6635 227.158C95.9916 227.611 95.2849 228.032 94.5476 228.422L95.0152 229.306C95.7822 228.901 96.5196 228.461 97.2227 227.987C97.9729 227.481 98.687 226.936 99.3664 226.356L98.7173 225.595ZM89.9742 230.333C88.431 230.832 86.8125 231.229 85.1446 231.528L85.3211 232.512C87.0293 232.206 88.6919 231.798 90.2819 231.284L89.9742 230.333ZM80.191 232.124C78.5381 232.233 76.8651 232.256 75.1946 232.199L75.1603 233.198C76.8628 233.256 78.5691 233.233 80.2563 233.122L80.191 232.124ZM69.538 224.777C69.49 225.656 69.4197 226.571 69.3258 227.523C69.2354 228.441 69.1159 229.329 68.969 230.187L69.9547 230.356C70.1057 229.473 70.2283 228.562 70.321 227.621C70.4162 226.656 70.4876 225.726 70.5365 224.831L69.538 224.777ZM68.7015 213.917C69.1128 215.454 69.401 217.236 69.5341 219.288L70.532 219.224C70.3953 217.116 70.0984 215.269 69.6675 213.659L68.7015 213.917ZM70.2124 231.789C68.5375 231.57 66.8902 231.272 65.2947 230.899L65.0671 231.873C66.6959 232.253 68.376 232.557 70.0829 232.78L70.2124 231.789ZM67.6483 235.369C67.0344 237.131 66.2856 238.741 65.4249 240.209L66.2876 240.715C67.1818 239.189 67.9577 237.521 68.5926 235.698L67.6483 235.369ZM62.4195 205.92C63.9308 206.449 65.3402 207.449 66.5063 209.056L67.3156 208.468C66.0342 206.703 64.4601 205.575 62.7499 204.976L62.4195 205.92ZM62.2723 244.491C61.0518 245.828 59.7169 247.003 58.2992 248.032L58.8868 248.842C60.3559 247.775 61.7421 246.555 63.0108 245.165L62.2723 244.491ZM60.5116 229.498C58.884 228.915 57.3542 228.247 55.9548 227.5L55.4838 228.382C56.9311 229.154 58.5062 229.842 60.1745 230.439L60.5116 229.498ZM52.3773 207.89C53.8421 206.86 55.5151 206.089 57.2246 205.709L57.0079 204.733C55.1574 205.144 53.3642 205.974 51.8024 207.071L52.3773 207.89ZM53.7111 250.758C52.0899 251.538 50.4145 252.177 48.7215 252.694L49.0136 253.651C50.7504 253.12 52.4736 252.463 54.1447 251.659L53.7111 250.758ZM51.8538 224.758C50.5234 223.628 49.4562 222.396 48.7043 221.077L47.8355 221.572C48.6559 223.012 49.8054 224.331 51.2065 225.521L51.8538 224.758ZM47.71 214.129C47.9045 213.317 48.2488 212.507 48.7188 211.724L47.8615 211.209C47.3464 212.067 46.959 212.971 46.7375 213.896C46.5226 214.793 46.4233 215.67 46.4321 216.526L47.4321 216.515C47.4241 215.745 47.5134 214.949 47.71 214.129ZM43.4949 253.918C41.6734 254.225 39.8776 254.41 38.1545 254.498L38.2053 255.497C39.9644 255.407 41.7988 255.218 43.6609 254.904L43.4949 253.918ZM32.7792 254.462C31.8374 254.4 30.9455 254.309 30.1152 254.197L29.9806 255.187C30.8346 255.303 31.7493 255.396 32.7131 255.46L32.7792 254.462Z" fill="black"/>
<path fill-rule="evenodd" clip-rule="evenodd" d="M261.307 51.6057L231.696 51.6057L246.502 27.2171L261.307 51.6057ZM259.53 50.6057L233.473 50.6057L246.502 29.1442L259.53 50.6057Z" fill="#2898FF"/>
<path fill-rule="evenodd" clip-rule="evenodd" d="M27.2664 277.931L4.08118 277.931L15.6739 258.835L27.2664 277.931ZM25.4895 276.931L5.85809 276.931L15.6739 260.762L25.4895 276.931Z" fill="#2898FF"/>
<path fill-rule="evenodd" clip-rule="evenodd" d="M203.188 309.731L210.852 281.13L230.577 301.743L203.188 309.731ZM204.614 308.274L211.358 283.105L228.716 301.244L204.614 308.274Z" fill="#2898FF"/>
<path fill-rule="evenodd" clip-rule="evenodd" d="M45.1483 25.0882L51.1491 2.69299L66.5943 18.8332L45.1483 25.0882ZM46.5741 23.6307L51.6551 4.66816L64.733 18.3344L46.5741 23.6307Z" fill="black"/>
<path fill-rule="evenodd" clip-rule="evenodd" d="M91.497 61.2369C90.9148 61.4193 90.1508 61.5848 89.256 61.7068L89.3911 62.6976C90.3256 62.5702 91.1469 62.3945 91.7959 62.1912L91.497 61.2369ZM84.6024 61.8739C83.0942 61.7873 81.5241 61.5594 80.0185 61.1383L79.7491 62.1013C81.3359 62.5451 82.9788 62.7823 84.545 62.8723L84.6024 61.8739ZM75.8471 59.2603C75.2207 58.8318 74.6434 58.3431 74.1297 57.7878C73.6659 57.2863 73.2477 56.7198 72.8754 56.1004L72.0184 56.6156C72.4221 57.2872 72.8804 57.9099 73.3956 58.4668C73.9645 59.0818 74.5998 59.6187 75.2826 60.0857L75.8471 59.2603ZM71.2698 52.1521C70.9161 50.7803 70.7135 49.3316 70.6581 47.8889L69.6588 47.9273C69.7168 49.4362 69.9287 50.9561 70.3015 52.4018L71.2698 52.1521ZM74.6544 45.8103C73.9193 45.9032 73.1137 45.9678 72.2326 45.9994C71.1908 46.0368 70.2254 45.9851 69.3312 45.8575L69.19 46.8475C70.1466 46.9839 71.1714 47.0381 72.2685 46.9987C73.1762 46.9662 74.0119 46.8995 74.7798 46.8024L74.6544 45.8103ZM81.4082 41.0249C81.4988 42.2411 80.9597 43.5265 79.2023 44.5034L79.6882 45.3774C81.7457 44.2337 82.5283 42.5998 82.4054 40.9505L81.4082 41.0249ZM64.0219 43.7948C62.397 42.6338 61.1897 41.1088 60.3126 39.4559L59.4292 39.9246C60.3646 41.6873 61.6669 43.3411 63.4406 44.6085L64.0219 43.7948ZM70.9411 43.5935C71.2118 42.0766 71.6619 40.6949 72.2744 39.5622L71.3947 39.0866C70.7207 40.3331 70.2416 41.8211 69.9567 43.4178L70.9411 43.5935ZM77.0602 36.5112C77.7327 36.575 78.442 36.8618 79.0969 37.3193L79.6696 36.4995C78.9055 35.9658 78.0346 35.5992 77.1547 35.5157C76.2911 35.4337 75.4875 35.5503 74.7528 35.8382L75.1176 36.7693C75.7023 36.5402 76.3482 36.4436 77.0602 36.5112ZM58.5188 33.9395C58.3522 32.8791 58.2879 31.8892 58.2986 31.0416L57.2987 31.029C57.2873 31.9346 57.3558 32.9807 57.5309 34.0947L58.5188 33.9395Z" fill="black"/>
<path fill-rule="evenodd" clip-rule="evenodd" d="M199.405 277.081C198.823 277.263 198.059 277.429 197.164 277.551L197.299 278.542C198.234 278.414 199.055 278.238 199.704 278.035L199.405 277.081ZM192.511 277.718C191.002 277.631 189.432 277.403 187.927 276.982L187.657 277.945C189.244 278.389 190.887 278.626 192.453 278.716L192.511 277.718ZM183.755 275.104C183.129 274.676 182.552 274.187 182.038 273.632C181.574 273.13 181.156 272.564 180.784 271.944L179.927 272.46C180.33 273.131 180.789 273.754 181.304 274.311C181.873 274.926 182.508 275.463 183.191 275.93L183.755 275.104ZM179.178 267.996C178.824 266.624 178.622 265.176 178.566 263.733L177.567 263.771C177.625 265.28 177.837 266.8 178.21 268.246L179.178 267.996ZM182.563 261.654C181.827 261.747 181.022 261.812 180.141 261.843C179.099 261.881 178.134 261.829 177.239 261.702L177.098 262.691C178.055 262.828 179.08 262.882 180.177 262.843C181.084 262.81 181.92 262.743 182.688 262.646L182.563 261.654ZM189.316 256.869C189.407 258.085 188.868 259.371 187.111 260.347L187.596 261.221C189.654 260.078 190.437 258.444 190.314 256.795L189.316 256.869ZM171.93 259.639C170.305 258.478 169.098 256.953 168.221 255.3L167.337 255.769C168.273 257.531 169.575 259.185 171.349 260.452L171.93 259.639ZM178.849 259.437C179.12 257.921 179.57 256.539 180.183 255.406L179.303 254.931C178.629 256.177 178.15 257.665 177.865 259.262L178.849 259.437ZM184.968 252.355C185.641 252.419 186.35 252.706 187.005 253.163L187.578 252.344C186.814 251.81 185.943 251.443 185.063 251.36C184.199 251.278 183.396 251.394 182.661 251.682L183.026 252.613C183.611 252.384 184.256 252.288 184.968 252.355ZM166.427 249.783C166.26 248.723 166.196 247.733 166.207 246.886L165.207 246.873C165.195 247.779 165.264 248.825 165.439 249.939L166.427 249.783Z" fill="black"/>
<path fill-rule="evenodd" clip-rule="evenodd" d="M186.483 152.314C196.159 145.184 202 135.938 202 125.835C202 103.282 172.899 85 137 85C101.101 85 72 103.282 72 125.835C72 148.387 101.101 166.669 137 166.669C149.269 166.669 160.744 164.534 170.535 160.822C173.286 165.473 180.688 172.109 195.5 173C191.619 167.383 185.525 156.914 186.483 152.314Z" fill="white"/>
<path fill-rule="evenodd" clip-rule="evenodd" d="M91.304 97.3835C79.6261 104.72 72.5 114.792 72.5 125.835C72.5 136.877 79.6261 146.949 91.304 154.286C102.975 161.618 119.13 166.169 137 166.169C149.213 166.169 160.627 164.043 170.358 160.354L170.751 160.205L170.966 160.567C173.561 164.956 180.528 171.311 194.506 172.429C192.657 169.677 190.445 166.037 188.727 162.494C187.776 160.533 186.97 158.589 186.462 156.836C185.958 155.097 185.729 153.484 185.994 152.212L186.033 152.025L186.187 151.911C195.78 144.842 201.5 135.73 201.5 125.835C201.5 114.792 194.374 104.72 182.696 97.3835C171.025 90.0514 154.87 85.5 137 85.5C119.13 85.5 102.975 90.0514 91.304 97.3835ZM90.7721 96.5368C102.626 89.0897 118.972 84.5 137 84.5C155.028 84.5 171.374 89.0897 183.228 96.5368C195.075 103.98 202.5 114.325 202.5 125.835C202.5 136.09 196.603 145.424 186.94 152.598C186.78 153.609 186.96 154.963 187.422 156.558C187.909 158.237 188.689 160.124 189.627 162.057C191.502 165.923 193.981 169.922 195.911 172.716L196.495 173.561L195.47 173.499C180.878 172.621 173.326 166.212 170.324 161.436C160.559 165.08 149.164 167.169 137 167.169C118.972 167.169 102.626 162.579 90.7721 155.132C78.9247 147.689 71.5 137.344 71.5 125.835C71.5 114.325 78.9247 103.98 90.7721 96.5368Z" fill="black"/>
<path d="M121.008 124.395C119.078 123.84 117.672 123.16 116.789 122.355C115.914 121.543 115.477 120.543 115.477 119.355C115.477 118.012 116.012 116.902 117.082 116.027C118.16 115.145 119.559 114.703 121.277 114.703C122.449 114.703 123.492 114.93 124.406 115.383C125.328 115.836 126.039 116.461 126.539 117.258C127.047 118.055 127.301 118.926 127.301 119.871H125.039C125.039 118.84 124.711 118.031 124.055 117.445C123.398 116.852 122.473 116.555 121.277 116.555C120.168 116.555 119.301 116.801 118.676 117.293C118.059 117.777 117.75 118.453 117.75 119.32C117.75 120.016 118.043 120.605 118.629 121.09C119.223 121.566 120.227 122.004 121.641 122.402C123.062 122.801 124.172 123.242 124.969 123.727C125.773 124.203 126.367 124.762 126.75 125.402C127.141 126.043 127.336 126.797 127.336 127.664C127.336 129.047 126.797 130.156 125.719 130.992C124.641 131.82 123.199 132.234 121.395 132.234C120.223 132.234 119.129 132.012 118.113 131.566C117.098 131.113 116.312 130.496 115.758 129.715C115.211 128.934 114.938 128.047 114.938 127.055H117.199C117.199 128.086 117.578 128.902 118.336 129.504C119.102 130.098 120.121 130.395 121.395 130.395C122.582 130.395 123.492 130.152 124.125 129.668C124.758 129.184 125.074 128.523 125.074 127.688C125.074 126.852 124.781 126.207 124.195 125.754C123.609 125.293 122.547 124.84 121.008 124.395ZM139.875 124.113H132.48V130.16H141.07V132H130.23V114.938H140.953V116.789H132.48V122.273H139.875V124.113ZM156.996 124.02C156.996 125.691 156.715 127.152 156.152 128.402C155.59 129.645 154.793 130.594 153.762 131.25C152.73 131.906 151.527 132.234 150.152 132.234C148.809 132.234 147.617 131.906 146.578 131.25C145.539 130.586 144.73 129.645 144.152 128.426C143.582 127.199 143.289 125.781 143.273 124.172V122.941C143.273 121.301 143.559 119.852 144.129 118.594C144.699 117.336 145.504 116.375 146.543 115.711C147.59 115.039 148.785 114.703 150.129 114.703C151.496 114.703 152.699 115.035 153.738 115.699C154.785 116.355 155.59 117.312 156.152 118.57C156.715 119.82 156.996 121.277 156.996 122.941V124.02ZM154.758 122.918C154.758 120.895 154.352 119.344 153.539 118.266C152.727 117.18 151.59 116.637 150.129 116.637C148.707 116.637 147.586 117.18 146.766 118.266C145.953 119.344 145.535 120.844 145.512 122.766V124.02C145.512 125.98 145.922 127.523 146.742 128.648C147.57 129.766 148.707 130.324 150.152 130.324C151.605 130.324 152.73 129.797 153.527 128.742C154.324 127.68 154.734 126.16 154.758 124.184V122.918Z" fill="black"/>
</svg>
