<?xml version="1.0" encoding="utf-8"?>
<!-- Generator: Adobe Illustrator 24.1.2, SVG Export Plug-In . SVG Version: 6.00 Build 0)  -->
<svg version="1.1" id="Layer_1" xmlns="http://www.w3.org/2000/svg" xmlns:xlink="http://www.w3.org/1999/xlink" x="0px" y="0px"
	 viewBox="0 0 68 21.2" style="enable-background:new 0 0 68 21.2;" xml:space="preserve">
<style type="text/css">
	.st0{fill:#878E94;}
</style>
<g>
	<path class="st0" d="M32,6.4c0.4,0.2,0.8,0.3,1.1,0.5c0.1,0,0.1,0.2,0.1,0.3c0,1.3,0,2.6,0,3.9c0,1.1,0,2.1,0,3.2
		c0,0.1,0,0.2,0,0.3c-0.3-0.1-0.5-0.2-0.7-0.3c-0.4-0.2-0.6-0.2-1,0.1c-1.1,0.7-2.3,0.4-3.1-0.4c-0.7-0.6-1-1.4-1-2.3
		c0-1.6,1.4-2.9,3-2.8c0.4,0,0.8,0.2,1.2,0.4c0.1,0.1,0.2,0.1,0.3,0.1c0.1,0,0.1-0.2,0.1-0.3c0-0.8,0-1.5,0-2.3
		C31.9,6.6,31.9,6.5,32,6.4z M32,11.7c0-0.2-0.1-0.4-0.1-0.6c-0.1-0.6-0.5-1-1.1-1.2c-0.6-0.2-1.1-0.1-1.6,0.3
		c-0.5,0.5-0.7,1.4-0.4,2.2c0.3,0.9,1.4,1.3,2.2,0.9C31.7,13.1,31.9,12.5,32,11.7z"/>
	<path class="st0" d="M52.5,14.5c-0.3-0.1-0.6-0.2-0.9-0.3c-0.2-0.1-0.4-0.1-0.6,0.1c-1.1,0.8-2.3,0.6-3.3-0.3
		c-0.5-0.5-0.8-1-0.9-1.7c-0.1-0.8,0-1.5,0.4-2.1c0.6-0.8,1.4-1.3,2.4-1.3c0.4,0,0.8,0.1,1.1,0.3c0.2,0.1,0.3,0.1,0.5-0.1
		c0,0,0.1-0.1,0.2-0.1c0.3,0,0.5,0,0.8,0c0.2,0,0.3,0.1,0.3,0.3c0,1.4,0,2.9,0,4.3c0,0.2,0,0.5,0,0.7C52.5,14.3,52.5,14.4,52.5,14.5
		z M51.3,11.7c0-0.2-0.1-0.4-0.1-0.6c-0.3-1.2-1.8-1.5-2.7-0.7c-0.5,0.5-0.7,1.5-0.4,2.2c0.4,0.9,1.6,1.3,2.4,0.7
		C51.1,12.9,51.3,12.4,51.3,11.7z"/>
	<path class="st0" d="M62.7,14.5c-0.3-0.1-0.7-0.2-0.9-0.4c-0.2-0.1-0.3-0.1-0.5,0.1c-1.1,0.8-2.4,0.6-3.4-0.3
		c-1-0.9-1.2-2.5-0.5-3.6c0.6-1,1.8-1.7,3-1.4c0.2,0.1,0.5,0.2,0.7,0.3c0.2,0.1,0.3,0.1,0.4-0.1C61.5,9,61.6,9,61.7,9
		c0.3,0,0.6,0,0.9,0c0.2,0,0.2,0.1,0.2,0.2c0,0.9,0,1.7,0,2.6c0,0.8,0,1.6,0,2.4C62.7,14.3,62.7,14.4,62.7,14.5z M58.2,11.8
		c0,0.6,0.2,1.1,0.6,1.4c0.8,0.8,2.2,0.4,2.6-0.6c0.1-0.4,0.2-0.8,0.1-1.3c-0.2-1-1.2-1.5-2.1-1.2C58.7,10.2,58.2,10.9,58.2,11.8z"
		/>
	<path class="st0" d="M40.8,11.7c0-0.8,0-1.7,0-2.5C40.8,9,40.8,9,41,9c0.2,0,0.5,0,0.7,0c0.1,0,0.3,0,0.4,0.1c0.1,0.1,0.2,0,0.3,0
		c0.8-0.4,1.5-0.4,2.3,0.1c0.5,0.3,0.8,0.7,0.9,1.3c0.1,0.4,0.1,0.7,0.1,1.1c0,0.9,0,1.8,0,2.7c0,0.3,0,0.3-0.3,0.3
		c-0.3,0-0.5,0-0.8,0c-0.2,0-0.2-0.1-0.2-0.2c0-0.8,0-1.5,0-2.3c0-0.4,0-0.7,0-1.1c-0.1-0.5-0.3-1-1-1c-0.2,0-0.5,0-0.7,0.1
		c-0.5,0.2-0.7,0.6-0.7,1.1c0,1,0,2,0,3c0,0.3,0,0.3-0.3,0.3c-0.2,0-0.5,0-0.7,0c-0.2,0-0.2-0.1-0.2-0.2
		C40.8,13.5,40.8,12.6,40.8,11.7z"/>
	<path class="st0" d="M36.9,12.7c0.1-0.1,0.1-0.2,0.1-0.2c0.5-1.1,1-2.2,1.4-3.3C38.5,9,38.6,9,38.8,9c0.3,0,0.6,0,0.9,0
		c0.2,0,0.2,0.1,0.1,0.2c-0.5,1.1-1,2.3-1.5,3.5c-0.5,1.2-1.1,2.5-1.6,3.7c-0.1,0.1-0.1,0.2-0.3,0.2c-0.3,0-0.7,0-1.1,0
		c0.2-0.4,0.3-0.8,0.5-1.1c0.1-0.3,0.3-0.6,0.4-1c0.1-0.1,0.1-0.3,0-0.4c-0.6-1.4-1.2-2.8-1.8-4.2C34.2,9.6,34.1,9.3,34,9
		c0.3,0,0.6,0,0.9,0c0.4,0,0.4,0,0.6,0.4c0.4,1.1,0.9,2.1,1.3,3.2C36.8,12.6,36.9,12.6,36.9,12.7z"/>
	<path class="st0" d="M54.1,6.6c0.4,0.2,0.8,0.3,1.1,0.5c0.1,0,0.1,0.1,0.1,0.2c0,0.5,0,0.9,0,1.4c0,0.2,0.1,0.3,0.3,0.3
		c0.2,0,0.3,0,0.5,0c0.1,0,0.1,0.1,0.1,0.1c0,0.3,0,0.5,0,0.8c0,0.1-0.1,0.2-0.2,0.2c-0.2,0-0.3,0-0.5,0c-0.2,0-0.2,0-0.2,0.2
		c0,0.9,0,1.7,0,2.6c0,0.4,0.2,0.6,0.7,0.5c0.3-0.1,0.3-0.1,0.3,0.2c0,0.2,0,0.5,0,0.7c0,0.1-0.1,0.2-0.1,0.2
		c-0.8,0.3-1.7,0-1.9-0.9c-0.1-0.3-0.1-0.6-0.1-0.8c0-0.8,0-1.6,0-2.4c0-0.3,0-0.3-0.3-0.3c-0.3,0-0.3,0-0.3-0.3c0-0.2,0-0.4,0-0.6
		c0-0.1,0-0.2,0.2-0.2c0.3,0,0.4-0.1,0.4-0.4c0-0.6,0-1.1,0-1.7C54.1,6.8,54.1,6.7,54.1,6.6z"/>
	<path class="st0" d="M11.4,0.4c0,0.1,0.1,0.1,0.1,0.2c0.1,0.6,0.2,1.2,0.3,1.8c0.1,0.4,0.1,0.8,0.2,1.2c0.1,0.8,0.2,1.6,0.4,2.4
		c0.1,0.4,0.1,0.8,0.2,1.2c0.1,0.4,0.1,0.7,0.2,1.1c0,0-0.1,0.1-0.2,0.1c0,0-0.1-0.1-0.2-0.1c-0.1-0.2-0.1-0.4-0.1-0.6
		c-0.1-0.4-0.1-0.8-0.2-1.3c-0.1-0.6-0.2-1.1-0.3-1.7c-0.1-0.6-0.2-1.3-0.3-1.9c-0.1-0.4-0.2-0.8-0.2-1.3c-0.1-0.3-0.1-0.7-0.2-1
		C11.1,0.5,11.2,0.5,11.4,0.4z"/>
	<path class="st0" d="M12.2,8.5c0,0-0.1,0.1-0.1,0.1c-0.1,0-0.2,0-0.2-0.1c-0.2-0.5-0.3-0.9-0.5-1.4c-0.5-1.4-0.9-2.8-1.4-4.3
		c-0.2-0.5-0.3-1-0.5-1.5c-0.1-0.2,0-0.2,0.1-0.3C9.8,1,9.8,1.1,9.8,1.2c0.3,1,0.6,1.9,0.9,2.9c0.3,1,0.6,1.9,0.9,2.9
		c0.1,0.4,0.3,0.9,0.4,1.3C12.2,8.4,12.2,8.4,12.2,8.5z"/>
	<path class="st0" d="M3.5,6.7c0.1,0,0.1,0.1,0.2,0.1c1.7,0.8,3.3,1.7,5,2.5C9.1,9.5,9.6,9.7,10,10c0.1,0,0.2,0.1,0.2,0.2
		c0,0.2-0.1,0.2-0.3,0.2C9.1,9.9,8.4,9.6,7.6,9.2C6.3,8.5,4.9,7.8,3.5,7.1C3.4,7,3.3,6.9,3.5,6.7C3.5,6.7,3.5,6.7,3.5,6.7z"/>
	<path class="st0" d="M10.5,9.7c-0.1,0.1-0.1,0.2-0.2,0.2c0,0-0.1,0-0.2,0c-0.5-0.4-1-0.7-1.5-1.1C7.8,8.2,7.1,7.6,6.3,7.1
		C5.7,6.6,5,6.1,4.4,5.7C4.3,5.6,4.2,5.5,4.3,5.4c0.1-0.1,0.2-0.1,0.3,0c0.5,0.4,1,0.8,1.6,1.2c1,0.8,2.1,1.5,3.1,2.3
		c0.3,0.2,0.7,0.5,1,0.7C10.4,9.5,10.4,9.6,10.5,9.7z"/>
	<path class="st0" d="M8.2,1.9c0,0.1,0.1,0.1,0.1,0.2c0.3,0.6,0.6,1.1,0.9,1.7c0.8,1.5,1.6,3,2.3,4.6c0,0.1,0.1,0.1,0.1,0.2
		c0.1,0.1,0,0.2-0.1,0.3c-0.1,0.1-0.2,0-0.2-0.1c-0.4-0.8-0.8-1.6-1.2-2.4C9.4,5,8.8,3.7,8.1,2.4C8,2.2,8,2.1,8.2,1.9
		C8.2,2,8.2,2,8.2,1.9z"/>
	<path class="st0" d="M6.9,2.9C6.9,3,7,3.1,7,3.1c0.4,0.6,0.8,1.2,1.2,1.7C9.1,6,10,7.1,10.8,8.3c0.1,0.2,0.2,0.3,0.4,0.5
		c0.1,0.1,0.1,0.2-0.1,0.3c-0.1,0.1-0.2,0-0.2-0.1C9.8,7.5,8.7,6,7.6,4.5C7.3,4.1,7,3.7,6.7,3.3c0,0-0.1-0.1,0-0.2
		C6.7,3,6.8,3,6.9,2.9z"/>
	<path class="st0" d="M3,8.3c0.2,0.1,0.3,0.1,0.5,0.1c2,0.7,4,1.3,6.1,2c0.1,0,0.2,0.1,0.2,0.1c0.1,0,0.2,0.1,0.1,0.3
		c-0.1,0.2-0.1,0.1-0.3,0.1C8.4,10.4,7.2,10,5.9,9.6C5,9.3,4.1,9,3.3,8.8c-0.1,0-0.2,0-0.3-0.1c0,0-0.1-0.1-0.1-0.2
		C2.9,8.4,3,8.3,3,8.3z"/>
	<path class="st0" d="M5.6,4c0.1,0.1,0.1,0.1,0.2,0.1c0.5,0.5,1.1,1.1,1.6,1.6c1.1,1,2.1,2.1,3.2,3.1C10.6,9,10.6,9,10.7,9.1
		c0.1,0.1,0.1,0.2,0,0.3c-0.1,0.1-0.2,0.1-0.3,0C9.5,8.4,8.5,7.5,7.6,6.5C6.9,5.8,6.2,5.1,5.5,4.4c0,0-0.1-0.1-0.1-0.2
		C5.4,4.1,5.5,4.1,5.6,4z"/>
	<path class="st0" d="M12.9,4.4c0-1.3,0-2.5,0-3.8c0-0.1,0-0.2,0.2-0.2c0.2,0,0.2,0.1,0.2,0.2c0,1.3,0,2.5,0,3.8c0,1.3,0,2.5,0,3.8
		c0,0.1,0,0.3-0.2,0.2c-0.1,0-0.2-0.1-0.2-0.2c0-0.2,0-0.3,0-0.5C12.9,6.6,12.9,5.5,12.9,4.4C12.9,4.4,12.9,4.4,12.9,4.4z"/>
	<path class="st0" d="M9.5,11.4c-0.4-0.1-0.9-0.1-1.3-0.2C7.6,11.1,7,11,6.4,10.9c-0.6-0.1-1.2-0.2-1.8-0.3
		c-0.5-0.1-0.9-0.1-1.4-0.2c-0.2,0-0.3,0-0.3-0.3c0-0.1,0-0.2,0.2-0.2c0.5,0.1,1.1,0.2,1.6,0.3c0.9,0.1,1.9,0.3,2.8,0.4
		c0.7,0.1,1.4,0.2,2.1,0.3c0.1,0,0.2,0,0.2,0.2C9.8,11.4,9.7,11.4,9.5,11.4z"/>
	<path class="st0" d="M16.5,12.1c0.7,0.1,1.4,0.2,2.1,0.3c1.1,0.2,2.2,0.3,3.3,0.5c0.4,0.1,0.7,0.1,1.1,0.2c0.1,0,0.2,0,0.2,0.2
		c0,0.1,0,0.2-0.2,0.2c-1-0.2-2-0.3-3-0.5c-0.6-0.1-1.2-0.2-1.8-0.3c-0.5-0.1-1.1-0.2-1.6-0.3c-0.1,0-0.2-0.1-0.1-0.2
		C16.4,12.2,16.4,12.1,16.5,12.1z"/>
	<path class="st0" d="M19.9,11.6c1.1,0,2.2,0,3.3,0c0.1,0,0.2,0,0.2,0.2c0,0.1,0,0.2-0.2,0.2c-0.1,0-0.3,0-0.4,0c-2,0-4.1,0-6.1,0
		c-0.1,0-0.2,0-0.2-0.2c0-0.2,0.1-0.2,0.2-0.2c0.9,0,1.8,0,2.6,0C19.5,11.6,19.7,11.6,19.9,11.6C19.9,11.6,19.9,11.6,19.9,11.6z"/>
	<path class="st0" d="M14.6,1.2c0.2,0.2,0.3,0.4,0.3,0.7c-0.1,0.4-0.1,0.8-0.2,1.2c-0.1,0.4-0.1,0.8-0.2,1.3
		c-0.1,0.4-0.1,0.9-0.2,1.3C14.1,6.2,14,6.7,14,7.1c-0.1,0.4-0.1,0.8-0.2,1.2c0,0.1-0.1,0.2-0.1,0.2c-0.1,0-0.2,0-0.2-0.2
		c0.1-0.3,0.1-0.6,0.1-1c0.1-0.4,0.1-0.7,0.2-1.1c0.1-0.4,0.1-0.9,0.2-1.3c0.1-0.5,0.1-0.9,0.2-1.4c0.1-0.4,0.1-0.8,0.2-1.2
		c0-0.3,0.1-0.6,0.1-0.9C14.5,1.4,14.5,1.3,14.6,1.2z"/>
	<path class="st0" d="M16.2,12.8c0-0.1,0.1-0.2,0.2-0.2c0.7,0.2,1.5,0.5,2.2,0.7c1.3,0.4,2.6,0.8,3.9,1.3c0.2,0.1,0.2,0.1,0.1,0.3
		c0,0-0.2,0.1-0.2,0.1c-1.2-0.4-2.4-0.8-3.6-1.2c-0.8-0.3-1.6-0.5-2.4-0.8C16.4,13,16.2,13,16.2,12.8z"/>
	<path class="st0" d="M16.6,11.4c0,0-0.2,0-0.2-0.1c-0.1-0.2,0-0.2,0.2-0.3c0.9-0.1,1.8-0.3,2.7-0.4c1.1-0.2,2.2-0.3,3.2-0.5
		c0.1,0,0.2,0,0.3,0c0.2,0,0.2,0.1,0.2,0.2c0,0.2-0.1,0.2-0.2,0.2c-0.6,0.1-1.3,0.2-1.9,0.3c-0.6,0.1-1.1,0.2-1.7,0.3
		c-0.6,0.1-1.2,0.2-1.8,0.3C17.2,11.3,16.9,11.3,16.6,11.4z"/>
	<path class="st0" d="M16.2,13.1c0.1,0,0.1,0.1,0.2,0.1c1.3,0.7,2.5,1.3,3.8,2c0.5,0.3,1.1,0.5,1.6,0.8c0.1,0,0.3,0,0.2,0.2
		c-0.1,0.2-0.1,0.2-0.4,0.1c-1.1-0.6-2.3-1.2-3.4-1.8c-0.7-0.3-1.3-0.7-2-1C16,13.4,16,13.3,16.2,13.1
		C16.1,13.1,16.1,13.1,16.2,13.1z"/>
	<path class="st0" d="M16.2,10.6c0,0,0.1-0.1,0.2-0.1c0.5-0.2,1-0.3,1.5-0.5c1.4-0.5,2.8-0.9,4.2-1.4c0.1,0,0.2-0.1,0.3,0.1
		c0.1,0.1,0.1,0.2-0.1,0.3c-1.5,0.5-3,1-4.5,1.5c-0.4,0.1-0.9,0.3-1.3,0.4C16.3,10.9,16.2,10.8,16.2,10.6z"/>
	<path class="st0" d="M6.5,11.6c1,0,2,0,3.1,0c0.1,0,0.2,0,0.2,0.2c0,0.1,0,0.2-0.2,0.2c-0.2,0-0.4,0-0.5,0c-1.8,0-3.7,0-5.5,0
		c-0.1,0-0.2,0-0.2-0.1c-0.1-0.1-0.1-0.2-0.1-0.2c0.1,0,0.1-0.1,0.2-0.1C4.4,11.6,5.5,11.6,6.5,11.6C6.5,11.6,6.5,11.6,6.5,11.6z"/>
	<path class="st0" d="M15.9,13.6c0.1,0,0.1,0.1,0.2,0.1c1,0.8,2.1,1.5,3.1,2.3c0.6,0.4,1.1,0.8,1.7,1.2c0.2,0.1,0.2,0.2,0,0.3
		c-0.1,0-0.2,0-0.2-0.1c-0.7-0.5-1.3-1-2-1.5c-0.9-0.6-1.8-1.3-2.7-1.9c-0.1-0.1-0.1-0.1-0.2-0.2c0,0-0.1-0.1,0-0.2
		C15.8,13.7,15.8,13.6,15.9,13.6z"/>
	<path class="st0" d="M15.5,13.9c0.1,0.1,0.2,0.2,0.2,0.2c1,1,2.1,2.1,3.1,3.1c0.3,0.3,0.7,0.6,1,1c0.1,0.1,0.2,0.1,0.1,0.3
		c-0.1,0.1-0.2,0.1-0.3,0c-1.4-1.4-2.7-2.7-4.1-4.1c-0.1-0.1-0.1-0.2-0.1-0.2C15.4,14.1,15.4,14,15.5,13.9z"/>
	<path class="st0" d="M9.7,12.1c0,0.1,0.1,0.1,0.1,0.2c0,0.1-0.1,0.2-0.1,0.2c-0.4,0.1-0.7,0.1-1.1,0.2c-0.6,0.1-1.2,0.2-1.8,0.3
		c-0.6,0.1-1.2,0.2-1.9,0.3c-0.3,0-0.6,0.1-0.8,0.1c-0.2,0-0.3-0.1-0.3-0.2c0,0,0.1-0.1,0.1-0.1c0.7-0.1,1.3-0.2,2-0.3
		c0.9-0.1,1.8-0.3,2.7-0.4C8.9,12.2,9.3,12.2,9.7,12.1z"/>
	<path class="st0" d="M5.6,17.4c0-0.1-0.1-0.1-0.1-0.2c0-0.1,0-0.1,0-0.2c0.1-0.1,0.1-0.1,0.2-0.2c1.4-1,2.8-2.1,4.2-3.1
		c0.1,0,0.1-0.1,0.2-0.1c0.1-0.1,0.2-0.1,0.3,0c0.1,0.1,0.1,0.2,0,0.3c-0.6,0.4-1.2,0.8-1.7,1.3c-0.9,0.7-1.9,1.4-2.8,2
		C5.7,17.3,5.7,17.3,5.6,17.4z"/>
	<path class="st0" d="M7.6,19.5c-0.1-0.1-0.2-0.1-0.2-0.2c0,0,0-0.1,0-0.2c1.1-1.6,2.3-3.1,3.4-4.7c0.1-0.1,0.1-0.2,0.3-0.1
		c0.1,0.1,0.1,0.2,0,0.3c-1.1,1.5-2.3,3.1-3.4,4.6C7.7,19.4,7.7,19.4,7.6,19.5z"/>
	<path class="st0" d="M21.5,7.6c0,0-0.1,0.1-0.1,0.1c-0.4,0.2-0.8,0.4-1.2,0.6c-1.3,0.7-2.6,1.3-3.9,2c-0.1,0.1-0.2,0.1-0.3-0.1
		C16,10.1,16,10,16.1,10c0.4-0.2,0.8-0.4,1.2-0.6c1.3-0.6,2.5-1.3,3.8-1.9C21.3,7.4,21.4,7.4,21.5,7.6C21.5,7.5,21.5,7.6,21.5,7.6z"
		/>
	<path class="st0" d="M15.2,14.3c0.1,0.1,0.1,0.1,0.2,0.2c0.4,0.5,0.8,1,1.1,1.6c0.7,1,1.4,2,2.2,3c0.1,0.2,0.1,0.2,0,0.3
		c-0.1,0.1-0.2,0-0.2-0.1c-0.3-0.5-0.7-0.9-1-1.4c-0.7-1-1.4-1.9-2.1-2.9c-0.1-0.1-0.2-0.2-0.2-0.4c0,0,0-0.1,0-0.2
		C15,14.4,15.1,14.4,15.2,14.3z"/>
	<path class="st0" d="M4.9,16.1c0-0.1-0.1-0.1-0.1-0.2c0-0.1,0-0.2,0.1-0.2c0.2-0.1,0.5-0.3,0.8-0.4c1.4-0.7,2.7-1.4,4.1-2.1
		c0.1,0,0.1-0.1,0.2-0.1c0.1-0.1,0.2,0,0.2,0.1c0.1,0.1,0.1,0.2-0.1,0.3c-0.1,0.1-0.2,0.1-0.4,0.2c-1.5,0.8-3,1.5-4.5,2.3
		C5.1,16,5,16.1,4.9,16.1z"/>
	<path class="st0" d="M4.4,14.8c0-0.1-0.1-0.1-0.1-0.2c0-0.1,0.1-0.2,0.1-0.2c0.3-0.1,0.7-0.2,1-0.3c1.3-0.4,2.6-0.9,3.9-1.3
		c0.1,0,0.2-0.1,0.3-0.1c0.1,0,0.2-0.1,0.3,0.1c0.1,0.2,0,0.2-0.1,0.2c-0.6,0.2-1.2,0.4-1.9,0.6c-1.1,0.4-2.2,0.7-3.4,1.1
		C4.5,14.7,4.5,14.7,4.4,14.8z"/>
	<path class="st0" d="M11.7,14.8c0,0.1-0.1,0.2-0.1,0.3c-0.9,1.7-1.7,3.3-2.6,5c-0.1,0.1-0.1,0.2-0.2,0.1c-0.2-0.1-0.1-0.2-0.1-0.3
		c0.8-1.7,1.7-3.3,2.5-5c0-0.1,0.1-0.1,0.1-0.2c0,0,0.1-0.1,0.2-0.1C11.6,14.7,11.6,14.8,11.7,14.8z"/>
	<path class="st0" d="M12.2,15c-0.1,0.3-0.1,0.5-0.2,0.7c-0.4,1.3-0.8,2.5-1.2,3.8c-0.1,0.4-0.2,0.7-0.4,1.1c0,0.1-0.1,0.2-0.2,0.2
		c-0.2-0.1-0.1-0.2-0.1-0.3c0.2-0.7,0.5-1.4,0.7-2.1c0.3-0.9,0.6-1.8,0.8-2.7c0.1-0.2,0.2-0.5,0.2-0.7c0-0.1,0.1-0.1,0.2-0.1
		C12.1,14.9,12.1,15,12.2,15z"/>
	<path class="st0" d="M6.5,18.6c-0.1-0.1-0.1-0.1-0.1-0.2c0-0.1,0-0.1,0.1-0.2c0.4-0.4,0.8-0.7,1.1-1.1c1-1,1.9-1.9,2.9-2.9
		c0.1-0.1,0.1-0.3,0.3-0.1c0.2,0.2,0.1,0.3-0.1,0.4c-0.9,0.9-1.8,1.8-2.7,2.7c-0.4,0.4-0.9,0.9-1.3,1.3C6.6,18.4,6.6,18.5,6.5,18.6z
		"/>
	<path class="st0" d="M17.5,20c-0.1,0-0.1,0.1-0.2,0.1c-0.1,0-0.2,0-0.2-0.1c-0.1-0.2-0.2-0.4-0.3-0.6c-0.8-1.5-1.5-2.9-2.3-4.4
		c0-0.1-0.1-0.2,0-0.3c0.1-0.2,0.2-0.1,0.3,0.1c0.3,0.6,0.6,1.2,0.9,1.8c0.5,1,1.1,2.1,1.6,3.1C17.4,19.8,17.4,19.9,17.5,20z"/>
	<path class="st0" d="M12.7,15.1c-0.1,0.6-0.2,1.2-0.3,1.8c-0.1,0.6-0.2,1.1-0.3,1.7c-0.1,0.6-0.2,1.1-0.3,1.7
		c0,0.2-0.1,0.3-0.1,0.5c0,0.1-0.1,0.2-0.2,0.1c-0.1,0-0.1-0.1-0.1-0.2c0.1-0.8,0.3-1.6,0.4-2.3c0.1-0.5,0.2-0.9,0.2-1.4
		c0.1-0.4,0.1-0.8,0.2-1.3c0-0.2,0.1-0.5,0.1-0.7c0-0.1,0.1-0.1,0.2-0.1C12.6,15,12.7,15.1,12.7,15.1z"/>
	<path class="st0" d="M16.1,20.5c-0.1,0-0.1,0.1-0.2,0.1c-0.1,0-0.2,0-0.2-0.1c-0.2-0.5-0.3-0.9-0.4-1.4c-0.3-1-0.6-2-1-2.9
		c-0.1-0.3-0.2-0.7-0.3-1c0-0.1-0.1-0.2,0.1-0.3c0.2-0.1,0.2,0.1,0.2,0.2c0.2,0.7,0.4,1.4,0.7,2c0.3,1.1,0.7,2.1,1,3.2
		C16.1,20.3,16.1,20.4,16.1,20.5z"/>
	<path class="st0" d="M13.7,15C13.7,15,13.8,15.1,13.7,15c0.2,0.4,0.2,0.7,0.3,1.1c0.1,0.4,0.1,0.9,0.2,1.3c0.1,0.4,0.1,0.9,0.2,1.3
		c0.1,0.5,0.2,0.9,0.2,1.4c0,0.2,0.1,0.4,0.1,0.6c0,0.1,0,0.2-0.1,0.2c-0.1,0-0.2,0-0.2-0.1c-0.1-0.5-0.1-0.9-0.2-1.4
		C14,19,14,18.5,13.9,18.1c-0.1-0.4-0.1-0.8-0.2-1.2c-0.1-0.4-0.1-0.8-0.2-1.2c0-0.1,0-0.3,0-0.4C13.4,15,13.5,15,13.7,15z"/>
	<path class="st0" d="M15.8,3c0.2,0.2,0.2,0.3,0.2,0.6c-0.4,1.3-0.9,2.7-1.3,4c-0.1,0.3-0.2,0.6-0.3,0.9c0,0,0,0.1,0,0.1
		c0,0.1-0.1,0.1-0.3,0.1C14,8.5,14,8.5,14,8.4c0.3-0.8,0.5-1.6,0.8-2.5c0.3-0.9,0.6-1.8,0.9-2.7C15.7,3.1,15.7,3,15.8,3z"/>
	<path class="st0" d="M20.4,6.6c-0.1,0.1-0.2,0.2-0.3,0.2c-1.3,0.9-2.5,1.8-3.8,2.8c-0.1,0.1-0.2,0.1-0.3,0.2
		c-0.1,0.1-0.2,0.1-0.3,0c-0.1-0.1-0.1-0.2,0-0.3c0.4-0.3,0.8-0.6,1.2-0.9c1-0.7,1.9-1.4,2.9-2.1C20.1,6.4,20.2,6.4,20.4,6.6z"/>
	<path class="st0" d="M13.2,18.1c0,0.9,0,1.8,0,2.8c0,0.1,0,0.2-0.2,0.2c-0.1,0-0.1-0.1-0.2-0.1c0,0,0-0.1,0-0.1c0-1.8,0-3.5,0-5.3
		c0-0.1,0-0.2,0-0.3c0-0.1,0.1-0.2,0.2-0.2c0.1,0,0.2,0.1,0.2,0.2c0,0.5,0,1,0,1.5C13.2,17.2,13.2,17.6,13.2,18.1
		C13.2,18.1,13.2,18.1,13.2,18.1z"/>
	<path class="st0" d="M16.8,4.2C17,4.4,17,4.4,16.9,4.6c-0.7,1.3-1.3,2.7-2,4c0,0.1-0.1,0.2-0.2,0.2c-0.2,0-0.2-0.1-0.2-0.3
		c0.7-1.4,1.4-2.8,2.2-4.2C16.7,4.3,16.7,4.2,16.8,4.2z"/>
	<path class="st0" d="M15.2,9.2C15.1,9.1,15,9,15,9c0-0.1,0-0.2,0-0.2c0.2-0.3,0.5-0.7,0.7-1C16.4,6.9,17,6,17.6,5.2
		c0.1-0.1,0.1-0.2,0.3-0.1c0.1,0.1,0.1,0.2,0,0.3c-0.5,0.7-1.1,1.5-1.6,2.2c-0.3,0.5-0.7,0.9-1,1.4C15.3,9.1,15.2,9.1,15.2,9.2z"/>
	<path class="st0" d="M19.2,5.9c-0.3,0.3-0.6,0.6-0.9,0.9c-0.9,0.9-1.7,1.7-2.6,2.6c-0.1,0.1-0.1,0.2-0.3,0.1
		c-0.1-0.1-0.1-0.2,0-0.3c0.9-0.9,1.8-1.8,2.7-2.6c0.2-0.2,0.4-0.4,0.6-0.6C18.9,5.7,18.9,5.7,19.2,5.9z"/>
	<path class="st0" d="M64.7,10c-0.1-0.2-0.2-0.4-0.3-0.6c0,0-0.1,0-0.1,0c0,0.2,0,0.3,0,0.5c0,0,0,0-0.1,0c0,0,0-0.1,0-0.1
		c0-0.2,0-0.4,0-0.6c0-0.1,0.1-0.1,0.1-0.2c0,0,0.1,0.1,0.1,0.1c0.1,0.1,0.1,0.3,0.1,0.4c0,0,0.1,0.1,0.1,0.1c0,0,0.1-0.1,0.1-0.1
		c0.1-0.1,0.1-0.3,0.2-0.4c0-0.1,0.1-0.1,0.2-0.2c0,0.1,0.1,0.1,0.1,0.2c0,0.2,0,0.4,0,0.7c0,0-0.1,0-0.1,0c0-0.2,0-0.3,0-0.5
		c0,0-0.1,0-0.1,0C64.9,9.5,64.8,9.7,64.7,10z"/>
	<path class="st0" d="M63.7,9.9c0-0.1,0-0.3,0-0.4c0-0.2,0-0.4-0.3-0.4c0.2,0,0.4,0,0.6,0c-0.1,0.1-0.2,0.1-0.2,0.2
		c0,0.1,0,0.2,0,0.3C63.7,9.6,63.7,9.7,63.7,9.9C63.7,9.9,63.7,9.9,63.7,9.9z"/>
</g>
</svg>
