<?xml version="1.0" encoding="utf-8"?>
<!-- Generator: Adobe Illustrator 24.1.2, SVG Export Plug-In . SVG Version: 6.00 Build 0)  -->
<svg version="1.1" id="Layer_1" xmlns="http://www.w3.org/2000/svg" xmlns:xlink="http://www.w3.org/1999/xlink" x="0px" y="0px"
	 viewBox="0 0 65.4 17.5" style="enable-background:new 0 0 65.4 17.5;" xml:space="preserve">
<style type="text/css">
	.st0{fill:#878E94;}
</style>
<g>
	<polygon class="st0" points="17.7,15.9 4.1,15.9 4,15.9 4,15.8 4,13.9 2.8,13.9 2.8,17.1 17.7,17.1 	"/>
	<polygon class="st0" points="2.8,3.8 4,3.8 4,1.9 4,1.7 4.2,1.7 18.1,1.7 18.2,1.7 18.2,1.9 18.2,3.8 19.4,3.8 19.4,0.5 2.8,0.5 	
		"/>
	<path class="st0" d="M1.9,10.3c0,0.4,0.2,1.2,1.5,1.2c0.7,0,1.5-0.2,1.5-1c0-0.6-0.5-0.7-1.3-0.9L2.8,9.4C1.7,9.1,0.5,8.9,0.5,7.2
		c0-0.8,0.4-2.3,2.8-2.3c2.2,0,2.8,1.5,2.8,2.4H4.7c0-0.3-0.2-1.1-1.5-1.1c-0.6,0-1.3,0.2-1.3,0.9c0,0.6,0.5,0.7,0.8,0.8l1.8,0.5
		c1,0.3,1.9,0.7,1.9,2c0,2.3-2.2,2.5-2.9,2.5c-2.6,0-3.1-1.6-3.1-2.5H1.9z"/>
	<path class="st0" d="M8.3,5.1h3.7c1.8,0,2.3,1.2,2.3,1.9c0,1.1-0.6,1.4-0.9,1.5c0.9,0.3,1.2,1.1,1.2,1.8c0,0.6-0.3,1.2-0.6,1.6
		c-0.4,0.4-0.8,0.7-2.4,0.7H8.3V5.1z M9.8,8h1.8c0.6,0,1.1-0.2,1.1-0.8c0-0.6-0.4-0.8-1.2-0.8H9.8V8z M9.8,11.3h1.9
		c0.8,0,1.2-0.3,1.2-1.1c0-0.7-0.6-0.9-1.1-0.9h-2V11.3z"/>
	<polygon class="st0" points="19.4,5.1 18.2,5.1 15.8,12.6 17.3,12.6 18.8,7.7 20.3,12.6 21.8,12.6 	"/>
	<polygon class="st0" points="19.4,15.9 18.2,17.1 18.2,12.6 19.4,12.6 	"/>
	<g>
		<path class="st0" d="M26.1,5.1h0.3v1.6c0,0.2,0,0.3,0.1,0.4c0,0.1,0.1,0.2,0.1,0.3c0.1,0.1,0.1,0.1,0.2,0.1c0.1,0,0.2,0,0.3,0
			c0.1,0,0.2,0,0.3,0s0.1-0.1,0.2-0.1c0.1-0.1,0.1-0.2,0.1-0.3c0-0.1,0.1-0.3,0.1-0.4V5.1h0.3v1.6c0,0.2,0,0.4-0.1,0.6
			c-0.1,0.2-0.1,0.3-0.2,0.4c-0.1,0.1-0.2,0.2-0.3,0.2c-0.1,0-0.3,0.1-0.4,0.1s-0.3,0-0.4-0.1c-0.1,0-0.2-0.1-0.3-0.2
			c-0.1-0.1-0.2-0.2-0.2-0.4c-0.1-0.2-0.1-0.3-0.1-0.6V5.1z"/>
		<path class="st0" d="M28.3,7.6c0-0.1,0-0.1,0.1-0.2s0.1-0.1,0.2-0.1c0.1,0,0.1,0,0.2,0.1s0.1,0.1,0.1,0.2c0,0.1,0,0.1-0.1,0.2
			c0,0-0.1,0.1-0.2,0.1c-0.1,0-0.1,0-0.2-0.1C28.4,7.8,28.3,7.7,28.3,7.6z"/>
		<path class="st0" d="M29.4,7.2c0.1,0.1,0.2,0.2,0.3,0.3c0.1,0.1,0.3,0.1,0.4,0.1c0.2,0,0.3,0,0.4-0.1c0.1-0.1,0.2-0.2,0.2-0.3
			c0-0.1,0-0.1,0-0.2c0,0-0.1-0.1-0.1-0.1c0,0-0.1-0.1-0.1-0.1c-0.1,0-0.1-0.1-0.2-0.1l-0.4-0.2c-0.1,0-0.1-0.1-0.2-0.1
			c-0.1,0-0.1-0.1-0.2-0.1c-0.1-0.1-0.1-0.1-0.1-0.2c0-0.1-0.1-0.2-0.1-0.3c0-0.1,0-0.2,0.1-0.3c0-0.1,0.1-0.2,0.2-0.2
			c0.1-0.1,0.2-0.1,0.3-0.2C30,5,30.1,5,30.2,5c0.2,0,0.3,0,0.5,0.1c0.1,0.1,0.3,0.1,0.4,0.2l-0.2,0.2c-0.1-0.1-0.2-0.1-0.3-0.2
			c-0.1,0-0.2-0.1-0.3-0.1c-0.2,0-0.3,0-0.4,0.1c-0.1,0.1-0.1,0.2-0.1,0.3c0,0.1,0,0.1,0,0.2c0,0,0.1,0.1,0.1,0.1
			c0,0,0.1,0.1,0.1,0.1c0.1,0,0.1,0.1,0.2,0.1l0.4,0.2c0.1,0,0.2,0.1,0.2,0.1c0.1,0,0.1,0.1,0.2,0.2c0.1,0.1,0.1,0.1,0.1,0.2
			c0,0.1,0,0.2,0,0.3c0,0.1,0,0.2-0.1,0.3c0,0.1-0.1,0.2-0.2,0.3c-0.1,0.1-0.2,0.1-0.3,0.2c-0.1,0-0.2,0.1-0.4,0.1
			c-0.2,0-0.4,0-0.5-0.1s-0.3-0.2-0.4-0.3L29.4,7.2z"/>
		<path class="st0" d="M31.5,7.6c0-0.1,0-0.1,0.1-0.2s0.1-0.1,0.2-0.1c0.1,0,0.1,0,0.2,0.1S32,7.6,32,7.6c0,0.1,0,0.1-0.1,0.2
			c0,0-0.1,0.1-0.2,0.1c-0.1,0-0.1,0-0.2-0.1C31.5,7.8,31.5,7.7,31.5,7.6z"/>
		<path class="st0" d="M33.6,7.2c0.1,0.1,0.2,0.2,0.3,0.3c0.1,0.1,0.3,0.1,0.4,0.1c0.2,0,0.3,0,0.4-0.1C34.9,7.4,35,7.3,35,7.1
			c0-0.1,0-0.1,0-0.2c0,0-0.1-0.1-0.1-0.1c0,0-0.1-0.1-0.1-0.1c-0.1,0-0.1-0.1-0.2-0.1l-0.4-0.2c-0.1,0-0.1-0.1-0.2-0.1
			c-0.1,0-0.1-0.1-0.2-0.1c-0.1-0.1-0.1-0.1-0.1-0.2c0-0.1-0.1-0.2-0.1-0.3c0-0.1,0-0.2,0.1-0.3c0-0.1,0.1-0.2,0.2-0.2
			c0.1-0.1,0.2-0.1,0.3-0.2C34.2,5,34.3,5,34.4,5c0.2,0,0.3,0,0.5,0.1s0.3,0.1,0.4,0.2l-0.2,0.2c-0.1-0.1-0.2-0.1-0.3-0.2
			c-0.1,0-0.2-0.1-0.3-0.1c-0.2,0-0.3,0-0.4,0.1c-0.1,0.1-0.1,0.2-0.1,0.3c0,0.1,0,0.1,0,0.2C34,6,34,6,34.1,6c0,0,0.1,0.1,0.1,0.1
			c0.1,0,0.1,0.1,0.2,0.1l0.4,0.2c0.1,0,0.2,0.1,0.2,0.1c0.1,0,0.1,0.1,0.2,0.2c0.1,0.1,0.1,0.1,0.1,0.2c0,0.1,0,0.2,0,0.3
			c0,0.1,0,0.2-0.1,0.3c0,0.1-0.1,0.2-0.2,0.3c-0.1,0.1-0.2,0.1-0.3,0.2c-0.1,0-0.2,0.1-0.4,0.1c-0.2,0-0.4,0-0.5-0.1
			c-0.2-0.1-0.3-0.2-0.4-0.3L33.6,7.2z"/>
		<path class="st0" d="M36,5.8h0.3l0,0.3h0c0.1-0.1,0.2-0.2,0.3-0.2c0.1-0.1,0.2-0.1,0.3-0.1c0.2,0,0.3,0,0.4,0.1
			c0.1,0.1,0.2,0.2,0.2,0.3c0.1-0.1,0.2-0.2,0.3-0.3c0.1-0.1,0.2-0.1,0.4-0.1c0.2,0,0.4,0.1,0.5,0.2c0.1,0.1,0.2,0.3,0.2,0.6v1.3
			h-0.3V6.6c0-0.2,0-0.3-0.1-0.4C38.3,6.1,38.2,6,38.1,6c-0.2,0-0.3,0.1-0.5,0.3v1.5h-0.3V6.6c0-0.2,0-0.3-0.1-0.4
			C37,6.1,37,6,36.8,6c-0.2,0-0.3,0.1-0.5,0.3v1.5H36V5.8z"/>
		<path class="st0" d="M39.4,7.3c0-0.2,0.1-0.4,0.3-0.5c0.2-0.1,0.5-0.2,1-0.3c0-0.1,0-0.1,0-0.2c0-0.1,0-0.1-0.1-0.2
			c0,0-0.1-0.1-0.1-0.1c-0.1,0-0.1,0-0.2,0c-0.1,0-0.2,0-0.3,0.1c-0.1,0-0.2,0.1-0.3,0.2L39.5,6c0.1-0.1,0.2-0.1,0.4-0.2
			c0.1-0.1,0.3-0.1,0.5-0.1c0.3,0,0.4,0.1,0.5,0.2C40.9,6.1,41,6.3,41,6.6v1.3h-0.3l0-0.2h0c-0.1,0.1-0.2,0.2-0.3,0.2
			c-0.1,0.1-0.2,0.1-0.4,0.1c-0.2,0-0.3-0.1-0.4-0.2C39.4,7.6,39.4,7.5,39.4,7.3z M39.7,7.3c0,0.1,0,0.2,0.1,0.3
			c0.1,0.1,0.2,0.1,0.3,0.1c0.1,0,0.2,0,0.3-0.1c0.1,0,0.2-0.1,0.3-0.2V6.8c-0.2,0-0.3,0-0.4,0.1c-0.1,0-0.2,0.1-0.3,0.1
			c-0.1,0-0.1,0.1-0.2,0.1C39.7,7.2,39.7,7.2,39.7,7.3z"/>
		<path class="st0" d="M41.7,4.8h0.3v2.6c0,0.1,0,0.1,0,0.1c0,0,0,0,0.1,0c0,0,0,0,0,0c0,0,0,0,0,0l0,0.3c0,0,0,0-0.1,0
			c0,0-0.1,0-0.1,0c-0.1,0-0.2,0-0.3-0.1c-0.1-0.1-0.1-0.2-0.1-0.3V4.8z"/>
		<path class="st0" d="M42.9,4.8h0.3v2.6c0,0.1,0,0.1,0,0.1c0,0,0,0,0.1,0c0,0,0,0,0,0c0,0,0,0,0,0l0,0.3c0,0,0,0-0.1,0
			c0,0-0.1,0-0.1,0c-0.1,0-0.2,0-0.3-0.1c-0.1-0.1-0.1-0.2-0.1-0.3V4.8z"/>
		<path class="st0" d="M45.1,5.1h0.8c0.1,0,0.3,0,0.4,0c0.1,0,0.2,0.1,0.3,0.1c0.1,0.1,0.1,0.1,0.2,0.2c0,0.1,0.1,0.2,0.1,0.3
			c0,0.1,0,0.3-0.1,0.4c-0.1,0.1-0.2,0.2-0.4,0.2v0c0.2,0,0.4,0.1,0.5,0.2C47,6.7,47,6.8,47,7c0,0.1,0,0.3-0.1,0.4
			c-0.1,0.1-0.1,0.2-0.2,0.3c-0.1,0.1-0.2,0.1-0.3,0.2c-0.1,0-0.3,0.1-0.4,0.1h-0.9V5.1z M45.8,6.3c0.2,0,0.4,0,0.5-0.1
			c0.1-0.1,0.2-0.2,0.2-0.4c0-0.2-0.1-0.3-0.2-0.3c-0.1-0.1-0.3-0.1-0.5-0.1h-0.4v0.9H45.8z M45.9,7.6c0.2,0,0.4,0,0.6-0.1
			c0.1-0.1,0.2-0.2,0.2-0.4c0-0.2-0.1-0.3-0.2-0.4c-0.1-0.1-0.3-0.1-0.6-0.1h-0.5v1H45.9z"/>
		<path class="st0" d="M47.5,5.8h0.4V7c0,0.2,0,0.3,0.1,0.4c0.1,0.1,0.2,0.1,0.3,0.1c0.1,0,0.2,0,0.3-0.1c0.1-0.1,0.2-0.1,0.3-0.3
			V5.8h0.3v2h-0.3l0-0.3h0c-0.1,0.1-0.2,0.2-0.3,0.3c-0.1,0.1-0.2,0.1-0.4,0.1c-0.2,0-0.4-0.1-0.5-0.2c-0.1-0.1-0.1-0.3-0.1-0.6V5.8
			z"/>
		<path class="st0" d="M49.9,7.4c0.1,0.1,0.2,0.1,0.3,0.2c0.1,0,0.2,0.1,0.3,0.1c0.1,0,0.2,0,0.3-0.1s0.1-0.1,0.1-0.2
			c0-0.1,0-0.1,0-0.1c0,0-0.1-0.1-0.1-0.1c0,0-0.1-0.1-0.1-0.1c-0.1,0-0.1,0-0.2-0.1c-0.1,0-0.1-0.1-0.2-0.1c-0.1,0-0.1-0.1-0.2-0.1
			c-0.1,0-0.1-0.1-0.1-0.2c0-0.1-0.1-0.1-0.1-0.2c0-0.1,0-0.2,0-0.2S50,6,50,5.9c0.1-0.1,0.1-0.1,0.2-0.1c0.1,0,0.2,0,0.3,0
			c0.1,0,0.2,0,0.4,0.1c0.1,0,0.2,0.1,0.3,0.2L51,6.2c-0.1-0.1-0.1-0.1-0.2-0.1C50.7,6,50.6,6,50.5,6c-0.1,0-0.2,0-0.3,0.1
			c-0.1,0.1-0.1,0.1-0.1,0.2c0,0,0,0.1,0,0.1c0,0,0.1,0.1,0.1,0.1c0,0,0.1,0.1,0.1,0.1c0.1,0,0.1,0,0.2,0.1c0.1,0,0.1,0.1,0.2,0.1
			c0.1,0,0.1,0.1,0.2,0.1c0.1,0,0.1,0.1,0.1,0.2c0,0.1,0.1,0.1,0.1,0.2c0,0.1,0,0.2,0,0.2c0,0.1-0.1,0.1-0.1,0.2
			c-0.1,0.1-0.1,0.1-0.2,0.1c-0.1,0-0.2,0-0.3,0c-0.1,0-0.3,0-0.4-0.1c-0.1-0.1-0.2-0.1-0.3-0.2L49.9,7.4z"/>
		<path class="st0" d="M52,5.4c-0.1,0-0.1,0-0.2-0.1c0,0-0.1-0.1-0.1-0.2c0-0.1,0-0.1,0.1-0.2c0,0,0.1-0.1,0.2-0.1
			c0.1,0,0.1,0,0.2,0.1s0.1,0.1,0.1,0.2c0,0.1,0,0.1-0.1,0.2C52.1,5.4,52.1,5.4,52,5.4z M51.8,5.8h0.3v2h-0.3V5.8z"/>
		<path class="st0" d="M53,5.8h0.3l0,0.3h0c0.1-0.1,0.2-0.2,0.3-0.2c0.1-0.1,0.2-0.1,0.4-0.1c0.2,0,0.4,0.1,0.5,0.2
			c0.1,0.1,0.1,0.3,0.1,0.6v1.3h-0.3V6.6c0-0.2,0-0.3-0.1-0.4C54.1,6.1,54,6,53.9,6c-0.1,0-0.2,0-0.3,0.1c-0.1,0.1-0.2,0.1-0.3,0.2
			v1.5H53V5.8z"/>
		<path class="st0" d="M55.2,6.8c0-0.2,0-0.3,0.1-0.5c0.1-0.1,0.1-0.2,0.2-0.3c0.1-0.1,0.2-0.2,0.3-0.2c0.1,0,0.2-0.1,0.3-0.1
			c0.1,0,0.2,0,0.3,0.1c0.1,0,0.2,0.1,0.3,0.2c0.1,0.1,0.1,0.2,0.2,0.3c0,0.1,0.1,0.3,0.1,0.4c0,0.1,0,0.1,0,0.2h-1.4
			c0,0.2,0.1,0.4,0.2,0.5c0.1,0.1,0.3,0.2,0.5,0.2c0.1,0,0.2,0,0.3,0s0.2-0.1,0.2-0.1l0.1,0.2c-0.1,0.1-0.2,0.1-0.3,0.1
			c-0.1,0-0.2,0.1-0.4,0.1c-0.1,0-0.3,0-0.4-0.1c-0.1,0-0.2-0.1-0.3-0.2c-0.1-0.1-0.2-0.2-0.2-0.3C55.3,7.1,55.2,7,55.2,6.8z
			 M56.7,6.7c0-0.2,0-0.4-0.1-0.5C56.4,6.1,56.3,6,56.2,6c-0.1,0-0.1,0-0.2,0c-0.1,0-0.1,0.1-0.2,0.1c-0.1,0.1-0.1,0.1-0.1,0.2
			c0,0.1-0.1,0.2-0.1,0.3H56.7z"/>
		<path class="st0" d="M57.5,7.4c0.1,0.1,0.2,0.1,0.3,0.2c0.1,0,0.2,0.1,0.3,0.1c0.1,0,0.2,0,0.3-0.1c0.1-0.1,0.1-0.1,0.1-0.2
			c0-0.1,0-0.1,0-0.1c0,0-0.1-0.1-0.1-0.1c0,0-0.1-0.1-0.1-0.1c-0.1,0-0.1,0-0.2-0.1c-0.1,0-0.1-0.1-0.2-0.1c-0.1,0-0.1-0.1-0.2-0.1
			c-0.1,0-0.1-0.1-0.1-0.2c0-0.1-0.1-0.1-0.1-0.2c0-0.1,0-0.2,0-0.2s0.1-0.1,0.1-0.2c0.1-0.1,0.1-0.1,0.2-0.1s0.2,0,0.3,0
			c0.1,0,0.2,0,0.4,0.1c0.1,0,0.2,0.1,0.3,0.2l-0.2,0.2c-0.1-0.1-0.1-0.1-0.2-0.1C58.3,6,58.2,6,58.2,6c-0.1,0-0.2,0-0.3,0.1
			c-0.1,0.1-0.1,0.1-0.1,0.2c0,0,0,0.1,0,0.1c0,0,0.1,0.1,0.1,0.1c0,0,0.1,0.1,0.1,0.1c0.1,0,0.1,0,0.2,0.1c0.1,0,0.1,0.1,0.2,0.1
			c0.1,0,0.1,0.1,0.2,0.1c0.1,0,0.1,0.1,0.1,0.2c0,0.1,0.1,0.1,0.1,0.2c0,0.1,0,0.2,0,0.2c0,0.1-0.1,0.1-0.1,0.2
			c-0.1,0.1-0.1,0.1-0.2,0.1c-0.1,0-0.2,0-0.3,0c-0.1,0-0.3,0-0.4-0.1c-0.1-0.1-0.2-0.1-0.3-0.2L57.5,7.4z"/>
		<path class="st0" d="M59.4,7.4c0.1,0.1,0.2,0.1,0.3,0.2c0.1,0,0.2,0.1,0.3,0.1c0.1,0,0.2,0,0.3-0.1s0.1-0.1,0.1-0.2
			c0-0.1,0-0.1,0-0.1c0,0-0.1-0.1-0.1-0.1c0,0-0.1-0.1-0.1-0.1c-0.1,0-0.1,0-0.2-0.1c-0.1,0-0.1-0.1-0.2-0.1c-0.1,0-0.1-0.1-0.2-0.1
			c-0.1,0-0.1-0.1-0.1-0.2c0-0.1-0.1-0.1-0.1-0.2c0-0.1,0-0.2,0-0.2c0-0.1,0.1-0.1,0.1-0.2c0.1-0.1,0.1-0.1,0.2-0.1
			c0.1,0,0.2,0,0.3,0c0.1,0,0.2,0,0.4,0.1c0.1,0,0.2,0.1,0.3,0.2l-0.2,0.2c-0.1-0.1-0.1-0.1-0.2-0.1C60.2,6,60.1,6,60,6
			c-0.1,0-0.2,0-0.3,0.1c-0.1,0.1-0.1,0.1-0.1,0.2c0,0,0,0.1,0,0.1c0,0,0.1,0.1,0.1,0.1c0,0,0.1,0.1,0.1,0.1c0.1,0,0.1,0,0.2,0.1
			c0.1,0,0.1,0.1,0.2,0.1c0.1,0,0.1,0.1,0.2,0.1c0.1,0,0.1,0.1,0.1,0.2c0,0.1,0.1,0.1,0.1,0.2c0,0.1,0,0.2,0,0.2
			c0,0.1-0.1,0.1-0.1,0.2c-0.1,0.1-0.1,0.1-0.2,0.1c-0.1,0-0.2,0-0.3,0c-0.1,0-0.3,0-0.4-0.1c-0.1-0.1-0.2-0.1-0.3-0.2L59.4,7.4z"/>
		<path class="st0" d="M27.4,11.7h-1l-0.3,0.8h-0.4l0.9-2.8h0.4l0.9,2.8h-0.4L27.4,11.7z M27.3,11.5L27.1,11
			c-0.1-0.2-0.1-0.3-0.1-0.5c0-0.2-0.1-0.3-0.1-0.5h0c0,0.2-0.1,0.3-0.1,0.5c0,0.2-0.1,0.3-0.1,0.5l-0.1,0.4H27.3z"/>
		<path class="st0" d="M28.3,11.6c0-0.2,0-0.3,0.1-0.4c0-0.1,0.1-0.2,0.2-0.3c0.1-0.1,0.2-0.2,0.3-0.2c0.1-0.1,0.2-0.1,0.3-0.1
			c0.1,0,0.2,0,0.3,0.1s0.2,0.1,0.3,0.2l0-0.3V9.6h0.3v3h-0.3l0-0.2h0c-0.1,0.1-0.2,0.1-0.3,0.2c-0.1,0.1-0.2,0.1-0.3,0.1
			c-0.3,0-0.5-0.1-0.6-0.3C28.4,12.2,28.3,11.9,28.3,11.6z M28.7,11.6c0,0.2,0,0.4,0.1,0.6c0.1,0.1,0.2,0.2,0.4,0.2
			c0.1,0,0.2,0,0.3-0.1c0.1,0,0.2-0.1,0.3-0.2V11c-0.1-0.1-0.2-0.1-0.3-0.2c-0.1,0-0.2,0-0.2,0c-0.1,0-0.2,0-0.2,0.1
			c-0.1,0-0.1,0.1-0.2,0.2c-0.1,0.1-0.1,0.2-0.1,0.2C28.7,11.3,28.7,11.4,28.7,11.6z"/>
		<path class="st0" d="M30.8,10.5h0.3l0,0.3h0c0.1-0.1,0.2-0.2,0.3-0.2c0.1-0.1,0.2-0.1,0.3-0.1c0.2,0,0.3,0,0.4,0.1
			c0.1,0.1,0.2,0.2,0.2,0.3c0.1-0.1,0.2-0.2,0.3-0.3c0.1-0.1,0.2-0.1,0.4-0.1c0.2,0,0.4,0.1,0.5,0.2c0.1,0.1,0.2,0.3,0.2,0.6v1.3
			h-0.3v-1.3c0-0.2,0-0.3-0.1-0.4c-0.1-0.1-0.2-0.1-0.3-0.1c-0.2,0-0.3,0.1-0.5,0.3v1.5h-0.3v-1.3c0-0.2,0-0.3-0.1-0.4
			c-0.1-0.1-0.2-0.1-0.3-0.1c-0.2,0-0.3,0.1-0.5,0.3v1.5h-0.3V10.5z"/>
		<path class="st0" d="M34.6,10.1c-0.1,0-0.1,0-0.2-0.1c0,0-0.1-0.1-0.1-0.2c0-0.1,0-0.1,0.1-0.2c0,0,0.1-0.1,0.2-0.1
			c0.1,0,0.1,0,0.2,0.1c0,0,0.1,0.1,0.1,0.2c0,0.1,0,0.1-0.1,0.2C34.7,10.1,34.7,10.1,34.6,10.1z M34.4,10.5h0.3v2h-0.3V10.5z"/>
		<path class="st0" d="M35.6,10.5h0.3l0,0.3h0c0.1-0.1,0.2-0.2,0.3-0.2c0.1-0.1,0.2-0.1,0.4-0.1c0.2,0,0.4,0.1,0.5,0.2
			c0.1,0.1,0.1,0.3,0.1,0.6v1.3h-0.3v-1.3c0-0.2,0-0.3-0.1-0.4c-0.1-0.1-0.2-0.1-0.3-0.1c-0.1,0-0.2,0-0.3,0.1
			c-0.1,0.1-0.2,0.1-0.3,0.2v1.5h-0.3V10.5z"/>
		<path class="st0" d="M38.2,10.1c-0.1,0-0.1,0-0.2-0.1c0,0-0.1-0.1-0.1-0.2c0-0.1,0-0.1,0.1-0.2c0,0,0.1-0.1,0.2-0.1
			c0.1,0,0.1,0,0.2,0.1c0,0,0.1,0.1,0.1,0.2c0,0.1,0,0.1-0.1,0.2C38.3,10.1,38.2,10.1,38.2,10.1z M38,10.5h0.3v2H38V10.5z"/>
		<path class="st0" d="M39.1,12.1c0.1,0.1,0.2,0.1,0.3,0.2c0.1,0,0.2,0.1,0.3,0.1c0.1,0,0.2,0,0.3-0.1c0.1-0.1,0.1-0.1,0.1-0.2
			c0-0.1,0-0.1,0-0.1c0,0-0.1-0.1-0.1-0.1c0,0-0.1-0.1-0.1-0.1c-0.1,0-0.1,0-0.2-0.1c-0.1,0-0.1-0.1-0.2-0.1c-0.1,0-0.1-0.1-0.2-0.1
			c-0.1,0-0.1-0.1-0.1-0.2c0-0.1-0.1-0.1-0.1-0.2c0-0.1,0-0.2,0-0.2s0.1-0.1,0.1-0.2c0.1-0.1,0.1-0.1,0.2-0.1c0.1,0,0.2,0,0.3,0
			c0.1,0,0.2,0,0.4,0.1c0.1,0,0.2,0.1,0.3,0.2l-0.2,0.2c-0.1-0.1-0.1-0.1-0.2-0.1c-0.1,0-0.2-0.1-0.2-0.1c-0.1,0-0.2,0-0.3,0.1
			c-0.1,0.1-0.1,0.1-0.1,0.2c0,0,0,0.1,0,0.1c0,0,0.1,0.1,0.1,0.1c0,0,0.1,0.1,0.1,0.1c0.1,0,0.1,0,0.2,0.1c0.1,0,0.1,0.1,0.2,0.1
			c0.1,0,0.1,0.1,0.2,0.1c0.1,0,0.1,0.1,0.1,0.2c0,0.1,0.1,0.1,0.1,0.2c0,0.1,0,0.2,0,0.2c0,0.1-0.1,0.1-0.1,0.2
			c-0.1,0.1-0.1,0.1-0.2,0.1c-0.1,0-0.2,0-0.3,0c-0.1,0-0.3,0-0.4-0.1c-0.1-0.1-0.2-0.1-0.3-0.2L39.1,12.1z"/>
		<path class="st0" d="M41.1,10.8h-0.3v-0.3l0.3,0l0-0.6h0.3v0.6H42v0.3h-0.6V12c0,0.1,0,0.2,0.1,0.3c0,0.1,0.1,0.1,0.2,0.1
			c0,0,0.1,0,0.1,0c0,0,0.1,0,0.1,0l0.1,0.3c-0.1,0-0.1,0-0.2,0.1c-0.1,0-0.1,0-0.2,0c-0.1,0-0.2,0-0.3-0.1c-0.1,0-0.1-0.1-0.2-0.1
			c0-0.1-0.1-0.1-0.1-0.2c0-0.1,0-0.2,0-0.3V10.8z"/>
		<path class="st0" d="M42.5,10.5h0.3l0,0.4h0c0.1-0.1,0.2-0.2,0.3-0.3c0.1-0.1,0.2-0.1,0.3-0.1c0.1,0,0.2,0,0.2,0l-0.1,0.3
			c0,0-0.1,0-0.1,0c0,0-0.1,0-0.1,0c-0.1,0-0.2,0-0.3,0.1c-0.1,0.1-0.2,0.2-0.2,0.4v1.3h-0.3V10.5z"/>
		<path class="st0" d="M43.9,12.1c0-0.2,0.1-0.4,0.3-0.5c0.2-0.1,0.5-0.2,1-0.3c0-0.1,0-0.1,0-0.2c0-0.1,0-0.1-0.1-0.2
			c0,0-0.1-0.1-0.1-0.1c-0.1,0-0.1,0-0.2,0c-0.1,0-0.2,0-0.3,0.1c-0.1,0-0.2,0.1-0.3,0.2L44,10.8c0.1-0.1,0.2-0.1,0.4-0.2
			c0.1-0.1,0.3-0.1,0.5-0.1c0.3,0,0.4,0.1,0.5,0.2c0.1,0.2,0.2,0.4,0.2,0.6v1.3h-0.3l0-0.2h0c-0.1,0.1-0.2,0.2-0.3,0.2
			c-0.1,0.1-0.2,0.1-0.4,0.1c-0.2,0-0.3-0.1-0.4-0.2C43.9,12.4,43.9,12.2,43.9,12.1z M44.2,12c0,0.1,0,0.2,0.1,0.3
			c0.1,0.1,0.2,0.1,0.3,0.1c0.1,0,0.2,0,0.3-0.1c0.1,0,0.2-0.1,0.3-0.2v-0.6c-0.2,0-0.3,0-0.4,0.1c-0.1,0-0.2,0.1-0.3,0.1
			c-0.1,0-0.1,0.1-0.2,0.1C44.2,11.9,44.2,12,44.2,12z"/>
		<path class="st0" d="M46.3,10.8H46v-0.3l0.3,0l0-0.6h0.3v0.6h0.6v0.3h-0.6V12c0,0.1,0,0.2,0.1,0.3c0,0.1,0.1,0.1,0.2,0.1
			c0,0,0.1,0,0.1,0c0,0,0.1,0,0.1,0l0.1,0.3c-0.1,0-0.1,0-0.2,0.1c-0.1,0-0.1,0-0.2,0c-0.1,0-0.2,0-0.3-0.1c-0.1,0-0.1-0.1-0.2-0.1
			c0-0.1-0.1-0.1-0.1-0.2c0-0.1,0-0.2,0-0.3V10.8z"/>
		<path class="st0" d="M48,10.1c-0.1,0-0.1,0-0.2-0.1c0,0-0.1-0.1-0.1-0.2c0-0.1,0-0.1,0.1-0.2c0,0,0.1-0.1,0.2-0.1
			c0.1,0,0.1,0,0.2,0.1c0,0,0.1,0.1,0.1,0.2c0,0.1,0,0.1-0.1,0.2C48.1,10.1,48,10.1,48,10.1z M47.8,10.5h0.3v2h-0.3V10.5z"/>
		<path class="st0" d="M48.8,11.6c0-0.2,0-0.3,0.1-0.5c0.1-0.1,0.1-0.2,0.2-0.3c0.1-0.1,0.2-0.2,0.3-0.2c0.1,0,0.2-0.1,0.4-0.1
			c0.1,0,0.2,0,0.4,0.1c0.1,0,0.2,0.1,0.3,0.2c0.1,0.1,0.2,0.2,0.2,0.3c0.1,0.1,0.1,0.3,0.1,0.5c0,0.2,0,0.3-0.1,0.5
			c-0.1,0.1-0.1,0.2-0.2,0.3s-0.2,0.2-0.3,0.2c-0.1,0-0.2,0.1-0.4,0.1c-0.1,0-0.2,0-0.4-0.1c-0.1,0-0.2-0.1-0.3-0.2
			c-0.1-0.1-0.2-0.2-0.2-0.3C48.8,11.9,48.8,11.7,48.8,11.6z M49.1,11.6c0,0.1,0,0.2,0,0.3c0,0.1,0.1,0.2,0.1,0.2
			c0.1,0.1,0.1,0.1,0.2,0.2c0.1,0,0.2,0.1,0.2,0.1c0.1,0,0.2,0,0.2-0.1c0.1,0,0.1-0.1,0.2-0.2c0.1-0.1,0.1-0.2,0.1-0.2
			c0-0.1,0-0.2,0-0.3s0-0.2,0-0.3c0-0.1-0.1-0.2-0.1-0.3c-0.1-0.1-0.1-0.1-0.2-0.2s-0.2-0.1-0.2-0.1c-0.1,0-0.2,0-0.2,0.1
			c-0.1,0-0.1,0.1-0.2,0.2c-0.1,0.1-0.1,0.2-0.1,0.3C49.1,11.3,49.1,11.4,49.1,11.6z"/>
		<path class="st0" d="M51.2,10.5h0.3l0,0.3h0c0.1-0.1,0.2-0.2,0.3-0.2c0.1-0.1,0.2-0.1,0.4-0.1c0.2,0,0.4,0.1,0.5,0.2
			c0.1,0.1,0.1,0.3,0.1,0.6v1.3h-0.3v-1.3c0-0.2,0-0.3-0.1-0.4c-0.1-0.1-0.2-0.1-0.3-0.1c-0.1,0-0.2,0-0.3,0.1
			c-0.1,0.1-0.2,0.1-0.3,0.2v1.5h-0.3V10.5z"/>
	</g>
</g>
</svg>
