<svg width="793" height="585" viewBox="0 0 793 585" fill="none" xmlns="http://www.w3.org/2000/svg">
<g clip-path="url(#clip0)">
<path d="M111.768 296.438L110.171 295.235C118.895 283.654 129.752 269.241 131.425 252.982C133.073 236.954 125.389 219.733 111.37 208.04C99.44 198.088 83.0159 191.799 63.8736 189.851C60.0979 189.467 56.216 189.242 52.4616 189.024C43.3872 188.498 34.0036 187.954 25.1775 185.128C13.0212 181.234 0.523372 171.083 0.00641236 157.179C-0.111696 152.72 1.02286 148.317 3.28128 144.47C5.5397 140.623 8.83148 137.486 12.7829 135.416L13.7169 137.185C10.0967 139.081 7.08035 141.953 5.01026 145.477C2.94016 149 1.89916 153.034 2.00542 157.119C2.48589 170.039 14.2962 179.542 25.7876 183.223C34.3723 185.972 43.6272 186.509 52.5773 187.028C56.3528 187.247 60.2572 187.473 64.0763 187.862C83.6168 189.85 100.414 196.296 112.651 206.504C127.174 218.618 135.13 236.506 133.414 253.187C131.684 270 120.642 284.659 111.768 296.438Z" fill="#F1F1F1"/>
<path d="M28.6965 139.722C37.4839 135.698 43.023 128.976 41.0685 124.708C39.1139 120.44 30.4058 120.242 21.6184 124.266C12.831 128.29 7.29187 135.012 9.24642 139.28C11.201 143.549 19.9091 143.747 28.6965 139.722Z" fill="#F1F1F1"/>
<path d="M64.7413 184.809C73.5287 180.785 79.0678 174.063 77.1133 169.794C75.1587 165.526 66.4506 165.328 57.6632 169.352C48.8758 173.377 43.3367 180.099 45.2912 184.367C47.2458 188.635 55.9538 188.833 64.7413 184.809Z" fill="#F1F1F1"/>
<path d="M39.394 206.315C48.1814 202.291 53.7206 195.569 51.766 191.301C49.8115 187.033 41.1034 186.835 32.3159 190.859C23.5285 194.883 17.9894 201.605 19.9439 205.873C21.8985 210.141 30.6066 210.339 39.394 206.315Z" fill="#F1F1F1"/>
<path d="M104.423 228.23C113.21 224.206 118.749 217.483 116.795 213.215C114.84 208.947 106.132 208.749 97.3447 212.773C88.5573 216.797 83.0182 223.52 84.9727 227.788C86.9273 232.056 95.6354 232.254 104.423 228.23Z" fill="#F1F1F1"/>
<path d="M136.245 213.657C145.032 209.633 150.571 202.911 148.617 198.643C146.662 194.374 137.954 194.177 129.167 198.201C120.379 202.225 114.84 208.947 116.795 213.215C118.749 217.483 127.458 217.681 136.245 213.657Z" fill="#F1F1F1"/>
<path d="M737.921 584.595L738.793 582.796C725.744 576.475 709.503 568.61 700.592 554.909C691.807 541.402 690.78 522.572 697.914 505.768C703.984 491.467 715.724 478.372 731.866 467.899C735.049 465.834 738.4 463.861 741.641 461.953C749.474 457.342 757.574 452.573 764.136 446.029C773.174 437.014 779.657 422.276 773.769 409.67C771.838 405.649 768.818 402.25 765.053 399.859C761.287 397.467 756.926 396.18 752.465 396.142L752.442 398.142C756.529 398.176 760.524 399.355 763.974 401.544C767.425 403.734 770.192 406.847 771.963 410.53C777.435 422.244 771.267 436.091 762.724 444.613C756.341 450.978 748.352 455.681 740.626 460.23C737.367 462.148 733.997 464.132 730.777 466.222C714.3 476.912 702.299 490.317 696.073 504.986C688.683 522.395 689.772 541.942 698.915 555.999C708.131 570.167 724.649 578.168 737.921 584.595Z" fill="#F1F1F1"/>
<path d="M740.274 407.239C749.929 406.807 757.586 402.655 757.376 397.965C757.166 393.276 749.169 389.824 739.514 390.256C729.858 390.688 722.201 394.84 722.411 399.53C722.621 404.22 730.618 407.671 740.274 407.239Z" fill="#F1F1F1"/>
<path d="M728.791 463.809C738.447 463.377 746.104 459.225 745.894 454.535C745.684 449.845 737.687 446.394 728.031 446.826C718.376 447.258 710.719 451.41 710.929 456.1C711.139 460.79 719.136 464.241 728.791 463.809Z" fill="#F1F1F1"/>
<path d="M761.162 471.37C770.817 470.937 778.474 466.785 778.264 462.096C778.054 457.406 770.057 453.954 760.402 454.387C750.746 454.819 743.089 458.971 743.299 463.66C743.509 468.35 751.506 471.802 761.162 471.37Z" fill="#F1F1F1"/>
<path d="M713.313 520.558C722.968 520.126 730.625 515.974 730.415 511.284C730.205 506.594 722.208 503.143 712.553 503.575C702.897 504.007 695.24 508.159 695.45 512.849C695.66 517.539 703.658 520.99 713.313 520.558Z" fill="#F1F1F1"/>
<path d="M678.348 522.123C688.003 521.69 695.66 517.538 695.45 512.849C695.24 508.159 687.243 504.707 677.588 505.14C667.933 505.572 660.275 509.724 660.485 514.413C660.695 519.103 668.693 522.555 678.348 522.123Z" fill="#F1F1F1"/>
<path d="M459.927 265.125C460.313 265.521 460.667 265.948 460.986 266.4L510.564 265.187L516.348 254.618L533.439 261.262L525.018 280.967C524.338 282.559 523.16 283.888 521.66 284.753C520.161 285.618 518.421 285.974 516.703 285.766L460.688 278.999C459.367 280.672 457.568 281.903 455.53 282.528C453.492 283.153 451.312 283.143 449.28 282.499C447.248 281.855 445.46 280.608 444.154 278.923C442.848 277.238 442.086 275.196 441.97 273.067C441.853 270.939 442.387 268.825 443.501 267.008C444.615 265.19 446.255 263.755 448.205 262.893C450.154 262.031 452.32 261.782 454.414 262.181C456.508 262.58 458.431 263.606 459.927 265.125V265.125Z" fill="#FFB7B7"/>
<path d="M621.545 566.219L605.244 566.218L597.489 503.34L621.548 503.341L621.545 566.219Z" fill="#FFB7B7"/>
<path d="M625.703 582.021L573.139 582.019V581.354C573.14 575.928 575.295 570.724 579.132 566.888C582.969 563.051 588.172 560.895 593.598 560.895H593.6L625.704 560.896L625.703 582.021Z" fill="#2F2E41"/>
<path d="M473.52 565.856L458.529 559.451L476.098 498.582L498.223 508.034L473.52 565.856Z" fill="#FFB7B7"/>
<path d="M471.136 582.021L422.799 561.37L423.06 560.759C425.192 555.769 429.218 551.831 434.254 549.81C439.289 547.789 444.921 547.851 449.911 549.982L449.912 549.982L479.435 562.595L471.136 582.021Z" fill="#2F2E41"/>
<path d="M542.308 278.746L541.129 297.848L575.587 301.535L611.642 305.394L601.03 276.387L542.308 278.746Z" fill="#FFB7B7"/>
<path d="M540.525 285.826L526.658 204.774L549.86 197.17L556.675 187.825L589.837 189.787L594.705 200.693L612.388 209.048L609.671 259.517L604.902 282.991L604.314 282.686C580.408 270.307 541.488 285.446 541.098 285.6L540.525 285.826Z" fill="#2F2E41"/>
<path d="M531.619 273.086L508.019 263.644L508.119 263.224C508.221 262.8 518.265 220.826 519.599 214.081C520.988 207.053 526.064 205.11 526.28 205.031L526.437 204.973L535.777 207.816L539.879 240.045L531.619 273.086Z" fill="#2F2E41"/>
<path d="M485.662 554.805L454.246 548.361L504.457 409.811L521.642 362.554C521.642 362.554 532.541 324.663 537.466 310L540.437 290.325L610.786 298.112C610.786 298.112 630.435 326.967 624.466 374L627.165 550.777L595.75 552.388L569.436 374.099L523.253 471.836C523.253 471.836 508.696 513.544 498.282 522.584L485.662 554.805Z" fill="#2F2E41"/>
<path d="M582.575 304.674C583.128 304.66 583.681 304.691 584.23 304.765L617.049 267.584L613.231 256.157L629.724 248.142L638.448 267.714C639.153 269.296 639.326 271.063 638.941 272.751C638.556 274.438 637.634 275.956 636.313 277.075L593.266 313.549C593.595 315.656 593.274 317.812 592.347 319.731C591.42 321.651 589.93 323.243 588.076 324.295C586.223 325.347 584.092 325.81 581.969 325.622C579.846 325.434 577.83 324.604 576.19 323.243C574.549 321.881 573.363 320.052 572.787 318C572.212 315.947 572.275 313.768 572.968 311.752C573.661 309.737 574.952 307.98 576.668 306.715C578.384 305.451 580.444 304.739 582.575 304.674H582.575Z" fill="#FFB7B7"/>
<path d="M614.429 271.203L600.739 239L606.078 216.569L611.832 209.3C612.253 209.12 612.707 209.029 613.165 209.033C613.624 209.038 614.076 209.137 614.494 209.325C616.616 210.179 618.423 212.796 619.865 217.104L632.695 253.65L614.429 271.203Z" fill="#2F2E41"/>
<path d="M543.4 175.892V151.614C543.4 142.986 546.828 134.711 552.929 128.61C559.03 122.509 567.305 119.081 575.933 119.081C584.561 119.081 592.836 122.509 598.937 128.61C605.038 134.711 608.466 142.986 608.466 151.614V175.892C608.464 177.051 608.003 178.161 607.184 178.981C606.365 179.8 605.254 180.261 604.096 180.262H547.77C546.612 180.261 545.501 179.8 544.682 178.981C543.862 178.161 543.401 177.051 543.4 175.892V175.892Z" fill="#2F2E41"/>
<path d="M569.248 179.697C582.421 179.697 593.1 169.018 593.1 155.845C593.1 142.672 582.421 131.993 569.248 131.993C556.075 131.993 545.396 142.672 545.396 155.845C545.396 169.018 556.075 179.697 569.248 179.697Z" fill="#FFB7B7"/>
<path d="M535.704 153.556C535.711 146.733 538.425 140.192 543.25 135.367C548.074 130.543 554.616 127.829 561.439 127.821H566.294C573.117 127.829 579.659 130.543 584.483 135.367C589.308 140.192 592.021 146.733 592.029 153.556V154.042H581.767L578.268 144.241L577.568 154.042H572.264L570.498 149.097L570.145 154.042H535.704V153.556Z" fill="#2F2E41"/>
<path d="M566.9 182.992C566.419 182.34 566.131 181.565 566.07 180.756C566.01 179.947 566.179 179.138 566.558 178.421C571.704 168.634 578.908 150.55 569.345 139.397L568.658 138.595H596.42V180.276L571.2 184.726C570.945 184.771 570.686 184.794 570.427 184.794C569.739 184.794 569.06 184.631 568.447 184.318C567.834 184.004 567.304 183.55 566.9 182.992Z" fill="#2F2E41"/>
<path d="M428.888 484.413H131.523C124.475 484.405 117.718 481.602 112.734 476.618C107.751 471.634 104.947 464.877 104.939 457.829V26.5841C104.947 19.536 107.751 12.7789 112.734 7.7951C117.718 2.81134 124.475 0.00795881 131.523 0H428.888C435.936 0.0079588 442.693 2.81134 447.677 7.7951C452.661 12.7789 455.464 19.536 455.472 26.5841V457.829C455.464 464.877 452.661 471.634 447.677 476.618C442.693 481.602 435.936 484.405 428.888 484.413Z" fill="#3F3D56"/>
<path d="M429.411 467.452H131C128.827 467.449 126.744 466.585 125.208 465.049C123.672 463.513 122.808 461.43 122.805 459.257V25.156C122.808 22.9834 123.672 20.9004 125.208 19.3641C126.744 17.8278 128.827 16.9637 131 16.9612H429.411C431.584 16.9637 433.667 17.8278 435.203 19.3641C436.739 20.9004 437.603 22.9834 437.606 25.156V459.257C437.603 461.43 436.739 463.513 435.203 465.049C433.667 466.585 431.584 467.449 429.411 467.452V467.452Z" fill="white"/>
<path d="M279.075 10.4029C280.324 10.4029 281.336 9.39038 281.336 8.14138C281.336 6.89239 280.324 5.87988 279.075 5.87988C277.826 5.87988 276.813 6.89239 276.813 8.14138C276.813 9.39038 277.826 10.4029 279.075 10.4029Z" fill="white"/>
<path d="M346.466 292C333.373 292 320.781 286.964 311.299 277.935C301.817 268.907 296.17 256.577 295.529 243.5C295.489 244.329 295.466 245.162 295.466 246C295.466 259.526 300.839 272.498 310.403 282.062C319.967 291.627 332.94 297 346.466 297C359.992 297 372.964 291.627 382.528 282.062C392.092 272.498 397.466 259.526 397.466 246C397.466 245.162 397.442 244.329 397.403 243.5C396.761 256.577 391.114 268.907 381.632 277.935C372.15 286.964 359.559 292 346.466 292V292Z" fill="#CBCBCB"/>
<path d="M213.466 172C200.373 172 187.781 166.964 178.299 157.935C168.817 148.907 163.17 136.577 162.529 123.5C162.489 124.329 162.466 125.162 162.466 126C162.466 139.526 167.839 152.498 177.403 162.062C186.967 171.627 199.94 177 213.466 177C226.992 177 239.964 171.627 249.528 162.062C259.092 152.498 264.466 139.526 264.466 126C264.466 125.162 264.442 124.329 264.403 123.5C263.761 136.577 258.114 148.907 248.632 157.935C239.15 166.964 226.559 172 213.466 172V172Z" fill="#CBCBCB"/>
<path d="M216.466 412C203.373 412 190.781 406.964 181.299 397.935C171.817 388.907 166.17 376.577 165.529 363.5C165.489 364.329 165.466 365.162 165.466 366C165.466 379.526 170.839 392.498 180.403 402.062C189.967 411.627 202.94 417 216.466 417C229.992 417 242.964 411.627 252.528 402.062C262.092 392.498 267.466 379.526 267.466 366C267.466 365.162 267.442 364.329 267.403 363.5C266.761 376.577 261.114 388.907 251.632 397.935C242.15 406.964 229.559 412 216.466 412V412Z" fill="#CBCBCB"/>
<path d="M346.482 292.755C336.287 292.755 326.32 289.732 317.843 284.068C309.366 278.403 302.759 270.353 298.858 260.933C294.956 251.514 293.935 241.149 295.924 231.15C297.913 221.151 302.823 211.966 310.032 204.756C317.241 197.547 326.426 192.638 336.425 190.649C346.425 188.66 356.79 189.681 366.209 193.582C375.628 197.484 383.679 204.091 389.343 212.568C395.007 221.045 398.03 231.011 398.03 241.207C398.03 254.878 392.599 267.99 382.932 277.657C373.265 287.324 360.153 292.755 346.482 292.755V292.755ZM346.482 192.113C336.772 192.113 327.28 194.992 319.207 200.387C311.134 205.781 304.841 213.449 301.125 222.419C297.41 231.39 296.437 241.261 298.332 250.784C300.226 260.308 304.902 269.055 311.768 275.921C318.633 282.787 327.381 287.463 336.904 289.357C346.428 291.251 356.299 290.279 365.269 286.563C374.24 282.847 381.907 276.555 387.302 268.482C392.696 260.408 395.576 250.916 395.576 241.207C395.576 234.76 394.306 228.376 391.839 222.419C389.371 216.463 385.755 211.051 381.196 206.492C376.638 201.933 371.226 198.317 365.269 195.85C359.313 193.383 352.929 192.113 346.482 192.113V192.113Z" fill="#3F3D56"/>
<path d="M375.938 227.089L382.075 225.862C382.075 225.862 376.92 231.631 375.938 231.999C375.847 233.224 375.847 234.455 375.938 235.681C364.156 286.247 320.708 263.91 320.708 263.91C336.54 264.278 337.891 257.773 337.891 257.773C328.686 256.423 326.844 250.409 326.844 250.409C327.67 250.845 328.628 250.96 329.534 250.734C330.44 250.507 331.23 249.955 331.754 249.182C321.812 246.604 323.162 236.908 323.162 236.908C324.934 238.188 327.005 238.991 329.176 239.24C328.072 237.89 318.744 226.721 324.39 220.953C324.39 220.953 331.263 233.226 349.305 234.331L350.532 234.085C350.323 233.201 350.241 232.292 350.287 231.385C350.287 227.967 351.644 224.689 354.061 222.273C356.478 219.856 359.756 218.498 363.174 218.498V218.498C371.765 218.498 373.606 223.407 373.606 223.407L379.743 219.725C379.62 219.725 379.007 225.862 375.938 227.089Z" fill="#6C63FF"/>
<path d="M213.929 173.089C203.734 173.089 193.767 170.066 185.29 164.402C176.813 158.738 170.206 150.687 166.305 141.268C162.403 131.848 161.382 121.484 163.371 111.484C165.36 101.485 170.27 92.2998 177.479 85.0906C184.688 77.8815 193.873 72.9719 203.872 70.9829C213.872 68.9939 224.236 70.0148 233.656 73.9163C243.075 77.8179 251.126 84.425 256.79 92.9021C262.454 101.379 265.477 111.346 265.477 121.541C265.477 128.31 264.144 135.013 261.553 141.268C258.963 147.522 255.166 153.204 250.379 157.991C245.593 162.778 239.91 166.575 233.656 169.165C227.402 171.756 220.698 173.089 213.929 173.089V173.089ZM213.929 72.4472C204.219 72.4472 194.727 75.3265 186.654 80.721C178.581 86.1155 172.288 93.7828 168.572 102.754C164.857 111.724 163.884 121.595 165.779 131.119C167.673 140.642 172.349 149.389 179.215 156.255C186.08 163.121 194.828 167.797 204.351 169.691C213.875 171.586 223.746 170.613 232.716 166.898C241.687 163.182 249.354 156.889 254.749 148.816C260.143 140.742 263.023 131.251 263.023 121.541C263.023 108.52 257.85 96.0332 248.644 86.8264C239.437 77.6195 226.95 72.4472 213.929 72.4471V72.4472Z" fill="#3F3D56"/>
<path d="M227.969 96.0399C231.403 96.0502 234.693 97.4188 237.121 99.8468C239.549 102.275 240.918 105.565 240.928 108.999V134.914C240.918 138.348 239.549 141.638 237.121 144.066C234.693 146.494 231.403 147.862 227.969 147.873H202.054C198.62 147.862 195.33 146.494 192.902 144.066C190.474 141.638 189.105 138.348 189.095 134.914V108.999C189.105 105.565 190.474 102.275 192.902 99.8468C195.33 97.4188 198.62 96.0502 202.054 96.0399H227.969ZM227.969 90.8572H202.054C197.247 90.8712 192.641 92.787 189.241 96.1862C185.842 99.5854 183.926 104.192 183.912 108.999V134.914C183.926 139.721 185.842 144.327 189.241 147.726C192.641 151.126 197.247 153.041 202.054 153.055H227.969C232.776 153.041 237.382 151.126 240.782 147.726C244.181 144.327 246.097 139.721 246.111 134.914V108.999C246.097 104.192 244.181 99.5854 240.782 96.1862C237.382 92.787 232.776 90.8712 227.969 90.8572V90.8572Z" fill="#6C63FF"/>
<path d="M231.856 108.999C230.828 108.997 229.843 108.586 229.117 107.858C228.392 107.13 227.984 106.144 227.986 105.116C227.987 104.088 228.396 103.102 229.123 102.375C229.851 101.649 230.837 101.241 231.865 101.241C232.893 101.241 233.879 101.649 234.606 102.375C235.333 103.102 235.743 104.088 235.744 105.116C235.745 106.144 235.338 107.13 234.612 107.858C233.886 108.586 232.901 108.997 231.873 108.999C231.867 108.999 231.862 108.999 231.856 108.999Z" fill="#6C63FF"/>
<path d="M215.012 111.589C217.062 111.589 219.066 112.197 220.771 113.337C222.476 114.476 223.805 116.095 224.589 117.989C225.374 119.883 225.579 121.968 225.179 123.979C224.779 125.99 223.792 127.837 222.342 129.287C220.892 130.737 219.045 131.724 217.034 132.124C215.023 132.524 212.939 132.319 211.044 131.534C209.15 130.749 207.531 129.421 206.392 127.716C205.253 126.011 204.645 124.007 204.645 121.956C204.645 120.595 204.913 119.247 205.434 117.989C205.955 116.731 206.718 115.588 207.681 114.626C208.644 113.663 209.787 112.9 211.044 112.379C212.302 111.858 213.65 111.589 215.012 111.589V111.589ZM215.012 106.407C211.936 106.407 208.93 107.319 206.373 109.027C203.816 110.736 201.822 113.164 200.646 116.006C199.469 118.847 199.161 121.973 199.761 124.99C200.361 128.006 201.842 130.777 204.016 132.951C206.191 135.126 208.962 136.607 211.978 137.207C214.994 137.807 218.121 137.499 220.962 136.322C223.803 135.145 226.232 133.152 227.94 130.595C229.649 128.038 230.561 125.032 230.561 121.956C230.561 117.832 228.923 113.877 226.007 110.961C223.091 108.045 219.136 106.407 215.012 106.407V106.407Z" fill="#6C63FF"/>
<path d="M216.384 412.421C206.188 412.421 196.222 409.398 187.745 403.734C179.268 398.069 172.661 390.019 168.759 380.599C164.858 371.18 163.837 360.815 165.826 350.816C167.815 340.817 172.724 331.632 179.934 324.422C187.143 317.213 196.328 312.304 206.327 310.315C216.327 308.326 226.691 309.347 236.11 313.248C245.53 317.15 253.58 323.757 259.245 332.234C264.909 340.711 267.932 350.677 267.932 360.873C267.932 374.544 262.501 387.656 252.834 397.323C243.167 406.99 230.055 412.421 216.384 412.421V412.421ZM216.384 311.779C206.674 311.779 197.182 314.658 189.109 320.053C181.035 325.447 174.743 333.115 171.027 342.085C167.311 351.056 166.339 360.927 168.233 370.45C170.128 379.974 174.803 388.721 181.669 395.587C188.535 402.453 197.283 407.129 206.806 409.023C216.329 410.917 226.2 409.945 235.171 406.229C244.142 402.513 251.809 396.221 257.204 388.148C262.598 380.074 265.477 370.582 265.477 360.873C265.477 354.426 264.208 348.042 261.74 342.085C259.273 336.129 255.657 330.717 251.098 326.158C246.539 321.599 241.127 317.983 235.171 315.516C229.215 313.049 222.831 311.779 216.384 311.779V311.779Z" fill="#3F3D56"/>
<path fill-rule="evenodd" clip-rule="evenodd" d="M250.082 361.075C250.081 354.635 248.234 348.331 244.762 342.908C241.289 337.485 236.335 333.171 230.486 330.476C224.638 327.781 218.139 326.818 211.76 327.701C205.382 328.585 199.39 331.278 194.494 335.461C189.598 339.644 186.003 345.142 184.135 351.305C182.267 357.468 182.203 364.036 183.952 370.234C185.702 376.432 189.19 381.998 194.004 386.275C198.819 390.551 204.758 393.359 211.118 394.365V370.819H202.56V361.075H211.118V353.649C211.118 345.205 216.151 340.537 223.847 340.537C226.374 340.572 228.896 340.792 231.391 341.196V349.49H227.14C222.956 349.49 221.648 352.086 221.648 354.755V361.076H230.993L229.5 370.82H221.647V394.368C229.575 393.113 236.794 389.07 242.006 382.967C247.219 376.863 250.082 369.101 250.082 361.075L250.082 361.075Z" fill="#6C63FF"/>
<path d="M791.092 584H410.092C409.826 584 409.572 583.895 409.384 583.707C409.197 583.52 409.092 583.265 409.092 583C409.092 582.735 409.197 582.48 409.384 582.293C409.572 582.105 409.826 582 410.092 582H791.092C791.357 582 791.611 582.105 791.799 582.293C791.986 582.48 792.092 582.735 792.092 583C792.092 583.265 791.986 583.52 791.799 583.707C791.611 583.895 791.357 584 791.092 584Z" fill="#CBCBCB"/>
</g>
<defs>
<clipPath id="clip0">
<rect width="792.092" height="584.595" fill="white"/>
</clipPath>
</defs>
</svg>
