<svg width="270" height="41" viewBox="0 0 270 41" fill="none" xmlns="http://www.w3.org/2000/svg">
<path d="M62.6061 4.20264V6.20654H56.3131V9.37061H62.3073V11.4536H56.2867V14.7495H62.7291V16.771H54.0016V4.20264H62.6061ZM69.7744 16.771H67.3838L72.7188 4.20264H75.2237L80.6729 16.771H78.168L76.7354 13.3433H72.5606L73.3604 11.3218H75.8916L73.9141 6.60205L69.7744 16.771ZM85.5912 16.2437V14.1343C86.851 14.603 88.2748 14.8374 89.8627 14.8374C91.7905 14.8374 92.7543 14.1929 92.7543 12.9038C92.7543 11.9663 92.1625 11.4976 90.9789 11.4976H89.0102C86.4379 11.4976 85.1518 10.3257 85.1518 7.98193C85.1518 5.40381 86.9828 4.11475 90.6449 4.11475C92.0512 4.11475 93.3842 4.31982 94.644 4.72998V6.83936C93.3842 6.37061 92.0512 6.13623 90.6449 6.13623C88.5356 6.13623 87.4809 6.75146 87.4809 7.98193C87.4809 8.91943 87.9907 9.38818 89.0102 9.38818H90.9789C93.7153 9.38818 95.0834 10.5601 95.0834 12.9038C95.0834 15.5405 93.3432 16.8589 89.8627 16.8589C88.2748 16.8589 86.851 16.6538 85.5912 16.2437ZM99.5623 4.20264H102.067L105.6 10.2583L108.923 4.20264H111.34L106.717 12.3765V16.771H104.388V12.3765L99.5623 4.20264ZM52.9908 24.2026H55.3551L56.6998 33.229L59.9694 24.2026H62.2106L65.2692 32.8774L66.693 24.2026H68.9869L66.6227 36.771H64.4078L60.9537 26.9097L57.2448 36.771H55.0563L52.9908 24.2026ZM76.1905 30.4517C76.1905 33.3755 77.4883 34.8374 80.084 34.8374C82.6153 34.8374 83.8809 33.3755 83.8809 30.4517C83.8809 27.5747 82.6153 26.1362 80.084 26.1362C77.4883 26.1362 76.1905 27.5747 76.1905 30.4517ZM73.7735 30.5044C73.7735 26.2446 75.877 24.1147 80.084 24.1147C84.2266 24.1147 86.2979 26.2446 86.2979 30.5044C86.2979 34.7407 84.2266 36.8589 80.084 36.8589C76.0645 36.8589 73.961 34.7407 73.7735 30.5044ZM92.1039 36.7534V24.2026H97.8168C100.383 24.2026 101.666 25.3247 101.666 27.5688C101.666 29.0864 100.667 30.3433 98.6694 31.3394L102.651 36.771H99.7153L95.892 31.2954V30.2319C98.1186 29.8511 99.2319 28.9868 99.2319 27.6392C99.2319 26.7134 98.7104 26.2505 97.6674 26.2505H94.477V36.7534H92.1039ZM109.687 24.2026V36.771H107.358V24.2026H109.687ZM118.529 24.2026L113.168 30.0649L119.092 36.771H115.866L111.006 30.8999V29.3882L115.681 24.2026H118.529ZM139.387 24.2026V26.2065H133.446V29.3706H139.089V31.4536H133.42V36.771H131.134V24.2026H139.387ZM144.965 36.7534V24.2026H150.678C153.244 24.2026 154.527 25.3247 154.527 27.5688C154.527 29.0864 153.528 30.3433 151.53 31.3394L155.512 36.771H152.576L148.753 31.2954V30.2319C150.98 29.8511 152.093 28.9868 152.093 27.6392C152.093 26.7134 151.571 26.2505 150.528 26.2505H147.338V36.7534H144.965ZM162.197 30.4517C162.197 33.3755 163.495 34.8374 166.09 34.8374C168.622 34.8374 169.887 33.3755 169.887 30.4517C169.887 27.5747 168.622 26.1362 166.09 26.1362C163.495 26.1362 162.197 27.5747 162.197 30.4517ZM159.78 30.5044C159.78 26.2446 161.883 24.1147 166.09 24.1147C170.233 24.1147 172.304 26.2446 172.304 30.5044C172.304 34.7407 170.233 36.8589 166.09 36.8589C162.071 36.8589 159.967 34.7407 159.78 30.5044ZM178.11 36.771V24.2026H180.527L184.79 33.7388L188.965 24.2026H191.294V36.771H189.14V28.0171L185.73 36.771H183.744L180.264 28.0171V36.771H178.11ZM205.086 36.771V24.2026H207.415V29.3882H213.611V24.2026H215.94V36.771H213.611V31.4097H207.415V36.771H205.086ZM224.163 30.4517C224.163 33.3755 225.461 34.8374 228.057 34.8374C230.588 34.8374 231.854 33.3755 231.854 30.4517C231.854 27.5747 230.588 26.1362 228.057 26.1362C225.461 26.1362 224.163 27.5747 224.163 30.4517ZM221.746 30.5044C221.746 26.2446 223.85 24.1147 228.057 24.1147C232.199 24.1147 234.271 26.2446 234.271 30.5044C234.271 34.7407 232.199 36.8589 228.057 36.8589C224.037 36.8589 221.934 34.7407 221.746 30.5044ZM240.077 36.771V24.2026H242.494L246.756 33.7388L250.931 24.2026H253.26V36.771H251.107V28.0171L247.697 36.771H245.71L242.23 28.0171V36.771H240.077ZM268.101 24.2026V26.2065H261.808V29.3706H267.803V31.4536H261.782V34.7495H268.224V36.771H259.497V24.2026H268.101Z" fill="white"/>
<path fill-rule="evenodd" clip-rule="evenodd" d="M22.0998 2.96747H14.4756V36.8526H22.0998L24.3483 36.8526L27.9175 27.6888L31.4867 36.8526L34.1548 36.8526H41.8752V2.96747H34.1548V25.3754L31.4867 18.525H24.3484H24.3484L22.0998 24.2982V2.96747Z" fill="url(#paint0_linear)"/>
<path d="M2.40283 2.96747C1.29826 2.96747 0.402832 3.8629 0.402832 4.96747V34.8526C0.402832 35.9572 1.29827 36.8526 2.40283 36.8526H20.0998C21.2044 36.8526 22.0998 35.9572 22.0998 34.8526V31.6187C22.0998 30.5141 21.2044 29.6187 20.0998 29.6187H9.63681C8.53224 29.6187 7.63681 28.7232 7.63681 27.6187V25.5272C7.63681 24.4227 8.53224 23.5272 9.63681 23.5272L20.0998 23.5272C21.2044 23.5272 22.0998 22.6318 22.0998 21.5272V18.2932C22.0998 17.1887 21.2044 16.2932 20.0998 16.2932H9.63681C8.53224 16.2932 7.63681 15.3978 7.63681 14.2932V12.2015C7.63681 11.0969 8.53224 10.2015 9.63681 10.2015L20.0998 10.2015C21.2044 10.2015 22.0998 9.30603 22.0998 8.20146V4.96748C22.0998 3.86291 21.2044 2.96748 20.0998 2.96748L2.40283 2.96747Z" fill="url(#paint1_linear)"/>
<defs>
<linearGradient id="paint0_linear" x1="14.4756" y1="36.8527" x2="45.2418" y2="36.8527" gradientUnits="userSpaceOnUse">
<stop stop-color="#040817"/>
<stop offset="1" stop-color="#5748AF"/>
</linearGradient>
<linearGradient id="paint1_linear" x1="-8.32428" y1="36.8526" x2="40.1622" y2="36.8526" gradientUnits="userSpaceOnUse">
<stop stop-color="#002863"/>
<stop offset="1" stop-color="#A98BFF"/>
</linearGradient>
</defs>
</svg>
