<svg width="376" height="316" viewBox="0 0 376 316" fill="none" xmlns="http://www.w3.org/2000/svg">
<path d="M78.7352 219.825C95.9048 226.435 133.373 230.543 145.891 194.095C161.537 148.534 124.638 152.879 117.706 166.604C106.311 189.166 157.184 214.046 185.313 203.43C207.318 195.126 217.484 165.252 218.094 152.907" stroke="black" stroke-dasharray="5 5"/>
<path d="M19.5969 28.1404L33.5138 51.0655L5.68007 51.0655L19.5969 28.1404Z" stroke="#2898FF"/>
<path d="M250.425 259.758L261.129 277.391L239.721 277.391L250.425 259.758Z" stroke="#2898FF"/>
<path d="M36.4519 301.453L54.9939 282.077L62.1978 308.962L36.4519 301.453Z" stroke="#2898FF"/>
<path d="M200.435 18.5437L214.697 3.64053L220.237 24.3194L200.435 18.5437Z" stroke="black"/>
<path d="M44.4858 52.9225C54.2235 50.9513 74.5223 52.4125 77.8166 74.0268C81.9344 101.045 62.7179 94.9183 60.2979 86.5574C56.3196 72.8123 85.6604 64.0147 99.6362 72.764C110.57 79.6085 113.22 97.3145 112.406 104.272" stroke="black" stroke-dasharray="5 5"/>
<path d="M208.3 30.9953C208.367 36.3253 205.571 46.8799 193.848 46.4591C179.195 45.9331 184.342 36.4146 188.991 35.9735C196.634 35.2482 198.343 51.5933 192.336 58.0873C187.637 63.1676 178.039 62.7974 174.452 61.6741" stroke="black" stroke-dasharray="5 5"/>
<path d="M100.392 246.839C100.459 252.169 97.6624 262.724 85.9397 262.303C71.2863 261.777 76.4338 252.259 81.0828 251.817C88.7255 251.092 90.4346 267.437 84.4275 273.931C79.7281 279.012 70.13 278.641 66.5437 277.518" stroke="black" stroke-dasharray="5 5"/>
<rect x="226.5" y="45.395" width="149" height="149" fill="white" stroke="black"/>
<rect x="251.64" y="131.388" width="35.8715" height="36.0568" stroke="black"/>
<rect x="318.679" y="131.388" width="35.8715" height="36.0568" stroke="black"/>
<path d="M227 114C233.448 96.4627 252.511 66.4388 277.175 86.6418C307.159 110.773 327.552 83.602 334 67" stroke="black"/>
</svg>
