<svg width="267" height="316" viewBox="0 0 267 316" fill="none" xmlns="http://www.w3.org/2000/svg">
<path d="M30.048 254.744C42.2519 256.401 67.2924 253.297 69.8235 227.624C72.9875 195.532 49.6222 204.055 47.2238 214.064C43.2811 230.519 80.2579 238.878 96.9432 227.624C109.996 218.82 112.01 197.792 110.503 189.657" stroke="black" stroke-dasharray="5 5"/>
<path d="M246.502 28.2324L232.585 51.1574L260.419 51.1574L246.502 28.2324Z" stroke="#2898FF"/>
<path d="M15.6738 259.85L4.96962 277.483L26.378 277.483L15.6738 259.85Z" stroke="#2898FF"/>
<path d="M229.647 301.545L211.105 282.169L203.901 309.054L229.647 301.545Z" stroke="#2898FF"/>
<path d="M65.6637 18.6355L51.4021 3.73232L45.8612 24.4112L65.6637 18.6355Z" stroke="black"/>
<path d="M57.7986 31.0871C57.7315 36.4171 60.5278 46.9717 72.2505 46.5509C86.9039 46.0249 81.7564 36.5064 77.1074 36.0653C69.4646 35.34 67.7556 51.6851 73.7627 58.1791C78.4621 63.2594 88.0602 62.8892 91.6464 61.7659" stroke="black" stroke-dasharray="5 5"/>
<path d="M165.707 246.931C165.64 252.261 168.436 262.816 180.159 262.395C194.812 261.869 189.665 252.35 185.016 251.909C177.373 251.184 175.664 267.529 181.671 274.023C186.371 279.103 195.969 278.733 199.555 277.61" stroke="black" stroke-dasharray="5 5"/>
<rect x="97.5" y="215.5" width="108" height="136" transform="rotate(-90 97.5 215.5)" fill="#FFFCFC" stroke="black"/>
<rect x="172.593" y="189.25" width="42.9572" height="14.6781" rx="2.5" fill="#F9F4F4" stroke="black"/>
<line x1="109.088" y1="128.524" x2="190.409" y2="128.524" stroke="black"/>
<line x1="109.088" y1="140.469" x2="190.409" y2="140.469" stroke="black"/>
<line x1="109.088" y1="154.654" x2="190.409" y2="154.654" stroke="black"/>
</svg>
