<svg width="266" height="317" viewBox="0 0 266 317" fill="none" xmlns="http://www.w3.org/2000/svg">
<path d="M29.882 255.136C42.0859 256.794 67.1264 253.69 69.6575 228.017C72.8215 195.925 49.4561 204.448 47.0578 214.457C43.1151 230.911 80.0919 239.27 96.7772 228.017C109.83 219.213 111.844 198.185 110.337 190.049" stroke="black" stroke-dasharray="5 5"/>
<path d="M232.419 51.5499L260.253 51.5499L246.336 28.6248L232.419 51.5499Z" stroke="#2898FF"/>
<path d="M150.01 121.196C155.483 125.67 163.336 125.716 168.86 121.306M87.4434 163.715V70.7005L149.694 121.584C155.349 126.206 163.463 126.253 169.172 121.697L233.089 70.6848V163.715C233.089 171.723 226.597 178.215 218.589 178.215H101.943C93.9352 178.215 87.4434 171.723 87.4434 163.715ZM88.3451 70.146H232.161L168.548 120.916C163.208 125.178 155.617 125.133 150.327 120.809L88.3451 70.146Z" fill="white" stroke="black"/>
<rect x="188.24" y="118.654" width="55.068" height="90.3469" rx="4.5" fill="white" stroke="black"/>
<rect x="202.364" y="201.322" width="27.0518" height="2.39828" rx="1.19914" stroke="black"/>
<path d="M4.8036 277.875L26.2119 277.875L15.5078 260.243L4.8036 277.875Z" stroke="#2898FF"/>
<path d="M210.939 282.562L203.735 309.447L229.481 301.938L210.939 282.562Z" stroke="#2898FF"/>
<path d="M51.2361 4.1249L45.6952 24.8038L65.4977 19.0281L51.2361 4.1249Z" stroke="black"/>
<path d="M57.6326 31.4797C57.5654 36.8096 60.3618 47.3643 72.0845 46.9435C86.7379 46.4175 81.5904 36.899 76.9414 36.4579C69.2986 35.7326 67.5896 52.0777 73.5967 58.5717C78.296 63.652 87.8942 63.2818 91.4804 62.1585" stroke="black" stroke-dasharray="5 5"/>
<path d="M165.541 247.324C165.474 252.654 168.27 263.208 179.993 262.787C194.646 262.261 189.499 252.743 184.85 252.302C177.207 251.577 175.498 267.922 181.505 274.416C186.204 279.496 195.803 279.126 199.389 278.002" stroke="black" stroke-dasharray="5 5"/>
</svg>
