<svg width="267" height="316" viewBox="0 0 267 316" fill="none" xmlns="http://www.w3.org/2000/svg">
<path d="M78.9725 219.839C96.1421 226.449 133.611 230.557 146.128 194.109C161.775 148.548 124.876 152.894 117.944 166.618C106.548 189.18 157.422 214.06 185.55 203.445C207.555 195.14 217.721 165.267 218.332 152.921" stroke="black" stroke-dasharray="5 5"/>
<path d="M19.8342 28.1547L33.7511 51.0798L5.91737 51.0798L19.8342 28.1547Z" stroke="#2898FF"/>
<path d="M250.662 259.772L261.367 277.405L239.958 277.405L250.662 259.772Z" stroke="#2898FF"/>
<path d="M36.6892 301.467L55.2312 282.091L62.4351 308.977L36.6892 301.467Z" stroke="#2898FF"/>
<path d="M200.672 18.5579L214.934 3.65469L220.475 24.3336L200.672 18.5579Z" stroke="black"/>
<path d="M44.7231 52.9367C54.4608 50.9655 74.7596 52.4268 78.0539 74.041C82.1717 101.059 62.9552 94.9325 60.5352 86.5716C56.5569 72.8265 85.8977 64.0289 99.8735 72.7782C110.807 79.6228 113.457 97.3287 112.643 104.286" stroke="black" stroke-dasharray="5 5"/>
<path d="M208.538 31.0094C208.605 36.3394 205.808 46.894 194.086 46.4732C179.432 45.9472 184.58 36.4287 189.229 35.9876C196.872 35.2623 198.581 51.6074 192.574 58.1014C187.874 63.1817 178.276 62.8115 174.69 61.6882" stroke="black" stroke-dasharray="5 5"/>
<path d="M100.629 246.853C100.696 252.183 97.8997 262.738 86.177 262.317C71.5236 261.791 76.6711 252.273 81.3201 251.832C88.9628 251.106 90.6719 267.451 84.6648 273.945C79.9654 279.026 70.3673 278.656 66.7811 277.532" stroke="black" stroke-dasharray="5 5"/>
<mask id="path-9-inside-1" fill="white">
<path fill-rule="evenodd" clip-rule="evenodd" d="M183.496 67.629C183.481 67.644 183.462 67.654 183.441 67.6576L183.332 67.6767C183.295 67.683 183.281 67.7276 183.307 67.7537V67.7537C183.325 67.7715 183.325 67.8003 183.307 67.8181L116.619 134.547C114.667 136.5 114.667 139.667 116.619 141.62L144.635 169.654C146.587 171.607 149.752 171.607 151.704 169.654L218.387 102.93C218.416 102.902 218.462 102.902 218.491 102.93V102.93C218.533 102.972 218.605 102.949 218.615 102.891L218.648 102.701C218.652 102.676 218.664 102.653 218.682 102.635L218.716 102.602C218.745 102.572 218.745 102.525 218.716 102.496V102.496C218.699 102.479 218.691 102.454 218.695 102.43L224.81 67.2575C225.403 63.8475 222.438 60.8802 219.03 61.4725L183.902 67.5776C183.857 67.5853 183.812 67.571 183.781 67.5393V67.5393C183.727 67.4855 183.64 67.4855 183.586 67.5393L183.496 67.629ZM213.745 70.9036C216.225 73.3826 215.976 77.6504 213.19 80.436C210.404 83.2216 206.135 83.4702 203.656 80.9912C201.176 78.5122 201.425 74.2444 204.211 71.4588C206.997 68.6732 211.266 68.4246 213.745 70.9036Z"/>
</mask>
<path fill-rule="evenodd" clip-rule="evenodd" d="M183.496 67.629C183.481 67.644 183.462 67.654 183.441 67.6576L183.332 67.6767C183.295 67.683 183.281 67.7276 183.307 67.7537V67.7537C183.325 67.7715 183.325 67.8003 183.307 67.8181L116.619 134.547C114.667 136.5 114.667 139.667 116.619 141.62L144.635 169.654C146.587 171.607 149.752 171.607 151.704 169.654L218.387 102.93C218.416 102.902 218.462 102.902 218.491 102.93V102.93C218.533 102.972 218.605 102.949 218.615 102.891L218.648 102.701C218.652 102.676 218.664 102.653 218.682 102.635L218.716 102.602C218.745 102.572 218.745 102.525 218.716 102.496V102.496C218.699 102.479 218.691 102.454 218.695 102.43L224.81 67.2575C225.403 63.8475 222.438 60.8802 219.03 61.4725L183.902 67.5776C183.857 67.5853 183.812 67.571 183.781 67.5393V67.5393C183.727 67.4855 183.64 67.4855 183.586 67.5393L183.496 67.629ZM213.745 70.9036C216.225 73.3826 215.976 77.6504 213.19 80.436C210.404 83.2216 206.135 83.4702 203.656 80.9912C201.176 78.5122 201.425 74.2444 204.211 71.4588C206.997 68.6732 211.266 68.4246 213.745 70.9036Z" fill="white"/>
<path d="M213.19 80.436L212.483 79.7284L212.483 79.7284L213.19 80.436ZM213.745 70.9036L213.039 71.6112L213.039 71.6112L213.745 70.9036ZM203.656 80.9912L204.362 80.2836L203.656 80.9912ZM204.211 71.4588L204.918 72.1664L204.918 72.1664L204.211 71.4588ZM183.902 67.5776L184.073 68.5632L183.902 67.5776ZM219.03 61.4725L219.201 62.4581L219.03 61.4725ZM218.695 102.43L217.71 102.259L218.695 102.43ZM218.648 102.701L219.633 102.872L219.633 102.872L218.648 102.701ZM218.615 102.891L219.6 103.062L218.615 102.891ZM116.619 134.547L115.912 133.84L116.619 134.547ZM183.307 67.8181L182.6 67.1108L183.307 67.8181ZM183.441 67.6576L183.27 66.6721L183.441 67.6576ZM183.332 67.6767L183.503 68.6622L183.332 67.6767ZM183.503 68.6622L183.612 68.6432L183.27 66.6721L183.16 66.6911L183.503 68.6622ZM117.326 135.255L184.014 68.5254L182.6 67.1108L115.912 133.84L117.326 135.255ZM145.342 168.947L117.326 140.913L115.912 142.328L143.928 170.361L145.342 168.947ZM217.68 102.223L150.997 168.947L152.411 170.361L219.094 103.638L217.68 102.223ZM217.663 102.53L217.63 102.719L219.6 103.062L219.633 102.872L217.663 102.53ZM218.009 101.894L217.975 101.928L219.389 103.343L219.423 103.309L218.009 101.894ZM223.825 67.0861L217.71 102.259L219.68 102.602L225.795 67.429L223.825 67.0861ZM184.073 68.5632L219.201 62.4581L218.859 60.487L183.73 66.5921L184.073 68.5632ZM184.203 68.3363L184.293 68.2466L182.879 66.832L182.789 66.9216L184.203 68.3363ZM213.896 81.1436C216.994 78.0471 217.397 73.141 214.452 70.196L213.039 71.6112C215.052 73.6241 214.959 77.2536 212.483 79.7284L213.896 81.1436ZM202.949 81.6988C205.894 84.6432 210.8 84.2398 213.896 81.1436L212.483 79.7284C210.008 82.2034 206.376 82.2971 204.362 80.2836L202.949 81.6988ZM203.504 70.7512C200.407 73.8477 200.003 78.7538 202.949 81.6988L204.362 80.2836C202.349 78.2707 202.442 74.6412 204.918 72.1664L203.504 70.7512ZM214.452 70.196C211.507 67.2516 206.601 67.655 203.504 70.7512L204.918 72.1664C207.393 69.6914 211.025 69.5977 213.039 71.6112L214.452 70.196ZM184.487 66.832C184.043 66.3875 183.323 66.3875 182.879 66.832L184.293 68.2466C183.956 68.5834 183.41 68.5834 183.074 68.2466L184.487 66.832ZM183.73 66.5921C184.007 66.544 184.289 66.6335 184.487 66.832L183.074 68.2466C183.335 68.5084 183.708 68.6265 184.073 68.5632L183.73 66.5921ZM225.795 67.429C226.507 63.337 222.949 59.7762 218.859 60.487L219.201 62.4581C221.928 61.9843 224.3 64.3581 223.825 67.0861L225.795 67.429ZM219.423 101.789C219.636 102.002 219.731 102.305 219.68 102.602L217.71 102.259C217.65 102.603 217.762 102.956 218.009 103.203L219.423 101.789ZM219.423 103.309C219.842 102.889 219.842 102.208 219.423 101.789L218.009 103.203C217.648 102.842 217.648 102.256 218.009 101.894L219.423 103.309ZM219.633 102.872C219.602 103.051 219.517 103.215 219.389 103.343L217.975 101.928C217.812 102.092 217.703 102.302 217.663 102.53L219.633 102.872ZM217.784 103.638C218.399 104.252 219.451 103.919 219.6 103.062L217.63 102.719C217.759 101.98 218.667 101.692 219.197 102.223L217.784 103.638ZM219.094 103.638C218.732 103.999 218.146 104 217.784 103.638L219.197 102.223C218.778 101.804 218.099 101.804 217.68 102.223L219.094 103.638ZM143.928 170.361C146.271 172.705 150.069 172.705 152.411 170.361L150.997 168.947C149.436 170.509 146.904 170.509 145.342 168.947L143.928 170.361ZM115.912 133.84C113.57 136.184 113.57 139.984 115.912 142.328L117.326 140.913C115.764 139.351 115.764 136.817 117.326 135.255L115.912 133.84ZM182.601 68.4613C182.228 68.0885 182.228 67.4838 182.6 67.1108L184.014 68.5254C184.422 68.1169 184.422 67.4545 184.014 67.0461L182.601 68.4613ZM183.612 68.6432C183.836 68.6043 184.042 68.4971 184.203 68.3363L182.789 66.9216C182.92 66.7909 183.088 66.7037 183.27 66.6721L183.612 68.6432ZM183.16 66.6911C182.326 66.8362 182.001 67.8622 182.601 68.4613L184.014 67.0461C184.561 67.5931 184.264 68.5298 183.503 68.6622L183.16 66.6911Z" fill="black" mask="url(#path-9-inside-1)"/>
<mask id="path-11-inside-2" fill="white">
<path fill-rule="evenodd" clip-rule="evenodd" d="M185.4 69.4363C185.381 69.456 185.355 69.4691 185.328 69.4739L185.184 69.4988C185.137 69.5071 185.118 69.5656 185.152 69.5997V69.5997C185.176 69.623 185.176 69.6608 185.152 69.684L118.447 136.375C116.495 138.328 116.495 141.493 118.447 143.446L146.475 171.468C148.428 173.42 151.594 173.42 153.547 171.468L220.252 104.776C220.276 104.753 220.313 104.753 220.336 104.776V104.776C220.37 104.81 220.428 104.792 220.436 104.745L220.461 104.602C220.466 104.575 220.479 104.55 220.498 104.53L220.56 104.469C220.603 104.425 220.603 104.355 220.56 104.311V104.311C220.534 104.285 220.523 104.249 220.529 104.213L226.637 69.0817C227.229 65.6729 224.263 62.7073 220.854 63.2998L185.715 69.4066C185.679 69.4128 185.643 69.4013 185.618 69.3758V69.3758C185.574 69.3325 185.504 69.3325 185.461 69.3758L185.4 69.4363ZM215.572 72.7304C218.051 75.2094 217.803 79.4772 215.017 82.2628C212.23 85.0484 207.962 85.297 205.482 82.818C203.003 80.339 203.251 76.0712 206.038 73.2856C208.824 70.5 213.092 70.2514 215.572 72.7304Z"/>
</mask>
<path fill-rule="evenodd" clip-rule="evenodd" d="M185.4 69.4363C185.381 69.456 185.355 69.4691 185.328 69.4739L185.184 69.4988C185.137 69.5071 185.118 69.5656 185.152 69.5997V69.5997C185.176 69.623 185.176 69.6608 185.152 69.684L118.447 136.375C116.495 138.328 116.495 141.493 118.447 143.446L146.475 171.468C148.428 173.42 151.594 173.42 153.547 171.468L220.252 104.776C220.276 104.753 220.313 104.753 220.336 104.776V104.776C220.37 104.81 220.428 104.792 220.436 104.745L220.461 104.602C220.466 104.575 220.479 104.55 220.498 104.53L220.56 104.469C220.603 104.425 220.603 104.355 220.56 104.311V104.311C220.534 104.285 220.523 104.249 220.529 104.213L226.637 69.0817C227.229 65.6729 224.263 62.7073 220.854 63.2998L185.715 69.4066C185.679 69.4128 185.643 69.4013 185.618 69.3758V69.3758C185.574 69.3325 185.504 69.3325 185.461 69.3758L185.4 69.4363ZM215.572 72.7304C218.051 75.2094 217.803 79.4772 215.017 82.2628C212.23 85.0484 207.962 85.297 205.482 82.818C203.003 80.339 203.251 76.0712 206.038 73.2856C208.824 70.5 213.092 70.2514 215.572 72.7304Z" fill="white"/>
<path d="M185.715 69.4066L185.886 70.3918L185.715 69.4066ZM226.637 69.0817L227.622 69.2529L226.637 69.0817ZM220.854 63.2998L221.025 64.2849L220.854 63.2998ZM220.529 104.213L221.514 104.384L220.529 104.213ZM220.461 104.602L219.476 104.431L220.461 104.602ZM220.436 104.745L219.451 104.573L220.436 104.745ZM220.252 104.776L219.545 104.069L220.252 104.776ZM153.547 171.468L152.84 170.761L153.547 171.468ZM185.328 69.4739L185.499 70.459L185.328 69.4739ZM185.184 69.4988L185.013 68.5137L185.184 69.4988ZM185.356 70.4839L185.499 70.459L185.157 68.4888L185.013 68.5137L185.356 70.4839ZM119.155 137.082L185.86 70.3911L184.445 68.977L117.74 135.668L119.155 137.082ZM147.183 170.761L119.155 142.739L117.74 144.153L145.768 172.175L147.183 170.761ZM219.545 104.069L152.84 170.761L154.254 172.175L220.96 105.483L219.545 104.069ZM219.476 104.431L219.451 104.573L221.422 104.916L221.446 104.773L219.476 104.431ZM219.853 103.762L219.791 103.823L221.206 105.237L221.267 105.176L219.853 103.762ZM225.651 68.9104L219.543 104.042L221.514 104.384L227.622 69.2529L225.651 68.9104ZM185.886 70.3918L221.025 64.2849L220.682 62.3147L185.544 68.4215L185.886 70.3918ZM186.107 70.1433L186.168 70.0828L184.754 68.6688L184.693 68.7293L186.107 70.1433ZM215.724 82.9698C218.821 79.8735 219.224 74.9681 216.279 72.0234L214.865 73.4374C216.878 75.4507 216.785 79.0808 214.309 81.5557L215.724 82.9698ZM204.775 83.525C207.72 86.4698 212.627 86.0661 215.724 82.9698L214.309 81.5557C211.834 84.0307 208.203 84.1242 206.189 82.111L204.775 83.525ZM205.33 72.5786C202.233 75.6749 201.83 80.5803 204.775 83.525L206.189 82.111C204.176 80.0977 204.269 76.4676 206.745 73.9927L205.33 72.5786ZM216.279 72.0234C213.334 69.0787 208.427 69.4823 205.33 72.5786L206.745 73.9927C209.22 71.5178 212.851 71.4242 214.865 73.4374L216.279 72.0234ZM186.325 68.6688C185.891 68.235 185.187 68.235 184.754 68.6688L186.168 70.0828C185.821 70.4301 185.258 70.4301 184.91 70.0828L186.325 68.6688ZM185.544 68.4215C185.829 68.372 186.12 68.4642 186.325 68.6688L184.91 70.0828C185.166 70.3384 185.53 70.4537 185.886 70.3918L185.544 68.4215ZM227.622 69.2529C228.333 65.1624 224.774 61.6037 220.682 62.3147L221.025 64.2849C223.753 63.8109 226.126 66.1834 225.651 68.9104L227.622 69.2529ZM221.267 103.604C221.471 103.808 221.564 104.099 221.514 104.384L219.543 104.042C219.481 104.398 219.597 104.762 219.853 105.018L221.267 103.604ZM221.267 105.176C221.701 104.742 221.701 104.038 221.267 103.604L219.853 105.018C219.506 104.671 219.506 104.109 219.853 103.762L221.267 105.176ZM221.446 104.773C221.416 104.949 221.332 105.111 221.206 105.237L219.791 103.823C219.626 103.989 219.516 104.201 219.476 104.431L221.446 104.773ZM219.629 105.483C220.236 106.09 221.275 105.761 221.422 104.916L219.451 104.573C219.582 103.822 220.504 103.53 221.043 104.069L219.629 105.483ZM220.96 105.483C220.592 105.851 219.996 105.851 219.629 105.483L221.043 104.069C220.63 103.656 219.959 103.656 219.545 104.069L220.96 105.483ZM145.768 172.175C148.112 174.518 151.911 174.518 154.254 172.175L152.84 170.761C151.278 172.323 148.745 172.323 147.183 170.761L145.768 172.175ZM117.74 135.668C115.397 138.011 115.397 141.81 117.74 144.153L119.155 142.739C117.592 141.177 117.592 138.644 119.155 137.082L117.74 135.668ZM184.445 70.3068C184.078 69.9396 184.078 69.3442 184.445 68.977L185.86 70.3911C186.274 69.9773 186.273 69.3065 185.86 68.8927L184.445 70.3068ZM185.499 70.459C185.73 70.419 185.942 70.3087 186.107 70.1433L184.693 68.7293C184.819 68.6033 184.981 68.5193 185.157 68.4888L185.499 70.459ZM185.013 68.5137C184.167 68.6607 183.838 69.6998 184.445 70.3068L185.86 68.8927C186.398 69.4314 186.106 70.3535 185.356 70.4839L185.013 68.5137Z" fill="black" mask="url(#path-11-inside-2)"/>
<path d="M159.845 136.327L153.812 130.295L155.785 128.323C156.439 127.668 157.066 127.312 157.666 127.254C158.268 127.193 158.834 127.428 159.365 127.958C159.647 128.24 159.816 128.57 159.874 128.948C159.93 129.324 159.879 129.709 159.721 130.104C160.138 129.87 160.569 129.787 161.014 129.856C161.459 129.919 161.858 130.128 162.211 130.481C162.753 131.023 163.003 131.623 162.961 132.283C162.92 132.943 162.579 133.594 161.938 134.235L159.845 136.327ZM157.819 132.71L159.99 134.881L161.304 133.568C161.674 133.198 161.87 132.811 161.892 132.408C161.915 131.999 161.757 131.626 161.42 131.289C160.694 130.563 159.935 130.595 159.145 131.384L157.819 132.71ZM157.181 132.072L158.383 130.871C158.731 130.523 158.921 130.158 158.955 129.777C158.99 129.393 158.859 129.052 158.561 128.754C158.229 128.422 157.892 128.279 157.55 128.323C157.205 128.364 156.834 128.583 156.439 128.977L155.263 130.154L157.181 132.072ZM164.905 126.388L163.488 127.805L165.928 130.245L165.129 131.045L159.095 125.013L161.093 123.016C161.772 122.337 162.449 121.969 163.123 121.914C163.8 121.856 164.434 122.123 165.025 122.714C165.401 123.089 165.626 123.519 165.7 124.002C165.778 124.483 165.705 124.973 165.481 125.473L169.459 126.616L169.508 126.666L168.655 127.519L164.905 126.388ZM162.837 127.155L164.06 125.933C164.455 125.538 164.666 125.122 164.693 124.686C164.724 124.246 164.568 123.856 164.225 123.513C163.852 123.14 163.455 122.966 163.032 122.991C162.612 123.013 162.191 123.233 161.768 123.65L160.55 124.868L162.837 127.155ZM172.119 120.907L169.591 123.434L170.598 125.576L169.778 126.397L166.048 118.061L166.745 117.365L175.086 121.09L174.269 121.906L172.119 120.907ZM169.177 122.54L171.228 120.489L167.379 118.695L169.177 122.54ZM180.535 115.642L179.735 116.441L172.048 114.83L176.698 119.478L175.898 120.278L169.865 114.246L170.664 113.446L178.38 115.07L173.71 110.401L174.501 109.61L180.535 115.642ZM181.948 114.229L175.914 108.197L177.617 106.495C178.142 105.97 178.722 105.622 179.358 105.451C179.993 105.279 180.634 105.299 181.28 105.509C181.93 105.716 182.533 106.096 183.091 106.648L183.477 107.033C184.046 107.602 184.434 108.211 184.641 108.86C184.851 109.506 184.866 110.149 184.686 110.787C184.51 111.422 184.153 112.013 183.617 112.56L181.948 114.229ZM177.365 108.056L182.093 112.783L182.93 111.946C183.543 111.333 183.829 110.666 183.787 109.946C183.749 109.222 183.377 108.508 182.673 107.804L182.32 107.452C181.635 106.767 180.942 106.397 180.24 106.341C179.539 106.281 178.89 106.543 178.293 107.128L177.365 108.056Z" fill="black"/>
<path d="M211.661 73.7741C211.867 73.7741 212.118 73.8709 212.417 74.1615C212.718 74.4539 213.032 74.9106 213.347 75.5426C213.975 76.8047 214.555 78.6635 215.048 81.0014C216.031 85.6692 216.642 92.1408 216.642 99.3052C216.642 106.47 216.031 112.941 215.048 117.609C214.555 119.947 213.975 121.806 213.347 123.068C213.032 123.7 212.718 124.157 212.417 124.449C212.118 124.74 211.867 124.836 211.661 124.836C211.455 124.836 211.204 124.74 210.905 124.449C210.604 124.157 210.29 123.7 209.975 123.068C209.347 121.806 208.767 119.947 208.274 117.609C207.292 112.941 206.68 106.47 206.68 99.3052C206.68 92.1408 207.292 85.6692 208.274 81.0014C208.767 78.6635 209.347 76.8047 209.975 75.5426C210.29 74.9106 210.604 74.4539 210.905 74.1615C211.204 73.8709 211.455 73.7741 211.661 73.7741Z" stroke="black"/>
<path d="M211.662 80.1677C211.718 80.1677 211.84 80.1967 212.028 80.4031C212.215 80.6082 212.418 80.9394 212.626 81.4123C213.041 82.3545 213.426 83.7491 213.754 85.5109C214.408 89.0262 214.816 93.9035 214.816 99.3053C214.816 104.707 214.408 109.584 213.754 113.1C213.426 114.861 213.041 116.256 212.626 117.198C212.418 117.671 212.215 118.002 212.028 118.207C211.84 118.414 211.718 118.443 211.662 118.443C211.605 118.443 211.483 118.414 211.295 118.207C211.108 118.002 210.905 117.671 210.697 117.198C210.282 116.256 209.897 114.861 209.569 113.1C208.915 109.584 208.507 104.707 208.507 99.3053C208.507 93.9035 208.915 89.0262 209.569 85.5109C209.897 83.7491 210.282 82.3545 210.697 81.4123C210.905 80.9394 211.108 80.6082 211.295 80.4031C211.483 80.1967 211.605 80.1677 211.662 80.1677Z" stroke="black"/>
</svg>
