<svg width="267" height="316" viewBox="0 0 267 316" fill="none" xmlns="http://www.w3.org/2000/svg">
<path d="M30.048 254.652C42.2519 256.309 67.2924 253.206 69.8235 227.532C72.9875 195.441 49.6222 203.963 47.2238 213.972C43.2811 230.427 80.2579 238.786 96.9432 227.532C109.996 218.728 112.01 197.701 110.503 189.565" stroke="black" stroke-dasharray="5 5"/>
<path d="M232.585 51.0655L260.419 51.0655L246.502 28.1404L232.585 51.0655Z" stroke="#2898FF"/>
<path d="M4.96962 277.391L26.378 277.391L15.6738 259.758L4.96962 277.391Z" stroke="#2898FF"/>
<path d="M211.105 282.077L203.901 308.962L229.647 301.453L211.105 282.077Z" stroke="#2898FF"/>
<path d="M51.4021 3.64053L45.8612 24.3194L65.6637 18.5437L51.4021 3.64053Z" stroke="black"/>
<path d="M57.7986 30.9953C57.7315 36.3253 60.5278 46.8799 72.2505 46.4591C86.9039 45.9331 81.7564 36.4146 77.1074 35.9735C69.4646 35.2482 67.7556 51.5933 73.7627 58.0873C78.4621 63.1676 88.0602 62.7974 91.6464 61.6741" stroke="black" stroke-dasharray="5 5"/>
<path d="M165.707 246.839C165.64 252.169 168.436 262.724 180.159 262.303C194.812 261.777 189.665 252.259 185.016 251.817C177.373 251.092 175.664 267.437 181.671 273.931C186.371 279.012 195.969 278.641 199.555 277.518" stroke="black" stroke-dasharray="5 5"/>
<mask id="path-8-inside-1" fill="white">
<path fill-rule="evenodd" clip-rule="evenodd" d="M73.7969 154.015L61 132.51L74.2541 112.892L74.1411 123.049H105.406V144.471H73.903L73.7969 154.015ZM248.204 154.015L261.001 132.51L247.746 112.892L247.859 123.049H216.594V144.471H248.098L248.204 154.015Z"/>
</mask>
<path fill-rule="evenodd" clip-rule="evenodd" d="M73.7969 154.015L61 132.51L74.2541 112.892L74.1411 123.049H105.406V144.471H73.903L73.7969 154.015ZM248.204 154.015L261.001 132.51L247.746 112.892L247.859 123.049H216.594V144.471H248.098L248.204 154.015Z" fill="white"/>
<path d="M61 132.51L60.1714 131.95L59.8161 132.476L60.1406 133.021L61 132.51ZM73.7969 154.015L72.9375 154.527L74.7573 157.585L74.7968 154.026L73.7969 154.015ZM74.2541 112.892L75.254 112.903L75.291 109.57L73.4254 112.332L74.2541 112.892ZM74.1411 123.049L73.1412 123.038L73.13 124.049H74.1411V123.049ZM105.406 123.049H106.406V122.049H105.406V123.049ZM105.406 144.471V145.471H106.406V144.471H105.406ZM73.903 144.471V143.471H72.914L72.9031 144.46L73.903 144.471ZM261.001 132.51L261.86 133.021L262.184 132.476L261.829 131.95L261.001 132.51ZM248.204 154.015L247.204 154.026L247.243 157.585L249.063 154.527L248.204 154.015ZM247.746 112.892L248.575 112.332L246.71 109.57L246.747 112.903L247.746 112.892ZM247.859 123.049V124.049H248.871L248.859 123.038L247.859 123.049ZM216.594 123.049V122.049H215.594V123.049H216.594ZM216.594 144.471H215.594V145.471H216.594V144.471ZM248.098 144.471L249.098 144.46L249.087 143.471H248.098V144.471ZM60.1406 133.021L72.9375 154.527L74.6563 153.504L61.8594 131.998L60.1406 133.021ZM73.4254 112.332L60.1714 131.95L61.8286 133.07L75.0827 113.451L73.4254 112.332ZM75.1411 123.06L75.254 112.903L73.2541 112.88L73.1412 123.038L75.1411 123.06ZM74.1411 124.049H105.406V122.049H74.1411V124.049ZM104.406 123.049V144.471H106.406V123.049H104.406ZM105.406 143.471H73.903V145.471H105.406V143.471ZM74.7968 154.026L74.9029 144.482L72.9031 144.46L72.797 154.004L74.7968 154.026ZM260.141 131.998L247.344 153.504L249.063 154.527L261.86 133.021L260.141 131.998ZM246.918 113.451L260.172 133.07L261.829 131.95L248.575 112.332L246.918 113.451ZM248.859 123.038L248.746 112.88L246.747 112.903L246.859 123.06L248.859 123.038ZM216.594 124.049H247.859V122.049H216.594V124.049ZM217.594 144.471V123.049H215.594V144.471H217.594ZM248.098 143.471H216.594V145.471H248.098V143.471ZM249.204 154.004L249.098 144.46L247.098 144.482L247.204 154.026L249.204 154.004Z" fill="black" mask="url(#path-8-inside-1)"/>
<mask id="path-10-inside-2" fill="white">
<path fill-rule="evenodd" clip-rule="evenodd" d="M140.78 216.203L162.286 229L181.904 215.746L171.746 215.859V184.594H150.324V216.097L140.78 216.203ZM140.78 41.7969L162.286 29L181.904 42.254L171.746 42.1411V73.4064H150.324V41.903L140.78 41.7969Z"/>
</mask>
<path fill-rule="evenodd" clip-rule="evenodd" d="M140.78 216.203L162.286 229L181.904 215.746L171.746 215.859V184.594H150.324V216.097L140.78 216.203ZM140.78 41.7969L162.286 29L181.904 42.254L171.746 42.1411V73.4064H150.324V41.903L140.78 41.7969Z" fill="white"/>
<path d="M162.286 229L162.845 229.829L162.319 230.184L161.774 229.859L162.286 229ZM140.78 216.203L140.269 217.063L137.211 215.243L140.769 215.203L140.78 216.203ZM181.904 215.746L181.893 214.746L185.225 214.709L182.464 216.575L181.904 215.746ZM171.746 215.859L171.757 216.859L170.746 216.87V215.859H171.746ZM171.746 184.594V183.594H172.746V184.594H171.746ZM150.324 184.594H149.324V183.594H150.324V184.594ZM150.324 216.097H151.324V217.086L150.335 217.097L150.324 216.097ZM162.286 29L161.774 28.1406L162.319 27.8161L162.845 28.1714L162.286 29ZM140.78 41.7969L140.769 42.7968L137.211 42.7572L140.269 40.9375L140.78 41.7969ZM181.904 42.254L182.464 41.4254L185.225 43.291L181.893 43.254L181.904 42.254ZM171.746 42.1411H170.746V41.1299L171.757 41.1412L171.746 42.1411ZM171.746 73.4064H172.746V74.4064H171.746V73.4064ZM150.324 73.4064V74.4064H149.324V73.4064H150.324ZM150.324 41.903L150.335 40.903L151.324 40.914V41.903H150.324ZM161.774 229.859L140.269 217.063L141.292 215.344L162.797 228.141L161.774 229.859ZM182.464 216.575L162.845 229.829L161.726 228.171L181.344 214.917L182.464 216.575ZM171.735 214.859L181.893 214.746L181.915 216.746L171.757 216.859L171.735 214.859ZM170.746 215.859V184.594H172.746V215.859H170.746ZM171.746 185.594H150.324V183.594H171.746V185.594ZM151.324 184.594V216.097H149.324V184.594H151.324ZM140.769 215.203L150.313 215.097L150.335 217.097L140.791 217.203L140.769 215.203ZM162.797 29.8593L141.292 42.6562L140.269 40.9375L161.774 28.1406L162.797 29.8593ZM181.344 43.0826L161.726 29.8286L162.845 28.1714L182.464 41.4254L181.344 43.0826ZM171.757 41.1412L181.915 41.2541L181.893 43.254L171.735 43.141L171.757 41.1412ZM170.746 73.4064V42.1411H172.746V73.4064H170.746ZM150.324 72.4064H171.746V74.4064H150.324V72.4064ZM151.324 41.903V73.4064H149.324V41.903H151.324ZM140.791 40.7969L150.335 40.903L150.313 42.9029L140.769 42.7968L140.791 40.7969Z" fill="black" mask="url(#path-10-inside-2)"/>
<path fill-rule="evenodd" clip-rule="evenodd" d="M166.215 83.1281C163.058 81.085 158.992 81.0965 155.847 83.1576L121.721 105.518C119.042 107.273 117.428 110.261 117.428 113.464V121.839C117.428 125.986 120.118 129.654 124.073 130.9L134.879 134.304V118.235C134.879 112.436 139.58 107.735 145.379 107.735H178.289C184.088 107.735 188.789 112.436 188.789 118.235V128.903H188.441L188.802 129.619L164.874 141.68C162.43 142.911 159.603 143.14 156.993 142.318L123.773 131.853C119.401 130.476 116.428 126.422 116.428 121.839V113.464C116.428 109.924 118.212 106.622 121.173 104.681L155.299 82.3212C158.775 80.0432 163.269 80.0304 166.758 82.2886L201.367 104.686C204.357 106.62 206.162 109.939 206.162 113.501V164.731C206.162 170.53 201.461 175.231 195.662 175.231H126.928C121.129 175.231 116.428 170.53 116.428 164.731V135.284H117.428V164.731C117.428 169.977 121.681 174.231 126.928 174.231H195.662C200.909 174.231 205.162 169.977 205.162 164.731V113.501C205.162 110.278 203.529 107.276 200.824 105.525L166.215 83.1281ZM188.002 128.903H187.789V118.235C187.789 112.989 183.535 108.735 178.289 108.735H145.379C140.132 108.735 135.879 112.989 135.879 118.235V134.619L157.293 141.364C159.655 142.108 162.213 141.901 164.424 140.787L188.002 128.903Z" fill="black"/>
</svg>
