<svg width="369" height="316" viewBox="0 0 369 316" fill="none" xmlns="http://www.w3.org/2000/svg">
<path d="M13.2384 174.736C26.4674 187.522 59.3624 205.925 85.1102 177.25C117.295 141.407 81.6255 131.01 69.8878 140.941C50.5914 157.268 87.7235 200.027 117.764 201.229C141.266 202.17 162.282 178.631 167.662 167.503" stroke="black" stroke-dasharray="5 5"/>
<circle cx="269.001" cy="121.865" r="30.4971" fill="white" stroke="black"/>
<circle cx="268.763" cy="122.934" r="99.5" stroke="black"/>
<path d="M229.647 174.409C229.647 169.715 233.453 165.909 238.147 165.909H299.855C304.549 165.909 308.355 169.715 308.355 174.409V222.476H229.647V174.409Z" fill="white" stroke="black"/>
<path d="M19.5969 28.1406L33.5138 51.0656L5.68007 51.0656L19.5969 28.1406Z" stroke="#2898FF"/>
<path d="M250.425 259.758L261.129 277.391L239.721 277.391L250.425 259.758Z" stroke="#2898FF"/>
<path d="M36.4519 301.453L54.9939 282.077L62.1978 308.962L36.4519 301.453Z" stroke="#2898FF"/>
<path d="M200.435 18.5437L214.697 3.64053L220.237 24.3194L200.435 18.5437Z" stroke="black"/>
<path d="M44.4858 52.9225C54.2235 50.9513 74.5223 52.4125 77.8166 74.0268C81.9344 101.045 62.7179 94.9183 60.2979 86.5574C56.3196 72.8123 85.6604 64.0147 99.6362 72.764C110.57 79.6085 113.22 97.3145 112.406 104.272" stroke="black" stroke-dasharray="5 5"/>
<path d="M208.3 30.9953C208.367 36.3253 205.571 46.8799 193.848 46.4591C179.195 45.9331 184.342 36.4146 188.991 35.9735C196.634 35.2482 198.343 51.5933 192.336 58.0873C187.637 63.1676 178.039 62.7974 174.452 61.6741" stroke="black" stroke-dasharray="5 5"/>
<path d="M100.392 246.839C100.459 252.169 97.6624 262.724 85.9397 262.303C71.2863 261.777 76.4338 252.259 81.0828 251.817C88.7255 251.092 90.4346 267.437 84.4275 273.931C79.7281 279.012 70.13 278.641 66.5437 277.518" stroke="black" stroke-dasharray="5 5"/>
<path d="M317 1L302 16" stroke="black"/>
<path d="M302 42.5L317 57.5" stroke="black"/>
<path d="M302 28.5H324" stroke="black"/>
<path d="M247 38.9221V19.5425C247 17.3095 248.481 15.3472 250.628 14.7344L283.628 5.31818C286.822 4.40688 290 6.80509 290 10.1263V48.7867C290 52.134 286.775 54.536 283.568 53.5773L250.568 43.7126C248.451 43.0797 247 41.132 247 38.9221Z" fill="white" stroke="black"/>
<rect x="239.5" y="20.5" width="7" height="16" rx="0.5" fill="white" stroke="black"/>
<rect x="230.5" y="23.5" width="9" height="9" rx="0.5" fill="white" stroke="black"/>
</svg>
