<svg width="267" height="316" viewBox="0 0 267 316" fill="none" xmlns="http://www.w3.org/2000/svg">
<path d="M30.214 254.692C42.4179 256.35 67.4584 253.246 69.9896 227.573C73.1535 195.481 49.7882 204.004 47.3899 214.013C43.4471 230.468 80.424 238.827 97.1092 227.573C110.162 218.769 112.176 197.741 110.669 189.605" stroke="black" stroke-dasharray="5 5"/>
<path d="M232.751 51.106L260.585 51.106L246.668 28.181L232.751 51.106Z" stroke="#2898FF"/>
<path d="M5.13539 277.432L26.5437 277.432L15.8396 259.799L5.13539 277.432Z" stroke="#2898FF"/>
<path d="M211.271 282.118L204.067 309.003L229.813 301.494L211.271 282.118Z" stroke="#2898FF"/>
<path d="M51.5681 3.68105L46.0273 24.3599L65.8297 18.5842L51.5681 3.68105Z" stroke="black"/>
<path d="M57.9644 31.0359C57.8972 36.3658 60.6936 46.9204 72.4163 46.4996C87.0697 45.9737 81.9222 36.4552 77.2732 36.014C69.6304 35.2888 67.9214 51.6338 73.9284 58.1279C78.6278 63.2082 88.226 62.8379 91.8122 61.7147" stroke="black" stroke-dasharray="5 5"/>
<path d="M165.873 246.88C165.806 252.21 168.602 262.764 180.325 262.344C194.978 261.818 189.831 252.299 185.182 251.858C177.539 251.133 175.83 267.478 181.837 273.972C186.537 279.052 196.135 278.682 199.721 277.559" stroke="black" stroke-dasharray="5 5"/>
<circle cx="141.417" cy="82.3499" r="38.6353" fill="white" stroke="black"/>
<path d="M206.125 195.106V156.56C206.125 142.753 194.933 131.56 181.125 131.56H101.708C87.9004 131.56 76.7075 142.753 76.7075 156.56V195.106" stroke="black"/>
<mask id="path-10-inside-1" fill="white">
<path fill-rule="evenodd" clip-rule="evenodd" d="M201.855 38.709H195.823V46.9343L187.598 46.9343V52.9661H195.823V61.1918H201.855V52.9661H210.08V46.9343L201.855 46.9343V38.709Z"/>
</mask>
<path d="M195.823 38.709V37.709H194.823V38.709H195.823ZM201.855 38.709H202.855V37.709H201.855V38.709ZM195.823 46.9343L195.823 47.9343L196.823 47.9343V46.9343H195.823ZM187.598 46.9343L187.598 45.9343L186.598 45.9343V46.9343H187.598ZM187.598 52.9661H186.598V53.9661H187.598V52.9661ZM195.823 52.9661H196.823V51.9661H195.823V52.9661ZM195.823 61.1918H194.823V62.1918H195.823V61.1918ZM201.855 61.1918V62.1918H202.855V61.1918H201.855ZM201.855 52.9661V51.9661H200.855V52.9661H201.855ZM210.08 52.9661V53.9661H211.08V52.9661H210.08ZM210.08 46.9343H211.08V45.9343L210.08 45.9343L210.08 46.9343ZM201.855 46.9343H200.855V47.9343L201.855 47.9343L201.855 46.9343ZM195.823 39.709H201.855V37.709H195.823V39.709ZM196.823 46.9343V38.709H194.823V46.9343H196.823ZM187.598 47.9343L195.823 47.9343L195.823 45.9343L187.598 45.9343L187.598 47.9343ZM188.598 52.9661V46.9343H186.598V52.9661H188.598ZM195.823 51.9661H187.598V53.9661H195.823V51.9661ZM196.823 61.1918V52.9661H194.823V61.1918H196.823ZM201.855 60.1918H195.823V62.1918H201.855V60.1918ZM200.855 52.9661V61.1918H202.855V52.9661H200.855ZM210.08 51.9661H201.855V53.9661H210.08V51.9661ZM209.08 46.9343V52.9661H211.08V46.9343H209.08ZM201.855 47.9343L210.08 47.9343L210.08 45.9343L201.855 45.9343L201.855 47.9343ZM200.855 38.709V46.9343H202.855V38.709H200.855Z" fill="black" mask="url(#path-10-inside-1)"/>
</svg>
