<svg width="19" height="19" viewBox="0 0 19 19" fill="none" xmlns="http://www.w3.org/2000/svg">
<path d="M1.62219 1.41554H17.3722V17.1655H1.62219V1.41554Z" fill="white"/>
<path d="M17.1472 1.64054V16.9405H1.84719V1.64054H17.1472ZM17.5972 1.19054H1.39719V17.3905H17.5972V1.19054Z" fill="#4788C7"/>
<path d="M1.62219 1.41554H17.3722V3.66554H1.62219V1.41554Z" fill="#B6DCFE"/>
<path d="M17.1472 1.64054V3.44054H1.84719V1.64054H17.1472ZM17.5972 1.19054H1.39719V3.89054H17.5972V1.19054Z" fill="#4788C7"/>
<path d="M6.3472 6.59054H7.2472V7.49054H6.3472V6.59054ZM9.9472 6.59054H10.8472V7.49054H9.9472V6.59054ZM11.7472 6.59054H12.6472V7.49054H11.7472V6.59054ZM13.5472 6.59054H14.4472V7.49054H13.5472V6.59054ZM4.5472 8.39054H5.4472V9.29054H4.5472V8.39054ZM6.3472 8.39054H7.2472V9.29054H6.3472V8.39054ZM9.9472 8.39054H10.8472V9.29054H9.9472V8.39054ZM11.7472 8.39054H12.6472V9.29054H11.7472V8.39054ZM13.5472 8.39054H14.4472V9.29054H13.5472V8.39054ZM4.5472 11.9905H5.4472V12.8905H4.5472V11.9905ZM6.3472 11.9905H7.2472V12.8905H6.3472V11.9905ZM9.9472 11.9905H10.8472V12.8905H9.9472V11.9905ZM8.1472 6.59054H9.0472V7.49054H8.1472V6.59054ZM8.1472 8.39054H9.0472V9.29054H8.1472V8.39054ZM4.5472 10.1905H5.4472V11.0905H4.5472V10.1905ZM6.3472 10.1905H7.2472V11.0905H6.3472V10.1905ZM9.9472 10.1905H10.8472V11.0905H9.9472V10.1905ZM11.7472 10.1905H12.6472V11.0905H11.7472V10.1905ZM13.5472 10.1905H14.4472V11.0905H13.5472V10.1905ZM8.1472 10.1905H9.0472V11.0905H8.1472V10.1905ZM8.1472 11.9905H9.0472V12.8905H8.1472V11.9905ZM11.7472 11.9905H12.6472V12.8905H11.7472V11.9905ZM1.8472 15.5905H17.1472V16.9405H1.8472V15.5905Z" fill="#B6DCFE"/>
</svg>
