<svg width="632" height="166" viewBox="0 0 632 166" fill="none" xmlns="http://www.w3.org/2000/svg">
<path fill-rule="evenodd" clip-rule="evenodd" d="M196.836 93.0028C196.836 98.8784 196.132 104.59 194.804 110.057C208.489 111.676 219.103 123.317 219.103 137.438C219.103 150.851 209.525 162.028 196.836 164.501V165.011H191.53H124.894C124.872 165.011 124.85 165.011 124.827 165.011C124.805 165.011 124.783 165.011 124.76 165.011H45.5018V165.01C45.3985 165.011 45.2951 165.011 45.1916 165.011C20.2825 165.011 0.0895996 144.818 0.0895996 119.909C0.0895996 95 20.2825 74.8072 45.1916 74.8072C48.5156 74.8072 51.7555 75.1667 54.8747 75.8491C62.5695 44.3618 90.9695 20.9944 124.827 20.9944C164.596 20.9944 196.836 53.2337 196.836 93.0028Z" fill="#97B2E9"/>
<path fill-rule="evenodd" clip-rule="evenodd" d="M395.622 33.6395C395.622 36.3843 395.293 39.0524 394.673 41.6064C401.066 42.3629 406.024 47.8013 406.024 54.3978C406.024 60.664 401.55 65.8852 395.622 67.0407V67.279H393.143H362.014C362.004 67.279 361.993 67.279 361.982 67.279C361.971 67.279 361.96 67.279 361.95 67.279H324.924V67.2785C324.876 67.2788 324.828 67.279 324.779 67.279C313.143 67.279 303.709 57.8457 303.709 46.2091C303.709 34.5725 313.143 25.1392 324.779 25.1392C326.332 25.1392 327.846 25.3072 329.303 25.626C332.898 10.9163 346.165 0 361.982 0C380.561 0 395.622 15.0609 395.622 33.6395Z" fill="#97B2E9"/>
<path fill-rule="evenodd" clip-rule="evenodd" d="M624.516 88.5007C624.516 90.2323 624.309 91.9154 623.918 93.5267C627.951 94.0039 631.079 97.4347 631.079 101.596C631.079 105.549 628.256 108.843 624.516 109.572V109.722L622.953 109.722L603.313 109.722C603.307 109.722 603.301 109.722 603.295 109.722C603.289 109.722 603.283 109.722 603.276 109.722H579.917V109.722C579.886 109.722 579.856 109.722 579.825 109.722C572.484 109.722 566.533 103.771 566.533 96.4303C566.533 89.0893 572.484 83.1382 579.825 83.1382C580.805 83.1382 581.76 83.2442 582.679 83.4453C584.947 74.1656 593.316 67.279 603.295 67.279C615.015 67.279 624.516 76.7803 624.516 88.5007Z" fill="#97B2E9"/>
</svg>
