<svg width="290" height="316" viewBox="0 0 290 316" fill="none" xmlns="http://www.w3.org/2000/svg">
<path d="M78.9725 219.839C96.1421 226.449 133.611 230.557 146.128 194.109C161.775 148.548 124.876 152.894 117.944 166.618C106.548 189.18 157.422 214.06 185.55 203.445C207.555 195.14 217.721 165.267 218.332 152.921" stroke="black" stroke-dasharray="5 5"/>
<path d="M19.8342 28.1547L33.7511 51.0798L5.91737 51.0798L19.8342 28.1547Z" stroke="#2898FF"/>
<path d="M250.662 259.772L261.367 277.405L239.958 277.405L250.662 259.772Z" stroke="#2898FF"/>
<path d="M36.6892 301.467L55.2312 282.091L62.4351 308.977L36.6892 301.467Z" stroke="#2898FF"/>
<path d="M200.672 18.5579L214.934 3.65469L220.475 24.3336L200.672 18.5579Z" stroke="black"/>
<path d="M44.7231 52.9367C54.4608 50.9655 74.7596 52.4268 78.0539 74.041C82.1717 101.059 62.9552 94.9325 60.5352 86.5716C56.5569 72.8265 85.8977 64.0289 99.8735 72.7782C110.807 79.6228 113.457 97.3287 112.643 104.286" stroke="black" stroke-dasharray="5 5"/>
<path d="M208.538 31.0094C208.605 36.3394 205.808 46.894 194.086 46.4732C179.432 45.9472 184.58 36.4287 189.229 35.9876C196.872 35.2623 198.581 51.6074 192.574 58.1014C187.874 63.1817 178.276 62.8115 174.69 61.6882" stroke="black" stroke-dasharray="5 5"/>
<path d="M100.629 246.853C100.696 252.183 97.8997 262.738 86.177 262.317C71.5236 261.791 76.6711 252.273 81.3201 251.832C88.9628 251.106 90.6719 267.451 84.6648 273.945C79.9654 279.026 70.3673 278.656 66.7811 277.532" stroke="black" stroke-dasharray="5 5"/>
<path d="M273.263 175.494L285.27 178.991L289 201.299L276.428 196.696L261.255 214.803L169 196.696L226.462 166.619L215.415 139.998L204.368 108L226.462 122.425L230.642 108L261.255 133.526L273.263 175.494Z" fill="white"/>
<path d="M235.1 185.986L261.255 171.996M235.1 185.986L249.367 142.269M235.1 185.986L226.462 166.619M235.1 185.986L169 196.696M261.255 171.996L249.367 142.269M261.255 171.996V214.803M261.255 171.996L273.263 175.494M249.367 142.269L226.462 122.425M285.27 178.991L273.263 175.494M285.27 178.991L289 201.299L276.428 196.696M285.27 178.991L276.428 196.696M261.255 214.803L276.428 196.696M261.255 214.803L169 196.696M273.263 175.494L261.255 133.526L230.642 108L226.462 122.425M226.462 122.425L204.368 108L215.415 139.998L226.462 166.619M226.462 166.619L169 196.696" stroke="black"/>
<path d="M197.042 202.22L170.768 196.082L177.336 228L197.042 202.22Z" fill="white" stroke="black"/>
</svg>
