<svg width="267" height="316" viewBox="0 0 267 316" fill="none" xmlns="http://www.w3.org/2000/svg">
<path d="M30.048 254.692C42.2519 256.349 67.2924 253.246 69.8235 227.572C72.9875 195.481 49.6222 204.003 47.2238 214.012C43.2811 230.467 80.2579 238.826 96.9432 227.572C109.996 218.768 112.01 197.741 110.503 189.605" stroke="black" stroke-dasharray="5 5"/>
<path d="M246.502 28.1806L232.585 51.1057L260.419 51.1057L246.502 28.1806Z" stroke="#2898FF"/>
<path d="M15.6736 259.798L4.96938 277.431L26.3777 277.431L15.6736 259.798Z" stroke="#2898FF"/>
<path d="M229.647 301.493L211.105 282.117L203.901 309.003L229.647 301.493Z" stroke="#2898FF"/>
<path d="M65.6637 18.5838L51.4021 3.68057L45.8612 24.3594L65.6637 18.5838Z" stroke="black"/>
<path d="M57.7984 31.0354C57.7312 36.3653 60.5276 46.9199 72.2503 46.4992C86.9037 45.9732 81.7562 36.4547 77.1072 36.0135C69.4644 35.2883 67.7553 51.6333 73.7624 58.1274C78.4618 63.2077 88.06 62.8375 91.6462 61.7142" stroke="black" stroke-dasharray="5 5"/>
<path d="M165.707 246.879C165.64 252.209 168.436 262.764 180.159 262.343C194.812 261.817 189.665 252.299 185.016 251.858C177.373 251.132 175.664 267.477 181.671 273.971C186.371 279.052 195.969 278.681 199.555 277.558" stroke="black" stroke-dasharray="5 5"/>
<path d="M188.294 121.269L108.23 121.269" stroke="black"/>
<path d="M103.52 121.269C103.52 118.708 105.725 116.585 108.504 116.585C111.283 116.585 113.488 118.708 113.488 121.269C113.488 123.829 111.283 125.953 108.504 125.953C105.725 125.953 103.52 123.829 103.52 121.269Z" fill="white" stroke="black"/>
<path d="M189.069 121.269C189.069 118.708 191.273 116.585 194.053 116.585C196.832 116.585 199.037 118.708 199.037 121.269C199.037 123.83 196.832 125.953 194.053 125.953C191.273 125.953 189.069 123.83 189.069 121.269Z" fill="white" stroke="black"/>
<path fill-rule="evenodd" clip-rule="evenodd" d="M109.633 87.2012C112.72 105.659 128.953 119.751 148.536 119.751C168.119 119.751 184.353 105.659 187.44 87.2012L188.454 87.2012C185.357 106.222 168.664 120.751 148.536 120.751C128.408 120.751 111.716 106.222 108.619 87.2012L109.633 87.2012ZM188.968 80.795L188.968 80.8266C188.968 80.8213 188.968 80.816 188.968 80.8108C188.968 80.8055 188.968 80.8002 188.968 80.795Z" fill="black"/>
<rect x="192.746" y="87.5" width="11" height="11" transform="rotate(-180 192.746 87.5)" fill="white" stroke="black"/>
<rect x="114.5" y="87.5" width="11" height="11" transform="rotate(-180 114.5 87.5)" fill="white" stroke="black"/>
<path d="M152.631 212H145.369C142.607 212 140.369 209.761 140.369 207V199.598C130.075 192.691 126.998 178.93 133.368 168.296L148.524 142.997C149.058 142.105 150.356 142.12 150.87 143.024L165.075 168.037C171.236 178.884 167.99 192.647 157.631 199.598V207C157.631 209.761 155.393 212 152.631 212Z" fill="white"/>
<path d="M157.631 199.598V207C157.631 209.761 155.393 212 152.631 212H145.369C142.607 212 140.369 209.761 140.369 207V199.598M157.631 199.598H140.369M157.631 199.598V199.598C167.99 192.647 171.236 178.884 165.075 168.037L150.87 143.024C150.356 142.12 149.058 142.105 148.524 142.997L133.368 168.296C126.998 178.93 130.075 192.691 140.369 199.598V199.598" stroke="black"/>
<path d="M146.481 139.524C146.481 137.867 147.824 136.524 149.481 136.524C151.138 136.524 152.481 137.867 152.481 139.524C152.481 141.181 151.138 142.524 149.481 142.524C147.824 142.524 146.481 141.181 146.481 139.524Z" fill="white" stroke="black"/>
<line x1="149.5" y1="143" x2="149.5" y2="178" stroke="black"/>
</svg>
