<svg width="290" height="316" viewBox="0 0 290 316" fill="none" xmlns="http://www.w3.org/2000/svg">
<path d="M13.4757 174.802C26.7047 187.588 59.5998 205.991 85.3475 177.316C117.532 141.473 81.8628 131.076 70.1251 141.007C50.8287 157.333 87.9608 200.093 118.002 201.295C141.503 202.236 162.52 178.697 167.899 167.569" stroke="black" stroke-dasharray="5 5"/>
<path d="M19.8342 28.2065L33.7511 51.1315L5.91737 51.1315L19.8342 28.2065Z" stroke="#2898FF"/>
<path d="M250.662 259.824L261.367 277.457L239.958 277.457L250.662 259.824Z" stroke="#2898FF"/>
<path d="M36.6892 301.519L55.2312 282.143L62.4351 309.028L36.6892 301.519Z" stroke="#2898FF"/>
<path d="M200.672 18.6096L214.934 3.70644L220.475 24.3853L200.672 18.6096Z" stroke="black"/>
<path d="M44.7231 52.9884C54.4608 51.0172 74.7596 52.4785 78.0539 74.0927C82.1717 101.111 62.9552 94.9842 60.5352 86.6233C56.5569 72.8782 85.8977 64.0806 99.8735 72.8299C110.807 79.6745 113.457 97.3804 112.643 104.338" stroke="black" stroke-dasharray="5 5"/>
<path d="M208.538 31.0613C208.605 36.3912 205.808 46.9458 194.086 46.525C179.432 45.999 184.58 36.4806 189.229 36.0394C196.872 35.3141 198.581 51.6592 192.574 58.1532C187.874 63.2336 178.276 62.8633 174.69 61.74" stroke="black" stroke-dasharray="5 5"/>
<path d="M100.629 246.905C100.696 252.235 97.8997 262.79 86.177 262.369C71.5236 261.843 76.6711 252.325 81.3201 251.883C88.9628 251.158 90.6719 267.503 84.6648 273.997C79.9654 279.078 70.3673 278.707 66.7811 277.584" stroke="black" stroke-dasharray="5 5"/>
<rect x="0.710782" width="124.081" height="30.3648" transform="matrix(0.710782 -0.703412 0.710782 0.703412 164.206 174.483)" fill="white" stroke="black"/>
<line y1="-0.5" x2="20.3525" y2="-0.5" transform="matrix(0.679544 0.733634 -0.740651 0.67189 180.345 159.412)" stroke="black"/>
<line y1="-0.5" x2="13.2871" y2="-0.5" transform="matrix(0.662386 0.749163 -0.755966 0.654611 185.375 154.435)" stroke="black"/>
<line y1="-0.5" x2="20.3525" y2="-0.5" transform="matrix(0.679544 0.733634 -0.740651 0.67189 190.403 149.458)" stroke="black"/>
<line y1="-0.5" x2="13.2871" y2="-0.5" transform="matrix(0.662386 0.749163 -0.755966 0.654611 195.433 144.481)" stroke="black"/>
<line y1="-0.5" x2="20.3525" y2="-0.5" transform="matrix(0.679544 0.733634 -0.740651 0.67189 200.462 139.504)" stroke="black"/>
<line y1="-0.5" x2="13.2871" y2="-0.5" transform="matrix(0.662386 0.749163 -0.755966 0.654611 205.491 134.527)" stroke="black"/>
<line y1="-0.5" x2="20.3525" y2="-0.5" transform="matrix(0.679544 0.733634 -0.740651 0.67189 210.521 129.55)" stroke="black"/>
<line y1="-0.5" x2="13.2871" y2="-0.5" transform="matrix(0.662386 0.749163 -0.755966 0.654611 215.55 124.573)" stroke="black"/>
<line y1="-0.5" x2="20.3525" y2="-0.5" transform="matrix(0.679544 0.733634 -0.740651 0.67189 220.579 119.595)" stroke="black"/>
<line y1="-0.5" x2="13.2871" y2="-0.5" transform="matrix(0.662386 0.749163 -0.755966 0.654611 225.608 114.618)" stroke="black"/>
<line y1="-0.5" x2="20.3525" y2="-0.5" transform="matrix(0.679544 0.733634 -0.740651 0.67189 230.638 109.641)" stroke="black"/>
<line y1="-0.5" x2="13.2871" y2="-0.5" transform="matrix(0.662386 0.749163 -0.755966 0.654611 235.667 104.664)" stroke="black"/>
<rect x="180.284" y="82.0716" width="15.39" height="30.4" transform="rotate(45 180.284 82.0716)" fill="white" stroke="black"/>
<path d="M242.352 186.276L262.627 165.808L268.069 190.007L242.352 186.276Z" fill="white" stroke="black"/>
<rect x="0.00303277" y="0.710114" width="101.504" height="30.3642" transform="matrix(0.707107 0.707107 -0.701041 0.713121 191.793 92.5756)" fill="white" stroke="black"/>
<line x1="186.571" y1="98.2568" x2="258.426" y2="170.112" stroke="black"/>
<line x1="183.742" y1="101.085" x2="255.597" y2="172.94" stroke="black"/>
</svg>
