<svg width="267" height="316" viewBox="0 0 267 316" fill="none" xmlns="http://www.w3.org/2000/svg">
<path d="M30.048 254.744C42.2519 256.401 67.2924 253.297 69.8235 227.624C72.9875 195.532 49.6222 204.055 47.2238 214.064C43.2811 230.519 80.2579 238.878 96.9432 227.624C109.996 218.82 112.01 197.792 110.503 189.657" stroke="black" stroke-dasharray="5 5"/>
<path d="M246.502 28.2324L232.585 51.1574L260.419 51.1574L246.502 28.2324Z" stroke="#2898FF"/>
<path d="M15.6736 259.85L4.96938 277.483L26.3777 277.483L15.6736 259.85Z" stroke="#2898FF"/>
<path d="M229.647 301.545L211.105 282.169L203.901 309.054L229.647 301.545Z" stroke="#2898FF"/>
<path d="M65.6637 18.6355L51.4021 3.73232L45.8612 24.4112L65.6637 18.6355Z" stroke="black"/>
<path d="M57.7984 31.0871C57.7312 36.4171 60.5276 46.9717 72.2503 46.5509C86.9037 46.0249 81.7562 36.5064 77.1072 36.0653C69.4644 35.34 67.7553 51.6851 73.7624 58.1791C78.4618 63.2594 88.06 62.8892 91.6462 61.7659" stroke="black" stroke-dasharray="5 5"/>
<path d="M165.707 246.931C165.64 252.261 168.436 262.816 180.159 262.395C194.812 261.869 189.665 252.35 185.016 251.909C177.373 251.184 175.664 267.529 181.671 274.023C186.371 279.103 195.969 278.733 199.555 277.61" stroke="black" stroke-dasharray="5 5"/>
<path fill-rule="evenodd" clip-rule="evenodd" d="M226.344 151.651L210.432 131.965L194.52 151.651H201.389C195.329 177.24 166.759 187.676 152.687 189.711C189.228 189.711 210.449 166.092 218.051 151.651H226.344Z" fill="white"/>
<path d="M210.432 131.965L210.821 131.651L210.432 131.17L210.043 131.651L210.432 131.965ZM226.344 151.651V152.151H227.391L226.733 151.337L226.344 151.651ZM194.52 151.651L194.131 151.337L193.473 152.151H194.52V151.651ZM201.389 151.651L201.876 151.766L202.022 151.151H201.389V151.651ZM152.687 189.711L152.615 189.216L152.687 190.211V189.711ZM218.051 151.651V151.151H217.749L217.609 151.418L218.051 151.651ZM210.043 132.28L225.955 151.966L226.733 151.337L210.821 131.651L210.043 132.28ZM194.909 151.966L210.821 132.28L210.043 131.651L194.131 151.337L194.909 151.966ZM201.389 151.151H194.52V152.151H201.389V151.151ZM200.903 151.536C197.912 164.163 189.365 173.072 179.777 179.09C170.185 185.11 159.593 188.207 152.615 189.216L152.758 190.206C159.853 189.18 170.582 186.041 180.308 179.937C190.038 173.831 198.806 164.728 201.876 151.766L200.903 151.536ZM152.687 190.211C189.469 190.211 210.834 166.433 218.494 151.884L217.609 151.418C210.064 165.75 188.987 189.211 152.687 189.211V190.211ZM226.344 151.151H218.051V152.151H226.344V151.151Z" fill="black"/>
<path fill-rule="evenodd" clip-rule="evenodd" d="M227 152.307L211.088 132.621L195.176 152.307H202.046C195.985 177.896 167.415 188.332 153.343 190.367C189.884 190.367 211.105 166.748 218.707 152.307H227Z" fill="white"/>
<path d="M211.088 132.621L211.477 132.307L211.088 131.826L210.699 132.307L211.088 132.621ZM227 152.307V152.807H228.047L227.389 151.993L227 152.307ZM195.176 152.307L194.787 151.993L194.129 152.807H195.176V152.307ZM202.046 152.307L202.532 152.422L202.678 151.807H202.046V152.307ZM153.343 190.367L153.271 189.872L153.343 190.867V190.367ZM218.707 152.307V151.807H218.406L218.265 152.074L218.707 152.307ZM210.699 132.936L226.611 152.622L227.389 151.993L211.477 132.307L210.699 132.936ZM195.565 152.622L211.477 132.936L210.699 132.307L194.787 151.993L195.565 152.622ZM202.046 151.807H195.176V152.807H202.046V151.807ZM201.559 152.192C198.569 164.819 190.021 173.728 180.433 179.746C170.841 185.766 160.249 188.863 153.271 189.872L153.414 190.862C160.509 189.836 171.238 186.697 180.964 180.593C190.694 174.487 199.462 165.384 202.532 152.422L201.559 152.192ZM153.343 190.867C190.125 190.867 211.49 167.089 219.15 152.54L218.265 152.074C210.72 166.406 189.643 189.867 153.343 189.867V190.867ZM227 151.807H218.707V152.807H227V151.807Z" fill="black"/>
<circle cx="144.812" cy="137.215" r="48.7148" fill="white" stroke="black"/>
<path d="M144.812 88.3281C158.811 106.155 178.409 150.536 144.812 185.445" stroke="black"/>
<path d="M144.333 88.3281C130.334 106.155 110.736 150.536 144.333 185.445" stroke="black"/>
<path d="M95.7959 135.177C114.058 121.751 159.038 103.57 192.864 138.258" stroke="black"/>
<path d="M95.7812 135.656C113.155 150.213 156.891 171.21 192.85 138.737" stroke="black"/>
<line x1="145.312" y1="89.3159" x2="144.642" y2="187.089" stroke="black"/>
<line x1="96.2737" y1="135.824" x2="194.019" y2="138.262" stroke="black"/>
</svg>
