<svg width="153" height="152" viewBox="0 0 153 152" fill="none" xmlns="http://www.w3.org/2000/svg">
<path d="M60.8625 18.2824C69.0712 8.73672 83.8516 8.73672 92.0603 18.2824L103.132 31.1574C105.218 33.5834 107.842 35.4894 110.794 36.7239L126.46 43.2751C138.075 48.1322 142.642 62.1892 136.1 72.9459L127.277 87.4542C125.614 90.1881 124.612 93.2721 124.35 96.4611L122.961 113.385C121.931 125.932 109.973 134.62 97.7214 131.722L81.1966 127.814C78.0827 127.078 74.84 127.078 71.7262 127.814L55.2014 131.722C42.9496 134.62 30.992 125.932 29.9619 113.385L28.5724 96.4611C28.3106 93.2721 27.3085 90.1881 25.6459 87.4543L16.8224 72.9459C10.2806 62.1892 14.8479 48.1322 26.4631 43.2751L42.1292 36.7239C45.0812 35.4894 47.7046 33.5834 49.7909 31.1574L60.8625 18.2824Z" fill="#6886C5"/>
<path d="M53.5752 75.9221L68.833 91.1798L99.3482 60.6645" stroke="white" stroke-width="3" stroke-linecap="round" stroke-linejoin="round"/>
</svg>
