<svg width="49" height="49" viewBox="0 0 49 49" fill="none" xmlns="http://www.w3.org/2000/svg">
<path d="M27.5212 4.00375L33.6276 10.0279C34.0207 10.4157 34.4699 10.7421 34.9602 10.9961L42.5765 14.942C44.7621 16.0743 45.6323 18.7526 44.5297 20.9533L40.6873 28.6224C40.44 29.1161 40.2684 29.6442 40.1783 30.1889L38.7791 38.6518C38.3776 41.0803 36.0993 42.7356 33.6655 42.367L25.1845 41.0826C24.6385 40.9999 24.0833 40.9999 23.5373 41.0826L15.0563 42.367C12.6225 42.7356 10.3442 41.0803 9.94272 38.6518L8.54347 30.1889C8.4534 29.6442 8.28182 29.1161 8.03448 28.6224L4.19213 20.9533C3.08953 18.7526 3.95975 16.0743 6.14533 14.942L13.7616 10.9961C14.2519 10.7421 14.7011 10.4157 15.0942 10.0279L21.2006 4.00375C22.9529 2.27505 25.7689 2.27505 27.5212 4.00375Z" stroke="#2898FF"/>
<path d="M20.8494 3.64781C22.7964 1.72703 25.9254 1.72703 27.8724 3.64781L32.32 8.03553C33.6671 9.36456 34.1485 11.3403 33.5638 13.14L25.3149 38.5273C24.7301 40.3271 23.1794 41.6425 21.3083 41.9259L15.1311 42.8614C12.4269 43.2709 9.89554 41.4317 9.44939 38.7334L8.05014 30.2705C7.96826 29.7753 7.81228 29.2952 7.58743 28.8464L3.74508 21.1773C2.51996 18.7321 3.48687 15.7562 5.9153 14.4981L13.5316 10.5521C13.9773 10.3212 14.3857 10.0245 14.743 9.67198L20.8494 3.64781Z" fill="#2898FF"/>
</svg>
