<svg width="25" height="21" viewBox="0 0 25 21" fill="none" xmlns="http://www.w3.org/2000/svg">
<mask id="path-1-inside-1" fill="white">
<path fill-rule="evenodd" clip-rule="evenodd" d="M1.3927 9.90168C4.71684 16.1008 12.0971 20.1524 12.0971 20.1524C12.0971 20.1524 19.4774 16.1008 22.8015 9.90168C27.5155 1.11062 17.8518 -2.72103 12.0971 4.03046C6.34242 -2.72103 -3.32132 1.11062 1.3927 9.90168Z"/>
</mask>
<path d="M12.0971 20.1524L11.6159 21.029L12.0971 21.2932L12.5783 21.029L12.0971 20.1524ZM1.3927 9.90168L0.511404 10.3742H0.511404L1.3927 9.90168ZM22.8015 9.90168L21.9202 9.4291L22.8015 9.90168ZM12.0971 4.03046L11.3361 4.67915L12.0971 5.57203L12.8582 4.67915L12.0971 4.03046ZM12.0971 20.1524C12.5783 19.2758 12.5785 19.2759 12.5786 19.276C12.5787 19.276 12.5788 19.2761 12.5788 19.2761C12.5788 19.2761 12.5787 19.276 12.5786 19.2759C12.5782 19.2757 12.5774 19.2753 12.5761 19.2746C12.5736 19.2732 12.5694 19.2709 12.5634 19.2675C12.5515 19.2609 12.5328 19.2504 12.5076 19.236C12.4572 19.2074 12.381 19.1635 12.2816 19.1049C12.083 18.9877 11.7922 18.8117 11.4316 18.5805C10.7096 18.1179 9.7111 17.4368 8.61177 16.5674C6.39849 14.817 3.84293 12.355 2.27399 9.4291L0.511404 10.3742C2.2666 13.6475 5.06325 16.3109 7.37114 18.1361C8.53239 19.0545 9.5867 19.7737 10.3524 20.2644C10.7356 20.51 11.0474 20.6989 11.2653 20.8275C11.3743 20.8918 11.4599 20.941 11.5192 20.9748C11.5489 20.9916 11.572 21.0046 11.5882 21.0137C11.5964 21.0182 11.6027 21.0218 11.6074 21.0243C11.6097 21.0256 11.6115 21.0266 11.613 21.0274C11.6137 21.0278 11.6143 21.0281 11.6148 21.0284C11.615 21.0285 11.6153 21.0287 11.6154 21.0287C11.6157 21.0289 11.6159 21.029 12.0971 20.1524ZM12.0971 20.1524C12.5783 21.029 12.5786 21.0289 12.5788 21.0287C12.5789 21.0287 12.5792 21.0285 12.5795 21.0284C12.5799 21.0281 12.5805 21.0278 12.5813 21.0274C12.5827 21.0266 12.5845 21.0256 12.5868 21.0243C12.5915 21.0218 12.5979 21.0182 12.606 21.0137C12.6222 21.0046 12.6453 20.9916 12.675 20.9748C12.7343 20.941 12.8199 20.8918 12.9289 20.8275C13.1468 20.6989 13.4586 20.51 13.8418 20.2644C14.6075 19.7737 15.6618 19.0545 16.8231 18.1361C19.131 16.3109 21.9276 13.6475 23.6828 10.3742L21.9202 9.4291C20.3513 12.355 17.7957 14.817 15.5824 16.5674C14.4831 17.4368 13.4846 18.1179 12.7626 18.5805C12.402 18.8117 12.1113 18.9877 11.9126 19.1049C11.8133 19.1635 11.737 19.2074 11.6866 19.236C11.6614 19.2504 11.6427 19.2609 11.6308 19.2675C11.6248 19.2709 11.6206 19.2732 11.6181 19.2746C11.6168 19.2753 11.616 19.2757 11.6157 19.2759C11.6155 19.276 11.6154 19.2761 11.6154 19.2761C11.6154 19.2761 11.6156 19.276 11.6156 19.276C11.6157 19.2759 11.6159 19.2758 12.0971 20.1524ZM23.6828 10.3742C24.9389 8.03186 25.3026 5.89679 24.9029 4.10804C24.499 2.30088 23.3394 0.965681 21.8051 0.234818C18.7643 -1.21375 14.4404 -0.260258 11.3361 3.38177L12.8582 4.67915C15.5085 1.56969 18.8938 1.06327 20.945 2.04041C21.9568 2.5224 22.6889 3.37147 22.951 4.54425C23.2172 5.73543 23.0212 7.37596 21.9202 9.4291L23.6828 10.3742ZM2.27399 9.4291C1.17304 7.37596 0.976997 5.73543 1.24321 4.54425C1.5053 3.37147 2.23741 2.5224 3.24921 2.04041C5.30042 1.06327 8.68568 1.56969 11.3361 4.67915L12.8582 3.38177C9.75385 -0.260258 5.42989 -1.21375 2.38907 0.234818C0.854848 0.965681 -0.304771 2.30088 -0.708643 4.10804C-1.1084 5.89679 -0.744652 8.03186 0.511404 10.3742L2.27399 9.4291Z" fill="black" mask="url(#path-1-inside-1)"/>
</svg>
