<svg width="368" height="308" viewBox="0 0 368 308" fill="none" xmlns="http://www.w3.org/2000/svg">
<path d="M103.34 69.6887C118.349 69.6887 130.517 57.5266 130.517 42.5238C130.517 27.5211 118.349 15.3589 103.34 15.3589C88.3307 15.3589 76.1632 27.5211 76.1632 42.5238C76.1632 57.5266 88.3307 69.6887 103.34 69.6887Z" fill="#FFACB7"/>
<path d="M262.036 50.4441H229.437V20.8221L262.036 50.4441Z" fill="#3F3D56"/>
<path d="M265.845 49.4744H101.852V275.94H265.845V49.4744Z" fill="#E6E6E6"/>
<path d="M137.507 65.3528H118.213V105.989H137.507V65.3528Z" fill="white"/>
<path d="M167.349 65.3528H148.056V105.989H167.349V65.3528Z" fill="white"/>
<path d="M134.964 122.949H115.67V163.584H134.964V122.949Z" fill="white"/>
<path d="M167.349 122.949H148.056V163.584H167.349V122.949Z" fill="white"/>
<path d="M134.964 176.24H115.67V216.876H134.964V176.24Z" fill="white"/>
<path d="M166.622 175.514H147.329V216.15H166.622V175.514Z" fill="white"/>
<path d="M194.664 235.395H175.371V276.031H194.664V235.395Z" fill="#CCCCCC"/>
<path d="M223.813 175.514H204.52V216.15H223.813V175.514Z" fill="white"/>
<path d="M256.198 175.514H236.905V216.15H256.198V175.514Z" fill="white"/>
<path d="M224.539 122.518H205.246V163.154H224.539V122.518Z" fill="white"/>
<path d="M256.924 122.518H237.631V163.154H256.924V122.518Z" fill="white"/>
<path d="M224.539 65.3528H205.246V105.989H224.539V65.3528Z" fill="white"/>
<path d="M256.924 65.3528H237.631V105.989H256.924V65.3528Z" fill="white"/>
<path d="M265.845 101.819H101.852V108.017H265.845V101.819Z" fill="#3F3D56"/>
<path d="M265.845 150.031H101.852V153.474H265.845V150.031Z" fill="#3F3D56"/>
<path d="M265.845 139.011H101.852V142.454H265.845V139.011Z" fill="#3F3D56"/>
<path d="M118.045 219.594V192.044H114.599V219.594H118.045Z" fill="#3F3D56"/>
<path d="M137.338 219.594V192.044H133.893V219.594H137.338Z" fill="#3F3D56"/>
<path d="M156.631 219.594V192.044H153.186V219.594H156.631Z" fill="#3F3D56"/>
<path d="M175.924 219.594V192.044H172.479V219.594H175.924Z" fill="#3F3D56"/>
<path d="M195.218 219.594V192.044H191.772V219.594H195.218Z" fill="#3F3D56"/>
<path d="M214.511 219.594V192.044H211.066V219.594H214.511Z" fill="#3F3D56"/>
<path d="M233.804 219.594V192.044H230.359V219.594H233.804Z" fill="#3F3D56"/>
<path d="M253.097 219.594V192.044H249.652V219.594H253.097Z" fill="#3F3D56"/>
<path d="M118.389 167.249V139.7H114.944V167.249H118.389Z" fill="#3F3D56"/>
<path d="M137.682 167.249V139.7H134.237V167.249H137.682Z" fill="#3F3D56"/>
<path d="M156.976 167.249V139.7H153.53V167.249H156.976Z" fill="#3F3D56"/>
<path d="M176.269 167.249V139.7H172.824V167.249H176.269Z" fill="#3F3D56"/>
<path d="M195.562 167.249V139.7H192.117V167.249H195.562Z" fill="#3F3D56"/>
<path d="M214.855 167.249V139.7H211.41V167.249H214.855Z" fill="#3F3D56"/>
<path d="M234.149 167.249V139.7H230.703V167.249H234.149Z" fill="#3F3D56"/>
<path d="M253.442 167.249V139.7H249.997V167.249H253.442Z" fill="#3F3D56"/>
<path d="M118.389 105.951V78.4015H114.944V105.951H118.389Z" fill="#3F3D56"/>
<path d="M137.682 105.951V78.4015H134.237V105.951H137.682Z" fill="#3F3D56"/>
<path d="M156.976 105.951V78.4015H153.53V105.951H156.976Z" fill="#3F3D56"/>
<path d="M176.269 105.951V78.4015H172.824V105.951H176.269Z" fill="#3F3D56"/>
<path d="M195.562 105.951V78.4015H192.117V105.951H195.562Z" fill="#3F3D56"/>
<path d="M214.855 105.951V78.4015H211.41V105.951H214.855Z" fill="#3F3D56"/>
<path d="M234.149 105.951V78.4015H230.703V105.951H234.149Z" fill="#3F3D56"/>
<path d="M253.442 105.951V78.4015H249.997V105.951H253.442Z" fill="#3F3D56"/>
<path d="M265.845 88.0439H101.852V91.4876H265.845V88.0439Z" fill="#3F3D56"/>
<path d="M265.845 77.024H101.852V80.4677H265.845V77.024Z" fill="#3F3D56"/>
<path d="M265.845 161.739H101.852V167.938H265.845V161.739Z" fill="#3F3D56"/>
<path d="M273.391 46.9262H94.3057V56.1632H273.391V46.9262Z" fill="#3F3D56"/>
<path d="M137.543 244.182V235.395H126.994V244.182H136.664H137.543Z" fill="white"/>
<path d="M136.664 251.212H126.994V259.999H137.543V251.212H136.664Z" fill="white"/>
<path d="M155.124 235.395H144.575V244.182H155.124V235.395Z" fill="white"/>
<path d="M155.124 251.212H144.575V259.999H155.124V251.212Z" fill="white"/>
<path d="M223.58 244.182V235.395H213.031V244.182H222.701H223.58Z" fill="white"/>
<path d="M222.701 251.212H213.031V259.999H223.58V251.212H222.701Z" fill="white"/>
<path d="M241.162 235.395H230.613V244.182H241.162V235.395Z" fill="white"/>
<path d="M241.162 251.212H230.613V259.999H241.162V251.212Z" fill="white"/>
<path d="M265.845 214.084H101.852V220.282H265.845V214.084Z" fill="#3F3D56"/>
<path d="M265.845 203.064H101.852V206.508H265.845V203.064Z" fill="#3F3D56"/>
<path d="M265.845 192.044H101.852V195.488H265.845V192.044Z" fill="#3F3D56"/>
<path d="M151.5 272.988C151.5 272.797 151.497 272.606 151.492 272.416C151.344 267.339 146.306 265.962 143.605 268.365C142.752 267.625 141.661 267.218 140.532 267.218C139.403 267.218 138.312 267.625 137.46 268.365C134.747 266 129.809 267.279 129.646 272.298C129.639 272.488 129.636 272.679 129.636 272.87C129.644 273.926 129.708 274.98 129.83 276.029H151.308C151.425 275.02 151.489 274.005 151.5 272.988Z" fill="#6886C5"/>
<path d="M236.865 272.988C236.865 272.797 236.863 272.606 236.857 272.416C236.71 267.339 231.671 265.962 228.97 268.365C228.117 267.625 227.026 267.218 225.897 267.218C224.768 267.218 223.677 267.625 222.825 268.365C220.112 266 215.174 267.279 215.011 272.298C215.005 272.488 215.001 272.679 215.001 272.87C215.009 273.926 215.074 274.98 215.195 276.029H236.674C236.79 275.02 236.854 274.005 236.865 272.988Z" fill="#6886C5"/>
<path d="M354.663 276.372H351.341L352.448 211.513H353.556L354.663 276.372Z" fill="#E6E6E6"/>
<path d="M357.431 170.679L362.793 162.396C361.203 158.005 359.366 153.708 357.292 149.524L353.824 152.323L356.57 148.082C353.953 142.934 351.895 139.691 351.895 139.691C351.895 139.691 341.141 156.63 337.548 174.564L344.429 185.193L336.811 179.043C336.54 181.133 336.401 183.237 336.394 185.343C336.394 206.584 343.334 223.802 351.895 223.802C360.456 223.802 367.396 206.584 367.396 185.343C367.396 178.759 365.905 171.87 363.85 165.497L357.431 170.679Z" fill="#E6E6E6"/>
<path d="M342.966 185.653H272.1V237.811H272.143V248.195L282.531 237.811H342.966V185.653Z" fill="#6886C5"/>
<path d="M253.348 297.044H190.475V299.528H253.348V297.044Z" fill="#E6E6E6"/>
<path d="M368 297.044H304.787V299.528H368V297.044Z" fill="#E6E6E6"/>
<path d="M139.118 297.044H76.1632V299.528H139.118V297.044Z" fill="#E6E6E6"/>
<path d="M367.741 275.975H0V276.667H367.741V275.975Z" fill="#3F3D56"/>
<path d="M288.428 287.936L295.831 287.94L295.832 286.765L288.428 286.761L288.428 287.936Z" fill="#3F3D56"/>
<path d="M234.899 287.027L236.426 287.38L294.48 287.411L295.002 286.195C295.913 284.11 296.225 281.812 295.905 279.56C295.655 277.881 295.028 276.212 293.605 275.487L291.029 258.336L258.911 258.278L246.484 268.297C246.484 268.297 240.622 268.191 237.438 272.154C236.289 273.628 235.611 275.413 235.491 277.277L235.366 279.339L234.899 287.027Z" fill="#6886C5"/>
<path d="M247.649 293.905C251.609 293.905 254.818 290.697 254.818 286.74C254.818 282.782 251.609 279.574 247.649 279.574C243.69 279.574 240.481 282.782 240.481 286.74C240.481 290.697 243.69 293.905 247.649 293.905Z" fill="#3F3D56"/>
<path d="M247.649 290.511C249.733 290.511 251.422 288.823 251.422 286.74C251.422 284.657 249.733 282.968 247.649 282.968C245.566 282.968 243.877 284.657 243.877 286.74C243.877 288.823 245.566 290.511 247.649 290.511Z" fill="#CCCCCC"/>
<path d="M283.022 293.924C286.982 293.924 290.191 290.716 290.191 286.759C290.191 282.801 286.982 279.593 283.022 279.593C279.063 279.593 275.854 282.801 275.854 286.759C275.854 290.716 279.063 293.924 283.022 293.924Z" fill="#3F3D56"/>
<path d="M283.022 290.53C285.106 290.53 286.795 288.841 286.795 286.759C286.795 284.676 285.106 282.987 283.022 282.987C280.939 282.987 279.25 284.676 279.25 286.759C279.25 288.841 280.939 290.53 283.022 290.53Z" fill="#CCCCCC"/>
<path d="M251.421 267.126L268.763 267.133H270.88L274.453 267.136V266.875L274.456 263.734L274.458 260.206H272.081L269.964 260.204L266.214 260.201H264.097L259.769 260.199L251.421 267.126Z" fill="white"/>
<path d="M277.275 267.138L286.44 267.143L286.442 265.346V262.204L286.445 260.214H285.103L282.986 260.211L277.278 260.209L277.275 267.138Z" fill="white"/>
<path d="M273.274 274.538L274.449 274.539L274.45 272.307L273.275 272.306L273.274 274.538Z" fill="#3F3D56"/>
<path d="M256.121 270.3L256.122 269.126L253.889 269.124L253.888 270.299L256.121 270.3Z" fill="#3F3D56"/>
<path d="M255.297 269.641L255.168 269.641C254.517 269.64 253.892 269.381 253.432 268.921C252.971 268.46 252.713 267.835 252.713 267.184C252.714 266.533 252.973 265.909 253.434 265.449C253.894 264.988 254.519 264.73 255.171 264.73L255.3 264.731L255.297 269.641Z" fill="#3F3D56"/>
<path d="M235.366 279.339C236.254 279.435 237.149 279.215 237.891 278.717C238.634 278.22 239.176 277.476 239.424 276.617C239.672 275.759 239.608 274.84 239.245 274.024C238.882 273.207 238.242 272.545 237.438 272.154C236.289 273.628 235.611 275.413 235.491 277.277L235.366 279.339Z" fill="#3F3D56"/>
<path d="M269.964 260.204L274.453 266.875L274.456 263.734L272.081 260.206L269.964 260.204Z" fill="#F2F2F2"/>
<path d="M282.986 260.211L286.442 265.346V262.204L285.103 260.214L282.986 260.211Z" fill="#F2F2F2"/>
<path d="M264.097 260.201L268.763 267.133H270.88L266.214 260.201H264.097Z" fill="#F2F2F2"/>
<path d="M169.976 0.433932L169.928 0.460015C169.41 0.742854 168.831 0.892075 168.241 0.894143C167.651 0.89621 167.07 0.751057 166.551 0.471853C166.521 0.455716 166.491 0.439781 166.462 0.424049C165.942 0.146965 165.362 0.00299086 164.774 0.00502257C164.185 0.00705428 163.606 0.155029 163.088 0.435691L163.044 0.460015C162.526 0.742854 161.947 0.892075 161.357 0.894143C160.767 0.89621 160.186 0.751057 159.667 0.471853C159.636 0.4551 159.605 0.438565 159.574 0.422246C159.061 0.146431 158.488 0.0015744 157.905 0.000543804C157.322 -0.000486797 156.748 0.142342 156.234 0.416339C154.663 1.26185 152.54 2.70747 152.549 4.34007C152.55 4.40463 152.553 4.46913 152.56 4.53332C152.743 6.22878 158.275 6.66079 161.315 5.86176C163.58 6.37848 165.933 6.37848 168.199 5.86176C171.225 6.67358 176.87 6.20848 177.035 4.49357C177.041 4.42931 177.044 4.36479 177.043 4.30023C177.034 2.66675 174.892 1.23628 173.311 0.402669C172.796 0.133024 172.221 -0.00520711 171.64 0.000246904C171.058 0.00570091 170.486 0.15467 169.976 0.433932Z" fill="#E6E6E6"/>
<path d="M322.392 56.4122L322.344 56.4383C321.826 56.7212 321.246 56.8704 320.657 56.8724C320.067 56.8745 319.486 56.7294 318.967 56.4502C318.937 56.434 318.907 56.4181 318.877 56.4024C318.358 56.1253 317.778 55.9813 317.189 55.9833C316.601 55.9854 316.022 56.1333 315.504 56.414L315.46 56.4383C314.942 56.7212 314.362 56.8704 313.773 56.8724C313.183 56.8745 312.602 56.7294 312.083 56.4502C312.052 56.4334 312.021 56.4169 311.99 56.4006C311.477 56.1247 310.903 55.9799 310.321 55.9788C309.738 55.9778 309.164 56.1206 308.65 56.3946C307.079 57.2401 304.956 58.6858 304.965 60.3184C304.966 60.3829 304.969 60.4474 304.976 60.5116C305.159 62.2071 310.691 62.6391 313.73 61.8401C315.996 62.3568 318.349 62.3568 320.614 61.8401C323.641 62.6519 329.286 62.1868 329.451 60.4719C329.457 60.4076 329.46 60.3431 329.459 60.2785C329.45 58.6451 327.308 57.2146 325.727 56.381C325.212 56.1113 324.637 55.9731 324.055 55.9785C323.474 55.984 322.902 56.133 322.392 56.4122Z" fill="#E6E6E6"/>
<path d="M55.4856 59.5371L55.4377 59.5632C54.9204 59.846 54.3405 59.9952 53.7508 59.9973C53.1611 59.9994 52.5802 59.8542 52.0608 59.575C52.0309 59.5589 52.0011 59.5429 51.9715 59.5272C51.4522 59.2501 50.8722 59.1061 50.2835 59.1082C49.6948 59.1102 49.1159 59.2582 48.5984 59.5388L48.5538 59.5632C48.0364 59.846 47.4565 59.9952 46.8668 59.9973C46.2771 59.9994 45.6962 59.8542 45.1768 59.575C45.1458 59.5582 45.1149 59.5417 45.0842 59.5254C44.571 59.2496 43.9975 59.1047 43.4148 59.1037C42.8321 59.1027 42.2582 59.2455 41.744 59.5195C40.1733 60.365 38.0499 61.8106 38.0592 63.4432C38.0596 63.5078 38.0633 63.5723 38.0702 63.6365C38.2529 65.3319 43.7853 65.7639 46.8245 64.9649C49.0901 65.4816 51.4429 65.4816 53.7085 64.9649C56.7347 65.7767 62.3797 65.3116 62.5447 63.5967C62.5509 63.5324 62.5538 63.4679 62.5535 63.4034C62.5441 61.7699 60.4019 60.3394 58.8214 59.5058C58.3057 59.2362 57.7315 59.0979 57.1496 59.1034C56.5677 59.1089 55.9961 59.2578 55.4856 59.5371Z" fill="#E6E6E6"/>
<path d="M45.623 300.839H38.2193V302.014H45.623V300.839Z" fill="#3F3D56"/>
<path d="M99.1524 301.102L97.6248 301.456L39.5708 301.487L39.0488 300.271C38.1383 298.186 37.8258 295.888 38.1462 293.636C38.3962 291.956 39.0227 290.288 40.4458 289.563L43.022 272.412L75.1404 272.354L87.5668 282.373C87.5668 282.373 93.4286 282.267 96.6131 286.23C97.7619 287.704 98.4401 289.489 98.5596 291.353L98.6853 293.415L99.1524 301.102Z" fill="#FFACB7"/>
<path d="M86.4015 307.981C90.3606 307.981 93.5701 304.773 93.5701 300.816C93.5701 296.858 90.3606 293.65 86.4015 293.65C82.4424 293.65 79.2329 296.858 79.2329 300.816C79.2329 304.773 82.4424 307.981 86.4015 307.981Z" fill="#3F3D56"/>
<path d="M86.4015 304.587C88.4852 304.587 90.1745 302.898 90.1745 300.816C90.1745 298.733 88.4852 297.044 86.4015 297.044C84.3178 297.044 82.6285 298.733 82.6285 300.816C82.6285 302.898 84.3178 304.587 86.4015 304.587Z" fill="#CCCCCC"/>
<path d="M51.0285 308C54.9876 308 58.1971 304.792 58.1971 300.835C58.1971 296.877 54.9876 293.669 51.0285 293.669C47.0694 293.669 43.8599 296.877 43.8599 300.835C43.8599 304.792 47.0694 308 51.0285 308Z" fill="#3F3D56"/>
<path d="M51.0285 304.606C53.1122 304.606 54.8014 302.917 54.8014 300.835C54.8014 298.752 53.1122 297.063 51.0285 297.063C48.9448 297.063 47.2555 298.752 47.2555 300.835C47.2555 302.917 48.9448 304.606 51.0285 304.606Z" fill="#CCCCCC"/>
<path d="M82.6297 281.202L65.2883 281.209H63.1714L59.5975 281.212V280.951L59.595 277.81L59.5926 274.283H61.9703L64.0872 274.28L67.8367 274.277H69.9535L74.2825 274.275L82.6297 281.202Z" fill="white"/>
<path d="M56.7758 281.214L47.6109 281.219L47.6084 279.422V276.28L47.6059 274.29H48.9479L51.0647 274.287L56.7733 274.285L56.7758 281.214Z" fill="white"/>
<path d="M60.7754 286.381H59.6002V288.613H60.7754V286.381Z" fill="#3F3D56"/>
<path d="M80.1642 284.374L80.1636 283.199L77.9308 283.2L77.9314 284.375L80.1642 284.374Z" fill="#3F3D56"/>
<path d="M78.7524 278.806H78.8816C79.2042 278.806 79.5236 278.869 79.8215 278.993C80.1195 279.116 80.3903 279.297 80.6184 279.525C80.8464 279.753 81.0274 280.023 81.1508 280.321C81.2742 280.619 81.3378 280.938 81.3378 281.261C81.3378 281.912 81.079 282.536 80.6184 282.997C80.1578 283.457 79.533 283.716 78.8816 283.716H78.7523V278.806H78.7524Z" fill="#3F3D56"/>
<path d="M98.6853 293.415C97.7965 293.511 96.9022 293.291 96.1598 292.793C95.4175 292.296 94.8746 291.552 94.627 290.693C94.3794 289.835 94.4428 288.916 94.8061 288.1C95.1694 287.283 95.8093 286.621 96.6131 286.23C97.7619 287.704 98.4401 289.489 98.5596 291.353L98.6853 293.415Z" fill="#3F3D56"/>
<path d="M64.0872 274.28L59.5975 280.951L59.595 277.81L61.9703 274.283L64.0872 274.28Z" fill="#F2F2F2"/>
<path d="M51.0647 274.287L47.6084 279.422V276.28L48.9479 274.29L51.0647 274.287Z" fill="#F2F2F2"/>
<path d="M69.9535 274.277L65.2883 281.209H63.1714L67.8367 274.277H69.9535Z" fill="#F2F2F2"/>
<path d="M305.051 222.848L296.001 211.218L301.263 207.127L305.548 212.633L320.023 197.36L324.864 201.944L305.051 222.848Z" fill="white"/>
<path d="M2.62587 198.851H73.4926V251.008H73.4496V261.392L63.0608 251.008H2.62587V198.851Z" fill="#6886C5"/>
<path d="M36.0505 237.287L27.0008 225.657L32.2637 221.566L36.5483 227.073L51.0233 211.8L55.8637 216.383L36.0505 237.287Z" fill="white"/>
</svg>
