<svg width="11" height="14" viewBox="0 0 11 14" fill="none" xmlns="http://www.w3.org/2000/svg">
<path fill-rule="evenodd" clip-rule="evenodd" d="M4.74707 1.52335H6.03174C6.58403 1.52335 7.03174 1.97106 7.03174 2.52335V5.02992L8.03174 5.02992V2.52335C8.03174 1.41878 7.13631 0.523346 6.03174 0.523346H4.74707C3.6425 0.523346 2.74707 1.41878 2.74707 2.52334V3.41774L3.74707 3.41775V2.52334C3.74707 1.97106 4.19478 1.52335 4.74707 1.52335ZM4.54436 8.55095C4.61102 8.55766 4.67864 8.56109 4.74707 8.56109H6.03174C6.10017 8.56109 6.16779 8.55766 6.23445 8.55095H4.54436Z" fill="white"/>
<path fill-rule="evenodd" clip-rule="evenodd" d="M2.5166 13.1833C1.41199 13.1833 0.516602 12.2879 0.516602 11.1833V6.54224C0.516602 5.43767 1.41199 4.54224 2.5166 4.54224H8.26221C9.36682 4.54224 10.2622 5.43766 10.2622 6.54223V11.1833C10.2622 12.2879 9.36682 13.1833 8.26221 13.1833H2.5166ZM5.3894 11.7089C6.04871 11.7089 6.58313 11.1745 6.58313 10.5152C6.58313 9.85594 6.04871 9.3215 5.3894 9.3215C4.7301 9.3215 4.19568 9.85594 4.19568 10.5152C4.19568 11.1745 4.7301 11.7089 5.3894 11.7089Z" fill="white"/>
</svg>
