<svg width="92" height="53" viewBox="0 0 92 53" fill="none" xmlns="http://www.w3.org/2000/svg">
<path d="M3.472 40.5302C4.57333 40.5302 5.39 40.7542 5.922 41.2022C6.46333 41.6408 6.734 42.2708 6.734 43.0922V43.4282C6.734 44.3055 6.47267 44.9822 5.95 45.4582C5.42733 45.9342 4.63867 46.1722 3.584 46.1722C3.164 46.1722 2.716 46.1348 2.24 46.0602V49.8682H1.05V40.6002C1.84333 40.5535 2.65067 40.5302 3.472 40.5302ZM3.444 41.5382C3.03333 41.5382 2.632 41.5475 2.24 41.5662V45.0382C2.8 45.1128 3.22933 45.1502 3.528 45.1502C4.872 45.1502 5.544 44.5575 5.544 43.3722V43.1342C5.544 42.6022 5.376 42.2055 5.04 41.9442C4.704 41.6735 4.172 41.5382 3.444 41.5382ZM10.6364 40.5302C11.7377 40.5302 12.5497 40.7448 13.0724 41.1742C13.5951 41.6035 13.8564 42.2055 13.8564 42.9802V43.3302C13.8564 43.8715 13.7071 44.3522 13.4084 44.7722C13.1097 45.1828 12.6804 45.4722 12.1204 45.6402L14.5004 49.8682H13.1704L10.9444 45.8922C10.8697 45.9015 10.7204 45.9062 10.4964 45.9062C10.1231 45.9062 9.75439 45.8922 9.39039 45.8642V49.8682H8.20039V40.5862C9.24572 40.5488 10.0577 40.5302 10.6364 40.5302ZM10.6084 41.5382C10.3004 41.5382 9.89439 41.5475 9.39039 41.5662V44.8702C9.89439 44.9168 10.3144 44.9402 10.6504 44.9402C11.9944 44.9402 12.6664 44.3942 12.6664 43.3022V43.0222C12.6664 42.5182 12.5031 42.1448 12.1764 41.9022C11.8497 41.6595 11.3271 41.5382 10.6084 41.5382ZM18.6472 40.5302C19.6926 40.5302 20.4626 40.7915 20.9572 41.3142C21.4519 41.8368 21.6992 42.5788 21.6992 43.5402V47.0262C21.6992 47.9875 21.4519 48.7295 20.9572 49.2522C20.4626 49.7748 19.6926 50.0362 18.6472 50.0362C17.6019 50.0362 16.8319 49.7748 16.3372 49.2522C15.8426 48.7295 15.5952 47.9875 15.5952 47.0262V43.5402C15.5952 42.5788 15.8426 41.8368 16.3372 41.3142C16.8319 40.7915 17.6019 40.5302 18.6472 40.5302ZM18.6472 41.5802C18.0312 41.5802 17.5646 41.7342 17.2472 42.0422C16.9392 42.3502 16.7852 42.8028 16.7852 43.4002V47.1522C16.7852 47.7495 16.9392 48.2068 17.2472 48.5242C17.5646 48.8322 18.0312 48.9862 18.6472 48.9862C19.2632 48.9862 19.7252 48.8322 20.0332 48.5242C20.3506 48.2068 20.5092 47.7495 20.5092 47.1522V43.4142C20.5092 42.8168 20.3506 42.3642 20.0332 42.0562C19.7252 41.7388 19.2632 41.5802 18.6472 41.5802ZM26.1536 40.5302C27.255 40.5302 28.0716 40.7542 28.6036 41.2022C29.145 41.6408 29.4156 42.2708 29.4156 43.0922V43.4282C29.4156 44.3055 29.1543 44.9822 28.6316 45.4582C28.109 45.9342 27.3203 46.1722 26.2656 46.1722C25.8456 46.1722 25.3976 46.1348 24.9216 46.0602V49.8682H23.7316V40.6002C24.525 40.5535 25.3323 40.5302 26.1536 40.5302ZM26.1256 41.5382C25.715 41.5382 25.3136 41.5475 24.9216 41.5662V45.0382C25.4816 45.1128 25.911 45.1502 26.2096 45.1502C27.5536 45.1502 28.2256 44.5575 28.2256 43.3722V43.1342C28.2256 42.6022 28.0576 42.2055 27.7216 41.9442C27.3856 41.6735 26.8536 41.5382 26.1256 41.5382ZM33.219 40.5302C33.723 40.5302 34.381 40.6048 35.193 40.7542L35.165 41.8042C34.3997 41.6548 33.751 41.5802 33.219 41.5802C32.6777 41.5802 32.2857 41.6875 32.043 41.9022C31.8097 42.1168 31.693 42.4435 31.693 42.8822V43.2462C31.693 43.4795 31.721 43.6662 31.777 43.8062C31.8424 43.9368 31.9544 44.0535 32.113 44.1562C32.2717 44.2495 32.5097 44.3475 32.827 44.4502L34.129 44.8842C34.7544 45.0988 35.193 45.3835 35.445 45.7382C35.7064 46.0928 35.837 46.6108 35.837 47.2922V47.5582C35.837 48.3888 35.5944 49.0095 35.109 49.4202C34.633 49.8308 33.849 50.0362 32.757 50.0362C32.225 50.0362 31.5437 49.9428 30.713 49.7562L30.741 48.6782C31.5157 48.8648 32.1784 48.9582 32.729 48.9582C33.429 48.9582 33.9237 48.8555 34.213 48.6502C34.5024 48.4355 34.647 48.1042 34.647 47.6562V47.1942C34.647 46.8675 34.5724 46.6202 34.423 46.4522C34.283 46.2748 34.031 46.1255 33.667 46.0042L32.225 45.5282C31.581 45.3135 31.133 45.0382 30.881 44.7022C30.629 44.3568 30.503 43.8388 30.503 43.1482V42.9942C30.503 42.1822 30.7177 41.5708 31.147 41.1602C31.5857 40.7402 32.2764 40.5302 33.219 40.5302ZM46.4858 49.8682L46.4158 42.3362L44.4698 48.9162H42.9998L41.0538 42.3362L40.9838 49.8682H39.8218L39.9058 40.6982H41.6698L43.7418 47.8522L45.7998 40.6982H47.5638L47.6478 49.8682H46.4858ZM53.0829 40.6982L55.8969 49.8682H54.6089L54.0069 47.7402H50.6329L50.0309 49.8682H48.8129L51.6129 40.6982H53.0829ZM52.3269 41.7902L50.9269 46.6762H53.7129L52.3269 41.7902ZM59.568 40.5302C60.6694 40.5302 61.4814 40.7448 62.004 41.1742C62.5267 41.6035 62.788 42.2055 62.788 42.9802V43.3302C62.788 43.8715 62.6387 44.3522 62.34 44.7722C62.0414 45.1828 61.612 45.4722 61.052 45.6402L63.432 49.8682H62.102L59.876 45.8922C59.8014 45.9015 59.652 45.9062 59.428 45.9062C59.0547 45.9062 58.686 45.8922 58.322 45.8642V49.8682H57.132V40.5862C58.1774 40.5488 58.9894 40.5302 59.568 40.5302ZM59.54 41.5382C59.232 41.5382 58.826 41.5475 58.322 41.5662V44.8702C58.826 44.9168 59.246 44.9402 59.582 44.9402C60.926 44.9402 61.598 44.3942 61.598 43.3022V43.0222C61.598 42.5182 61.4347 42.1448 61.108 41.9022C60.7814 41.6595 60.2587 41.5382 59.54 41.5382ZM70.3948 40.6982V41.7762H67.7348V49.8682H66.5448V41.7762H63.8848V40.6982H70.3948ZM75.5759 40.6982V49.8682H74.3859V40.6982H75.5759ZM81.8809 49.8682L78.8569 42.1262V49.8682H77.6809V40.6982H79.5849L82.5529 48.4402V40.6982H83.7289V49.8682H81.8809ZM88.7413 40.5302C89.1053 40.5302 89.4973 40.5675 89.9173 40.6422C90.3466 40.7075 90.5986 40.7448 90.6733 40.7542L90.6453 41.8042C89.824 41.6548 89.1893 41.5802 88.7413 41.5802C88.1066 41.5802 87.6493 41.7108 87.3693 41.9722C87.0893 42.2335 86.9493 42.6675 86.9493 43.2742V47.2782C86.9493 47.8848 87.0846 48.3188 87.3553 48.5802C87.6353 48.8322 88.0973 48.9582 88.7413 48.9582C89.1893 48.9582 89.824 48.8835 90.6453 48.7342L90.6733 49.8122C90.5986 49.8215 90.3466 49.8588 89.9173 49.9242C89.4973 49.9988 89.1053 50.0362 88.7413 50.0362C87.668 50.0362 86.9026 49.8075 86.4453 49.3502C85.988 48.8928 85.7593 48.1788 85.7593 47.2082V43.3582C85.7593 42.3875 85.988 41.6735 86.4453 41.2162C86.9026 40.7588 87.668 40.5302 88.7413 40.5302Z" fill="black"/>
<path d="M2.93778 30.0502V18.7886H13.6119C15.75 18.8212 20.0261 17.584 20.0261 12.3743C20.0261 7.16461 20.0261 9.20793 20.0261 9.63227C19.9772 7.4942 18.6258 3.21805 13.6119 3.21805C8.59803 3.21805 1.95854 3.21765 0 3.21765" stroke="#4DAFE5" stroke-width="5" stroke-linejoin="round"/>
<path d="M34.0348 14.1787L32.1779 15.8525C32.6484 16.3745 33.3168 16.6744 34.0195 16.6786C34.7223 16.6829 35.3943 16.3913 35.8712 15.8751L34.0348 14.1787ZM44.1601 3.21765H46.6601C46.6601 2.18845 46.0294 1.26441 45.0709 0.889459C44.1125 0.514507 43.0221 0.765268 42.3238 1.52128L44.1601 3.21765ZM22.2978 4.89175L32.1779 15.8525L35.8917 12.5048L26.0117 1.54406L22.2978 4.89175ZM35.8712 15.8751L45.9965 4.91403L42.3238 1.52128L32.1984 12.4823L35.8712 15.8751ZM41.6601 3.21765V28.956H46.6601V3.21765H41.6601Z" fill="black"/>
</svg>
