<svg width="270" height="41" viewBox="0 0 270 41" fill="none" xmlns="http://www.w3.org/2000/svg">
<path d="M62.6678 3.49561V5.49951H56.3749V8.66357H62.369V10.7466H56.3485V14.0425H62.7909V16.064H54.0634V3.49561H62.6678ZM69.8362 16.064H67.4456L72.7805 3.49561H75.2854L80.7346 16.064H78.2298L76.7971 12.6362H72.6223L73.4221 10.6147H75.9534L73.9759 5.89502L69.8362 16.064ZM85.653 15.5366V13.4272C86.9128 13.896 88.3366 14.1304 89.9245 14.1304C91.8522 14.1304 92.8161 13.4858 92.8161 12.1968C92.8161 11.2593 92.2243 10.7905 91.0407 10.7905H89.0719C86.4997 10.7905 85.2136 9.61865 85.2136 7.2749C85.2136 4.69678 87.0446 3.40771 90.7067 3.40771C92.113 3.40771 93.446 3.61279 94.7057 4.02295V6.13232C93.446 5.66357 92.113 5.4292 90.7067 5.4292C88.5973 5.4292 87.5427 6.04443 87.5427 7.2749C87.5427 8.2124 88.0524 8.68115 89.0719 8.68115H91.0407C93.777 8.68115 95.1452 9.85303 95.1452 12.1968C95.1452 14.8335 93.405 16.1519 89.9245 16.1519C88.3366 16.1519 86.9128 15.9468 85.653 15.5366ZM99.6241 3.49561H102.129L105.662 9.55127L108.984 3.49561H111.401L106.778 11.6694V16.064H104.449V11.6694L99.6241 3.49561ZM53.0526 23.4956H55.4169L56.7616 32.522L60.0311 23.4956H62.2723L65.3309 32.1704L66.7548 23.4956H69.0487L66.6844 36.064H64.4696L61.0155 26.2026L57.3065 36.064H55.118L53.0526 23.4956ZM76.2522 29.7446C76.2522 32.6685 77.5501 34.1304 80.1458 34.1304C82.677 34.1304 83.9427 32.6685 83.9427 29.7446C83.9427 26.8677 82.677 25.4292 80.1458 25.4292C77.5501 25.4292 76.2522 26.8677 76.2522 29.7446ZM73.8352 29.7974C73.8352 25.5376 75.9387 23.4077 80.1458 23.4077C84.2884 23.4077 86.3596 25.5376 86.3596 29.7974C86.3596 34.0337 84.2884 36.1519 80.1458 36.1519C76.1262 36.1519 74.0227 34.0337 73.8352 29.7974ZM92.1657 36.0464V23.4956H97.8786C100.445 23.4956 101.728 24.6177 101.728 26.8618C101.728 28.3794 100.729 29.6362 98.7311 30.6323L102.713 36.064H99.777L95.9538 30.5884V29.5249C98.1803 29.144 99.2936 28.2798 99.2936 26.9321C99.2936 26.0063 98.7721 25.5435 97.7292 25.5435H94.5387V36.0464H92.1657ZM109.749 23.4956V36.064H107.42V23.4956H109.749ZM118.591 23.4956L113.23 29.3579L119.153 36.064H115.928L111.067 30.1929V28.6812L115.743 23.4956H118.591ZM139.449 23.4956V25.4995H133.508V28.6636H139.15V30.7466H133.481V36.064H131.196V23.4956H139.449ZM145.027 36.0464V23.4956H150.74C153.306 23.4956 154.589 24.6177 154.589 26.8618C154.589 28.3794 153.59 29.6362 151.592 30.6323L155.574 36.064H152.638L148.815 30.5884V29.5249C151.041 29.144 152.155 28.2798 152.155 26.9321C152.155 26.0063 151.633 25.5435 150.59 25.5435H147.4V36.0464H145.027ZM162.258 29.7446C162.258 32.6685 163.556 34.1304 166.152 34.1304C168.683 34.1304 169.949 32.6685 169.949 29.7446C169.949 26.8677 168.683 25.4292 166.152 25.4292C163.556 25.4292 162.258 26.8677 162.258 29.7446ZM159.841 29.7974C159.841 25.5376 161.945 23.4077 166.152 23.4077C170.295 23.4077 172.366 25.5376 172.366 29.7974C172.366 34.0337 170.295 36.1519 166.152 36.1519C162.132 36.1519 160.029 34.0337 159.841 29.7974ZM178.172 36.064V23.4956H180.589L184.852 33.0317L189.026 23.4956H191.356V36.064H189.202V27.3101L185.792 36.064H183.806L180.325 27.3101V36.064H178.172ZM205.147 36.064V23.4956H207.476V28.6812H213.673V23.4956H216.002V36.064H213.673V30.7026H207.476V36.064H205.147ZM224.225 29.7446C224.225 32.6685 225.523 34.1304 228.118 34.1304C230.65 34.1304 231.915 32.6685 231.915 29.7446C231.915 26.8677 230.65 25.4292 228.118 25.4292C225.523 25.4292 224.225 26.8677 224.225 29.7446ZM221.808 29.7974C221.808 25.5376 223.911 23.4077 228.118 23.4077C232.261 23.4077 234.332 25.5376 234.332 29.7974C234.332 34.0337 232.261 36.1519 228.118 36.1519C224.099 36.1519 221.995 34.0337 221.808 29.7974ZM240.138 36.064V23.4956H242.555L246.818 33.0317L250.993 23.4956H253.322V36.064H251.169V27.3101L247.758 36.064H245.772L242.292 27.3101V36.064H240.138ZM268.163 23.4956V25.4995H261.87V28.6636H267.864V30.7466H261.844V34.0425H268.286V36.064H259.559V23.4956H268.163Z" fill="white"/>
<path fill-rule="evenodd" clip-rule="evenodd" d="M22.1616 2.26025H14.5375V36.1454H22.1616L24.4102 36.1454L27.9793 26.9816L31.5485 36.1454L34.2166 36.1454H41.9371V2.26025H34.2166V24.6682L31.5485 17.8178H24.4102H24.4102L22.1616 23.5909V2.26025Z" fill="url(#paint0_linear)"/>
<path d="M2.46466 2.26026C1.36009 2.26025 0.464661 3.15569 0.464661 4.26026V34.1454C0.464661 35.25 1.36009 36.1454 2.46466 36.1454H20.1617C21.2662 36.1454 22.1617 35.25 22.1617 34.1454V30.9115C22.1617 29.8069 21.2662 28.9115 20.1617 28.9115H9.69864C8.59407 28.9115 7.69864 28.016 7.69864 26.9115V24.82C7.69864 23.7154 8.59407 22.82 9.69864 22.82L20.1617 22.82C21.2662 22.82 22.1617 21.9246 22.1617 20.82V17.586C22.1617 16.4815 21.2662 15.586 20.1617 15.586H9.69864C8.59407 15.586 7.69864 14.6906 7.69864 13.586V11.4942C7.69864 10.3897 8.59407 9.49425 9.69864 9.49425L20.1617 9.49425C21.2662 9.49425 22.1617 8.59882 22.1617 7.49425V4.26027C22.1617 3.1557 21.2662 2.26027 20.1617 2.26027L2.46466 2.26026Z" fill="url(#paint1_linear)"/>
<defs>
<linearGradient id="paint0_linear" x1="14.5375" y1="36.1454" x2="45.3036" y2="36.1454" gradientUnits="userSpaceOnUse">
<stop stop-color="#040817"/>
<stop offset="1" stop-color="#5748AF"/>
</linearGradient>
<linearGradient id="paint1_linear" x1="-8.26245" y1="36.1454" x2="40.224" y2="36.1454" gradientUnits="userSpaceOnUse">
<stop stop-color="#002863"/>
<stop offset="1" stop-color="#A98BFF"/>
</linearGradient>
</defs>
</svg>
