<svg width="160" height="37" viewBox="0 0 160 37" fill="none" xmlns="http://www.w3.org/2000/svg">
<path d="M19.6896 11.622H1.9234V2.08627H19.6896C23.1133 1.84673 29.9607 3.95669 29.9607 11.622C29.9607 19.2873 23.1133 20.5309 19.6896 20.5309H1.9234V33.7057H11.6393V28.1963H16.9732L20.9752 33.7057H32.3655L27.8228 28.1963" stroke="white" stroke-width="3" stroke-linecap="square"/>
<path d="M44.8937 14.8726V5.11084H49.337C51.3331 5.11084 52.3312 5.98356 52.3312 7.729C52.3312 8.90934 51.5542 9.88688 50.0001 10.6616L53.0968 14.8862H50.8136L47.84 10.6274V9.80029C49.5717 9.50407 50.4376 8.83187 50.4376 7.78369C50.4376 7.06364 50.032 6.70361 49.2208 6.70361H46.7394V14.8726H44.8937ZM64.8505 5.11084V6.66943H59.956V9.13037H64.6181V10.7505H59.9355V13.314H64.9462V14.8862H58.1581V5.11084H64.8505ZM71.8259 14.8862H69.9665L74.1159 5.11084H76.0642L80.3025 14.8862H78.3542L77.24 12.2202H73.9929L74.615 10.6479H76.5837L75.0456 6.97705L71.8259 14.8862ZM93.4917 14.4761C92.6486 14.7951 91.6916 14.9546 90.6206 14.9546C87.1115 14.9546 85.357 13.257 85.357 9.86182C85.357 6.64893 87.1115 5.04248 90.6206 5.04248C91.6916 5.04248 92.6486 5.20199 93.4917 5.521V7.16162C92.6486 6.79704 91.7372 6.61475 90.7573 6.61475C88.4103 6.61475 87.2368 7.6971 87.2368 9.86182C87.2368 12.2088 88.4103 13.3823 90.7573 13.3823C91.7372 13.3823 92.6486 13.2 93.4917 12.8354V14.4761ZM105.792 5.11084V6.68311H102.99V14.8862H101.178V6.68311H98.3753V5.11084H105.792ZM112.836 5.11084V14.8862H111.025V5.11084H112.836ZM128.404 5.11084L124.118 14.8862H122.17L118.068 5.11084H120.222L123.25 12.5962L126.271 5.11084H128.404ZM140.322 5.11084V6.66943H135.427V9.13037H140.09V10.7505H135.407V13.314H140.418V14.8862H133.63V5.11084H140.322Z" fill="white"/>
<path d="M44.8937 33.7056V23.9302H46.7736L50.089 31.3472L53.3361 23.9302H55.1476V33.7056H53.4728V26.897L50.8204 33.7056H49.2755L46.5685 26.897V33.7056H44.8937ZM62.4032 33.7056H60.5439L64.6933 23.9302H66.6415L70.8798 33.7056H68.9316L67.8173 31.0396H64.5702L65.1923 29.4673H67.1611L65.623 25.7964L62.4032 33.7056ZM76.2761 33.6919V23.9302H80.7195C82.7156 23.9302 83.7136 24.8029 83.7136 26.5483C83.7136 27.7287 82.9366 28.7062 81.3825 29.481L84.4792 33.7056H82.196L79.2224 29.4468V28.6196C80.9542 28.3234 81.82 27.6512 81.82 26.603C81.82 25.883 81.4144 25.5229 80.6032 25.5229H78.1218V33.6919H76.2761ZM91.3521 23.9302V33.7056H89.5406V23.9302H91.3521ZM98.229 23.9302L94.0591 28.4897L98.6665 33.7056H96.1577L92.3775 29.1392V27.9634L96.0142 23.9302H98.229ZM110.249 23.9302V25.4888H105.355V27.9497H110.017V29.5698H105.334V32.1333H110.345V33.7056H103.557V23.9302H110.249ZM122.611 23.9302V25.5024H119.809V33.7056H117.997V25.5024H115.194V23.9302H122.611ZM129.655 23.9302V33.7056H127.844V23.9302H129.655ZM135.913 33.7056V23.9302H137.724L142.885 31.0532V23.9302H144.629V33.7056H142.817L137.656 26.4321V33.7056H135.913ZM158.679 33.2544C157.891 33.6007 156.904 33.7739 155.719 33.7739C152.269 33.7739 150.544 32.0763 150.544 28.6812C150.544 25.4683 152.299 23.8618 155.808 23.8618C156.879 23.8618 157.836 24.0213 158.679 24.3403V25.981C157.836 25.6164 156.925 25.4341 155.945 25.4341C153.598 25.4341 152.424 26.5164 152.424 28.6812C152.424 31.0282 153.532 32.2017 155.747 32.2017C156.075 32.2017 156.448 32.147 156.868 32.0376V29.1938H158.679V33.2544Z" fill="white"/>
</svg>
