<svg width="62" height="62" viewBox="0 0 62 62" fill="none" xmlns="http://www.w3.org/2000/svg">
<circle cx="31.0968" cy="30.734" r="30.4039" fill="#2898FF"/>
<path d="M40.8798 23.0552H21.3138C20.2092 23.0552 19.3138 23.9506 19.3138 25.0552V36.413C19.3138 37.5175 20.2092 38.413 21.3138 38.413H40.8798C41.9844 38.413 42.8798 37.5175 42.8798 36.413V25.0552C42.8798 23.9506 41.9844 23.0552 40.8798 23.0552Z" stroke="white"/>
<path d="M40.8798 23.0552H21.3138C20.2092 23.0552 19.3138 23.9506 19.3138 25.0552V25.4289C19.3138 26.1463 19.698 26.8087 20.3207 27.1649L30.1037 32.7612C30.719 33.1132 31.4746 33.1132 32.0899 32.7612L41.8729 27.1649C42.4956 26.8087 42.8798 26.1463 42.8798 25.4289V25.0552C42.8798 23.9506 41.9844 23.0552 40.8798 23.0552Z" fill="white" stroke="white"/>
</svg>
