<?xml version="1.0" encoding="utf-8"?>
<!-- Generator: Adobe Illustrator 24.1.2, SVG Export Plug-In . SVG Version: 6.00 Build 0)  -->
<svg version="1.1" id="Layer_1" xmlns="http://www.w3.org/2000/svg" xmlns:xlink="http://www.w3.org/1999/xlink" x="0px" y="0px"
	 viewBox="0 0 68 21.2" style="enable-background:new 0 0 68 21.2;" xml:space="preserve">
<style type="text/css">
	.st0{fill:#878E94;}
</style>
<g id="logo_airbnb_2_">
	<g>
		<g id="Airbnb_Logo_BeÌlo_9_" transform="translate(13.892857, 6.500000)">
			<path id="Shape_8_" class="st0" d="M21.9-1.2c0,0.8-0.6,1.4-1.4,1.4c-0.8,0-1.4-0.6-1.4-1.4s0.6-1.4,1.4-1.4
				C21.3-2.5,21.9-1.9,21.9-1.2z M16.2,1.6c0,0.1,0,0.3,0,0.3s-0.7-0.8-2.1-0.8c-2.3,0-4.1,1.8-4.1,4.2c0,2.4,1.8,4.2,4.1,4.2
				c1.4,0,2.1-0.9,2.1-0.9V9c0,0.2,0.1,0.3,0.3,0.3h1.7v-8c0,0-1.6,0-1.7,0C16.4,1.3,16.2,1.5,16.2,1.6z M16.2,6.7
				c-0.3,0.5-1,0.9-1.7,0.9c-1.4,0-2.4-0.8-2.4-2.3s1-2.3,2.4-2.3c0.7,0,1.4,0.4,1.7,0.9V6.7z M19.5,1.3h2v8h-2V1.3z M50,1.1
				c-1.4,0-2.1,0.8-2.1,0.8v-4.5h-2V9.3c0,0,1.6,0,1.7,0c0.2,0,0.3-0.1,0.3-0.3V8.6l0,0c0,0,0.7,0.9,2.1,0.9c2.3,0,4.1-1.8,4.1-4.2
				S52.3,1.1,50,1.1z M49.6,7.6c-0.8,0-1.4-0.4-1.7-0.9V3.9c0.3-0.4,1-0.9,1.7-0.9C51,3,52,3.8,52,5.3S51,7.6,49.6,7.6z M44.8,4.6
				v4.8h-2V4.8c0-1.3-0.4-1.8-1.6-1.8c-0.6,0-1.3,0.3-1.7,0.8v5.6h-2v-8h1.6c0.2,0,0.3,0.1,0.3,0.3v0.3c0.6-0.6,1.4-0.8,2.2-0.8
				c0.9,0,1.6,0.3,2.2,0.8C44.5,2.5,44.8,3.2,44.8,4.6z M32.6,1.1c-1.4,0-2.1,0.8-2.1,0.8v-4.5h-2V9.3c0,0,1.6,0,1.7,0
				c0.2,0,0.3-0.1,0.3-0.3V8.6l0,0c0,0,0.7,0.9,2.1,0.9c2.3,0,4.1-1.8,4.1-4.2C36.7,2.9,34.9,1.1,32.6,1.1z M32.2,7.6
				c-0.8,0-1.4-0.4-1.7-0.9V3.9c0.3-0.4,1-0.9,1.7-0.9c1.4,0,2.4,0.8,2.4,2.3S33.6,7.6,32.2,7.6z M26.7,1.1c0.6,0,0.9,0.1,0.9,0.1
				v1.9c0,0-1.7-0.6-2.8,0.6v5.6h-2v-8c0,0,1.6,0,1.7,0c0.2,0,0.3,0.1,0.3,0.3v0.3C25.2,1.5,26.1,1.1,26.7,1.1z M5.5,8.6
				C5.4,8.3,5.3,8,5.2,7.8C5,7.4,4.9,7.1,4.7,6.7l0,0C3.2,3.5,1.7,0.3,0-2.9L0-3c-0.2-0.3-0.3-0.7-0.5-1C-0.8-4.4-1-4.8-1.3-5.2
				C-2-6-3-6.5-4-6.5c-1.1,0-2,0.5-2.7,1.3c-0.3,0.4-0.6,0.8-0.8,1.2c-0.2,0.3-0.3,0.7-0.5,1l-0.1,0.1c-1.6,3.2-3.2,6.4-4.7,9.6l0,0
				c-0.1,0.3-0.3,0.7-0.5,1.1c-0.1,0.2-0.2,0.5-0.3,0.8c-0.3,0.8-0.4,1.5-0.3,2.3c0.2,1.6,1.3,2.9,2.8,3.5c0.6,0.2,1.1,0.3,1.7,0.3
				c0.2,0,0.4,0,0.6,0c0.7-0.1,1.4-0.3,2.1-0.7c0.9-0.5,1.7-1.2,2.6-2.2c0.9,1,1.8,1.7,2.6,2.2c0.7,0.4,1.4,0.6,2.1,0.7
				c0.2,0,0.4,0,0.6,0c0.6,0,1.2-0.1,1.7-0.3c1.5-0.6,2.5-2,2.8-3.5C5.9,10.1,5.8,9.4,5.5,8.6z M-4,9.7c-1.1-1.4-1.9-2.8-2.1-3.9
				c-0.1-0.5-0.1-0.9-0.1-1.3c0-0.3,0.2-0.6,0.3-0.9C-5.5,3-4.8,2.6-4,2.6s1.5,0.3,1.9,0.9C-2,3.8-1.9,4.1-1.8,4.4
				c0.1,0.4,0,0.8-0.1,1.3C-2.2,6.9-2.9,8.2-4,9.7z M4.4,10.7c-0.1,1.1-0.9,2.1-1.9,2.5c-0.5,0.2-1.1,0.3-1.6,0.2
				c-0.5-0.1-1.1-0.2-1.6-0.6c-0.8-0.4-1.5-1.1-2.4-2.1C-1.7,9-0.9,7.5-0.6,6.1c0.1-0.7,0.2-1.3,0.1-1.8c-0.1-0.5-0.3-1-0.6-1.4
				c-0.7-1-1.8-1.5-3-1.5s-2.3,0.6-3,1.5c-0.3,0.4-0.5,0.9-0.6,1.4c-0.1,0.6-0.1,1.2,0.1,1.8c0.3,1.4,1.2,3,2.6,4.7
				c-0.9,1-1.7,1.6-2.4,2.1c-0.6,0.3-1.1,0.5-1.6,0.6c-0.6,0.1-1.1,0-1.6-0.2c-1-0.4-1.8-1.4-1.9-2.5c-0.1-0.5,0-1.1,0.2-1.7
				c0.1-0.2,0.2-0.4,0.3-0.7c0.1-0.3,0.3-0.7,0.5-1.1l0,0c1.5-3.2,3-6.4,4.7-9.5l0.1-0.1c0.2-0.3,0.3-0.7,0.5-1
				C-6.1-3.7-5.9-4-5.7-4.3c0.4-0.5,1-0.8,1.7-0.8s1.3,0.3,1.7,0.8C-2.1-4-1.9-3.7-1.7-3.4c0.2,0.3,0.3,0.7,0.5,1l0.1,0.1
				c1.6,3.2,3.2,6.4,4.6,9.6v0C3.7,7.6,3.8,8,4,8.4C4.1,8.6,4.2,8.8,4.3,9C4.5,9.6,4.5,10.1,4.4,10.7z"/>
		</g>
	</g>
</g>
</svg>
