<svg width="125" height="20" viewBox="0 0 125 20" fill="none" xmlns="http://www.w3.org/2000/svg">
<g clip-path="url(#clip0)">
<path d="M0.0348712 19.344L5.60723 7.05058C5.64066 6.99625 5.68569 6.95009 5.73904 6.91544C5.79239 6.8808 5.85274 6.85854 5.9157 6.85028H6.09979C6.16275 6.85854 6.2231 6.8808 6.27645 6.91544C6.32981 6.95009 6.37483 6.99625 6.40826 7.05058L11.9408 19.344C11.968 19.3949 11.9809 19.4523 11.9783 19.51C11.9757 19.5678 11.9576 19.6237 11.926 19.6719C11.8944 19.7202 11.8504 19.7589 11.7987 19.784C11.747 19.8092 11.6895 19.8198 11.6323 19.8147H10.488C10.3988 19.8206 10.31 19.7975 10.2348 19.7488C10.1596 19.7001 10.1018 19.6285 10.0701 19.5443L8.95562 17.0255H3.01509C2.65189 17.8668 2.26879 18.688 1.90559 19.5293C1.86919 19.6101 1.81039 19.6786 1.73625 19.7265C1.66212 19.7745 1.5758 19.7999 1.48767 19.7997H0.343341C0.286149 19.8048 0.228663 19.7942 0.176968 19.769C0.125273 19.7439 0.081293 19.7051 0.0496822 19.6569C0.0180713 19.6087 6.17402e-06 19.5527 -0.00260111 19.495C-0.00520838 19.4373 0.0077392 19.3799 0.0348712 19.329V19.344ZM8.2541 15.4732L6.02018 10.4657H5.93063L3.71661 15.4732H8.2541Z" fill="#878E94"/>
<path d="M16.8115 7.3811C16.8115 7.28946 16.8477 7.20158 16.9121 7.13678C16.9765 7.07199 17.0638 7.03558 17.1548 7.03558H21.2943C22.3671 7.03558 23.3959 7.4645 24.1545 8.22798C24.9131 8.99146 25.3392 10.027 25.3392 11.1067C25.3392 12.1864 24.9131 13.2219 24.1545 13.9854C23.3959 14.7489 22.3671 15.1778 21.2943 15.1778H18.6822V19.4642C18.6797 19.5551 18.6428 19.6415 18.5789 19.7057C18.5151 19.77 18.4292 19.8072 18.3389 19.8097H17.1598C17.0687 19.8097 16.9814 19.7733 16.917 19.7085C16.8527 19.6437 16.8165 19.5559 16.8165 19.4642L16.8115 7.3811ZM21.1848 13.3901C21.4888 13.3895 21.7897 13.3284 22.0702 13.2104C22.3507 13.0924 22.6053 12.9198 22.8193 12.7025C23.0333 12.4852 23.2026 12.2275 23.3175 11.9442C23.4323 11.6609 23.4904 11.3576 23.4884 11.0516C23.4807 10.7554 23.4149 10.4637 23.2948 10.1933C23.1747 9.92277 23.0027 9.67885 22.7886 9.47549C22.5745 9.27214 22.3226 9.11337 22.0474 9.00832C21.7722 8.90326 21.479 8.85399 21.1848 8.86333H18.6972V13.3701L21.1848 13.3901Z" fill="#878E94"/>
<path d="M31.2251 7.3811C31.2251 7.28946 31.2613 7.20158 31.3256 7.13678C31.39 7.07199 31.4773 7.03558 31.5684 7.03558H35.7029C36.7757 7.03558 37.8045 7.4645 38.5631 8.22798C39.3217 8.99146 39.7478 10.027 39.7478 11.1067C39.7478 12.1864 39.3217 13.2219 38.5631 13.9854C37.8045 14.7489 36.7757 15.1778 35.7029 15.1778H33.0908V19.4642C33.0872 19.5547 33.0498 19.6404 32.9862 19.7044C32.9226 19.7685 32.8374 19.806 32.7475 19.8097H31.5684C31.4773 19.8097 31.39 19.7733 31.3256 19.7085C31.2613 19.6437 31.2251 19.5559 31.2251 19.4642V7.3811ZM35.5984 13.3901C35.9022 13.3888 36.2028 13.3273 36.483 13.209C36.7632 13.0908 37.0175 12.9182 37.2314 12.701C37.4453 12.4839 37.6146 12.2265 37.7297 11.9434C37.8447 11.6604 37.9033 11.3574 37.902 11.0516C37.8943 10.7554 37.8285 10.4637 37.7084 10.1933C37.5883 9.92277 37.4162 9.67885 37.2022 9.47549C36.9881 9.27214 36.7362 9.11337 36.461 9.00832C36.1858 8.90326 35.8926 8.85399 35.5984 8.86333H33.1107V13.3701L35.5984 13.3901Z" fill="#878E94"/>
<path d="M45.6389 7.3811C45.6389 7.28946 45.675 7.20158 45.7394 7.13678C45.8038 7.07199 45.8911 7.03558 45.9822 7.03558H47.1812C47.2715 7.03811 47.3573 7.07532 47.4212 7.13958C47.485 7.20384 47.522 7.29026 47.5245 7.3811V18.1172H52.4401C52.4856 18.1172 52.5307 18.1263 52.5727 18.144C52.6146 18.1617 52.6527 18.1876 52.6846 18.2202C52.7166 18.2528 52.7418 18.2915 52.7587 18.334C52.7757 18.3765 52.7841 18.4219 52.7834 18.4677V19.4692C52.7834 19.5609 52.7473 19.6488 52.6829 19.7136C52.6185 19.7784 52.5312 19.8148 52.4401 19.8148H45.9722C45.8812 19.8148 45.7938 19.7784 45.7295 19.7136C45.6651 19.6488 45.6289 19.5609 45.6289 19.4692L45.6389 7.3811Z" fill="#878E94"/>
<path d="M56.8479 19.344L62.4152 7.05559C62.4487 7.00126 62.4937 6.95509 62.547 6.92045C62.6004 6.8858 62.6607 6.86355 62.7237 6.85529H62.9078C62.9708 6.86355 63.0311 6.8858 63.0845 6.92045C63.1378 6.95509 63.1828 7.00126 63.2163 7.05559L68.7488 19.344C68.776 19.3949 68.7889 19.4523 68.7863 19.51C68.7837 19.5677 68.7656 19.6237 68.734 19.6719C68.7024 19.7202 68.6584 19.7589 68.6067 19.784C68.555 19.8092 68.4975 19.8198 68.4404 19.8147H67.296C67.2066 19.8214 67.1175 19.7986 67.0421 19.7499C66.9668 19.7011 66.9092 19.6289 66.8781 19.5443L65.7537 17.0406H59.8281C59.4649 17.8818 59.0818 18.7031 58.7186 19.5443C58.6822 19.6251 58.6234 19.6936 58.5492 19.7416C58.4751 19.7895 58.3888 19.8149 58.3007 19.8147H57.1563C57.0991 19.8198 57.0416 19.8092 56.99 19.784C56.9383 19.7589 56.8943 19.7202 56.8627 19.6719C56.8311 19.6237 56.813 19.5677 56.8104 19.51C56.8078 19.4523 56.8207 19.3949 56.8479 19.344ZM65.0671 15.4732L62.8381 10.4657H62.7486L60.5346 15.4732H65.0671Z" fill="#878E94"/>
<path d="M73.0724 7.38108C73.075 7.29024 73.1119 7.20381 73.1758 7.13955C73.2396 7.0753 73.3255 7.03808 73.4157 7.03556H74.6297C74.7208 7.03556 74.8081 7.07196 74.8725 7.13676C74.9368 7.20156 74.973 7.28944 74.973 7.38108V14.9224C74.973 16.7451 76.1323 18.1723 77.9831 18.1723C79.8339 18.1723 81.028 16.7652 81.028 14.9625V7.38108C81.028 7.33528 81.037 7.28994 81.0546 7.24769C81.0721 7.20544 81.0979 7.16712 81.1303 7.13497C81.1627 7.10282 81.2011 7.07747 81.2434 7.06041C81.2856 7.04334 81.3308 7.0349 81.3763 7.03556H82.5902C82.6801 7.03926 82.7653 7.07684 82.8289 7.14086C82.8925 7.20487 82.9299 7.29062 82.9335 7.38108V15.0526C82.9335 16.37 82.4135 17.6335 81.488 18.5651C80.5624 19.4967 79.307 20.02 77.998 20.02C76.689 20.02 75.4337 19.4967 74.5081 18.5651C73.5825 17.6335 73.0625 16.37 73.0625 15.0526L73.0724 7.38108Z" fill="#878E94"/>
<path d="M89.1181 17.972C89.2823 17.7366 89.4266 17.4712 89.5908 17.2208C89.6173 17.1659 89.6556 17.1176 89.703 17.0794C89.7505 17.0413 89.8057 17.0142 89.8649 17.0003C89.924 16.9864 89.9854 16.986 90.0447 16.999C90.104 17.012 90.1597 17.0382 90.2077 17.0756C90.3171 17.1658 91.7003 18.3375 93.1133 18.3375C94.3671 18.3375 95.1631 17.5714 95.1631 16.64C95.1631 15.5433 94.2178 14.8523 92.4217 14.1012C90.6256 13.35 89.1231 12.3485 89.1231 10.2303C89.1231 8.80822 90.2077 6.85529 93.1033 6.85529C94.3039 6.87698 95.4717 7.25309 96.4617 7.93691C96.5103 7.96904 96.552 8.01081 96.584 8.05969C96.6161 8.10856 96.6379 8.1635 96.6482 8.22115C96.6584 8.2788 96.6569 8.33795 96.6436 8.39498C96.6304 8.45201 96.6057 8.50572 96.5711 8.55283L96.1184 9.24888C96.093 9.3072 96.0551 9.35914 96.0073 9.40094C95.9596 9.44274 95.9032 9.47336 95.8423 9.4906C95.7814 9.50784 95.7175 9.51128 95.6551 9.50065C95.5927 9.49002 95.5334 9.4656 95.4815 9.42915C95.3522 9.35904 94.0835 8.51778 93.0337 8.51778C91.5112 8.51778 90.9838 9.48924 90.9838 10.1653C90.9838 11.2018 91.7799 11.8478 93.2874 12.4637C95.392 13.32 97.1881 14.3265 97.1881 16.5548C97.1881 18.4527 95.5014 20.005 93.1431 20.005C91.7119 20.0181 90.325 19.5053 89.2425 18.5628C89.0783 18.4126 88.9489 18.2874 89.133 17.977" fill="#878E94"/>
<path d="M103.312 7.3811C103.313 7.28946 103.349 7.20158 103.413 7.13678C103.477 7.07199 103.565 7.03558 103.656 7.03558H110.915C111.006 7.03558 111.093 7.07199 111.158 7.13678C111.222 7.20158 111.258 7.28946 111.258 7.3811V8.3826C111.258 8.47424 111.222 8.56212 111.158 8.62692C111.093 8.69172 111.006 8.72812 110.915 8.72812H105.183V12.4537H110.029C110.119 12.4574 110.204 12.495 110.268 12.559C110.331 12.623 110.369 12.7088 110.372 12.7992V13.8007C110.373 13.8465 110.365 13.892 110.348 13.9345C110.331 13.977 110.306 14.0157 110.274 14.0483C110.242 14.0809 110.204 14.1068 110.162 14.1245C110.12 14.1422 110.075 14.1513 110.029 14.1513H105.183V18.0721H110.915C110.96 18.0721 111.005 18.0812 111.047 18.0989C111.089 18.1166 111.127 18.1425 111.159 18.1751C111.191 18.2077 111.216 18.2464 111.233 18.2889C111.25 18.3314 111.259 18.3769 111.258 18.4227V19.4242C111.258 19.5158 111.222 19.6037 111.158 19.6685C111.093 19.7333 111.006 19.7697 110.915 19.7697H103.656C103.565 19.7697 103.477 19.7333 103.413 19.6685C103.349 19.6037 103.312 19.5158 103.312 19.4242V7.3811Z" fill="#878E94"/>
<path d="M120.666 1.65248C121.199 1.65248 121.719 1.81136 122.162 2.10904C122.604 2.40671 122.949 2.82981 123.153 3.32483C123.357 3.81984 123.41 4.36455 123.306 4.89005C123.203 5.41556 122.946 5.89827 122.57 6.27714C122.193 6.65601 121.714 6.91402 121.192 7.01855C120.669 7.12308 120.128 7.06943 119.636 6.86439C119.145 6.65935 118.724 6.31212 118.428 5.86662C118.133 5.42111 117.975 4.89734 117.975 4.36154C117.975 3.64305 118.258 2.95399 118.763 2.44594C119.268 1.9379 119.953 1.65248 120.666 1.65248V1.65248ZM120.666 0C119.81 0 118.973 0.255506 118.262 0.734208C117.55 1.21291 116.995 1.89331 116.667 2.68936C116.34 3.48541 116.254 4.36137 116.421 5.20645C116.588 6.05154 117 6.8278 117.606 7.43707C118.211 8.04634 118.982 8.46126 119.822 8.62936C120.662 8.79746 121.532 8.71118 122.323 8.38145C123.114 8.05171 123.79 7.49332 124.265 6.77689C124.741 6.06047 124.995 5.21818 124.995 4.35653C124.995 3.20111 124.539 2.09301 123.727 1.276C122.915 0.458991 121.814 0 120.666 0V0Z" fill="#878E94"/>
</g>
<defs>
<clipPath id="clip0">
<rect width="125" height="20" fill="white"/>
</clipPath>
</defs>
</svg>
