<?xml version="1.0" encoding="utf-8"?>
<!-- Generator: Adobe Illustrator 24.1.2, SVG Export Plug-In . SVG Version: 6.00 Build 0)  -->
<svg version="1.1" id="Layer_1" xmlns="http://www.w3.org/2000/svg" xmlns:xlink="http://www.w3.org/1999/xlink" x="0px" y="0px"
	 viewBox="0 0 64 12.4" style="enable-background:new 0 0 64 12.4;" xml:space="preserve">
<style type="text/css">
	.st0{fill:#878E94;}
</style>
<g id="logo_humana_9_">
	<g>
		<g id="humana-2-logo-svg-vector_9_" transform="translate(16.500000, 11.500000)">
			<path id="Shape_8_" class="st0" d="M47.5-0.2c0,0.6-0.5,1.1-1.1,1.1c-0.6,0-1.1-0.5-1.1-1.1c0-0.6,0.5-1.1,1.1-1.1
				C47-1.3,47.5-0.8,47.5-0.2L47.5-0.2 M45.5-0.2c0,0.3,0.2,0.6,0.5,0.7c0.3,0.1,0.6,0.1,0.9-0.1c0.3-0.2,0.4-0.5,0.4-0.8
				c0-0.5-0.4-0.8-0.9-0.8c-0.2,0-0.5,0.1-0.6,0.3C45.6-0.7,45.5-0.5,45.5-0.2 M46.4-0.8c0.3,0,0.5,0.1,0.5,0.4
				c0,0.2-0.1,0.3-0.2,0.4L46.7,0c0.1,0.1,0.1,0.2,0.2,0.3c0,0,0,0-0.1,0h-0.1c-0.1,0-0.1,0-0.1,0c-0.1-0.1-0.1-0.2-0.2-0.2
				l-0.1-0.2h-0.2v0.4c0,0,0,0-0.1,0h-0.1c0,0-0.1,0-0.1,0v-1.2H46.4L46.4-0.8z M46.2-0.3h0.2c0.2,0,0.2-0.1,0.2-0.2
				c0-0.1-0.1-0.2-0.3-0.2h-0.2V-0.3L46.2-0.3z M0.4-8.6C0.2-8.5,0-8.4,0-8.2v7.1C-0.5-1-1-0.9-1.6-0.9c-1.2,0-1.7-0.5-1.7-1.8v-5.5
				c0-0.1,0-0.2-0.1-0.2s-0.1-0.1-0.2-0.1h-1.9v5.8C-5.5,0-4,0.9-1.7,0.9c1.3,0,2.6-0.2,3.9-0.6v-8.9H0.4L0.4-8.6z M28.9,0.8
				c0.2,0,0.3-0.2,0.3-0.3v-7.2c0.5-0.1,1.1-0.2,1.6-0.2c1.2,0,1.7,0.5,1.7,1.8v5.5c0,0.1,0,0.2,0.1,0.2c0.1,0.1,0.1,0.1,0.2,0.1
				h1.9v-5.9c0-2.7-1.4-3.6-3.8-3.6c-1.3,0-2.6,0.2-3.9,0.6v9L28.9,0.8L28.9,0.8z M21.5-8.7c-2.4,0-3.9,1.3-3.9,4.1v1.4
				c0,3.1,1.6,4.1,3.4,4.1c0.9,0,1.8-0.6,2.1-1v0.6c0,0.2,0.2,0.3,0.3,0.3h1.9v-9C24-8.5,22.7-8.7,21.5-8.7 M23-1.5
				c-0.4,0.3-0.7,0.6-1.6,0.6c-1.2,0-1.8-0.7-1.8-2.3v-1.3c0-1.8,0.7-2.3,1.8-2.3c0.5,0,1.1,0,1.6,0.1V-1.5L23-1.5z M40.2-8.7
				c-2.4,0-3.9,1.3-3.9,4.1v1.4c0,3.1,1.6,4.1,3.4,4.1c0.9,0,1.8-0.6,2.1-1v0.6c0,0.2,0.2,0.3,0.3,0.3H44v-9
				C42.8-8.5,41.5-8.7,40.2-8.7 M41.8-1.5c-0.4,0.3-0.7,0.6-1.6,0.6c-1.2,0-1.8-0.7-1.8-2.3v-1.3c0-1.8,0.7-2.3,1.8-2.3
				c0.5,0,1.1,0,1.6,0.1V-1.5L41.8-1.5z M-16.5,0.8h2c0.2,0,0.3-0.2,0.3-0.3v-5.2h3.6c0.6,0,1,0.4,1.1,1v4.2c0,0.2,0.1,0.3,0.3,0.3
				h2v-12.3h-2c-0.2,0-0.3,0.1-0.3,0.3v4.6h-3.8c-0.5,0-0.9-0.4-0.9-0.9v-3.8c0-0.2-0.2-0.3-0.3-0.3h-2V0.8z M12.6-8.7
				c-0.9,0-1.7,0.3-2.5,0.7C9.5-8.5,8.6-8.7,7.4-8.7c-1.1,0-2.3,0.2-3.4,0.6v8.9h1.9c0.1,0,0.2,0,0.2-0.1c0.1-0.1,0.1-0.1,0.1-0.2
				l0,0v-7.2C6.6-6.8,7-6.9,7.3-6.9c1.3,0,1.6,0.5,1.6,1.8v5.5c0,0.2,0.1,0.3,0.3,0.3h1.5c0.1,0,0.2,0,0.2-0.1
				c0.1-0.1,0.1-0.2,0.1-0.2v-6.9c0.4-0.3,0.8-0.4,1.3-0.4c1,0,1.4,0.4,1.4,1.7v5.7c0,0.2,0.1,0.3,0.3,0.3H16v-6.3
				C16-7.9,14.5-8.7,12.6-8.7"/>
		</g>
	</g>
</g>
</svg>
