<svg width="90" height="35" viewBox="0 0 90 35" fill="none" xmlns="http://www.w3.org/2000/svg">
<g clip-path="url(#clip0)">
<path d="M60.5573 29.0678H62.8267C63.5433 29.0678 63.9614 29.1865 64.3197 29.4831C64.678 29.7797 64.7975 30.1356 64.7975 30.5509C64.7975 30.9661 64.6781 31.3221 64.3794 31.5593C64.2003 31.7373 64.0808 31.7966 63.842 31.8559C64.6781 32.0932 65.0364 32.5678 65.0364 33.3983C65.0364 34.2288 64.4989 35 63.4239 35.0593C63.2447 35.0593 63.0059 35.0593 62.6475 35.0593H60.4976V29.0678H60.5573ZM61.7517 30.0763V31.4407H62.7072C63.0059 31.4407 63.1253 31.4407 63.2447 31.3814C63.4239 31.3221 63.5433 31.0254 63.5433 30.7882C63.5433 30.5509 63.4239 30.3136 63.185 30.1949C63.0656 30.1356 62.9461 30.1356 62.7072 30.1356H61.7517V30.0763ZM61.7517 32.4492V34.0509H62.767C63.0059 34.0509 63.185 33.9915 63.3045 33.9322C63.4836 33.8136 63.6031 33.517 63.6031 33.2204C63.6031 32.8644 63.4239 32.5678 63.185 32.5085C63.0656 32.4492 63.0059 32.4492 62.7072 32.4492H61.7517V32.4492Z" fill="#878E94"/>
<path d="M71.3071 30.7288V31.1441C71.4862 30.9068 71.6654 30.7288 71.9043 30.6102C72.0237 30.5508 72.1432 30.5508 72.2626 30.5508C72.4418 30.5508 72.5015 30.5508 72.6806 30.6695L72.4418 31.6186C72.3223 31.5593 72.2626 31.5593 72.0834 31.5593C71.8446 31.5593 71.6057 31.678 71.3668 31.9152V35.0593H70.1724V30.7288H71.3071V30.7288Z" fill="#878E94"/>
<path d="M76.2041 33.8729L76.6819 34.5847C76.1444 35 75.6069 35.178 75.0097 35.178C73.7555 35.178 72.9194 34.2881 72.9194 32.8644C72.9194 32.0932 73.0986 31.5593 73.4569 31.0847C73.8153 30.6695 74.293 30.4915 74.8305 30.4915C75.368 30.4915 75.8458 30.6695 76.1444 30.9661C76.5624 31.3813 76.7416 31.9746 76.7416 32.9237C76.7416 33.0424 76.7416 33.0424 76.7416 33.2203H74.1736V33.2797C74.1736 33.9915 74.5319 34.3474 75.1291 34.3474C75.4874 34.3474 75.8458 34.1695 76.2041 33.8729ZM74.1736 32.3898H75.5472V32.3305C75.5472 31.9746 75.4874 31.8559 75.4277 31.678C75.3083 31.5 75.1291 31.4407 74.8902 31.4407C74.4125 31.3813 74.1736 31.7373 74.1736 32.3898Z" fill="#878E94"/>
<path d="M80.0265 35.0593V34.7627C79.8473 34.9407 79.8473 34.9407 79.7279 35C79.489 35.178 79.1904 35.2373 78.8321 35.2373C77.8168 35.2373 77.2793 34.7627 77.2793 33.8729C77.2793 32.8051 77.996 32.3305 79.4293 32.3305C79.489 32.3305 79.5487 32.3305 79.6682 32.3305V32.1525C79.6682 31.678 79.5487 31.5 79.1307 31.5C78.7723 31.5 78.2946 31.678 77.8168 31.9746L77.339 31.1441C77.6376 30.9661 77.7571 30.9068 78.0557 30.7881C78.4737 30.6102 78.8918 30.5508 79.2501 30.5508C80.0265 30.5508 80.5043 30.8475 80.6834 31.322C80.7431 31.5 80.7431 31.6186 80.7431 32.0932V33.5763V33.6356V35L80.0265 35.0593ZM79.6682 33.161C78.8321 33.161 78.5335 33.2797 78.5335 33.8136C78.5335 34.1695 78.7723 34.4068 79.0709 34.4068C79.3098 34.4068 79.489 34.2881 79.6682 34.1102V33.161Z" fill="#878E94"/>
<path d="M84.3265 35.0593V34.7627C84.0279 35.0593 83.6098 35.178 83.132 35.178C82.5348 35.178 81.9376 34.8814 81.8182 34.4661C81.7584 34.2881 81.6987 34.0508 81.6987 33.5763V30.7288H82.8334V33.339C82.8334 33.7542 82.8334 33.9322 82.9529 34.0509C83.0126 34.1695 83.1918 34.2288 83.3709 34.2288C83.6695 34.2288 84.0279 34.0509 84.0876 33.8136V30.6695H85.2223V35H84.3265V35.0593Z" fill="#878E94"/>
<path d="M13.5567 10.4407C12.422 9.66949 11.2873 9.31355 10.0332 9.31355C8.54015 9.31355 7.04711 9.9661 6.27074 11.0932C5.43464 12.2797 5.01659 14 5.01659 16.3729C5.01659 19.161 5.25547 20.7627 5.91241 21.8898C6.80823 23.3729 8.24154 24.2034 10.1526 24.2034C11.347 24.2034 12.422 23.9068 13.497 23.1949C13.6165 23.1356 13.7956 23.0169 13.9151 22.8983L15.7067 25.6864C14.0345 26.8729 12.1831 27.4068 9.79429 27.4068C6.74851 27.4068 4.35966 26.5169 2.56802 24.5593C0.89582 22.6017 0 20.1695 0 17.1441C0 14.5932 0.47777 12.5169 1.49303 10.7966C3.22495 7.8305 6.39018 6.05084 9.97346 6.05084C12.004 6.05084 14.0345 6.58474 15.2887 7.47457L13.5567 10.4407Z" fill="#878E94"/>
<path d="M27.9498 22.7797L29.5025 25.0932C27.7706 26.517 25.9193 27.1695 23.829 27.1695C19.5291 27.1695 16.7222 24.1441 16.7222 19.3983C16.7222 16.7288 17.2597 14.9492 18.6333 13.4661C19.8874 12.1017 21.3804 11.4492 23.3512 11.4492C25.0832 11.4492 26.7553 12.0424 27.7109 13.0509C29.0845 14.4746 29.6817 16.4915 29.6817 19.5763C29.6817 19.8729 29.6817 19.9915 29.6817 20.4661H20.9027V20.5848C20.9027 22.8983 22.0374 24.2034 24.0679 24.2034C25.4415 24.2627 26.7553 23.7881 27.9498 22.7797ZM20.9624 17.678H25.5012V17.5C25.5012 16.3729 25.3818 15.7797 25.0234 15.2458C24.6651 14.6525 24.0679 14.3559 23.2915 14.3559C21.8582 14.3559 20.9624 15.5424 20.9624 17.678Z" fill="#878E94"/>
<path d="M35.0563 11.6271L35.4147 13.2881C36.3105 12.6356 36.4897 12.517 37.1466 12.161C37.923 11.7458 38.9979 11.5085 39.834 11.5085C41.5062 11.5085 42.9993 12.3983 43.477 13.6441C43.6562 14.178 43.7757 14.8305 43.7757 15.7797V26.6949H39.8938V17.0254C39.8938 15.3051 39.5952 14.8305 38.5799 14.8305C37.8035 14.8305 36.7285 15.3644 35.8327 16.1949V26.7542H31.8911V11.6271H35.0563Z" fill="#878E94"/>
<path d="M35.4147 11.6271V13.2881C36.3105 12.6356 36.4897 12.517 37.1466 12.161C37.923 11.7458 38.9979 11.5085 39.834 11.5085C41.5062 11.5085 42.9993 12.3983 43.477 13.6441C43.6562 14.178 43.7757 14.8305 43.7757 15.7797V26.6949H39.8938V17.0254C39.8938 15.3051 39.5952 14.8305 38.5799 14.8305C37.8035 14.8305 36.7285 15.3644 35.8327 16.1949V26.7542H31.8911V11.6271H35.4147Z" fill="#878E94"/>
<path d="M56.078 15.4237C54.585 14.6526 53.51 14.3559 52.3753 14.3559C51.2406 14.3559 50.4642 14.9492 50.4642 15.839C50.4642 16.6102 50.942 17.0254 52.3753 17.3814L54.2267 17.8559C56.078 18.3305 56.6752 18.8644 57.2127 19.5763C57.7502 20.2881 58.0488 21.1187 58.0488 22.1271C58.0488 25.2119 55.4808 27.3475 51.5989 27.3475C49.8073 27.3475 47.8365 26.8136 45.6865 25.6865L46.9407 22.7203C48.1351 23.4322 50.2253 24.4407 51.9573 24.4407C53.092 24.4407 53.9878 23.7288 53.9878 22.7203C53.9878 21.7119 53.2711 21.178 51.6587 20.8814L49.867 20.5848C48.8518 20.4068 47.6573 19.6949 47.1198 19.0424C46.5823 18.3898 46.2837 17.322 46.2837 16.3729C46.2837 13.4661 48.6129 11.5085 52.0767 11.5085C54.3461 11.5085 55.8989 12.161 57.2127 12.8136L56.078 15.4237Z" fill="#878E94"/>
<path d="M68.4406 26.7542V25.0932C67.5448 25.7458 67.3656 25.8644 66.7087 26.2204C65.9323 26.6356 64.8573 26.8729 64.0212 26.8729C62.349 26.8729 60.856 25.9831 60.3782 24.7373C60.199 24.2034 60.0796 23.5509 60.0796 22.6017V11.6271H63.9615V21.3559C63.9615 23.0763 64.2601 23.5509 65.2753 23.5509C66.0517 23.5509 67.1267 23.017 68.0225 22.1865V11.6271H71.9641V26.7542H68.4406Z" fill="#878E94"/>
<path d="M24.3068 1.77965V5.69491C24.3068 7.88982 23.2318 9.07626 21.3207 9.07626C19.3499 9.07626 18.3944 7.8305 18.3944 5.69491V1.77965H17.4985V0.771179H20.5443V1.77965H19.6485V5.81355C19.6485 7.23728 20.2457 8.00847 21.3804 8.00847C22.5748 8.00847 23.1123 7.23728 23.1123 5.87287V1.77965H22.2165V0.771179H25.2623V1.77965H24.3068Z" fill="#878E94"/>
<path d="M29.0841 8.95763V8.00848H29.8008V5.16102C29.8008 3.97458 29.4424 3.67797 28.7855 3.67797C28.1883 3.67797 27.7702 3.97458 27.4716 4.44916V8.00848H28.1883V8.95763H25.5605V8.00848H26.2772V3.79661H25.5605V2.78814H27.4716V3.44068C27.8897 2.9661 28.3674 2.66949 29.1438 2.66949C30.398 2.66949 31.0549 3.38136 31.0549 5.1017V8.00848H31.7716V8.95763H29.0841" fill="#878E94"/>
<path d="M33.6829 1.77968C33.2648 1.77968 32.9065 1.42375 32.9065 1.00849C32.9065 0.593237 33.2648 0.237305 33.6829 0.237305C34.1009 0.237305 34.4592 0.593237 34.4592 1.00849C34.4592 1.42375 34.1009 1.77968 33.6829 1.77968ZM32.4287 8.95764V8.00849H33.2051V3.79663H32.4287V2.78815H34.3995V7.94917H35.1759V8.89832H32.4287V8.95764Z" fill="#878E94"/>
<path d="M38.9385 8.77969C38.6399 8.95765 38.2815 9.0763 37.8038 9.0763C36.9677 9.0763 36.4899 8.5424 36.4899 7.4746V3.79664H35.6538V2.78816H36.4899V1.0085L37.6843 0.355957V2.72884H39.0579V3.67799H37.6843V7.23731C37.6843 7.83053 37.8635 7.94918 38.2815 7.94918C38.401 7.94918 38.5204 7.94918 38.6399 7.88986L38.9385 8.77969Z" fill="#878E94"/>
<path d="M44.6717 6.28814H40.8496C40.969 7.41526 41.387 8.00848 42.4023 8.00848C43.119 8.00848 43.537 7.83051 44.0745 7.41526L44.612 8.24577C43.9551 8.77966 43.2384 9.07627 42.3426 9.07627C40.8496 9.07627 39.7148 7.88983 39.7148 5.87288C39.7148 3.79661 40.7898 2.66949 42.2829 2.66949C43.9551 2.66949 44.7314 4.09322 44.7314 5.75424C44.7314 5.99153 44.6717 6.16949 44.6717 6.28814ZM42.1634 3.67797C41.387 3.67797 40.969 4.27119 40.8496 5.33899H43.4773C43.4176 4.44916 43.119 3.67797 42.1634 3.67797Z" fill="#878E94"/>
<path d="M49.3895 8.95765V8.30511C48.9715 8.77968 48.4937 9.07629 47.8368 9.07629C46.5229 9.07629 45.5674 8.12714 45.5674 5.75426C45.5674 3.67799 46.5826 2.66951 47.7771 2.66951C48.4937 2.66951 48.9715 2.96612 49.3895 3.38138V1.24578H48.6729V0.296631H50.584V8.0085H51.2409V8.95765H49.3895ZM49.4493 4.44917C49.2104 4.09324 48.6729 3.61867 48.0757 3.61867C47.2396 3.61867 46.8215 4.33053 46.8215 5.69494C46.8215 7.41528 47.2993 8.06782 48.1354 8.06782C48.6132 8.06782 48.9715 7.83053 49.4493 7.29663V4.44917V4.44917Z" fill="#878E94"/>
<path d="M57.9892 9.07626C57.2128 9.07626 56.6156 8.77965 56.1975 8.30507V8.95761H55.1226V6.46609H56.1378C56.4364 7.47456 56.9739 8.06778 57.9892 8.06778C58.885 8.06778 59.3628 7.65253 59.3628 6.82202C59.3628 6.11015 59.1239 5.75422 57.6308 5.33897C56.0184 4.86439 55.1823 4.33049 55.1823 2.90676C55.1823 1.54236 56.1378 0.652527 57.5114 0.652527C58.4669 0.652527 59.0044 1.00846 59.2433 1.42371V0.771171H60.3183V3.2627H59.303C59.1239 2.31354 58.5864 1.661 57.5711 1.661C56.6753 1.661 56.3767 2.13558 56.3767 2.7288C56.3767 3.38134 56.8545 3.79659 58.0489 4.09321C59.7211 4.56778 60.5572 5.10168 60.5572 6.58473C60.6169 8.24575 59.5419 9.07626 57.9892 9.07626Z" fill="#878E94"/>
<path d="M68.978 8.95763V8.30509C68.6196 8.77966 68.0224 9.07627 67.3058 9.07627C66.2308 9.07627 65.335 8.54238 65.335 7.05933C65.335 5.69492 66.2905 5.04238 67.6044 5.04238C68.2016 5.04238 68.6196 5.16102 68.978 5.33899V4.74577C68.978 4.09322 68.5599 3.67797 67.8433 3.67797C67.246 3.67797 66.7683 3.79661 66.2905 4.0339L65.8725 3.20339C66.4099 2.84746 67.0669 2.66949 67.903 2.66949C69.2168 2.66949 70.1127 3.32204 70.1127 4.74577V8.00848H70.7696V8.95763H68.978ZM68.978 6.22882C68.6794 6.05085 68.321 5.93221 67.6044 5.93221C66.9474 5.93221 66.4697 6.28814 66.4697 6.94068C66.4697 7.71187 66.828 8.00848 67.5446 8.00848C68.1419 8.00848 68.6794 7.71187 68.978 7.23729V6.22882Z" fill="#878E94"/>
<path d="M80.2059 6.28814H76.3837C76.5032 7.41526 76.9809 8.00848 77.9365 8.00848C78.6531 8.00848 79.0712 7.83051 79.6087 7.41526L80.1462 8.24577C79.4892 8.77966 78.7726 9.07627 77.8768 9.07627C76.3837 9.07627 75.249 7.88983 75.249 5.87288C75.249 3.79661 76.324 2.66949 77.817 2.66949C79.4892 2.66949 80.2656 4.09322 80.2656 5.75424C80.2059 5.99153 80.2059 6.16949 80.2059 6.28814ZM77.6976 3.67797C76.9212 3.67797 76.5032 4.27119 76.3837 5.33899H79.0115C78.9517 4.44916 78.5934 3.67797 77.6976 3.67797Z" fill="#878E94"/>
<path d="M83.6096 9.01695C82.8929 9.01695 82.5346 8.83899 82.236 8.42373V8.89831H81.2804V7H82.1165C82.4749 7.71187 82.8929 8.0678 83.5498 8.0678C84.0276 8.0678 84.3262 7.77119 84.3262 7.35593C84.3262 6.88136 84.147 6.64407 83.2512 6.40678C81.7582 5.99153 81.2207 5.51695 81.2207 4.38983C81.2207 3.5 81.8776 2.66949 83.1318 2.66949C83.6693 2.66949 84.0873 2.78814 84.4457 3.14407V2.78814H85.4012V4.74577H84.5651C84.2665 4.0339 83.9082 3.67797 83.2512 3.67797C82.7137 3.67797 82.4749 3.91526 82.4749 4.33051C82.4749 4.68644 82.5943 4.98305 83.5498 5.27966C84.9831 5.69492 85.5804 6.16949 85.5804 7.29661C85.5206 8.24577 84.804 9.01695 83.6096 9.01695Z" fill="#878E94"/>
<path d="M68.3807 35.0593V34.7627C68.0821 35.0593 67.664 35.178 67.1862 35.178C66.589 35.178 65.9918 34.8814 65.8724 34.4661C65.8127 34.2881 65.7529 34.0509 65.7529 33.5763V30.7288H66.8876V33.339C66.8876 33.7542 66.8876 33.9322 67.0071 34.0509C67.0668 34.1695 67.246 34.2288 67.4251 34.2288C67.7237 34.2288 68.0821 34.0509 68.1418 33.8136V30.6695H69.2765V35H68.3807V35.0593Z" fill="#878E94"/>
<path d="M84.3267 15.4237C82.8337 14.6525 81.7587 14.3559 80.624 14.3559C79.4893 14.3559 78.7129 14.9492 78.7129 15.839C78.7129 16.6102 79.1907 17.0254 80.624 17.3814L82.4156 17.7966C84.267 18.2712 84.8642 18.8051 85.4017 19.517C85.9392 20.2288 86.2378 21.0593 86.2378 22.0678C86.2378 25.1525 83.6698 27.2881 79.7879 27.2881C77.9963 27.2881 76.0255 26.7542 73.8755 25.6271L75.1296 22.661C76.3241 23.3729 78.4143 24.3814 80.1462 24.3814C81.2809 24.3814 82.1767 23.6695 82.1767 22.661C82.1767 21.6525 81.4601 21.1186 79.8476 20.822L78.056 20.5254C77.0407 20.3475 75.8463 19.6356 75.3088 18.9831C74.7713 18.3305 74.4727 17.2627 74.4727 16.3136C74.4727 13.4068 76.8018 11.4492 80.3254 11.4492C82.5948 11.4492 84.1475 12.1017 85.4614 12.7542L84.3267 15.4237Z" fill="#878E94"/>
<path d="M2.26929 31.0848H55.899C57.0337 31.0848 57.9295 31.9746 57.9295 33.1017C57.9295 34.2288 57.0337 35.1187 55.899 35.1187H2.26929C1.13459 35.1187 0.23877 34.2288 0.23877 33.1017C0.23877 31.9746 1.13459 31.0848 2.26929 31.0848Z" fill="#878E94"/>
<path d="M64.5586 8.77969C64.26 8.95765 63.9017 9.0763 63.4239 9.0763C62.5878 9.0763 62.11 8.5424 62.11 7.4746V3.79664H61.2739V2.78816H62.11V1.0085L63.3044 0.355957V2.72884H64.678V3.67799H63.3044V7.23731C63.3044 7.83053 63.4836 7.94918 63.9017 7.94918C64.0211 7.94918 64.1405 7.94918 64.26 7.88986L64.5586 8.77969Z" fill="#878E94"/>
<path d="M74.4726 8.77969C74.174 8.95765 73.8157 9.0763 73.338 9.0763C72.5019 9.0763 72.0241 8.5424 72.0241 7.4746V3.79664H71.188V2.78816H72.0241V1.0085L73.2185 0.355957V2.72884H74.5921V3.67799H73.2185V7.23731C73.2185 7.83053 73.3977 7.94918 73.8157 7.94918C73.9352 7.94918 74.0546 7.94918 74.174 7.88986L74.4726 8.77969Z" fill="#878E94"/>
<path d="M87.3124 3.73731V2.19493H86.7749V2.01697H88.1485V2.19493H87.611V3.67798H87.3124V3.73731Z" fill="white"/>
<path d="M88.3872 3.7373V2.01696H88.7455L89.1636 3.2034C89.2233 3.32205 89.2233 3.38137 89.2233 3.44069C89.2233 3.38137 89.283 3.26273 89.3427 3.14408L89.7608 1.95764H90.0594V3.67798H89.8205V2.31357L89.3427 3.7373H89.1636L88.6858 2.31357V3.7373H88.3872Z" fill="white"/>
</g>
<defs>
<clipPath id="clip0">
<rect width="90" height="35" fill="white"/>
</clipPath>
</defs>
</svg>
