<svg width="57" height="21" viewBox="0 0 57 21" fill="none" xmlns="http://www.w3.org/2000/svg">
<path d="M49.3484 18.9795C46.7208 18.9795 44.1208 16.9588 44.1208 11.9763C44.1208 8.75827 46.1314 6.23588 48.6083 6.23588C50.3976 6.23588 52.4401 7.00992 53.1495 8.83089C53.1627 10.8914 53.1779 13.1854 53.193 15.0314C53.0991 17.3323 51.1336 18.9795 49.3478 18.9795H49.3484ZM56.9957 18.8963C56.9957 18.7787 56.8949 18.7321 56.7911 18.6854C56.5626 18.5915 56.3454 18.4708 56.1437 18.3256C55.9993 18.1942 55.8855 18.0309 55.8108 17.8479C55.7362 17.6648 55.7027 17.4667 55.7127 17.2684L55.7178 0.597907C55.7178 -0.0632692 55.4232 -0.101222 54.7697 0.125246C54.7697 0.125246 52.0966 1.0421 52.0397 1.06457C51.9828 1.08704 51.8353 1.14947 51.8353 1.2913V1.74298C51.8353 1.86058 51.9359 1.90553 52.0397 1.95396C52.2648 2.0733 52.4772 2.21648 52.6736 2.38118C52.8211 2.5103 52.938 2.67256 53.0154 2.8555C53.0926 3.03845 53.1283 3.23724 53.1197 3.43662C53.1197 3.43662 53.1281 4.87608 53.1397 6.86734C52.2074 5.92627 50.7401 5.22889 48.7613 5.22889C44.6953 5.22889 41.5454 8.54026 41.5454 12.9882C41.5454 17.9086 44.8369 21 48.825 21C50.858 21 52.4287 19.6886 53.361 18.0786V20.3583C53.361 21.0262 53.6359 21.1488 54.2179 20.8327C54.2179 20.8327 56.7468 19.5992 56.7955 19.575C56.8492 19.55 57 19.4644 57 19.3483V18.8963H56.9957ZM10.9152 17.3895C10.6067 18.3565 9.6659 19.2649 8.64626 19.2649C7.51433 19.2649 6.71952 17.9967 6.71952 16.2616V6.79843H11.3779C11.4321 6.79816 11.484 6.77585 11.5223 6.73635C11.5606 6.69683 11.5823 6.64331 11.5825 6.58745V5.74848C11.5823 5.69261 11.5606 5.6391 11.5223 5.59958C11.484 5.56008 11.4321 5.53777 11.3779 5.5375H6.71952L6.69435 2.12101C6.69409 2.06513 6.67247 2.01162 6.63417 1.97211C6.59587 1.93259 6.54401 1.91028 6.48985 1.91002H5.57572C5.54886 1.90998 5.52225 1.91543 5.49742 1.92601C5.4726 1.9366 5.45004 1.95214 5.43105 1.97174C5.41205 1.99134 5.39699 2.01462 5.38671 2.04023C5.37645 2.06584 5.37119 2.09329 5.37122 2.12101V2.63836C5.30587 4.97221 3.00665 5.53625 1.5596 5.53625H0.204512C0.177498 5.53642 0.150777 5.54207 0.125879 5.55289C0.10098 5.5637 0.0783912 5.57947 0.0594007 5.5993C0.0404102 5.61912 0.0253904 5.64261 0.015199 5.66842C0.0050076 5.69423 -0.000155802 5.72187 3.58033e-06 5.74974V6.58869C0.000258159 6.64457 0.0218864 6.69808 0.0601843 6.73759C0.0984825 6.7771 0.150352 6.79942 0.204512 6.79968H3.96603V16.2304C3.96603 19.4484 5.55588 20.9933 7.911 20.9933C10.1134 20.9933 11.2916 19.3952 11.7243 17.6872C11.918 16.9363 11.0836 16.8632 10.916 17.3895H10.9152ZM41.1325 19.5071C40.8809 19.4947 40.6385 19.405 40.4367 19.2494C40.3325 19.1387 40.251 19.0075 40.1968 18.8637C40.1428 18.7198 40.1174 18.5662 40.122 18.4119V12.1995C40.122 7.27584 37.0885 5.22913 34.0918 5.22913C33.1141 5.20819 32.15 5.46853 31.3077 5.98097C30.4654 6.49342 29.778 7.23773 29.3225 8.13052V5.82764C29.3225 5.15972 29.0643 5.07333 28.4655 5.35323C28.4655 5.35323 25.9332 6.58494 25.888 6.60916C25.8342 6.63414 25.6834 6.71978 25.6834 6.83589V7.28732C25.6834 7.40493 25.7842 7.45162 25.888 7.49831C26.1162 7.59151 26.333 7.71229 26.5337 7.85811C26.6788 7.98936 26.7932 8.15276 26.8684 8.3361C26.9437 8.51944 26.9778 8.71795 26.9681 8.91682V18.4744C26.9723 18.6325 26.9431 18.7897 26.8823 18.9349C26.8214 19.0802 26.7305 19.2099 26.6159 19.3151C26.4255 19.4416 26.2036 19.5084 25.977 19.5071C25.9228 19.5073 25.871 19.5296 25.8327 19.5692C25.7944 19.6087 25.7728 19.6622 25.7726 19.718V20.5036C25.7728 20.5594 25.7944 20.613 25.8327 20.6525C25.871 20.692 25.9228 20.7143 25.977 20.7146H30.6456C30.6725 20.7147 30.6991 20.7091 30.724 20.6986C30.7488 20.688 30.7713 20.6725 30.7903 20.6529C30.8093 20.6333 30.8244 20.61 30.8347 20.5844C30.8449 20.5587 30.8502 20.5313 30.8502 20.5036V19.718C30.8499 19.6622 30.8283 19.6087 30.79 19.5692C30.7517 19.5296 30.6998 19.5073 30.6456 19.5071C30.3729 19.5028 30.1098 19.4028 29.8995 19.2235C29.7179 19.0198 29.6205 18.751 29.6279 18.4744V10.8102C29.6279 8.31903 31.1876 6.45735 33.4497 6.45735C35.5592 6.45735 37.4794 8.3068 37.4794 12.1353V18.4432C37.4885 18.7159 37.4075 18.9837 37.2497 19.2027C37.1707 19.2956 37.0738 19.3706 36.9654 19.4229C36.8569 19.4753 36.739 19.5039 36.6192 19.5071C36.5651 19.5073 36.5132 19.5296 36.475 19.5692C36.4366 19.6087 36.415 19.6622 36.4147 19.718V20.5036C36.415 20.5594 36.4366 20.613 36.475 20.6525C36.5132 20.692 36.5651 20.7143 36.6192 20.7146H41.1318C41.1586 20.7147 41.1853 20.7091 41.21 20.6986C41.2349 20.688 41.2574 20.6725 41.2764 20.6529C41.2954 20.6333 41.3105 20.61 41.3208 20.5844C41.3311 20.5587 41.3363 20.5313 41.3362 20.5036V19.718C41.3365 19.6905 41.3314 19.6631 41.3213 19.6374C41.3112 19.6119 41.2964 19.5886 41.2775 19.569C41.2586 19.5494 41.2362 19.5338 41.2115 19.5232C41.1868 19.5126 41.1603 19.5071 41.1334 19.5071H41.1325ZM14.653 11.978C14.6599 12.7226 14.7534 13.4638 14.9314 14.1855L21.5703 10.7045C22.0851 10.4002 22.3049 10.137 22.3049 9.60072C22.3049 8.18196 20.9415 6.23912 18.8318 6.23912C16.3532 6.23737 14.6528 8.76098 14.6528 11.9778L14.653 11.978ZM25.3744 16.4879C25.0065 18.3808 22.9891 20.9975 19.1682 20.9975C15.2232 20.9975 12.0748 17.9058 12.0748 12.9858C12.0738 8.53801 15.2232 5.22738 19.2892 5.22738C22.9583 5.22738 24.8717 7.61841 24.8717 9.53527C24.8717 10.544 24.3451 10.8779 23.4346 11.3967L15.2835 15.2581C15.5866 16.3364 16.2223 17.2833 17.0941 17.9553C17.966 18.6271 19.0265 18.9873 20.1148 18.9813C22.3769 18.9848 23.814 17.7513 24.4864 16.2374C24.5266 16.1259 24.6056 16.0338 24.7082 15.9795C24.8108 15.9251 24.9294 15.9123 25.0406 15.9436C25.1519 15.9749 25.2477 16.0481 25.3094 16.1487C25.371 16.2493 25.3938 16.37 25.3734 16.4871" fill="#878E94"/>
</svg>
