<svg width="18" height="23" viewBox="0 0 18 23" fill="none" xmlns="http://www.w3.org/2000/svg">
<path d="M1.92311 7.60499C1.3754 3.6536 4.14007 1.68768 5.59087 1.19864C6.47752 0.786587 8.07142 5.05208 8.16751 5.6046C8.2636 6.15712 8.2576 6.40335 8.02338 6.69162C7.78916 6.9799 6.38163 7.27366 6.11768 7.27366C5.85373 7.27366 4.05888 7.60499 7.17348 12.4471C10.2881 17.2892 10.6048 16.4327 11.0008 16.4327C11.3967 16.4327 11.951 15.2977 12.5317 15.0866C12.9962 14.9176 13.4291 15.157 13.5875 15.2977C14.2913 16.1952 15.7994 18.1062 16.2006 18.5707C16.6018 19.0353 16.4671 19.637 16.3496 19.8797C15.0292 20.76 11.8114 22.0706 9.50314 20.271C6.61784 18.0214 2.60776 12.5442 1.92311 7.60499Z" stroke="white" stroke-width="2"/>
</svg>
