<svg width="62" height="62" viewBox="0 0 62 62" fill="none" xmlns="http://www.w3.org/2000/svg">
<circle cx="31.3916" cy="30.734" r="30.4039" fill="#2898FF"/>
<path d="M31.3833 20.4406C32.6997 22.7207 31.9185 25.636 29.6387 26.9522C29.6387 26.9522 29.3834 28.13 30.9563 30.8545C32.5293 33.5789 33.7903 34.1431 33.7903 34.1431C36.0701 32.8268 38.9854 33.6079 40.3016 35.8877C41.618 38.1677 40.8369 41.083 38.557 42.3993C36.2771 43.7156 33.3619 42.9344 32.0455 40.6544C32.0455 40.6544 29.3106 37.4086 26.884 33.2056C24.4574 29.0027 23.0139 25.0113 23.0139 25.0113L23.0185 25.0086C21.8572 22.7609 22.6577 19.9743 24.8719 18.696C27.1518 17.3797 30.0671 18.1609 31.3833 20.4406Z" fill="white"/>
</svg>
