<svg width="310" height="316" viewBox="0 0 310 316" fill="none" xmlns="http://www.w3.org/2000/svg">
<path d="M13.4753 174.802C26.7044 187.588 59.5994 205.991 85.3471 177.316C117.532 141.473 81.8625 131.076 70.1247 141.007C50.8283 157.333 87.9605 200.093 118.001 201.295C141.503 202.236 162.519 178.697 167.899 167.569" stroke="black" stroke-dasharray="5 5"/>
<circle cx="269.238" cy="61.8998" r="6.94745" stroke="black"/>
<circle cx="248.191" cy="73.8807" r="6.94745" stroke="black"/>
<circle cx="290.285" cy="73.8807" r="6.94745" stroke="black"/>
<circle cx="269.238" cy="121.931" r="30.4971" fill="white" stroke="black"/>
<path d="M229.885 174.475C229.885 169.781 233.69 165.975 238.385 165.975H300.092C304.786 165.975 308.592 169.781 308.592 174.475V222.541H229.885V174.475Z" fill="white" stroke="black"/>
<path d="M19.8341 28.2065L33.751 51.1315L5.91725 51.1315L19.8341 28.2065Z" stroke="#2898FF"/>
<path d="M250.662 259.824L261.366 277.457L239.958 277.457L250.662 259.824Z" stroke="#2898FF"/>
<path d="M36.689 301.519L55.2309 282.143L62.4348 309.028L36.689 301.519Z" stroke="#2898FF"/>
<path d="M200.672 18.6096L214.933 3.70644L220.474 24.3853L200.672 18.6096Z" stroke="black"/>
<path d="M44.7229 52.9884C54.4605 51.0172 74.7594 52.4785 78.0537 74.0927C82.1715 101.111 62.9549 94.9842 60.535 86.6233C56.5566 72.8782 85.8975 64.0806 99.8733 72.8299C110.807 79.6745 113.457 97.3804 112.643 104.338" stroke="black" stroke-dasharray="5 5"/>
<path d="M208.537 31.0613C208.604 36.3912 205.808 46.9458 194.085 46.525C179.432 45.999 184.579 36.4806 189.228 36.0394C196.871 35.3141 198.58 51.6592 192.573 58.1532C187.874 63.2336 178.275 62.8633 174.689 61.74" stroke="black" stroke-dasharray="5 5"/>
<path d="M100.629 246.905C100.696 252.235 97.8994 262.79 86.1767 262.369C71.5233 261.843 76.6708 252.325 81.3198 251.883C88.9626 251.158 90.6717 267.503 84.6646 273.997C79.9652 279.078 70.367 278.707 66.7808 277.584" stroke="black" stroke-dasharray="5 5"/>
</svg>
