<svg width="339" height="316" viewBox="0 0 339 316" fill="none" xmlns="http://www.w3.org/2000/svg">
<path d="M78.9725 219.942C96.1421 226.552 133.611 230.661 146.128 194.212C161.775 148.652 124.876 152.997 117.944 166.721C106.548 189.283 157.422 214.163 185.55 203.548C207.555 195.244 217.721 165.37 218.332 153.025" stroke="black" stroke-dasharray="5 5"/>
<path d="M19.8341 28.2581L33.751 51.1832L5.91725 51.1832L19.8341 28.2581Z" stroke="#2898FF"/>
<path d="M250.662 259.876L261.366 277.509L239.958 277.509L250.662 259.876Z" stroke="#2898FF"/>
<path d="M36.689 301.571L55.2309 282.195L62.4348 309.08L36.689 301.571Z" stroke="#2898FF"/>
<path d="M200.672 18.6614L214.933 3.7582L220.474 24.4371L200.672 18.6614Z" stroke="black"/>
<path d="M306.816 102.277C312.896 106.21 318.143 111.303 322.255 117.263C326.367 123.224 329.265 129.937 330.783 137.017C332.301 144.098 332.41 151.409 331.103 158.532C329.796 165.654 327.098 172.45 323.165 178.53C319.231 184.611 314.139 189.857 308.178 193.969C302.217 198.081 295.505 200.979 288.424 202.497C281.343 204.015 274.033 204.124 266.91 202.817C259.787 201.51 252.992 198.812 246.911 194.879" stroke="black"/>
<rect x="215.063" y="206.968" width="120.033" height="13.0085" fill="white" stroke="black"/>
<rect x="218.624" y="185.676" width="62.8785" height="8.52551" fill="white" stroke="black"/>
<rect x="290.159" y="82.6962" width="23.935" height="74.0852" transform="rotate(30 290.159 82.6962)" fill="white" stroke="black"/>
<rect x="299.897" y="70.5072" width="7.35543" height="15.6191" transform="rotate(30 299.897 70.5072)" stroke="black"/>
<rect x="312.652" y="71.7963" width="7.35543" height="21.0623" transform="rotate(30 312.652 71.7963)" stroke="black"/>
<rect x="257.83" y="149.337" width="13.2903" height="12.7877" transform="rotate(30 257.83 149.337)" stroke="black"/>
<rect x="254.763" y="162.249" width="5.69126" height="2.73571" transform="rotate(30 254.763 162.249)" stroke="black"/>
<path d="M44.7229 53.0401C54.4605 51.069 74.7594 52.5302 78.0537 74.1445C82.1715 101.162 62.9549 95.036 60.535 86.675C56.5566 72.93 85.8975 64.1324 99.8733 72.8816C110.807 79.7262 113.457 97.4322 112.643 104.389" stroke="black" stroke-dasharray="5 5"/>
<path d="M208.537 31.113C208.604 36.4429 205.808 46.9976 194.085 46.5768C179.432 46.0508 184.579 36.5323 189.228 36.0912C196.871 35.3659 198.58 51.711 192.573 58.205C187.874 63.2853 178.275 62.9151 174.689 61.7918" stroke="black" stroke-dasharray="5 5"/>
<path d="M100.629 246.957C100.696 252.287 97.8994 262.842 86.1767 262.421C71.5233 261.895 76.6708 252.376 81.3198 251.935C88.9626 251.21 90.6717 267.555 84.6646 274.049C79.9652 279.129 70.367 278.759 66.7808 277.636" stroke="black" stroke-dasharray="5 5"/>
</svg>
