<svg width="364" height="316" viewBox="0 0 364 316" fill="none" xmlns="http://www.w3.org/2000/svg">
<path d="M233.798 77.8942L362.288 68.1063L292.145 155.135C289.648 145.161 281.747 123.849 270.12 118.391L250.564 136.751L253.398 97.0576C252.289 92.2361 246.817 81.6534 233.798 77.8942Z" fill="white"/>
<path d="M362.288 68.1063L233.798 77.8942C246.817 81.6534 252.289 92.2361 253.398 97.0576M362.288 68.1063L292.145 155.135C289.648 145.161 281.747 123.849 270.12 118.391M362.288 68.1063L253.398 97.0576M362.288 68.1063L270.12 118.391M270.12 118.391L250.564 136.751L253.398 97.0576" stroke="black"/>
<path d="M78.9725 219.839C96.1421 226.449 133.611 230.557 146.128 194.109C161.775 148.548 124.876 152.894 117.944 166.618C106.548 189.18 157.422 214.06 185.55 203.445C207.555 195.14 217.721 165.267 218.332 152.921" stroke="black" stroke-dasharray="5 5"/>
<path d="M19.8341 28.1547L33.751 51.0798L5.91725 51.0798L19.8341 28.1547Z" stroke="#2898FF"/>
<path d="M250.662 259.772L261.366 277.405L239.958 277.405L250.662 259.772Z" stroke="#2898FF"/>
<path d="M36.689 301.467L55.2309 282.091L62.4348 308.977L36.689 301.467Z" stroke="#2898FF"/>
<path d="M200.672 18.5579L214.933 3.65469L220.474 24.3336L200.672 18.5579Z" stroke="black"/>
<path d="M44.7229 52.9367C54.4605 50.9655 74.7594 52.4268 78.0537 74.041C82.1715 101.059 62.9549 94.9325 60.535 86.5716C56.5566 72.8265 85.8975 64.0289 99.8733 72.7782C110.807 79.6228 113.457 97.3287 112.643 104.286" stroke="black" stroke-dasharray="5 5"/>
<path d="M208.537 31.0094C208.604 36.3394 205.808 46.894 194.085 46.4732C179.432 45.9472 184.579 36.4287 189.228 35.9876C196.871 35.2623 198.58 51.6074 192.573 58.1014C187.874 63.1817 178.275 62.8115 174.689 61.6882" stroke="black" stroke-dasharray="5 5"/>
<path d="M100.629 246.853C100.696 252.183 97.8994 262.738 86.1767 262.317C71.5233 261.791 76.6708 252.273 81.3198 251.832C88.9626 251.106 90.6717 267.451 84.6646 273.945C79.9652 279.026 70.367 278.656 66.7808 277.532" stroke="black" stroke-dasharray="5 5"/>
</svg>
