<svg width="267" height="316" viewBox="0 0 267 316" fill="none" xmlns="http://www.w3.org/2000/svg">
<path d="M30.0477 254.744C42.2515 256.401 67.292 253.297 69.8232 227.624C72.9871 195.532 49.6218 204.055 47.2235 214.064C43.2807 230.519 80.2576 238.878 96.9429 227.624C109.996 218.82 112.009 197.792 110.503 189.657" stroke="black" stroke-dasharray="5 5"/>
<path d="M246.501 28.2324L232.584 51.1574L260.418 51.1574L246.501 28.2324Z" stroke="#2898FF"/>
<path d="M54.8662 158.575C54.8266 158.514 54.7912 158.458 54.7601 158.408C54.7998 158.354 54.8456 158.292 54.8976 158.222C55.119 157.924 55.4513 157.484 55.8927 156.925C56.7756 155.805 58.0946 154.203 59.8348 152.279C63.3157 148.43 68.4794 143.297 75.2061 138.164C88.661 127.897 108.348 117.646 133.322 117.646C158.297 117.646 178.062 127.897 191.594 138.165C198.36 143.298 203.562 148.431 207.072 152.28C208.827 154.204 210.158 155.807 211.049 156.926C211.495 157.486 211.831 157.925 212.054 158.224C212.106 158.293 212.152 158.355 212.192 158.408C212.161 158.457 212.125 158.512 212.086 158.573C211.895 158.867 211.607 159.301 211.221 159.853C210.448 160.958 209.28 162.541 207.708 164.441C204.562 168.243 199.797 173.315 193.325 178.387C180.384 188.53 160.622 198.675 133.322 198.675C106.023 198.675 86.3385 188.53 73.4757 178.388C67.0427 173.316 62.3162 168.244 59.1994 164.443C57.6412 162.543 56.4859 160.96 55.7213 159.855C55.3391 159.303 55.0546 158.869 54.8662 158.575Z" fill="white" stroke="black"/>
<path d="M155.831 158.16C155.831 174.145 145.715 186.883 133.477 186.883C121.238 186.883 111.123 174.145 111.123 158.16C111.123 142.176 121.238 129.438 133.477 129.438C145.715 129.438 155.831 142.176 155.831 158.16Z" fill="white" stroke="black"/>
<path d="M15.6736 259.85L4.96938 277.483L26.3777 277.483L15.6736 259.85Z" stroke="#2898FF"/>
<path d="M229.646 301.545L211.105 282.169L203.901 309.054L229.646 301.545Z" stroke="#2898FF"/>
<path d="M65.6635 18.6355L51.402 3.73232L45.8611 24.4112L65.6635 18.6355Z" stroke="black"/>
<path d="M57.7984 31.0871C57.7312 36.4171 60.5276 46.9717 72.2503 46.5509C86.9037 46.0249 81.7562 36.5064 77.1072 36.0653C69.4644 35.34 67.7553 51.6851 73.7624 58.1791C78.4618 63.2594 88.06 62.8892 91.6462 61.7659" stroke="black" stroke-dasharray="5 5"/>
<path d="M165.707 246.931C165.64 252.261 168.436 262.816 180.159 262.395C194.812 261.869 189.665 252.35 185.016 251.909C177.373 251.184 175.664 267.529 181.671 274.023C186.37 279.103 195.968 278.733 199.555 277.61" stroke="black" stroke-dasharray="5 5"/>
</svg>
