<svg width="267" height="316" viewBox="0 0 267 316" fill="none" xmlns="http://www.w3.org/2000/svg">
<path d="M30.0477 254.692C42.2515 256.349 67.292 253.246 69.8232 227.572C72.9871 195.481 49.6218 204.003 47.2235 214.012C43.2807 230.467 80.2576 238.826 96.9429 227.572C109.996 218.768 112.009 197.741 110.503 189.605" stroke="black" stroke-dasharray="5 5"/>
<path d="M246.501 28.1806L232.584 51.1057L260.418 51.1057L246.501 28.1806Z" stroke="#2898FF"/>
<path d="M139.055 173.044L139.075 173.049L139.094 173.056C143.704 174.646 149.158 176.651 154.116 179.328C159.068 182.002 163.575 185.374 166.242 189.723L166.253 189.741L166.262 189.759C166.663 190.554 167.423 191.642 168.378 192.335C169.314 193.014 170.372 193.28 171.511 192.623L171.774 192.471L172.207 192.221L172.457 192.654L173.799 194.978L174.049 195.411L173.616 195.661L172.908 196.07C172.114 196.528 171.842 197.543 172.3 198.336C172.759 199.13 173.773 199.402 174.567 198.944L174.817 199.377L175.067 199.81C174.273 200.268 174.001 201.283 174.459 202.076C174.918 202.87 175.932 203.142 176.726 202.683L176.976 203.116L177.226 203.549C176.432 204.008 176.16 205.022 176.619 205.816C177.077 206.609 178.091 206.881 178.885 206.423L205.984 190.778C206.777 190.32 207.049 189.305 206.591 188.511C206.133 187.718 205.118 187.446 204.325 187.904L204.075 187.471L203.825 187.038C204.618 186.58 204.89 185.565 204.432 184.772C203.974 183.978 202.959 183.706 202.165 184.164L201.915 183.731L201.665 183.298C202.459 182.84 202.731 181.826 202.273 181.032C201.815 180.238 200.8 179.967 200.006 180.425L199.412 180.768L198.979 181.018L198.729 180.585L197.387 178.261L197.137 177.828L197.57 177.578L197.833 177.426C198.971 176.769 199.27 175.719 199.15 174.569C199.027 173.395 198.465 172.193 197.977 171.449L197.966 171.431L197.956 171.413C195.523 166.929 194.857 161.34 195.017 155.714C195.177 150.082 196.168 144.356 197.096 139.568L197.1 139.549L197.105 139.529C200.453 127.551 199.164 114.289 192.455 102.669C179.223 79.7497 149.916 71.8971 126.998 85.1293C104.079 98.3615 96.2262 127.668 109.458 150.587C116.168 162.207 127.008 169.954 139.055 173.044Z" fill="white" stroke="black"/>
<path d="M98.0235 91.3508L106.778 96.7163M115.491 67.7203L123.548 81.6754M146.857 73.5768L148.038 62.4747" stroke="black"/>
<path d="M15.6736 259.798L4.96938 277.431L26.3777 277.431L15.6736 259.798Z" stroke="#2898FF"/>
<path d="M229.646 301.493L211.105 282.117L203.901 309.003L229.646 301.493Z" stroke="#2898FF"/>
<path d="M65.6635 18.5838L51.402 3.68057L45.8611 24.3594L65.6635 18.5838Z" stroke="black"/>
<path d="M57.7984 31.0354C57.7312 36.3653 60.5276 46.9199 72.2503 46.4992C86.9037 45.9732 81.7562 36.4547 77.1072 36.0135C69.4644 35.2883 67.7553 51.6333 73.7624 58.1274C78.4618 63.2077 88.06 62.8375 91.6462 61.7142" stroke="black" stroke-dasharray="5 5"/>
<path d="M165.707 246.879C165.64 252.209 168.436 262.764 180.159 262.343C194.812 261.817 189.665 252.299 185.016 251.858C177.373 251.132 175.664 267.477 181.671 273.971C186.37 279.052 195.968 278.681 199.555 277.558" stroke="black" stroke-dasharray="5 5"/>
</svg>
