<svg width="19" height="19" viewBox="0 0 19 19" fill="none" xmlns="http://www.w3.org/2000/svg">
<g clip-path="url(#clip0)">
<path d="M16.9342 18.1738C17.1745 18.1738 17.4004 18.0802 17.5705 17.9105C17.7406 17.7409 17.8338 17.5145 17.8338 17.2742C17.8338 17.0339 17.7402 16.808 17.5705 16.6379L9.36569 8.816L8.47334 9.70925L16.302 17.9141C16.468 18.0802 16.6939 18.1738 16.9342 18.1738Z" fill="#98CCFD"/>
<path d="M9.36929 9.13101L8.78744 9.71331L16.4572 17.7512C16.5846 17.8786 16.7542 17.9488 16.9342 17.9488C17.1142 17.9488 17.2839 17.8786 17.4112 17.7512C17.674 17.4884 17.674 17.0605 17.4189 16.8049L9.36929 9.13101ZM9.36164 8.50191L17.7294 16.4791C18.1686 16.9183 18.1686 17.6302 17.7294 18.0694C17.5098 18.289 17.2222 18.3988 16.9342 18.3988C16.6462 18.3988 16.3587 18.289 16.1391 18.0694L8.15879 9.70611L9.36164 8.50191Z" fill="#4788C7"/>
<path d="M6.80879 12.7738C9.91064 12.7738 12.4338 10.2506 12.4338 7.14875C12.4338 4.0469 9.91064 1.52375 6.80879 1.52375C3.70694 1.52375 1.18379 4.0469 1.18379 7.14875C1.18379 10.2506 3.70694 12.7738 6.80879 12.7738Z" fill="#DFF0FE"/>
<path d="M6.8088 1.74876C3.83115 1.74876 1.4088 4.17111 1.4088 7.14876C1.4088 10.1264 3.83115 12.5488 6.8088 12.5488C9.78645 12.5488 12.2088 10.1264 12.2088 7.14876C12.2088 4.17111 9.78645 1.74876 6.8088 1.74876ZM6.8088 1.29876C10.0398 1.29876 12.6588 3.91776 12.6588 7.14876C12.6588 10.3798 10.0398 12.9988 6.8088 12.9988C3.5778 12.9988 0.958797 10.3798 0.958797 7.14876C0.958797 3.91776 3.5778 1.29876 6.8088 1.29876Z" fill="#4788C7"/>
</g>
<defs>
<clipPath id="clip0">
<rect width="18" height="18" fill="white" transform="matrix(-1 0 0 1 18.5088 0.848755)"/>
</clipPath>
</defs>
</svg>
