<svg width="10" height="14" viewBox="0 0 10 14" fill="none" xmlns="http://www.w3.org/2000/svg">
<rect x="3.23657" y="1.00613" width="4.15884" height="2.46302" rx="0.75" stroke="#999999" stroke-width="0.5" stroke-linecap="round" stroke-linejoin="round"/>
<path d="M1.4719 5.06646C1.383 4.60394 1.73743 4.17491 2.20842 4.17491H8.3753C8.85802 4.17491 9.21504 4.62431 9.10587 5.09452L8.14109 9.25015C8.06219 9.58998 7.75939 9.83054 7.41052 9.83054H3.00709C2.64746 9.83054 2.33845 9.57526 2.27057 9.22209L1.4719 5.06646Z" stroke="#999999" stroke-width="0.5" stroke-linecap="round" stroke-linejoin="round"/>
<path d="M1.77183 11.9904C1.57699 12.4827 1.93976 13.0164 2.46919 13.0164H8.04753C8.5993 13.0164 8.96217 12.4407 8.72418 11.9429L8.25129 10.9538C8.12669 10.6932 7.8635 10.5273 7.57465 10.5273H2.86067C2.55299 10.5273 2.27653 10.7152 2.1633 11.0013L1.77183 11.9904Z" stroke="#999999" stroke-width="0.5" stroke-linecap="round" stroke-linejoin="round"/>
</svg>
