<svg width="373" height="454" viewBox="0 0 373 454" fill="none" xmlns="http://www.w3.org/2000/svg">
<circle cx="182.268" cy="101.42" r="101.291" fill="#DFC157" fill-opacity="0.1"/>
<circle cx="182.267" cy="101.42" r="73.4776" fill="#DFC157" fill-opacity="0.1"/>
<circle cx="182.267" cy="101.42" r="50.6137" fill="#DFC157" fill-opacity="0.1"/>
<path d="M174.865 169.95H196.556C196.556 169.95 195.659 175.442 196.848 178.609C197.732 180.964 200.481 183.928 200.481 183.928C200.481 183.928 201.982 196.113 198.584 202.612C195.399 208.704 192.381 214.289 185.509 214.395C179.001 214.496 175.681 209.786 172.311 204.218C168.192 197.413 170.538 183.928 170.538 183.928C170.538 183.928 173.865 181.093 174.865 178.609C176.128 175.472 174.865 169.95 174.865 169.95Z" fill="#FC8F7D"/>
<path d="M214.461 152.489C222.009 138.334 217.044 124.91 213.618 119.968C211.866 118.619 210.754 119.406 210.417 119.968C217.325 143.221 214.461 136.818 209.574 153.5C205.665 166.846 211.203 173.664 214.461 175.406C211.315 173.664 206.912 166.643 214.461 152.489Z" fill="#6D3E3E"/>
<path d="M153.037 164.03C143.766 146.647 149.864 130.161 154.071 124.091C156.223 122.436 157.589 123.402 158.003 124.091C149.519 152.648 153.037 144.785 159.038 165.272C163.838 181.661 157.037 190.035 153.037 192.173C156.899 190.035 162.307 181.413 153.037 164.03Z" fill="#6D3E3E"/>
<path d="M217.753 133.164C217.753 155.346 203.511 180.214 185.943 180.214C168.375 180.214 154.133 155.346 154.133 133.164C154.133 110.982 168.375 93 185.943 93C203.511 93 217.753 110.982 217.753 133.164Z" fill="url(#paint0_linear)"/>
<path d="M157.037 152.489C149.488 138.334 154.453 124.91 157.879 119.968C159.632 118.619 160.744 119.406 161.081 119.968C154.172 143.221 157.037 136.818 161.923 153.5C165.833 166.846 160.294 173.664 157.037 175.406C160.182 173.664 164.586 166.643 157.037 152.489Z" fill="#6D3E3E"/>
<path d="M207.723 161.606C220.958 147.014 219.072 129.538 216.474 122.624C214.792 120.493 213.232 121.096 212.662 121.664C213.914 151.428 212.423 142.944 201.6 161.344C192.942 176.065 197.491 185.846 200.849 188.897C197.625 185.88 194.487 176.198 207.723 161.606Z" fill="#6D3E3E"/>
<path d="M170.039 145.787C171.642 148.094 175.88 151.323 180.005 145.787" stroke="#6D3E3E" stroke-width="0.5" stroke-linecap="round"/>
<path d="M183.393 165.187C185.368 166.084 190.018 166.72 192.821 162.091" stroke="#6D3E3E" stroke-width="0.5" stroke-linecap="round"/>
<path d="M192.117 145.787C193.645 148.094 197.681 151.323 201.611 145.787" stroke="#6D3E3E" stroke-width="0.5" stroke-linecap="round"/>
<ellipse cx="176.349" cy="85.0196" rx="17.9702" ry="20.2071" fill="#602F2F"/>
<path d="M164.97 90.1272C149.825 95.2457 152.307 119.793 153.896 129.798C166.334 132.546 170.118 123.883 174.264 118.821C189.854 131.694 210.657 131.244 217.498 129.798C217.498 107.016 209.3 94.1048 202.045 88.8615C194.789 83.6181 175.684 74.9987 164.97 90.1272Z" fill="#6D3E3E"/>
<path d="M118.493 268.021C120.785 248.309 126.706 230.49 138.764 193.822C139.908 190.344 149.144 187.435 151.256 190.344C153.133 192.928 152.492 200.458 151.256 207.335C150.542 211.311 149.599 217.151 147.431 221.328C140.168 235.317 132.475 268.021 132.475 268.021C132.475 268.021 144.359 323.295 150.752 337.414H138.764C130.95 324.183 123.307 282.232 118.493 268.021Z" fill="url(#paint1_linear)"/>
<path fill-rule="evenodd" clip-rule="evenodd" d="M217.43 186.868C220.806 187.808 224.153 188.741 227.153 189.538C220.181 196.801 221.759 213.004 221.759 213.004C221.759 213.004 230.837 235.913 228.34 246.232C226.857 252.359 222.933 259.682 222.933 259.682C222.933 259.682 222.934 291.09 224.366 306.802C225.234 316.323 230.352 330.539 230.352 330.539C230.352 330.539 240.123 347.559 237.341 358.442H185.732V208.896C185.732 208.896 199.647 208.042 198.739 182.021C203.136 182.884 210.346 184.893 217.43 186.868ZM154.035 186.868C150.659 187.809 147.312 188.741 144.312 189.538C151.284 196.801 149.706 213.004 149.706 213.004C149.706 213.004 140.628 235.913 143.125 246.233C144.607 252.359 148.532 259.682 148.532 259.682C148.532 259.682 148.531 291.09 147.099 306.802C146.231 316.323 141.112 330.539 141.112 330.539C141.112 330.539 131.342 347.559 134.123 358.443H185.732V208.897C185.732 208.897 171.818 208.042 172.726 182.021C168.329 182.884 161.119 184.894 154.035 186.868Z" fill="url(#paint2_linear)"/>
<path d="M254.033 270.841C251.207 251.158 244.758 230.49 232.7 193.822C231.556 190.344 222.321 187.435 220.208 190.344C218.332 192.928 218.973 200.458 220.208 207.335C220.923 211.311 221.865 217.151 224.033 221.328C231.296 235.317 238.962 270.841 238.962 270.841C238.962 270.841 227.106 323.295 220.712 337.414H232.7C240.515 324.183 252.695 276.245 254.033 270.841Z" fill="url(#paint3_linear)"/>
<rect x="78.2192" y="55.9551" width="20.0712" height="20.0712" stroke="#576BDF" stroke-opacity="0.5" stroke-width="3"/>
<rect x="271.971" y="127.75" width="20.0712" height="20.0712" stroke="#576BDF" stroke-opacity="0.3" stroke-width="3"/>
<circle cx="38.7415" cy="156.446" r="9.87085" stroke="#576BDF" stroke-opacity="0.3" stroke-width="3"/>
<circle opacity="0.1" cx="76.7193" cy="211.576" r="9.87085" stroke="#576BDF" stroke-width="3"/>
<circle cx="268.113" cy="66.155" r="9.87085" stroke="#576BDF" stroke-opacity="0.5" stroke-width="3"/>
<circle opacity="0.1" cx="327.581" cy="220.111" r="9.87085" stroke="#576BDF" stroke-width="3"/>
<path d="M2.24782 227.39L16.8035 212.834" stroke="#576BDF" stroke-opacity="0.2" stroke-width="3" stroke-linecap="round"/>
<path d="M16.8035 227.389L2.24782 212.833" stroke="#576BDF" stroke-opacity="0.2" stroke-width="3" stroke-linecap="round"/>
<path d="M85.2349 135.892L99.7906 121.336" stroke="#576BDF" stroke-opacity="0.3" stroke-width="3" stroke-linecap="round"/>
<path d="M99.7906 135.891L85.2349 121.335" stroke="#576BDF" stroke-opacity="0.3" stroke-width="3" stroke-linecap="round"/>
<path d="M249.465 200.206L264.02 185.65" stroke="#576BDF" stroke-opacity="0.2" stroke-width="3" stroke-linecap="round"/>
<path d="M264.02 200.205L249.465 185.649" stroke="#576BDF" stroke-opacity="0.2" stroke-width="3" stroke-linecap="round"/>
<path d="M356.421 184.945L370.976 170.389" stroke="#576BDF" stroke-opacity="0.3" stroke-width="3" stroke-linecap="round"/>
<path d="M370.976 184.944L356.42 170.389" stroke="#576BDF" stroke-opacity="0.3" stroke-width="3" stroke-linecap="round"/>
<path d="M171.827 41.4042L186.382 26.8486" stroke="#576BDF" stroke-opacity="0.1" stroke-width="3" stroke-linecap="round"/>
<path d="M186.382 41.4042L171.827 26.8486" stroke="#576BDF" stroke-opacity="0.1" stroke-width="3" stroke-linecap="round"/>
<path d="M116.321 283.208C116.192 280.914 118.017 278.982 120.315 278.982H251.969C254.286 278.982 256.119 280.945 255.959 283.257L250.503 362.463C250.358 364.56 248.614 366.188 246.512 366.188H124.781C122.659 366.188 120.906 364.531 120.787 362.413L116.321 283.208Z" fill="url(#paint4_linear)"/>
<circle cx="186.439" cy="322.585" r="11.3769" fill="#EEEEEE"/>
<path d="M170.701 373.11C172.898 371.742 177.098 372.158 178.923 372.537C189.635 373.813 188.32 388.745 181.678 390.219C175.036 391.694 174.086 385.461 153.578 382.462C133.07 379.462 107.948 364.566 108.202 363.368C108.456 362.17 121.006 362.762 126.84 364.211C132.674 365.659 138.21 369.787 154.74 367.454C167.965 365.588 170.248 369.038 170.701 373.11Z" fill="#F2D5D7"/>
<path d="M304.635 345.862C285.936 336.392 243.219 356.155 229.465 360.12C226.41 361.102 195.397 369.287 179.468 372.498C188.671 380.876 183.517 386.249 180.708 390.286C197.082 395.158 297.905 396.69 311.491 386.723C325.078 376.757 323.334 355.332 304.635 345.862Z" fill="#4D4D4D"/>
<path d="M62.3152 349.726C80.3104 338.979 124.299 355.724 138.295 358.724C141.41 359.491 172.917 365.499 189.031 367.596C180.433 376.593 185.949 381.595 189.031 385.427C173.035 391.425 72.5625 399.963 58.3164 390.965C44.0702 381.967 44.3201 360.473 62.3152 349.726Z" fill="#4C4C4C"/>
<path d="M197.82 367.596C195.533 366.385 191.372 367.091 189.578 367.596C178.981 369.614 181.33 384.418 188.058 385.427C194.787 386.436 195.301 380.153 215.551 375.735C235.801 371.317 259.827 354.71 259.49 353.532C259.154 352.355 246.675 353.819 240.956 355.669C235.237 357.519 230.001 362.022 213.349 360.844C200.026 359.902 197.988 363.503 197.82 367.596Z" fill="#FDB4B9"/>
<g filter="url(#filter0_f)">
<ellipse cx="181.258" cy="442.14" rx="121.715" ry="7.65674" fill="#C4C4C4" fill-opacity="0.3"/>
</g>
<defs>
<filter id="filter0_f" x="55.5429" y="430.483" width="251.43" height="23.3135" filterUnits="userSpaceOnUse" color-interpolation-filters="sRGB">
<feFlood flood-opacity="0" result="BackgroundImageFix"/>
<feBlend mode="normal" in="SourceGraphic" in2="BackgroundImageFix" result="shape"/>
<feGaussianBlur stdDeviation="2" result="effect1_foregroundBlur"/>
</filter>
<linearGradient id="paint0_linear" x1="185.943" y1="93" x2="185.943" y2="180.214" gradientUnits="userSpaceOnUse">
<stop stop-color="#FC8E7C"/>
<stop offset="1" stop-color="#FDB4B9"/>
</linearGradient>
<linearGradient id="paint1_linear" x1="123.313" y1="322.848" x2="125.123" y2="185.604" gradientUnits="userSpaceOnUse">
<stop stop-color="#FDB4CD"/>
<stop offset="1" stop-color="#FC8A74"/>
</linearGradient>
<linearGradient id="paint2_linear" x1="185.732" y1="182.021" x2="185.732" y2="358.442" gradientUnits="userSpaceOnUse">
<stop stop-color="#2898FF"/>
<stop offset="1" stop-color="#B18EEA"/>
</linearGradient>
<linearGradient id="paint3_linear" x1="239.328" y1="189.153" x2="239.328" y2="337.414" gradientUnits="userSpaceOnUse">
<stop stop-color="#FC8C79"/>
<stop offset="1" stop-color="#FFD0DA"/>
</linearGradient>
<linearGradient id="paint4_linear" x1="186.168" y1="278.982" x2="186.168" y2="366.188" gradientUnits="userSpaceOnUse">
<stop stop-color="white"/>
<stop offset="1" stop-color="#C4C4C4"/>
</linearGradient>
</defs>
</svg>
