<svg width="1440" height="873" viewBox="0 0 1440 873" fill="none" xmlns="http://www.w3.org/2000/svg">
<path fill-rule="evenodd" clip-rule="evenodd" d="M19.4018 401.121C68.918 401.121 109.059 360.98 109.059 311.464C109.059 261.947 68.918 221.807 19.4018 221.807C-30.1144 221.807 -70.2552 261.947 -70.2552 311.464C-70.2552 360.98 -30.1144 401.121 19.4018 401.121ZM19.4018 366.506C49.801 366.506 74.4444 341.863 74.4444 311.464C74.4444 281.064 49.801 256.421 19.4018 256.421C-10.9974 256.421 -35.6408 281.064 -35.6408 311.464C-35.6408 341.863 -10.9974 366.506 19.4018 366.506Z" fill="#2898FF" fill-opacity="0.1"/>
<path fill-rule="evenodd" clip-rule="evenodd" d="M889.551 125.975C908.986 125.975 924.742 110.22 924.742 90.7844C924.742 71.3491 908.986 55.5938 889.551 55.5938C870.116 55.5938 854.36 71.3491 854.36 90.7844C854.36 110.22 870.116 125.975 889.551 125.975ZM889.551 112.389C901.483 112.389 911.155 102.716 911.155 90.7844C911.155 78.8526 901.483 69.18 889.551 69.18C877.619 69.18 867.946 78.8526 867.946 90.7844C867.946 102.716 877.619 112.389 889.551 112.389Z" fill="#2898FF" fill-opacity="0.1"/>
<path fill-rule="evenodd" clip-rule="evenodd" d="M532.141 872.4C551.576 872.4 567.332 856.645 567.332 837.21C567.332 817.774 551.576 802.019 532.141 802.019C512.706 802.019 496.951 817.774 496.951 837.21C496.951 856.645 512.706 872.4 532.141 872.4ZM532.141 858.814C544.073 858.814 553.746 849.141 553.746 837.21C553.746 825.278 544.073 815.605 532.141 815.605C520.209 815.605 510.537 825.278 510.537 837.21C510.537 849.141 520.209 858.814 532.141 858.814Z" fill="#2898FF" fill-opacity="0.1"/>
<path fill-rule="evenodd" clip-rule="evenodd" d="M1397.35 265.009C1470.25 265.009 1529.36 205.905 1529.36 132.998C1529.36 60.0898 1470.25 0.986328 1397.35 0.986328C1324.44 0.986328 1265.33 60.0898 1265.33 132.998C1265.33 205.905 1324.44 265.009 1397.35 265.009ZM1397.35 214.042C1442.11 214.042 1478.39 177.757 1478.39 132.998C1478.39 88.2377 1442.11 51.9526 1397.35 51.9526C1352.59 51.9526 1316.3 88.2377 1316.3 132.998C1316.3 177.757 1352.59 214.042 1397.35 214.042Z" fill="#2898FF" fill-opacity="0.1"/>
</svg>
