<svg width="49" height="49" viewBox="0 0 49 49" fill="none" xmlns="http://www.w3.org/2000/svg">
<path fill-rule="evenodd" clip-rule="evenodd" d="M24.4752 48.1836C37.73 48.1836 48.4752 37.4384 48.4752 24.1836C48.4752 10.9288 37.73 0.183594 24.4752 0.183594C11.2204 0.183594 0.475189 10.9288 0.475189 24.1836C0.475189 37.4384 11.2204 48.1836 24.4752 48.1836ZM24.4752 42.009C34.3198 42.009 42.3005 34.0283 42.3005 24.1837C42.3005 14.339 34.3198 6.3584 24.4752 6.3584C14.6306 6.3584 6.6499 14.339 6.6499 24.1837C6.6499 34.0283 14.6306 42.009 24.4752 42.009Z" fill="#2898FF"/>
<circle cx="18.498" cy="19.0633" r="2.21076" fill="#2898FF"/>
<circle cx="30.4525" cy="19.0633" r="2.21076" fill="#2898FF"/>
<path d="M18.9073 29.9534C20.9271 31.6456 25.9818 34.0146 30.043 29.9534" stroke="#2898FF"/>
</svg>
