<svg width="1391" height="315" viewBox="0 0 1391 315" fill="none" xmlns="http://www.w3.org/2000/svg">
<path fill-rule="evenodd" clip-rule="evenodd" d="M120.984 314.64C193.892 314.64 252.995 255.536 252.995 182.628C252.995 109.721 193.892 50.6172 120.984 50.6172C48.0763 50.6172 -11.0272 109.721 -11.0272 182.628C-11.0272 255.536 48.0763 314.64 120.984 314.64ZM120.984 263.673C165.744 263.673 202.029 227.388 202.029 182.628C202.029 137.869 165.744 101.583 120.984 101.583C76.2242 101.583 39.9392 137.869 39.9392 182.628C39.9392 227.388 76.2242 263.673 120.984 263.673Z" fill="white" fill-opacity="0.1"/>
<path fill-rule="evenodd" clip-rule="evenodd" d="M1321.15 138.186C1359.27 138.186 1390.17 107.282 1390.17 69.1593C1390.17 31.037 1359.27 0.132812 1321.15 0.132812C1283.02 0.132812 1252.12 31.037 1252.12 69.1593C1252.12 107.282 1283.02 138.186 1321.15 138.186ZM1321.15 111.537C1344.55 111.537 1363.52 92.5637 1363.52 69.1595C1363.52 45.7553 1344.55 26.7824 1321.15 26.7824C1297.74 26.7824 1278.77 45.7553 1278.77 69.1595C1278.77 92.5637 1297.74 111.537 1321.15 111.537Z" fill="white" fill-opacity="0.1"/>
<path fill-rule="evenodd" clip-rule="evenodd" d="M705.178 170.519C717.513 170.519 727.512 160.52 727.512 148.186C727.512 135.852 717.513 125.853 705.178 125.853C692.844 125.853 682.845 135.852 682.845 148.186C682.845 160.52 692.844 170.519 705.178 170.519ZM705.178 161.897C712.751 161.897 718.889 155.758 718.889 148.186C718.889 140.614 712.751 134.475 705.178 134.475C697.606 134.475 691.467 140.614 691.467 148.186C691.467 155.758 697.606 161.897 705.178 161.897Z" fill="white" fill-opacity="0.1"/>
</svg>
