<svg width="1440" height="403" viewBox="0 0 1440 403" fill="none" xmlns="http://www.w3.org/2000/svg">
<path fill-rule="evenodd" clip-rule="evenodd" d="M49.9176 264.238C122.825 264.238 181.929 205.135 181.929 132.227C181.929 59.3193 122.825 0.21582 49.9176 0.21582C-22.9902 0.21582 -82.0937 59.3193 -82.0937 132.227C-82.0937 205.135 -22.9902 264.238 49.9176 264.238ZM49.9176 213.272C94.6774 213.272 130.962 176.987 130.962 132.227C130.962 87.4672 94.6774 51.1821 49.9176 51.1821C5.15771 51.1821 -31.1273 87.4672 -31.1273 132.227C-31.1273 176.987 5.15771 213.272 49.9176 213.272Z" fill="white" fill-opacity="0.1"/>
<path fill-rule="evenodd" clip-rule="evenodd" d="M1254 402.724C1292.13 402.724 1323.03 371.82 1323.03 333.698C1323.03 295.576 1292.13 264.671 1254 264.671C1215.88 264.671 1184.98 295.576 1184.98 333.698C1184.98 371.82 1215.88 402.724 1254 402.724ZM1254 376.075C1277.41 376.075 1296.38 357.102 1296.38 333.698C1296.38 310.294 1277.41 291.321 1254 291.321C1230.6 291.321 1211.63 310.294 1211.63 333.698C1211.63 357.102 1230.6 376.075 1254 376.075Z" fill="white" fill-opacity="0.1"/>
<circle cx="1140.11" cy="101.473" r="1.27467" fill="white"/>
<circle cx="1140.11" cy="139.932" r="1.27467" fill="white"/>
<circle cx="1140.11" cy="120.703" r="1.27467" fill="white"/>
<circle cx="1140.11" cy="159.162" r="1.27467" fill="white"/>
<circle cx="1140.11" cy="110.24" r="1.27467" fill="white"/>
<circle cx="1140.11" cy="148.699" r="1.27467" fill="white"/>
<circle cx="1140.11" cy="129.469" r="1.27467" fill="white"/>
<circle cx="1140.11" cy="167.929" r="1.27467" fill="white"/>
<circle cx="1294.23" cy="101.473" r="1.27467" fill="white"/>
<circle cx="1294.23" cy="139.932" r="1.27467" fill="white"/>
<circle cx="1294.23" cy="120.703" r="1.27467" fill="white"/>
<circle cx="1294.23" cy="159.162" r="1.27467" fill="white"/>
<circle cx="1294.23" cy="110.24" r="1.27467" fill="white"/>
<circle cx="1294.23" cy="148.699" r="1.27467" fill="white"/>
<circle cx="1294.23" cy="129.469" r="1.27467" fill="white"/>
<circle cx="1294.23" cy="167.929" r="1.27467" fill="white"/>
<circle cx="1217.17" cy="101.473" r="1.27467" fill="white"/>
<circle cx="1217.17" cy="139.932" r="1.27467" fill="white"/>
<circle cx="1217.17" cy="120.703" r="1.27467" fill="white"/>
<circle cx="1217.17" cy="159.162" r="1.27467" fill="white"/>
<circle cx="1217.17" cy="110.24" r="1.27467" fill="white"/>
<circle cx="1217.17" cy="148.699" r="1.27467" fill="white"/>
<circle cx="1217.17" cy="129.469" r="1.27467" fill="white"/>
<circle cx="1217.17" cy="167.929" r="1.27467" fill="white"/>
<circle cx="1371.3" cy="101.473" r="1.27467" fill="white"/>
<circle cx="1371.3" cy="139.932" r="1.27467" fill="white"/>
<circle cx="1371.3" cy="120.703" r="1.27467" fill="white"/>
<circle cx="1371.3" cy="159.162" r="1.27467" fill="white"/>
<circle cx="1371.3" cy="110.24" r="1.27467" fill="white"/>
<circle cx="1371.3" cy="148.699" r="1.27467" fill="white"/>
<circle cx="1371.3" cy="129.469" r="1.27467" fill="white"/>
<circle cx="1371.3" cy="167.929" r="1.27467" fill="white"/>
<circle cx="1178.64" cy="101.473" r="1.27467" fill="white"/>
<circle cx="1178.64" cy="139.932" r="1.27467" fill="white"/>
<circle cx="1178.64" cy="120.703" r="1.27467" fill="white"/>
<circle cx="1178.64" cy="159.162" r="1.27467" fill="white"/>
<circle cx="1178.64" cy="110.24" r="1.27467" fill="white"/>
<circle cx="1178.64" cy="148.699" r="1.27467" fill="white"/>
<circle cx="1178.64" cy="129.469" r="1.27467" fill="white"/>
<circle cx="1178.64" cy="167.929" r="1.27467" fill="white"/>
<circle cx="1332.76" cy="101.473" r="1.27467" fill="white"/>
<circle cx="1332.76" cy="139.932" r="1.27467" fill="white"/>
<circle cx="1332.76" cy="120.703" r="1.27467" fill="white"/>
<circle cx="1332.76" cy="159.162" r="1.27467" fill="white"/>
<circle cx="1332.76" cy="110.24" r="1.27467" fill="white"/>
<circle cx="1332.76" cy="148.699" r="1.27467" fill="white"/>
<circle cx="1332.76" cy="129.469" r="1.27467" fill="white"/>
<circle cx="1332.76" cy="167.929" r="1.27467" fill="white"/>
<circle cx="1255.7" cy="101.473" r="1.27467" fill="white"/>
<circle cx="1255.7" cy="139.932" r="1.27467" fill="white"/>
<circle cx="1255.7" cy="120.703" r="1.27467" fill="white"/>
<circle cx="1255.7" cy="159.162" r="1.27467" fill="white"/>
<circle cx="1255.7" cy="110.24" r="1.27467" fill="white"/>
<circle cx="1255.7" cy="148.699" r="1.27467" fill="white"/>
<circle cx="1255.7" cy="129.469" r="1.27467" fill="white"/>
<circle cx="1255.7" cy="167.929" r="1.27467" fill="white"/>
<circle cx="1409.83" cy="101.473" r="1.27467" fill="white"/>
<circle cx="1409.83" cy="139.932" r="1.27467" fill="white"/>
<circle cx="1409.83" cy="120.703" r="1.27467" fill="white"/>
<circle cx="1409.83" cy="159.162" r="1.27467" fill="white"/>
<circle cx="1409.83" cy="110.24" r="1.27467" fill="white"/>
<circle cx="1409.83" cy="148.699" r="1.27467" fill="white"/>
<circle cx="1409.83" cy="129.469" r="1.27467" fill="white"/>
<circle cx="1409.83" cy="167.929" r="1.27467" fill="white"/>
<circle cx="1159.37" cy="101.473" r="1.27467" fill="white"/>
<circle cx="1159.37" cy="139.932" r="1.27467" fill="white"/>
<circle cx="1159.37" cy="120.703" r="1.27467" fill="white"/>
<circle cx="1159.37" cy="159.162" r="1.27467" fill="white"/>
<circle cx="1159.37" cy="110.24" r="1.27467" fill="white"/>
<circle cx="1159.37" cy="148.699" r="1.27467" fill="white"/>
<circle cx="1159.37" cy="129.469" r="1.27467" fill="white"/>
<circle cx="1159.37" cy="167.929" r="1.27467" fill="white"/>
<circle cx="1313.5" cy="101.473" r="1.27467" fill="white"/>
<circle cx="1313.5" cy="139.932" r="1.27467" fill="white"/>
<circle cx="1313.5" cy="120.703" r="1.27467" fill="white"/>
<circle cx="1313.5" cy="159.162" r="1.27467" fill="white"/>
<circle cx="1313.5" cy="110.24" r="1.27467" fill="white"/>
<circle cx="1313.5" cy="148.699" r="1.27467" fill="white"/>
<circle cx="1313.5" cy="129.469" r="1.27467" fill="white"/>
<circle cx="1313.5" cy="167.929" r="1.27467" fill="white"/>
<circle cx="1236.44" cy="101.473" r="1.27467" fill="white"/>
<circle cx="1236.44" cy="139.932" r="1.27467" fill="white"/>
<circle cx="1236.44" cy="120.703" r="1.27467" fill="white"/>
<circle cx="1236.44" cy="159.162" r="1.27467" fill="white"/>
<circle cx="1236.44" cy="110.24" r="1.27467" fill="white"/>
<circle cx="1236.44" cy="148.699" r="1.27467" fill="white"/>
<circle cx="1236.44" cy="129.469" r="1.27467" fill="white"/>
<circle cx="1236.44" cy="167.929" r="1.27467" fill="white"/>
<circle cx="1390.56" cy="101.473" r="1.27467" fill="white"/>
<circle cx="1390.56" cy="139.932" r="1.27467" fill="white"/>
<circle cx="1390.56" cy="120.703" r="1.27467" fill="white"/>
<circle cx="1390.56" cy="159.162" r="1.27467" fill="white"/>
<circle cx="1390.56" cy="110.24" r="1.27467" fill="white"/>
<circle cx="1390.56" cy="148.699" r="1.27467" fill="white"/>
<circle cx="1390.56" cy="129.469" r="1.27467" fill="white"/>
<circle cx="1390.56" cy="167.929" r="1.27467" fill="white"/>
<circle cx="1197.9" cy="101.473" r="1.27467" fill="white"/>
<circle cx="1197.9" cy="139.932" r="1.27467" fill="white"/>
<circle cx="1197.9" cy="120.703" r="1.27467" fill="white"/>
<circle cx="1197.9" cy="159.162" r="1.27467" fill="white"/>
<circle cx="1197.9" cy="110.24" r="1.27467" fill="white"/>
<circle cx="1197.9" cy="148.699" r="1.27467" fill="white"/>
<circle cx="1197.9" cy="129.469" r="1.27467" fill="white"/>
<circle cx="1197.9" cy="167.929" r="1.27467" fill="white"/>
<circle cx="1352.03" cy="101.473" r="1.27467" fill="white"/>
<circle cx="1352.03" cy="139.932" r="1.27467" fill="white"/>
<circle cx="1352.03" cy="120.703" r="1.27467" fill="white"/>
<circle cx="1352.03" cy="159.162" r="1.27467" fill="white"/>
<circle cx="1352.03" cy="110.24" r="1.27467" fill="white"/>
<circle cx="1352.03" cy="148.699" r="1.27467" fill="white"/>
<circle cx="1352.03" cy="129.469" r="1.27467" fill="white"/>
<circle cx="1352.03" cy="167.929" r="1.27467" fill="white"/>
<circle cx="1274.97" cy="101.473" r="1.27467" fill="white"/>
<circle cx="1274.97" cy="139.932" r="1.27467" fill="white"/>
<circle cx="1274.97" cy="120.703" r="1.27467" fill="white"/>
<circle cx="1274.97" cy="159.162" r="1.27467" fill="white"/>
<circle cx="1274.97" cy="110.24" r="1.27467" fill="white"/>
<circle cx="1274.97" cy="148.699" r="1.27467" fill="white"/>
<circle cx="1274.97" cy="129.469" r="1.27467" fill="white"/>
<circle cx="1274.97" cy="167.929" r="1.27467" fill="white"/>
<circle cx="1429.09" cy="101.473" r="1.27467" fill="white"/>
<circle cx="1429.09" cy="139.932" r="1.27467" fill="white"/>
<circle cx="1429.09" cy="120.703" r="1.27467" fill="white"/>
<circle cx="1429.09" cy="159.162" r="1.27467" fill="white"/>
<circle cx="1429.09" cy="110.24" r="1.27467" fill="white"/>
<circle cx="1429.09" cy="148.699" r="1.27467" fill="white"/>
<circle cx="1429.09" cy="129.469" r="1.27467" fill="white"/>
<circle cx="1429.09" cy="167.929" r="1.27467" fill="white"/>
<circle cx="1149.74" cy="101.473" r="1.27467" fill="white"/>
<circle cx="1149.74" cy="139.932" r="1.27467" fill="white"/>
<circle cx="1149.74" cy="120.703" r="1.27467" fill="white"/>
<circle cx="1149.74" cy="159.162" r="1.27467" fill="white"/>
<circle cx="1149.74" cy="110.24" r="1.27467" fill="white"/>
<circle cx="1149.74" cy="148.699" r="1.27467" fill="white"/>
<circle cx="1149.74" cy="129.469" r="1.27467" fill="white"/>
<circle cx="1149.74" cy="167.929" r="1.27467" fill="white"/>
<circle cx="1303.87" cy="101.473" r="1.27467" fill="white"/>
<circle cx="1303.87" cy="139.932" r="1.27467" fill="white"/>
<circle cx="1303.87" cy="120.703" r="1.27467" fill="white"/>
<circle cx="1303.87" cy="159.162" r="1.27467" fill="white"/>
<circle cx="1303.87" cy="110.24" r="1.27467" fill="white"/>
<circle cx="1303.87" cy="148.699" r="1.27467" fill="white"/>
<circle cx="1303.87" cy="129.469" r="1.27467" fill="white"/>
<circle cx="1303.87" cy="167.929" r="1.27467" fill="white"/>
<circle cx="1226.8" cy="101.473" r="1.27467" fill="white"/>
<circle cx="1226.8" cy="139.932" r="1.27467" fill="white"/>
<circle cx="1226.8" cy="120.703" r="1.27467" fill="white"/>
<circle cx="1226.8" cy="159.162" r="1.27467" fill="white"/>
<circle cx="1226.8" cy="110.24" r="1.27467" fill="white"/>
<circle cx="1226.8" cy="148.699" r="1.27467" fill="white"/>
<circle cx="1226.8" cy="129.469" r="1.27467" fill="white"/>
<circle cx="1226.8" cy="167.929" r="1.27467" fill="white"/>
<circle cx="1380.93" cy="101.473" r="1.27467" fill="white"/>
<circle cx="1380.93" cy="139.932" r="1.27467" fill="white"/>
<circle cx="1380.93" cy="120.703" r="1.27467" fill="white"/>
<circle cx="1380.93" cy="159.162" r="1.27467" fill="white"/>
<circle cx="1380.93" cy="110.24" r="1.27467" fill="white"/>
<circle cx="1380.93" cy="148.699" r="1.27467" fill="white"/>
<circle cx="1380.93" cy="129.469" r="1.27467" fill="white"/>
<circle cx="1380.93" cy="167.929" r="1.27467" fill="white"/>
<circle cx="1188.27" cy="101.473" r="1.27467" fill="white"/>
<circle cx="1188.27" cy="139.932" r="1.27467" fill="white"/>
<circle cx="1188.27" cy="120.703" r="1.27467" fill="white"/>
<circle cx="1188.27" cy="159.162" r="1.27467" fill="white"/>
<circle cx="1188.27" cy="110.24" r="1.27467" fill="white"/>
<circle cx="1188.27" cy="148.699" r="1.27467" fill="white"/>
<circle cx="1188.27" cy="129.469" r="1.27467" fill="white"/>
<circle cx="1188.27" cy="167.929" r="1.27467" fill="white"/>
<circle cx="1342.4" cy="101.473" r="1.27467" fill="white"/>
<circle cx="1342.4" cy="139.932" r="1.27467" fill="white"/>
<circle cx="1342.4" cy="120.703" r="1.27467" fill="white"/>
<circle cx="1342.4" cy="159.162" r="1.27467" fill="white"/>
<circle cx="1342.4" cy="110.24" r="1.27467" fill="white"/>
<circle cx="1342.4" cy="148.699" r="1.27467" fill="white"/>
<circle cx="1342.4" cy="129.469" r="1.27467" fill="white"/>
<circle cx="1342.4" cy="167.929" r="1.27467" fill="white"/>
<circle cx="1265.33" cy="101.473" r="1.27467" fill="white"/>
<circle cx="1265.33" cy="139.932" r="1.27467" fill="white"/>
<circle cx="1265.33" cy="120.703" r="1.27467" fill="white"/>
<circle cx="1265.33" cy="159.162" r="1.27467" fill="white"/>
<circle cx="1265.33" cy="110.24" r="1.27467" fill="white"/>
<circle cx="1265.33" cy="148.699" r="1.27467" fill="white"/>
<circle cx="1265.33" cy="129.469" r="1.27467" fill="white"/>
<circle cx="1265.33" cy="167.929" r="1.27467" fill="white"/>
<circle cx="1419.46" cy="101.473" r="1.27467" fill="white"/>
<circle cx="1419.46" cy="139.932" r="1.27467" fill="white"/>
<circle cx="1419.46" cy="120.703" r="1.27467" fill="white"/>
<circle cx="1419.46" cy="159.162" r="1.27467" fill="white"/>
<circle cx="1419.46" cy="110.24" r="1.27467" fill="white"/>
<circle cx="1419.46" cy="148.699" r="1.27467" fill="white"/>
<circle cx="1419.46" cy="129.469" r="1.27467" fill="white"/>
<circle cx="1419.46" cy="167.929" r="1.27467" fill="white"/>
<circle cx="1169.01" cy="101.473" r="1.27467" fill="white"/>
<circle cx="1169.01" cy="139.932" r="1.27467" fill="white"/>
<circle cx="1169.01" cy="120.703" r="1.27467" fill="white"/>
<circle cx="1169.01" cy="159.162" r="1.27467" fill="white"/>
<circle cx="1169.01" cy="110.24" r="1.27467" fill="white"/>
<circle cx="1169.01" cy="148.699" r="1.27467" fill="white"/>
<circle cx="1169.01" cy="129.469" r="1.27467" fill="white"/>
<circle cx="1169.01" cy="167.929" r="1.27467" fill="white"/>
<circle cx="1323.13" cy="101.473" r="1.27467" fill="white"/>
<circle cx="1323.13" cy="139.932" r="1.27467" fill="white"/>
<circle cx="1323.13" cy="120.703" r="1.27467" fill="white"/>
<circle cx="1323.13" cy="159.162" r="1.27467" fill="white"/>
<circle cx="1323.13" cy="110.24" r="1.27467" fill="white"/>
<circle cx="1323.13" cy="148.699" r="1.27467" fill="white"/>
<circle cx="1323.13" cy="129.469" r="1.27467" fill="white"/>
<circle cx="1323.13" cy="167.929" r="1.27467" fill="white"/>
<circle cx="1246.07" cy="101.473" r="1.27467" fill="white"/>
<circle cx="1246.07" cy="139.932" r="1.27467" fill="white"/>
<circle cx="1246.07" cy="120.703" r="1.27467" fill="white"/>
<circle cx="1246.07" cy="159.162" r="1.27467" fill="white"/>
<circle cx="1246.07" cy="110.24" r="1.27467" fill="white"/>
<circle cx="1246.07" cy="148.699" r="1.27467" fill="white"/>
<circle cx="1246.07" cy="129.469" r="1.27467" fill="white"/>
<circle cx="1246.07" cy="167.929" r="1.27467" fill="white"/>
<circle cx="1400.19" cy="101.473" r="1.27467" fill="white"/>
<circle cx="1400.19" cy="139.932" r="1.27467" fill="white"/>
<circle cx="1400.19" cy="120.703" r="1.27467" fill="white"/>
<circle cx="1400.19" cy="159.162" r="1.27467" fill="white"/>
<circle cx="1400.19" cy="110.24" r="1.27467" fill="white"/>
<circle cx="1400.19" cy="148.699" r="1.27467" fill="white"/>
<circle cx="1400.19" cy="129.469" r="1.27467" fill="white"/>
<circle cx="1400.19" cy="167.929" r="1.27467" fill="white"/>
<circle cx="1207.54" cy="101.473" r="1.27467" fill="white"/>
<circle cx="1207.54" cy="139.932" r="1.27467" fill="white"/>
<circle cx="1207.54" cy="120.703" r="1.27467" fill="white"/>
<circle cx="1207.54" cy="159.162" r="1.27467" fill="white"/>
<circle cx="1207.54" cy="110.24" r="1.27467" fill="white"/>
<circle cx="1207.54" cy="148.699" r="1.27467" fill="white"/>
<circle cx="1207.54" cy="129.469" r="1.27467" fill="white"/>
<circle cx="1207.54" cy="167.929" r="1.27467" fill="white"/>
<circle cx="1361.66" cy="101.473" r="1.27467" fill="white"/>
<circle cx="1361.66" cy="139.932" r="1.27467" fill="white"/>
<circle cx="1361.66" cy="120.703" r="1.27467" fill="white"/>
<circle cx="1361.66" cy="159.162" r="1.27467" fill="white"/>
<circle cx="1361.66" cy="110.24" r="1.27467" fill="white"/>
<circle cx="1361.66" cy="148.699" r="1.27467" fill="white"/>
<circle cx="1361.66" cy="129.469" r="1.27467" fill="white"/>
<circle cx="1361.66" cy="167.929" r="1.27467" fill="white"/>
<circle cx="1284.6" cy="101.473" r="1.27467" fill="white"/>
<circle cx="1284.6" cy="139.932" r="1.27467" fill="white"/>
<circle cx="1284.6" cy="120.703" r="1.27467" fill="white"/>
<circle cx="1284.6" cy="159.162" r="1.27467" fill="white"/>
<circle cx="1284.6" cy="110.24" r="1.27467" fill="white"/>
<circle cx="1284.6" cy="148.699" r="1.27467" fill="white"/>
<circle cx="1284.6" cy="129.469" r="1.27467" fill="white"/>
<circle cx="1284.6" cy="167.929" r="1.27467" fill="white"/>
<circle cx="1438.73" cy="101.473" r="1.27467" fill="white"/>
<circle cx="1438.73" cy="139.932" r="1.27467" fill="white"/>
<circle cx="1438.73" cy="120.703" r="1.27467" fill="white"/>
<circle cx="1438.73" cy="159.162" r="1.27467" fill="white"/>
<circle cx="1438.73" cy="110.24" r="1.27467" fill="white"/>
<circle cx="1438.73" cy="148.699" r="1.27467" fill="white"/>
<circle cx="1438.73" cy="129.469" r="1.27467" fill="white"/>
<circle cx="1438.73" cy="167.929" r="1.27467" fill="white"/>
</svg>
