<svg width="49" height="49" viewBox="0 0 49 49" fill="none" xmlns="http://www.w3.org/2000/svg">
<mask id="path-1-inside-1" fill="white">
<path fill-rule="evenodd" clip-rule="evenodd" d="M24.361 48.678C37.6158 48.678 48.361 37.9328 48.361 24.678C48.361 11.4231 37.6158 0.677979 24.361 0.677979C11.1061 0.677979 0.360962 11.4231 0.360962 24.678C0.360962 37.9328 11.1061 48.678 24.361 48.678ZM24.361 40.1445C32.903 40.1445 39.8276 33.2198 39.8276 24.6778C39.8276 16.1359 32.903 9.21122 24.361 9.21122C15.819 9.21122 8.89435 16.1359 8.89435 24.6778C8.89435 33.2198 15.819 40.1445 24.361 40.1445Z"/>
</mask>
<path d="M47.361 24.678C47.361 37.3805 37.0635 47.678 24.361 47.678V49.678C38.1681 49.678 49.361 38.4851 49.361 24.678H47.361ZM24.361 1.67798C37.0635 1.67798 47.361 11.9754 47.361 24.678H49.361C49.361 10.8709 38.1681 -0.322021 24.361 -0.322021V1.67798ZM1.36096 24.678C1.36096 11.9754 11.6584 1.67798 24.361 1.67798V-0.322021C10.5538 -0.322021 -0.639038 10.8709 -0.639038 24.678H1.36096ZM24.361 47.678C11.6584 47.678 1.36096 37.3805 1.36096 24.678H-0.639038C-0.639038 38.4851 10.5538 49.678 24.361 49.678V47.678ZM38.8276 24.6778C38.8276 32.6675 32.3507 39.1445 24.361 39.1445V41.1445C33.4552 41.1445 40.8276 33.7721 40.8276 24.6778H38.8276ZM24.361 10.2112C32.3507 10.2112 38.8276 16.6881 38.8276 24.6778H40.8276C40.8276 15.5836 33.4552 8.21122 24.361 8.21122V10.2112ZM9.89435 24.6778C9.89435 16.6881 16.3713 10.2112 24.361 10.2112V8.21122C15.2667 8.21122 7.89435 15.5836 7.89435 24.6778H9.89435ZM24.361 39.1445C16.3713 39.1445 9.89435 32.6675 9.89435 24.6778H7.89435C7.89435 33.7721 15.2667 41.1445 24.361 41.1445V39.1445Z" fill="#2898FF" mask="url(#path-1-inside-1)"/>
<mask id="mask0" mask-type="alpha" maskUnits="userSpaceOnUse" x="0" y="0" width="49" height="49">
<mask id="path-3-inside-2" mask-type="luminance" fill="white">
<path fill-rule="evenodd" clip-rule="evenodd" d="M24.361 48.678C37.6158 48.678 48.361 37.9328 48.361 24.678C48.361 11.4231 37.6158 0.677979 24.361 0.677979C11.1061 0.677979 0.360962 11.4231 0.360962 24.678C0.360962 37.9328 11.1061 48.678 24.361 48.678ZM24.361 40.1445C32.903 40.1445 39.8276 33.2198 39.8276 24.6778C39.8276 16.1359 32.903 9.21122 24.361 9.21122C15.819 9.21122 8.89435 16.1359 8.89435 24.6778C8.89435 33.2198 15.819 40.1445 24.361 40.1445Z"/>
</mask>
<path fill-rule="evenodd" clip-rule="evenodd" d="M24.361 48.678C37.6158 48.678 48.361 37.9328 48.361 24.678C48.361 11.4231 37.6158 0.677979 24.361 0.677979C11.1061 0.677979 0.360962 11.4231 0.360962 24.678C0.360962 37.9328 11.1061 48.678 24.361 48.678ZM24.361 40.1445C32.903 40.1445 39.8276 33.2198 39.8276 24.6778C39.8276 16.1359 32.903 9.21122 24.361 9.21122C15.819 9.21122 8.89435 16.1359 8.89435 24.6778C8.89435 33.2198 15.819 40.1445 24.361 40.1445Z" fill="#C4C4C4"/>
<path d="M47.361 24.678C47.361 37.3805 37.0635 47.678 24.361 47.678V49.678C38.1681 49.678 49.361 38.4851 49.361 24.678H47.361ZM24.361 1.67798C37.0635 1.67798 47.361 11.9754 47.361 24.678H49.361C49.361 10.8709 38.1681 -0.322021 24.361 -0.322021V1.67798ZM1.36096 24.678C1.36096 11.9754 11.6584 1.67798 24.361 1.67798V-0.322021C10.5538 -0.322021 -0.639038 10.8709 -0.639038 24.678H1.36096ZM24.361 47.678C11.6584 47.678 1.36096 37.3805 1.36096 24.678H-0.639038C-0.639038 38.4851 10.5538 49.678 24.361 49.678V47.678ZM38.8276 24.6778C38.8276 32.6675 32.3507 39.1445 24.361 39.1445V41.1445C33.4552 41.1445 40.8276 33.7721 40.8276 24.6778H38.8276ZM24.361 10.2112C32.3507 10.2112 38.8276 16.6881 38.8276 24.6778H40.8276C40.8276 15.5836 33.4552 8.21122 24.361 8.21122V10.2112ZM9.89435 24.6778C9.89435 16.6881 16.3713 10.2112 24.361 10.2112V8.21122C15.2667 8.21122 7.89435 15.5836 7.89435 24.6778H9.89435ZM24.361 39.1445C16.3713 39.1445 9.89435 32.6675 9.89435 24.6778H7.89435C7.89435 33.7721 15.2667 41.1445 24.361 41.1445V39.1445Z" fill="black" mask="url(#path-3-inside-2)"/>
</mask>
<g mask="url(#mask0)">
<rect x="0.361023" y="12.27" width="16.3933" height="51.4889" transform="rotate(-45 0.361023 12.27)" fill="#2898FF"/>
<rect width="16.3933" height="51.4889" transform="matrix(-0.707107 -0.707107 -0.707107 0.707107 48.361 12.27)" fill="#2898FF"/>
</g>
</svg>
