<svg width="356" height="316" viewBox="0 0 356 316" fill="none" xmlns="http://www.w3.org/2000/svg">
<path d="M91.7531 151.147C94.4642 169.344 109.357 203.97 147.241 196.897C194.595 188.055 172.627 158.091 157.269 158.824C132.021 160.029 135.448 216.557 158.548 235.799C176.62 250.853 207.623 244.974 218.666 239.42" stroke="black" stroke-dasharray="5 5"/>
<path d="M19.8344 28.5581L33.7514 51.4831L5.91762 51.4831L19.8344 28.5581Z" stroke="#2898FF"/>
<path d="M250.662 260.176L261.366 277.809L239.958 277.809L250.662 260.176Z" stroke="#2898FF"/>
<path d="M36.6892 301.871L55.2312 282.495L62.4351 309.38L36.6892 301.871Z" stroke="#2898FF"/>
<path d="M200.672 18.9612L214.934 4.05801L220.475 24.7369L200.672 18.9612Z" stroke="black"/>
<path d="M44.7231 53.34C54.4608 51.3688 74.7596 52.8301 78.0539 74.4443C82.1717 101.462 62.9552 95.3359 60.5352 86.9749C56.5569 73.2298 85.8977 64.4322 99.8735 73.1815C110.807 80.0261 113.457 97.732 112.643 104.689" stroke="black" stroke-dasharray="5 5"/>
<path d="M307.606 81.2179C307.606 95.2073 295.82 106.58 281.24 106.58C266.661 106.58 254.875 95.2073 254.875 81.2179C254.875 67.2286 266.661 55.8558 281.24 55.8558C295.82 55.8558 307.606 67.2286 307.606 81.2179Z" fill="white" stroke="black"/>
<path d="M274.023 129.063C274.023 139.481 265.244 147.959 254.374 147.959C243.504 147.959 234.725 139.481 234.725 129.063C234.725 118.644 243.504 110.166 254.374 110.166C265.244 110.166 274.023 118.644 274.023 129.063Z" fill="white" stroke="black"/>
<path d="M235.069 170.442C235.069 177.29 229.297 182.873 222.136 182.873C214.975 182.873 209.203 177.29 209.203 170.442C209.203 163.594 214.975 158.011 222.136 158.011C229.297 158.011 235.069 163.594 235.069 170.442Z" fill="white" stroke="black"/>
<path d="M268.65 170.442C268.65 177.29 262.878 182.873 255.717 182.873C248.557 182.873 242.785 177.29 242.785 170.442C242.785 163.594 248.557 158.011 255.717 158.011C262.878 158.011 268.65 163.594 268.65 170.442Z" fill="white" stroke="black"/>
<path d="M341.188 197.597C341.188 200.874 338.423 203.563 334.972 203.563C331.52 203.563 328.755 200.874 328.755 197.597C328.755 194.321 331.52 191.632 334.972 191.632C338.423 191.632 341.188 194.321 341.188 197.597Z" fill="white" stroke="black"/>
<path d="M321.038 170.442C321.038 177.29 315.266 182.873 308.105 182.873C300.945 182.873 295.173 177.29 295.173 170.442C295.173 163.594 300.945 158.011 308.105 158.011C315.266 158.011 321.038 163.594 321.038 170.442Z" fill="white" stroke="black"/>
<path d="M354.621 170.442C354.621 177.29 348.849 182.873 341.688 182.873C334.527 182.873 328.755 177.29 328.755 170.442C328.755 163.594 334.527 158.011 341.688 158.011C348.849 158.011 354.621 163.594 354.621 170.442Z" fill="white" stroke="black"/>
<path d="M272.508 105.14L264.449 112.899M291.986 105.14L300.046 112.899M255.046 147.813V157.511M240.27 141.994L222.807 158.804M308.777 147.813V157.511M321.538 144.58L336.314 158.804M338.329 183.373L336.314 191.778" stroke="black"/>
<path d="M327.755 129.063C327.755 139.481 318.976 147.959 308.106 147.959C297.235 147.959 288.456 139.481 288.456 129.063C288.456 118.644 297.235 110.166 308.106 110.166C318.976 110.166 327.755 118.644 327.755 129.063Z" fill="white" stroke="black"/>
<path d="M208.537 31.4128C208.604 36.7427 205.808 47.2973 194.085 46.8765C179.432 46.3505 184.58 36.8321 189.229 36.3909C196.871 35.6656 198.58 52.0107 192.573 58.5047C187.874 63.5851 178.276 63.2148 174.69 62.0916" stroke="black" stroke-dasharray="5 5"/>
<path d="M100.629 247.257C100.696 252.587 97.8997 263.141 86.177 262.721C71.5236 262.195 76.6711 252.676 81.3201 252.235C88.9628 251.51 90.6719 267.855 84.6648 274.349C79.9654 279.429 70.3673 279.059 66.7811 277.936" stroke="black" stroke-dasharray="5 5"/>
</svg>
