<svg width="316" height="317" viewBox="0 0 316 317" fill="none" xmlns="http://www.w3.org/2000/svg">
<path d="M78.9727 220.346C96.1423 226.956 133.611 231.064 146.128 194.616C161.775 149.055 124.876 153.4 117.944 167.125C106.548 189.687 157.422 214.567 185.551 203.951C207.556 195.647 217.721 165.773 218.332 153.428" stroke="black" stroke-dasharray="5 5"/>
<rect x="186.162" y="160.068" width="17.5714" height="26.6596" fill="white" stroke="black"/>
<rect x="214.02" y="146.238" width="17.5714" height="40.4894" fill="white" stroke="black"/>
<rect x="241.876" y="132.408" width="17.5714" height="54.3191" fill="white" stroke="black"/>
<rect x="269.734" y="118.578" width="17.5714" height="68.1489" fill="white" stroke="black"/>
<rect x="297.59" y="90.9187" width="17.5714" height="95.8085" fill="white" stroke="black"/>
<path d="M198.198 130.352L223.645 103.895L236.955 117.762L294.139 69.6629" stroke="black"/>
<path d="M315.162 64.1422C315.162 67.6125 311.827 70.5571 307.537 70.5571C303.247 70.5571 299.912 67.6125 299.912 64.1422C299.912 60.6719 303.247 57.7273 307.537 57.7273C311.827 57.7273 315.162 60.6719 315.162 64.1422Z" fill="white" stroke="black"/>
<path d="M19.8342 28.6614L33.7511 51.5865L5.91737 51.5865L19.8342 28.6614Z" stroke="#2898FF"/>
<path d="M250.662 260.279L261.366 277.912L239.958 277.912L250.662 260.279Z" stroke="#2898FF"/>
<path d="M36.689 301.974L55.2309 282.598L62.4348 309.483L36.689 301.974Z" stroke="#2898FF"/>
<path d="M200.672 19.0647L214.934 4.16152L220.474 24.8404L200.672 19.0647Z" stroke="black"/>
<path d="M44.7229 53.4435C54.4605 51.4723 74.7594 52.9335 78.0537 74.5478C82.1715 101.566 62.9549 95.4393 60.535 87.0784C56.5566 73.3333 85.8975 64.5357 99.8733 73.285C110.807 80.1295 113.457 97.8355 112.643 104.793" stroke="black" stroke-dasharray="5 5"/>
<path d="M208.537 31.5163C208.604 36.8463 205.808 47.4009 194.085 46.9801C179.432 46.4541 184.579 36.9356 189.228 36.4945C196.871 35.7692 198.58 52.1143 192.573 58.6083C187.874 63.6886 178.275 63.3184 174.689 62.1951" stroke="black" stroke-dasharray="5 5"/>
<path d="M100.629 247.36C100.696 252.69 97.8994 263.245 86.1767 262.824C71.5233 262.298 76.6708 252.78 81.3198 252.338C88.9626 251.613 90.6717 267.958 84.6646 274.452C79.9652 279.533 70.367 279.162 66.7808 278.039" stroke="black" stroke-dasharray="5 5"/>
</svg>
