<svg width="267" height="336" viewBox="0 0 267 336" fill="none" xmlns="http://www.w3.org/2000/svg">
<path d="M30.0478 274.095C42.2516 275.753 67.2921 272.649 69.8233 246.976C72.9873 214.884 49.6219 223.407 47.2236 233.416C43.2809 249.87 80.2577 258.229 96.943 246.976C109.996 238.172 112.009 217.144 110.503 209.008" stroke="black" stroke-dasharray="5 5"/>
<path d="M165.214 191.03C171.801 183.218 196.019 167.409 196.019 146.351C196.019 118.501 173.409 95.9236 145.519 95.9236C117.628 95.9236 95.0188 118.501 95.0188 146.351C95.0188 165.754 122.082 191.03 122.082 191.03C122.082 191.03 134.019 203.154 134.019 213.924H155.019C155.019 204.478 158.627 198.842 165.214 191.03Z" fill="white" stroke="black"/>
<rect x="134.019" y="212.924" width="21" height="24" fill="#C4C4C4"/>
<circle cx="144.019" cy="139.924" r="14.5" stroke="black"/>
<path d="M137.91 115.924L139.91 107.924H148.41L150.91 115.924C152.076 115.924 155.01 116.424 157.41 118.424" stroke="black"/>
<path d="M165.763 152.81L169.504 160.158L163.091 165.737L155.954 161.342C155.074 162.108 152.533 163.656 149.409 163.722" stroke="black"/>
<path d="M123.232 127.602L118.781 120.659L124.611 114.473L132.148 118.141C132.948 117.292 135.323 115.5 138.425 115.125" stroke="black"/>
<path d="M149.91 163.424L147.91 171.424H139.41L136.91 163.424C135.743 163.424 132.81 162.924 130.41 160.924" stroke="black"/>
<path d="M156.579 118.953L163.642 114.696L169.664 120.693L165.791 128.126C166.618 128.949 168.343 131.374 168.633 134.484" stroke="black"/>
<path d="M167.918 133.524L175.929 135.482L175.973 143.982L167.987 146.524C167.993 147.691 167.508 150.627 165.521 153.037" stroke="black"/>
<path d="M131.142 161.392L123.755 165.055L118.244 158.583L122.715 151.493C121.958 150.605 120.437 148.048 120.404 144.924" stroke="black"/>
<path d="M120.01 145.567L112.111 143.202L112.501 134.711L120.607 132.581C120.661 131.415 121.295 128.508 123.403 126.203" stroke="black"/>
<line x1="138.019" y1="239.424" x2="151.019" y2="239.424" stroke="black"/>
<line x1="129.019" y1="217.424" x2="161.019" y2="217.424" stroke="black"/>
<line x1="129.019" y1="232.424" x2="161.019" y2="232.424" stroke="black"/>
<line x1="129.019" y1="227.424" x2="161.019" y2="227.424" stroke="black"/>
<line x1="129.019" y1="222.424" x2="161.019" y2="222.424" stroke="black"/>
<path d="M147.624 84.9236C147.624 86.914 146.203 88.4236 144.571 88.4236C142.94 88.4236 141.519 86.914 141.519 84.9236C141.519 82.9332 142.94 81.4236 144.571 81.4236C146.203 81.4236 147.624 82.9332 147.624 84.9236Z" fill="#FFFDFD" stroke="black"/>
<path d="M194.519 64.9236C194.519 66.914 193.098 68.4236 191.466 68.4236C189.834 68.4236 188.414 66.914 188.414 64.9236C188.414 62.9332 189.834 61.4236 191.466 61.4236C193.098 61.4236 194.519 62.9332 194.519 64.9236Z" fill="#FFFDFD" stroke="black"/>
<path d="M147.624 64.9236C147.624 66.914 146.203 68.4236 144.571 68.4236C142.94 68.4236 141.519 66.914 141.519 64.9236C141.519 62.9332 142.94 61.4236 144.571 61.4236C146.203 61.4236 147.624 62.9332 147.624 64.9236Z" fill="#FFFDFD" stroke="black"/>
<path d="M144.927 81.3236V68.5236" stroke="black"/>
<path d="M148.124 64.9236H188.269" stroke="black"/>
<path d="M86.0188 140.318C88.0092 140.318 89.5188 141.739 89.5188 143.371C89.5188 145.003 88.0092 146.424 86.0188 146.424C84.0284 146.424 82.5188 145.003 82.5188 143.371C82.5188 141.739 84.0284 140.318 86.0188 140.318Z" fill="white" stroke="black"/>
<path d="M66.0188 93.4235C68.0092 93.4235 69.5188 94.8444 69.5188 96.4762C69.5188 98.108 68.0092 99.5288 66.0188 99.5288C64.0284 99.5288 62.5188 98.108 62.5188 96.4762C62.5188 94.8444 64.0284 93.4235 66.0188 93.4235Z" stroke="black"/>
<path d="M66.0188 140.318C68.0092 140.318 69.5188 141.739 69.5188 143.371C69.5188 145.003 68.0092 146.424 66.0188 146.424C64.0284 146.424 62.5188 145.003 62.5188 143.371C62.5188 141.739 64.0284 140.318 66.0188 140.318Z" stroke="black"/>
<path d="M82.4189 143.016H69.6189" stroke="black"/>
<path d="M66.0188 139.818V99.6736" stroke="black"/>
<path d="M205.019 146.529C203.028 146.529 201.519 145.108 201.519 143.476C201.519 141.844 203.028 140.424 205.019 140.424C207.009 140.424 208.519 141.844 208.519 143.476C208.519 145.108 207.009 146.529 205.019 146.529Z" fill="#FFFCFC" stroke="black"/>
<path d="M225.019 193.424C223.028 193.424 221.519 192.003 221.519 190.371C221.519 188.739 223.028 187.318 225.019 187.318C227.009 187.318 228.519 188.739 228.519 190.371C228.519 192.003 227.009 193.424 225.019 193.424Z" fill="#FFFCFC" stroke="black"/>
<path d="M225.019 146.529C223.028 146.529 221.519 145.108 221.519 143.476C221.519 141.844 223.028 140.424 225.019 140.424C227.009 140.424 228.519 141.844 228.519 143.476C228.519 145.108 227.009 146.529 225.019 146.529Z" fill="#FFFCFC" stroke="black"/>
<path d="M208.619 143.831H221.419" stroke="black"/>
<path d="M225.019 147.029V187.174" stroke="black"/>
<path d="M246.501 47.5839L232.584 70.509L260.418 70.509L246.501 47.5839Z" stroke="#2898FF"/>
<path d="M15.6736 279.202L4.96938 296.834L26.3777 296.834L15.6736 279.202Z" stroke="#2898FF"/>
<path d="M229.646 320.897L211.105 301.521L203.901 328.406L229.646 320.897Z" stroke="#2898FF"/>
<path d="M48.7125 18.947L34.451 4.04385L28.9101 24.7227L48.7125 18.947Z" stroke="black"/>
<path d="M45.1658 26.2215C45.0987 31.5515 47.895 42.1061 59.6177 41.6853C74.2711 41.1593 69.1236 31.6408 64.4746 31.1997C56.8318 30.4744 55.1228 46.8195 61.1299 53.3135C65.8292 58.3938 75.4274 58.0236 79.0136 56.9003" stroke="black" stroke-dasharray="5 5"/>
<path d="M165.707 266.283C165.64 271.613 168.436 282.167 180.159 281.746C194.812 281.22 189.665 271.702 185.016 271.261C177.373 270.536 175.664 286.881 181.671 293.375C186.37 298.455 195.968 298.085 199.555 296.961" stroke="black" stroke-dasharray="5 5"/>
</svg>
