<svg width="356" height="317" viewBox="0 0 356 317" fill="none" xmlns="http://www.w3.org/2000/svg">
<path d="M13.4757 175.205C26.7047 187.991 59.5998 206.394 85.3475 177.72C117.532 141.876 81.8628 131.479 70.1251 141.41C50.8287 157.737 87.9608 200.496 118.002 201.699C141.503 202.639 162.52 179.1 167.899 167.972" stroke="black" stroke-dasharray="5 5"/>
<rect x="0.763517" width="95.0169" height="95.0169" rx="2.5" transform="matrix(0.763517 -0.645788 0.763517 0.645788 195.56 168.599)" stroke="black"/>
<rect x="0.763517" width="95.0169" height="95.0169" rx="2.5" transform="matrix(0.763517 -0.645788 0.763517 0.645788 195.631 161.891)" fill="white" stroke="black"/>
<rect x="0.763517" width="95.0169" height="95.0169" rx="2.5" transform="matrix(0.763517 -0.645788 0.763517 0.645788 197.145 155.066)" fill="white" stroke="black"/>
<rect x="0.763517" width="95.0169" height="95.0169" rx="1.5" transform="matrix(0.763517 -0.645788 0.763517 0.645788 197.006 147.797)" fill="white" stroke="black"/>
<rect x="0.763517" width="95.0169" height="95.0169" rx="2.5" transform="matrix(0.763517 -0.645788 0.763517 0.645788 197.368 140.612)" fill="white" stroke="black"/>
<rect x="0.763517" width="95.0169" height="95.0169" rx="1.5" transform="matrix(0.763517 -0.645788 0.763517 0.645788 208.577 93.9599)" fill="white" stroke="black"/>
<rect x="0.763517" width="95.0169" height="95.0169" rx="2.5" transform="matrix(0.763517 -0.645788 0.763517 0.645788 208.939 92.6122)" fill="white" stroke="black"/>
<path d="M19.8344 28.6098L33.7514 51.5349L5.91762 51.5349L19.8344 28.6098Z" stroke="#2898FF"/>
<path d="M250.662 260.227L261.366 277.86L239.958 277.86L250.662 260.227Z" stroke="#2898FF"/>
<path d="M36.6892 301.923L55.2312 282.546L62.4351 309.432L36.6892 301.923Z" stroke="#2898FF"/>
<path d="M200.672 19.013L214.934 4.10977L220.475 24.7886L200.672 19.013Z" stroke="black"/>
<path d="M44.7231 53.3917C54.4608 51.4205 74.7596 52.8818 78.0539 74.496C82.1717 101.514 62.9552 95.3876 60.5352 87.0266C56.5569 73.2815 85.8977 64.4839 99.8735 73.2332C110.807 80.0778 113.457 97.7837 112.643 104.741" stroke="black" stroke-dasharray="5 5"/>
<path d="M208.537 31.4646C208.604 36.7945 205.808 47.3491 194.085 46.9283C179.432 46.4024 184.58 36.8839 189.229 36.4427C196.871 35.7175 198.58 52.0625 192.573 58.5566C187.874 63.6369 178.276 63.2667 174.69 62.1434" stroke="black" stroke-dasharray="5 5"/>
<path d="M100.629 247.309C100.696 252.638 97.8997 263.193 86.177 262.772C71.5236 262.246 76.6711 252.728 81.3201 252.287C88.9628 251.561 90.6719 267.907 84.6648 274.401C79.9654 279.481 70.3673 279.111 66.7811 277.987" stroke="black" stroke-dasharray="5 5"/>
</svg>
