<svg width="293" height="317" viewBox="0 0 293 317" fill="none" xmlns="http://www.w3.org/2000/svg">
<path d="M56.0478 255.147C68.2516 256.804 93.2921 253.701 95.8233 228.027C98.9873 195.936 75.6219 204.458 73.2236 214.468C69.2809 230.922 106.258 239.281 122.943 228.027C135.996 219.223 138.009 198.196 136.503 190.06" stroke="black" stroke-dasharray="5 5"/>
<path d="M272.501 28.6357L258.584 51.5607L286.418 51.5607L272.501 28.6357Z" stroke="#2898FF"/>
<path d="M41.6736 260.253L30.9694 277.886L52.3777 277.886L41.6736 260.253Z" stroke="#2898FF"/>
<path d="M255.646 301.948L237.105 282.572L229.901 309.458L255.646 301.948Z" stroke="#2898FF"/>
<path d="M91.6634 19.0388L77.4019 4.13564L71.861 24.8145L91.6634 19.0388Z" stroke="black"/>
<path d="M83.7984 31.4905C83.7312 36.8204 86.5276 47.375 98.2503 46.9542C112.904 46.4282 107.756 36.9098 103.107 36.4686C95.4644 35.7433 93.7553 52.0884 99.7624 58.5824C104.462 63.6628 114.06 63.2925 117.646 62.1692" stroke="black" stroke-dasharray="5 5"/>
<rect x="1.15112" y="191.194" width="183.616" height="25.093" fill="#FFFCFC" stroke="black"/>
<rect x="147.305" y="175.731" width="15.3462" height="16.3953" fill="#FFFEFE" stroke="black"/>
<rect x="117.498" y="183.463" width="10.5385" height="8.66408" fill="white" stroke="black"/>
<path d="M41.4977 204.223C41.4977 207.152 39.1362 209.522 36.2285 209.522C33.3207 209.522 30.9592 207.152 30.9592 204.223C30.9592 201.295 33.3207 198.925 36.2285 198.925C39.1362 198.925 41.4977 201.295 41.4977 204.223Z" fill="white" stroke="black"/>
<path d="M98.2282 204.223C98.2282 207.152 95.8667 209.522 92.9589 209.522C90.0512 209.522 87.6897 207.152 87.6897 204.223C87.6897 201.295 90.0512 198.925 92.9589 198.925C95.8667 198.925 98.2282 201.295 98.2282 204.223Z" fill="white" stroke="black"/>
<path d="M154.959 204.223C154.959 207.152 152.598 209.522 149.69 209.522C146.782 209.522 144.421 207.152 144.421 204.223C144.421 201.295 146.782 198.925 149.69 198.925C152.598 198.925 154.959 201.295 154.959 204.223Z" fill="white" stroke="black"/>
<mask id="path-13-inside-1" fill="white">
<path fill-rule="evenodd" clip-rule="evenodd" d="M37.9625 70.865H50.7549L53.8344 82.0074C56.5606 82.7338 59.1529 83.791 61.5662 85.1336L71.097 79.0378L80.1426 88.1292L74.6026 97.9803C76.0304 100.456 77.159 103.127 77.9385 105.945L88.7766 108.365V121.222L77.9709 124.239C77.2011 127.061 76.0816 129.737 74.6621 132.218L80.645 141.667L71.5995 150.759L61.6631 145.114C59.2223 146.482 56.5971 147.558 53.8342 148.294L50.7547 159.436H37.9624L35.4455 148.053C32.8635 147.292 30.4086 146.231 28.1203 144.912L17.8284 150.759L8.78283 141.667L15.1432 131.622C13.9159 129.374 12.932 126.973 12.2271 124.454L0.651123 121.222V108.365L12.2474 105.775C12.958 103.257 13.9477 100.858 15.1806 98.6116L9.28546 88.1288L18.331 79.0375L28.1953 85.3465C30.4622 84.0473 32.8917 83.0018 35.4456 82.2484L37.9625 70.865ZM45.0694 133.722C55.2745 133.722 63.5473 125.408 63.5473 115.151C63.5473 104.894 55.2745 96.5794 45.0694 96.5794C34.8644 96.5794 26.5916 104.894 26.5916 115.151C26.5916 125.408 34.8644 133.722 45.0694 133.722Z"/>
</mask>
<path fill-rule="evenodd" clip-rule="evenodd" d="M37.9625 70.865H50.7549L53.8344 82.0074C56.5606 82.7338 59.1529 83.791 61.5662 85.1336L71.097 79.0378L80.1426 88.1292L74.6026 97.9803C76.0304 100.456 77.159 103.127 77.9385 105.945L88.7766 108.365V121.222L77.9709 124.239C77.2011 127.061 76.0816 129.737 74.6621 132.218L80.645 141.667L71.5995 150.759L61.6631 145.114C59.2223 146.482 56.5971 147.558 53.8342 148.294L50.7547 159.436H37.9624L35.4455 148.053C32.8635 147.292 30.4086 146.231 28.1203 144.912L17.8284 150.759L8.78283 141.667L15.1432 131.622C13.9159 129.374 12.932 126.973 12.2271 124.454L0.651123 121.222V108.365L12.2474 105.775C12.958 103.257 13.9477 100.858 15.1806 98.6116L9.28546 88.1288L18.331 79.0375L28.1953 85.3465C30.4622 84.0473 32.8917 83.0018 35.4456 82.2484L37.9625 70.865ZM45.0694 133.722C55.2745 133.722 63.5473 125.408 63.5473 115.151C63.5473 104.894 55.2745 96.5794 45.0694 96.5794C34.8644 96.5794 26.5916 104.894 26.5916 115.151C26.5916 125.408 34.8644 133.722 45.0694 133.722Z" fill="white"/>
<path d="M50.7549 70.865L51.7187 70.5986L51.516 69.865H50.7549V70.865ZM37.9625 70.865V69.865H37.1594L36.9861 70.6491L37.9625 70.865ZM53.8344 82.0074L52.8705 82.2738L53.0232 82.8262L53.5769 82.9737L53.8344 82.0074ZM61.5662 85.1336L61.08 86.0075L61.6019 86.2978L62.105 85.976L61.5662 85.1336ZM71.097 79.0378L71.8059 78.3325L71.2374 77.761L70.5582 78.1954L71.097 79.0378ZM80.1426 88.1292L81.0142 88.6193L81.385 87.96L80.8515 87.4238L80.1426 88.1292ZM74.6026 97.9803L73.731 97.4901L73.4518 97.9865L73.7364 98.4799L74.6026 97.9803ZM77.9385 105.945L76.9747 106.211L77.1348 106.79L77.7205 106.921L77.9385 105.945ZM88.7766 108.365H89.7766V107.564L88.9946 107.389L88.7766 108.365ZM88.7766 121.222L89.0455 122.186L89.7766 121.981V121.222H88.7766ZM77.9709 124.239L77.702 123.276L77.1555 123.429L77.0062 123.976L77.9709 124.239ZM74.6621 132.218L73.7941 131.721L73.4951 132.244L73.8172 132.753L74.6621 132.218ZM80.645 141.667L81.3539 142.372L81.9169 141.807L81.4899 141.132L80.645 141.667ZM71.5995 150.759L71.1055 151.628L71.7696 152.005L72.3084 151.464L71.5995 150.759ZM61.6631 145.114L62.157 144.244L61.6663 143.966L61.1741 144.242L61.6631 145.114ZM53.8342 148.294L53.5768 147.328L53.023 147.475L52.8704 148.028L53.8342 148.294ZM50.7547 159.436V160.436H51.5159L51.7186 159.703L50.7547 159.436ZM37.9624 159.436L36.986 159.652L37.1593 160.436H37.9624V159.436ZM35.4455 148.053L36.4219 147.837L36.2945 147.261L35.7284 147.094L35.4455 148.053ZM28.1203 144.912L28.6198 144.046L28.124 143.76L27.6264 144.042L28.1203 144.912ZM17.8284 150.759L17.1195 151.464L17.6582 152.005L18.3223 151.628L17.8284 150.759ZM8.78283 141.667L7.93795 141.132L7.51094 141.807L8.07394 142.373L8.78283 141.667ZM15.1432 131.622L15.9881 132.157L16.3031 131.659L16.0209 131.142L15.1432 131.622ZM12.2271 124.454L13.1901 124.185L13.0384 123.642L12.496 123.491L12.2271 124.454ZM0.651123 121.222H-0.348877V121.981L0.382222 122.186L0.651123 121.222ZM0.651123 108.365L0.433146 107.389L-0.348877 107.564V108.365H0.651123ZM12.2474 105.775L12.4654 106.751L13.0477 106.621L13.2098 106.047L12.2474 105.775ZM15.1806 98.6116L16.0572 99.0928L16.3246 98.6057L16.0523 98.1214L15.1806 98.6116ZM9.28546 88.1288L8.57657 87.4235L8.04307 87.9597L8.41383 88.619L9.28546 88.1288ZM18.331 79.0375L18.8698 78.195L18.1907 77.7607L17.6221 78.3322L18.331 79.0375ZM28.1953 85.3465L27.6565 86.189L28.1669 86.5154L28.6926 86.2141L28.1953 85.3465ZM35.4456 82.2484L35.7285 83.2076L36.2946 83.0406L36.422 82.4643L35.4456 82.2484ZM50.7549 69.865H37.9625V71.865H50.7549V69.865ZM54.7982 81.741L51.7187 70.5986L49.791 71.1314L52.8705 82.2738L54.7982 81.741ZM62.0523 84.2597C59.5681 82.8776 56.8991 81.7891 54.0918 81.0411L53.5769 82.9737C56.2222 83.6785 58.7378 84.7044 61.08 86.0075L62.0523 84.2597ZM70.5582 78.1954L61.0274 84.2912L62.105 85.976L71.6359 79.8802L70.5582 78.1954ZM80.8515 87.4238L71.8059 78.3325L70.3882 79.7431L79.4337 88.8345L80.8515 87.4238ZM75.4743 98.4704L81.0142 88.6193L79.271 87.639L73.731 97.4901L75.4743 98.4704ZM78.9023 105.678C78.0999 102.778 76.9383 100.028 75.4689 97.4806L73.7364 98.4799C75.1225 100.883 76.218 103.476 76.9747 106.211L78.9023 105.678ZM88.9946 107.389L78.1565 104.969L77.7205 106.921L88.5586 109.341L88.9946 107.389ZM89.7766 121.222V108.365H87.7766V121.222H89.7766ZM78.2398 125.202L89.0455 122.186L88.5077 120.259L77.702 123.276L78.2398 125.202ZM75.5301 132.714C76.991 130.161 78.1433 127.407 78.9356 124.502L77.0062 123.976C76.2589 126.715 75.1722 129.313 73.7941 131.721L75.5301 132.714ZM81.4899 141.132L75.507 131.683L73.8172 132.753L79.8002 142.202L81.4899 141.132ZM72.3084 151.464L81.3539 142.372L79.9362 140.962L70.8906 150.053L72.3084 151.464ZM61.1691 145.983L71.1055 151.628L72.0934 149.889L62.157 144.244L61.1691 145.983ZM54.0917 149.261C56.9366 148.503 59.6395 147.395 62.1521 145.986L61.1741 144.242C58.8051 145.57 56.2575 146.614 53.5768 147.328L54.0917 149.261ZM51.7186 159.703L54.7981 148.561L52.8704 148.028L49.7909 159.17L51.7186 159.703ZM37.9624 160.436H50.7547V158.436H37.9624V160.436ZM34.4691 148.269L36.986 159.652L38.9388 159.221L36.4219 147.837L34.4691 148.269ZM27.6209 145.778C29.9764 147.136 32.5039 148.228 35.1626 149.012L35.7284 147.094C33.2231 146.355 30.8408 145.326 28.6198 144.046L27.6209 145.778ZM18.3223 151.628L28.6143 145.781L27.6264 144.042L17.3345 149.889L18.3223 151.628ZM8.07394 142.373L17.1195 151.464L18.5373 150.053L9.49172 140.962L8.07394 142.373ZM14.2984 131.087L7.93795 141.132L9.62772 142.202L15.9881 132.157L14.2984 131.087ZM11.2641 124.724C11.9896 127.316 13.0024 129.787 14.2656 132.101L16.0209 131.142C14.8294 128.96 13.8743 126.629 13.1901 124.185L11.2641 124.724ZM0.382222 122.186L11.9582 125.417L12.496 123.491L0.920024 120.259L0.382222 122.186ZM-0.348877 108.365V121.222H1.65112V108.365H-0.348877ZM12.0294 104.799L0.433146 107.389L0.8691 109.341L12.4654 106.751L12.0294 104.799ZM14.3041 98.1304C13.0351 100.442 12.0164 102.912 11.285 105.504L13.2098 106.047C13.8996 103.603 14.8603 101.273 16.0572 99.0928L14.3041 98.1304ZM8.41383 88.619L14.309 99.1018L16.0523 98.1214L10.1571 87.6387L8.41383 88.619ZM17.6221 78.3322L8.57657 87.4235L9.99435 88.8342L19.0399 79.7428L17.6221 78.3322ZM28.7341 84.5041L18.8698 78.195L17.7922 79.8799L27.6565 86.189L28.7341 84.5041ZM35.1626 81.2893C32.533 82.065 30.0316 83.1415 27.6981 84.4789L28.6926 86.2141C30.8928 84.9531 33.2505 83.9385 35.7285 83.2076L35.1626 81.2893ZM36.9861 70.6491L34.4691 82.0325L36.422 82.4643L38.9389 71.0809L36.9861 70.6491ZM62.5473 115.151C62.5473 124.86 54.7174 132.722 45.0694 132.722V134.722C55.8315 134.722 64.5473 125.955 64.5473 115.151H62.5473ZM45.0694 97.5794C54.7174 97.5794 62.5473 105.442 62.5473 115.151H64.5473C64.5473 104.347 55.8315 95.5794 45.0694 95.5794V97.5794ZM27.5916 115.151C27.5916 105.442 35.4214 97.5794 45.0694 97.5794V95.5794C34.3073 95.5794 25.5916 104.347 25.5916 115.151H27.5916ZM45.0694 132.722C35.4214 132.722 27.5916 124.86 27.5916 115.151H25.5916C25.5916 125.955 34.3073 134.722 45.0694 134.722V132.722Z" fill="black" mask="url(#path-13-inside-1)"/>
<mask id="path-15-inside-2" fill="white">
<path fill-rule="evenodd" clip-rule="evenodd" d="M154.134 71.8788L165.845 77.053L164.202 88.4989C166.407 90.2667 168.357 92.2831 170.029 94.4883L181.195 92.763L185.835 104.744L176.819 111.522C177.135 114.365 177.098 117.267 176.684 120.161L185.636 126.761L180.488 138.531L169.388 136.922C167.553 139.194 165.456 141.192 163.163 142.889L164.856 153.959L152.935 158.623L146.099 149.436C143.317 149.701 140.483 149.624 137.66 149.181L130.379 158.135L118.669 152.961L120.923 141.522C118.864 139.781 117.041 137.817 115.475 135.684L103.712 136.873L99.0718 124.892L108.917 118.268C108.693 115.714 108.754 113.118 109.117 110.527L99.8141 102.886L104.962 91.1162L116.615 93.4356C118.274 91.4182 120.141 89.6216 122.169 88.0643L120.969 76.0835L132.891 71.4196L139.395 81.1852C141.99 80.9127 144.633 80.9383 147.272 81.2816L154.134 71.8788ZM135.471 132.296C144.813 136.424 155.716 132.158 159.823 122.769C163.93 113.379 159.686 102.421 150.344 98.2937C141.001 94.1659 130.099 98.4314 125.992 107.821C121.885 117.21 126.129 128.168 135.471 132.296Z"/>
</mask>
<path fill-rule="evenodd" clip-rule="evenodd" d="M154.134 71.8788L165.845 77.053L164.202 88.4989C166.407 90.2667 168.357 92.2831 170.029 94.4883L181.195 92.763L185.835 104.744L176.819 111.522C177.135 114.365 177.098 117.267 176.684 120.161L185.636 126.761L180.488 138.531L169.388 136.922C167.553 139.194 165.456 141.192 163.163 142.889L164.856 153.959L152.935 158.623L146.099 149.436C143.317 149.701 140.483 149.624 137.66 149.181L130.379 158.135L118.669 152.961L120.923 141.522C118.864 139.781 117.041 137.817 115.475 135.684L103.712 136.873L99.0718 124.892L108.917 118.268C108.693 115.714 108.754 113.118 109.117 110.527L99.8141 102.886L104.962 91.1162L116.615 93.4356C118.274 91.4182 120.141 89.6216 122.169 88.0643L120.969 76.0835L132.891 71.4196L139.395 81.1852C141.99 80.9127 144.633 80.9383 147.272 81.2816L154.134 71.8788ZM135.471 132.296C144.813 136.424 155.716 132.158 159.823 122.769C163.93 113.379 159.686 102.421 150.344 98.2937C141.001 94.1659 130.099 98.4314 125.992 107.821C121.885 117.21 126.129 128.168 135.471 132.296Z" fill="white"/>
<path d="M165.845 77.053L166.833 77.1981L166.942 76.4443L166.246 76.1369L165.845 77.053ZM154.134 71.8788L154.535 70.9626L153.801 70.6382L153.328 71.2861L154.134 71.8788ZM164.202 88.4989L163.214 88.3539L163.133 88.9217L163.58 89.2804L164.202 88.4989ZM170.029 94.4883L169.234 95.093L169.595 95.5689L170.183 95.478L170.029 94.4883ZM181.195 92.763L182.126 92.4025L181.834 91.6506L181.04 91.7733L181.195 92.763ZM185.835 104.744L186.435 105.546L187.04 105.092L186.766 104.384L185.835 104.744ZM176.819 111.522L176.219 110.72L175.763 111.062L175.826 111.63L176.819 111.522ZM176.684 120.161L175.695 120.016L175.61 120.611L176.094 120.967L176.684 120.161ZM185.636 126.761L186.551 127.165L186.872 126.431L186.226 125.955L185.636 126.761ZM180.488 138.531L180.347 139.522L181.098 139.631L181.403 138.935L180.488 138.531ZM169.388 136.922L169.529 135.931L168.968 135.85L168.612 136.291L169.388 136.922ZM163.163 142.889L162.569 142.083L162.084 142.441L162.176 143.039L163.163 142.889ZM164.856 153.959L165.221 154.892L165.964 154.601L165.843 153.81L164.856 153.959ZM152.935 158.623L152.135 159.22L152.591 159.833L153.3 159.556L152.935 158.623ZM146.099 149.436L146.899 148.839L146.562 148.386L146.002 148.439L146.099 149.436ZM137.66 149.181L137.812 148.191L137.246 148.103L136.885 148.547L137.66 149.181ZM130.379 158.135L129.979 159.051L130.675 159.359L131.154 158.769L130.379 158.135ZM118.669 152.961L117.689 152.764L117.534 153.552L118.268 153.877L118.669 152.961ZM120.923 141.522L121.902 141.719L122.016 141.139L121.565 140.757L120.923 141.522ZM115.475 135.684L116.278 135.091L115.94 134.63L115.372 134.687L115.475 135.684ZM103.712 136.873L102.781 137.234L103.057 137.946L103.815 137.869L103.712 136.873ZM99.0718 124.892L98.514 124.06L97.8518 124.505L98.1411 125.252L99.0718 124.892ZM108.917 118.268L109.474 119.1L109.963 118.772L109.911 118.183L108.917 118.268ZM109.117 110.527L110.106 110.669L110.184 110.111L109.749 109.753L109.117 110.527ZM99.8141 102.886L98.8994 102.482L98.5951 103.178L99.1824 103.66L99.8141 102.886ZM104.962 91.1162L105.154 90.134L104.369 89.9776L104.048 90.712L104.962 91.1162ZM116.615 93.4356L116.423 94.4178L117.008 94.5342L117.386 94.0738L116.615 93.4356ZM122.169 88.0643L122.777 88.8599L123.218 88.5214L123.162 87.9668L122.169 88.0643ZM120.969 76.0835L120.604 75.1505L119.9 75.426L119.976 76.1811L120.969 76.0835ZM132.891 71.4196L133.721 70.865L133.274 70.1939L132.526 70.4866L132.891 71.4196ZM139.395 81.1852L138.565 81.7399L138.9 82.2442L139.501 82.1811L139.395 81.1852ZM147.272 81.2816L147.146 82.2747L147.731 82.3507L148.078 81.8743L147.272 81.2816ZM150.344 98.2937L150.744 97.3775L150.744 97.3775L150.344 98.2937ZM166.246 76.1369L154.535 70.9626L153.733 72.795L165.444 77.9692L166.246 76.1369ZM165.191 88.644L166.833 77.1981L164.856 76.908L163.214 88.3539L165.191 88.644ZM170.823 93.8836C169.103 91.6136 167.095 89.5376 164.825 87.7174L163.58 89.2804C165.72 90.9958 167.612 92.9526 169.234 95.093L170.823 93.8836ZM181.04 91.7733L169.874 93.4986L170.183 95.478L181.349 93.7527L181.04 91.7733ZM186.766 104.384L182.126 92.4025L180.264 93.1235L184.904 105.105L186.766 104.384ZM177.419 112.324L186.435 105.546L185.235 103.943L176.219 110.72L177.419 112.324ZM177.672 120.306C178.099 117.327 178.136 114.34 177.811 111.414L175.826 111.63C176.133 114.39 176.098 117.207 175.695 120.016L177.672 120.306ZM186.226 125.955L177.274 119.355L176.094 120.967L185.046 127.567L186.226 125.955ZM181.403 138.935L186.551 127.165L184.721 126.357L179.573 138.127L181.403 138.935ZM169.248 137.913L180.347 139.522L180.628 137.54L169.529 135.931L169.248 137.913ZM163.757 143.695C166.118 141.948 168.276 139.892 170.165 137.553L168.612 136.291C166.831 138.496 164.795 140.435 162.569 142.083L163.757 143.695ZM165.843 153.81L164.15 142.74L162.176 143.039L163.869 154.108L165.843 153.81ZM153.3 159.556L165.221 154.892L164.491 153.026L152.57 157.69L153.3 159.556ZM145.299 150.034L152.135 159.22L153.735 158.025L146.899 148.839L145.299 150.034ZM137.508 150.17C140.415 150.627 143.332 150.706 146.196 150.433L146.002 148.439C143.302 148.697 140.552 148.622 137.812 148.191L137.508 150.17ZM131.154 158.769L138.434 149.815L136.885 148.547L129.605 157.501L131.154 158.769ZM118.268 153.877L129.979 159.051L130.78 157.219L119.069 152.045L118.268 153.877ZM119.943 141.326L117.689 152.764L119.648 153.157L121.902 141.719L119.943 141.326ZM114.671 136.276C116.284 138.472 118.16 140.494 120.28 142.287L121.565 140.757C119.568 139.067 117.799 137.162 116.278 135.091L114.671 136.276ZM103.815 137.869L115.577 136.68L115.372 134.687L103.61 135.877L103.815 137.869ZM98.1411 125.252L102.781 137.234L104.643 136.513L100.003 124.531L98.1411 125.252ZM108.359 117.436L98.514 124.06L99.6297 125.724L109.474 119.1L108.359 117.436ZM108.128 110.385C107.754 113.052 107.692 115.724 107.922 118.353L109.911 118.183C109.694 115.704 109.753 113.184 110.106 110.669L108.128 110.385ZM99.1824 103.66L108.485 111.301L109.749 109.753L100.446 102.112L99.1824 103.66ZM104.048 90.712L98.8994 102.482L100.729 103.29L105.877 91.5203L104.048 90.712ZM116.807 92.4535L105.154 90.134L104.77 92.0984L116.423 94.4178L116.807 92.4535ZM121.56 87.2687C119.473 88.8716 117.551 90.7208 115.844 92.7975L117.386 94.0738C118.996 92.1156 120.808 90.3717 122.777 88.8599L121.56 87.2687ZM119.976 76.1811L121.175 88.1618L123.162 87.9668L121.963 75.986L119.976 76.1811ZM132.526 70.4866L120.604 75.1505L121.334 77.0165L133.256 72.3526L132.526 70.4866ZM140.225 80.6305L133.721 70.865L132.061 71.9743L138.565 81.7399L140.225 80.6305ZM147.398 80.2886C144.68 79.9351 141.96 79.9088 139.288 80.1893L139.501 82.1811C142.02 81.9167 144.585 81.9415 147.146 82.2747L147.398 80.2886ZM153.328 71.2861L146.466 80.6889L148.078 81.8743L154.941 72.4715L153.328 71.2861ZM158.908 122.365C155.021 131.251 144.706 135.283 135.872 131.38L135.07 133.212C144.921 137.564 156.41 133.065 160.737 123.173L158.908 122.365ZM149.943 99.2099C158.777 103.113 162.795 113.478 158.908 122.365L160.737 123.173C165.064 113.28 160.595 101.73 150.744 97.3775L149.943 99.2099ZM126.906 108.225C130.793 99.3386 141.109 95.3066 149.943 99.2099L150.744 97.3775C140.894 93.0252 129.404 97.5242 125.077 107.417L126.906 108.225ZM135.872 131.38C127.038 127.476 123.02 117.111 126.906 108.225L125.077 107.417C120.75 117.309 125.22 128.86 135.07 133.212L135.872 131.38Z" fill="black" mask="url(#path-15-inside-2)"/>
<path d="M191.707 247.334C191.64 252.664 194.436 263.219 206.159 262.798C220.812 262.272 215.665 252.754 211.016 252.313C203.373 251.587 201.664 267.932 207.671 274.426C212.37 279.507 221.968 279.137 225.555 278.013" stroke="black" stroke-dasharray="5 5"/>
</svg>
